<?xml version="1.0" encoding="UTF-8"?>
<svg width="360px" height="540px" viewBox="0 0 360 540" version="1.1" xmlns="http://www.w3.org/2000/svg" xmlns:xlink="http://www.w3.org/1999/xlink">
    <!-- Generator: Sketch 55.2 (78181) - https://sketchapp.com -->
    <title>5-C</title>
    <desc>Created with Sketch.</desc>
    <g id="Page-1" stroke="none" stroke-width="1" fill="none" fill-rule="evenodd">
        <g id="English_pattern_playing_cards_deck" transform="translate(-1560.000000, -1.000000)" fill-rule="nonzero">
            <g id="5-C" transform="translate(1560.000000, 0.637820)">
                <rect id="rect6472-8" stroke="#000000" stroke-width="0.99999976" fill="#FFFFFF" x="0.5" y="0.86218" width="359" height="539" rx="29.944447"></rect>
                <path d="M20,30.36208 L20,45.36208 L20,50.36208 L30,50.36208 C32.77,50.36208 35.00001,52.59207 35.00001,55.36212 L35.00001,70.36208 C35.00001,73.13209 32.77,75.36208 30,75.36208 C27.23,75.36208 25,73.13209 25,70.36208 L25,65.36208 L20,65.36208 L20,70.36208 C20,75.90208 24.46,80.36208 30,80.36208 C35.54001,80.36208 40,75.90208 40,70.36208 L40,55.36212 C40,49.82207 35.54001,45.36208 30,45.36208 L25,45.36208 L25,35.36208 L30,35.36208 L40,35.36208 L40,30.36208 L30,30.36208 L25,30.36208 L20,30.36208 Z" id="rect3163-6-0-0-2-6" fill="#000000"></path>
                <path d="M340,510.3622 L340,495.3622 L340,490.3622 L330,490.3622 C327.23,490.3622 325,488.1322 325,485.36214 L325,470.36212 C325,467.59212 327.23,465.36212 330,465.36212 C332.77,465.36212 335,467.59212 335,470.36212 L335,475.36212 L340,475.36212 L340,470.36212 C340,464.82212 335.54,460.36212 330,460.36212 C324.45999,460.36212 320,464.82212 320,470.36212 L320,485.36214 C320,490.9022 324.45999,495.3622 330,495.3622 L335,495.3622 L335,505.3622 L330,505.3622 L320,505.3622 L320,510.3622 L330,510.3622 L335,510.3622 L340,510.3622 Z" id="rect3163-6-0-0-2-4-7" fill="#000000"></path>
                <g id="g3008" transform="translate(60.000000, 45.362180)" fill="#000000">
                    <path d="M35.007873,55.984252 C36,59.988189 40.003936,70.015748 46.984251,70.015748 C55.984251,70.015748 59.988188,62.007874 59.988188,52.015748 C59.988188,45 57.437006,40.393701 54.992125,35.007874 C52.405511,29.267717 48.614172,24.129921 45,18.992126 C40.358267,12.401575 30.01181,0 30.01181,0 C30.01181,0 19.629921,12.401575 14.988189,18.992126 C11.374015,24.129921 7.582677,29.267717 4.9960629,35.007874 C2.5866141,40.393701 0,45 0,52.015748 C0,62.007874 4.0039369,70.015748 13.003937,70.015748 C19.984251,70.015748 23.988188,59.988189 25.015747,55.984252 C26.007873,54.992126 26.007873,55.984252 26.007873,57.011811 C25.015747,64.984252 25.015747,67.003937 23.988188,72.992126 C22.996062,79.015748 19.984251,90 19.984251,90 C25.015747,88.015748 35.007873,88.015748 40.003936,90 C40.003936,90 36.992125,79.015748 36,72.992126 C35.007873,67.003937 35.007873,64.984252 34.015747,57.011811 C34.015747,55.984252 34.015747,54.992126 35.007873,55.984252 Z" id="path3010"></path>
                </g>
                <g id="g3022" transform="translate(240.000000, 45.362180)" fill="#000000">
                    <path d="M35.007873,55.984252 C36,59.988189 40.003936,70.015748 46.984251,70.015748 C55.984251,70.015748 59.988188,62.007874 59.988188,52.015748 C59.988188,45 57.437006,40.393701 54.992125,35.007874 C52.405511,29.267717 48.614172,24.129921 45,18.992126 C40.358267,12.401575 30.01181,0 30.01181,0 C30.01181,0 19.629921,12.401575 14.988189,18.992126 C11.374015,24.129921 7.582677,29.267717 4.9960629,35.007874 C2.5866141,40.393701 0,45 0,52.015748 C0,62.007874 4.0039369,70.015748 13.003937,70.015748 C19.984251,70.015748 23.988188,59.988189 25.015747,55.984252 C26.007873,54.992126 26.007873,55.984252 26.007873,57.011811 C25.015747,64.984252 25.015747,67.003937 23.988188,72.992126 C22.996062,79.015748 19.984251,90 19.984251,90 C25.015747,88.015748 35.007873,88.015748 40.003936,90 C40.003936,90 36.992125,79.015748 36,72.992126 C35.007873,67.003937 35.007873,64.984252 34.015747,57.011811 C34.015747,55.984252 34.015747,54.992126 35.007873,55.984252 Z" id="path3024"></path>
                </g>
                <g id="g3036" transform="translate(150.000000, 225.362180)" fill="#000000">
                    <path d="M35.007873,55.984252 C36,59.988189 40.003936,70.015748 46.984251,70.015748 C55.984251,70.015748 59.988188,62.007874 59.988188,52.015748 C59.988188,45 57.437006,40.393701 54.992125,35.007874 C52.405511,29.267717 48.614172,24.129921 45,18.992126 C40.358267,12.401575 30.01181,0 30.01181,0 C30.01181,0 19.629921,12.401575 14.988189,18.992126 C11.374015,24.129921 7.582677,29.267717 4.9960629,35.007874 C2.5866141,40.393701 0,45 0,52.015748 C0,62.007874 4.0039369,70.015748 13.003937,70.015748 C19.984251,70.015748 23.988188,59.988189 25.015747,55.984252 C26.007873,54.992126 26.007873,55.984252 26.007873,57.011811 C25.015747,64.984252 25.015747,67.003937 23.988188,72.992126 C22.996062,79.015748 19.984251,90 19.984251,90 C25.015747,88.015748 35.007873,88.015748 40.003936,90 C40.003936,90 36.992125,79.015748 36,72.992126 C35.007873,67.003937 35.007873,64.984252 34.015747,57.011811 C34.015747,55.984252 34.015747,54.992126 35.007873,55.984252 Z" id="path3038"></path>
                </g>
                <g id="g3050" transform="translate(90.000000, 450.362200) scale(-1, 1) rotate(-180.000000) translate(-90.000000, -450.362200) translate(60.000000, 405.362200)" fill="#000000">
                    <path d="M35.007873,55.984252 C36,59.988189 40.003936,70.015748 46.984251,70.015748 C55.984251,70.015748 59.988188,62.007874 59.988188,52.015748 C59.988188,45 57.437006,40.393701 54.992125,35.007874 C52.405511,29.267717 48.614172,24.129921 45,18.992126 C40.358267,12.401575 30.01181,0 30.01181,0 C30.01181,0 19.629921,12.401575 14.988189,18.992126 C11.374015,24.129921 7.582677,29.267717 4.9960629,35.007874 C2.5866141,40.393701 0,45 0,52.015748 C0,62.007874 4.0039369,70.015748 13.003937,70.015748 C19.984251,70.015748 23.988188,59.988189 25.015747,55.984252 C26.007873,54.992126 26.007873,55.984252 26.007873,57.011811 C25.015747,64.984252 25.015747,67.003937 23.988188,72.992126 C22.996062,79.015748 19.984251,90 19.984251,90 C25.015747,88.015748 35.007873,88.015748 40.003936,90 C40.003936,90 36.992125,79.015748 36,72.992126 C35.007873,67.003937 35.007873,64.984252 34.015747,57.011811 C34.015747,55.984252 34.015747,54.992126 35.007873,55.984252 Z" id="path3052"></path>
                </g>
                <g id="g3064" transform="translate(270.000000, 450.362200) scale(-1, 1) rotate(-180.000000) translate(-270.000000, -450.362200) translate(240.000000, 405.362200)" fill="#000000">
                    <path d="M35.007873,55.984252 C36,59.988189 40.003936,70.015748 46.984251,70.015748 C55.984251,70.015748 59.988188,62.007874 59.988188,52.015748 C59.988188,45 57.437006,40.393701 54.992125,35.007874 C52.405511,29.267717 48.614172,24.129921 45,18.992126 C40.358267,12.401575 30.01181,0 30.01181,0 C30.01181,0 19.629921,12.401575 14.988189,18.992126 C11.374015,24.129921 7.582677,29.267717 4.9960629,35.007874 C2.5866141,40.393701 0,45 0,52.015748 C0,62.007874 4.0039369,70.015748 13.003937,70.015748 C19.984251,70.015748 23.988188,59.988189 25.015747,55.984252 C26.007873,54.992126 26.007873,55.984252 26.007873,57.011811 C25.015747,64.984252 25.015747,67.003937 23.988188,72.992126 C22.996062,79.015748 19.984251,90 19.984251,90 C25.015747,88.015748 35.007873,88.015748 40.003936,90 C40.003936,90 36.992125,79.015748 36,72.992126 C35.007873,67.003937 35.007873,64.984252 34.015747,57.011811 C34.015747,55.984252 34.015747,54.992126 35.007873,55.984252 Z" id="path3066"></path>
                </g>
                <path d="M32.5,118.36218 C33,120.36218 35,125.36218 38.5,125.36218 C43,125.36218 45,121.36218 45,116.36218 C45,112.86218 43.710525,110.55604 42.5,107.86218 C41.21106,104.99382 39.31034,102.43348 37.5,99.86218 C35.17735,96.56323 30,90.36218 30,90.36218 C30,90.36218 24.82265,96.56323 22.5,99.86218 C20.68966,102.43348 18.78894,104.99382 17.5,107.86218 C16.289475,110.55604 15,112.86218 15,116.36218 C15,121.36218 17,125.36218 21.5,125.36218 C25,125.36218 27,120.36218 27.5,118.36218 C28,117.86218 28,118.36218 28,118.86218 C27.5,122.86218 27.5,123.86218 27,126.86218 C26.5,129.86218 25,135.36218 25,135.36218 C27.5,134.36218 32.5,134.36218 35,135.36218 C35,135.36218 33.5,129.86218 33,126.86218 C32.5,123.86218 32.5,122.86218 32,118.86218 C32,118.36218 32,117.86218 32.5,118.36218 Z" id="path3037-7-4-72" fill="#000000"></path>
                <path d="M332.5,422.36218 C333,420.36218 335,415.36218 338.5,415.36218 C343,415.36218 345,419.36218 345,424.36218 C345,427.86218 343.71053,430.16832 342.5,432.86218 C341.21106,435.73054 339.31034,438.29088 337.5,440.86218 C335.17735,444.16113 330,450.36218 330,450.36218 C330,450.36218 324.82265,444.16113 322.5,440.86218 C320.68966,438.29088 318.78894,435.73054 317.5,432.86218 C316.28947,430.16832 315,427.86218 315,424.36218 C315,419.36218 317,415.36218 321.5,415.36218 C325,415.36218 327,420.36218 327.5,422.36218 C328,422.86218 328,422.36218 328,421.86218 C327.5,417.86218 327.5,416.86218 327,413.86218 C326.5,410.86218 325,405.36218 325,405.36218 C327.5,406.36218 332.5,406.36218 335,405.36218 C335,405.36218 333.5,410.86218 333,413.86218 C332.5,416.86218 332.5,417.86218 332,421.86218 C332,422.36218 332,422.86218 332.5,422.36218 Z" id="path3037-7-4-1-2" fill="#000000"></path>
            </g>
        </g>
    </g>
</svg>