<svg width="360" height="540" xmlns="http://www.w3.org/2000/svg"><g transform="translate(0 -.362)" fill-rule="nonzero" fill="none"><rect stroke="#000" fill="#FFF" x=".5" y=".862" width="359" height="539" rx="29.944"/><path d="M27.5 30.362l-9 50h5l2.344-13h8.312l2.344 13h5l-9-50h-5zM30 44.268l3.25 18.094h-6.5L30 44.268zM327.5 510.362l-9-50h5l2.344 13h8.312l2.344-13h5l-9 50h-5zm2.5-13.906l3.25-18.094h-6.5l3.25 18.094zM185 281.362c2 4 7 10 12 10 9 0 13-8 13-18s-4-19-13-19c-5 0-8 5-11 8-1 1-2 0-1-1 3-3 8-11 8-18 0-8-5-18-13-18s-13 10-13 18c0 7 5 15 8 18 1 1 0 2-1 1-3-3-6-8-11-8-9 0-13 9-13 19s4 18 13 18c5 0 10-6 12-10 1-1 1 0 1 1-1 8-1 10-2 16s-4 17-4 17c5-2 15-2 20 0 0 0-3-11-4-17s-1-8-2-16c0-1 0-2 1-1zM32.5 118.362c1 2 3.5 5 6 5 4.5 0 6.5-4 6.5-9s-2-9.5-6.5-9.5c-2.5 0-4 2.5-5.5 4-.5.5-1 0-.5-.5 1.5-1.5 4-5.5 4-9 0-4-2.5-9-6.5-9s-6.5 5-6.5 9c0 3.5 2.5 7.5 4 9 .5.5 0 1-.5.5-1.5-1.5-3-4-5.5-4-4.5 0-6.5 4.5-6.5 9.5s2 9 6.5 9c2.5 0 5-3 6-5 .5-.5.5 0 .5.5-.5 4-.5 5-1 8s-2 8.5-2 8.5c2.5-1 7.5-1 10 0 0 0-1.5-5.5-2-8.5s-.5-4-1-8c0-.5 0-1 .5-.5zM332.5 422.362c1-2 3.5-5 6-5 4.5 0 6.5 4 6.5 9s-2 9.5-6.5 9.5c-2.5 0-4-2.5-5.5-4-.5-.5-1 0-.5.5 1.5 1.5 4 5.5 4 9 0 4-2.5 9-6.5 9s-6.5-5-6.5-9c0-3.5 2.5-7.5 4-9 .5-.5 0-1-.5-.5-1.5 1.5-3 4-5.5 4-4.5 0-6.5-4.5-6.5-9.5s2-9 6.5-9c2.5 0 5 3 6 5 .5.5.5 0 .5-.5-.5-4-.5-5-1-8s-2-8.5-2-8.5c2.5 1 7.5 1 10 0 0 0-1.5 5.5-2 8.5s-.5 4-1 8c0 .5 0 1 .5.5z" fill="#000"/></g></svg>