<svg width="362" height="543" xmlns="http://www.w3.org/2000/svg"><g fill="none" fill-rule="evenodd"><rect x=".565" y=".217" width="359" height="539" rx="29.944" transform="translate(.866 1.995)" fill="#FFF" fill-rule="nonzero" stroke="#000" stroke-width="2.5"/><path fill="#FFF" d="M260.598 103.553V19.508h-79.975v84.045z"/><path fill="#190C80" d="M340.53 103.553V19.508h-79.932v84.045h79.931z"/><path fill="#FFF" d="M340.53 187.598v-84.045h-79.932v84.045h79.931z"/><path fill="#190C80" d="M260.598 187.598v-84.045h-79.975v84.045z"/><path fill="#FFF" d="M100.69 271.64v-84.042H20.757v84.042z"/><path fill="#190C80" d="M180.623 271.64v-84.042h-79.934v84.042z"/><path fill="#FFF" d="M260.598 271.64v-84.042h-79.975v84.042z"/><path fill="#190C80" d="M340.53 271.64v-84.042h-79.932v84.042h79.931z"/><path fill="#FFF" d="M180.623 187.598v-84.045h-79.934v84.045z"/><path fill="#190C80" d="M100.69 187.598v-84.045H20.757v84.045z"/><path fill="#FFF" d="M100.69 103.553V19.508H20.757v84.045z"/><path fill="#190C80" d="M180.623 103.553V19.508h-79.934v84.045z"/><path fill="#FFF" d="M180.623 523.819v-84.067h-79.934v84.067z"/><path fill="#190C80" d="M100.69 523.819v-84.067H20.757v84.067z"/><path fill="#FFF" d="M100.69 439.752v-84.045H20.757v84.045z"/><path fill="#190C80" d="M180.623 439.752v-84.045h-79.934v84.045z"/><path fill="#FFF" d="M340.53 355.707V271.64h-79.932v84.067h79.931z"/><path fill="#190C80" d="M260.598 355.707V271.64h-79.975v84.067z"/><path fill="#FFF" d="M180.623 355.707V271.64h-79.934v84.067z"/><path fill="#190C80" d="M100.69 355.707V271.64H20.757v84.067z"/><path fill="#FFF" d="M260.598 439.752v-84.045h-79.975v84.045z"/><path fill="#190C80" d="M340.53 439.752v-84.045h-79.932v84.045h79.931z"/><path fill="#FFF" d="M340.53 523.819v-84.067h-79.932v84.067h79.931z"/><path fill="#190C80" d="M260.598 523.819v-84.067h-79.975v84.067zM250.592 19.508l10.006 10.474-69.97 73.57-10.005-10.52 69.969-73.524z"/><path fill="#FFF" d="M330.525 19.508l10.004 10.474-69.924 73.57-10.007-10.52 69.927-73.524"/><path fill="#190C80" d="M270.605 103.553l-10.007 10.52 69.927 73.525 10.004-10.523z"/><path fill="#FFF" d="M190.627 103.553l-10.004 10.52 69.969 73.525 10.006-10.523-69.97-73.522"/><path fill="#190C80" d="M90.686 187.598l10.003 10.494-69.947 73.548-9.984-10.472 69.928-73.57z"/><path fill="#FFF" d="M170.661 187.598l9.962 10.494-69.928 73.548-10.006-10.472 69.972-73.57"/><path fill="#190C80" d="M250.592 187.598l10.006 10.494-69.97 73.548-10.005-10.472z"/><path fill="#FFF" d="M330.525 187.598l10.004 10.494-69.924 73.548-10.007-10.472 69.927-73.57"/><path fill="#190C80" d="M110.695 103.553l-10.006 10.52 69.972 73.525 9.962-10.523-69.928-73.522z"/><path fill="#FFF" d="M30.742 103.553l-9.984 10.52 69.928 73.525 10.003-10.523-69.947-73.522"/><path fill="#190C80" d="M90.686 19.508l10.003 10.474-69.947 73.57-9.984-10.52 69.928-73.524z"/><path fill="#FFF" d="M170.661 19.508l9.962 10.474-69.928 73.57-10.006-10.52 69.972-73.524"/><path fill="#190C80" d="M110.695 523.819l-10.006-10.521 69.972-73.546 9.962 10.519-69.928 73.548z"/><path fill="#FFF" d="M30.742 523.819l-9.984-10.521 69.928-73.546 10.003 10.519-69.947 73.548"/><path fill="#190C80" d="M90.686 439.752l10.003-10.521-69.947-73.524-9.984 10.521 69.928 73.524z"/><path fill="#FFF" d="M170.661 439.752l9.962-10.521-69.928-73.524-10.006 10.521 69.972 73.524"/><path fill="#190C80" d="M270.605 355.707l-10.007-10.497 69.927-73.57 10.004 10.521z"/><path fill="#FFF" d="M190.627 355.707l-10.004-10.497 69.969-73.57 10.006 10.521-69.97 73.546"/><path fill="#190C80" d="M110.695 355.707L100.69 345.21l69.972-73.57 9.962 10.521-69.928 73.546z"/><path fill="#FFF" d="M30.742 355.707l-9.984-10.497 69.928-73.57 10.003 10.521-69.947 73.546"/><path fill="#190C80" d="M250.592 439.752l10.006-10.521-69.97-73.524-10.005 10.521 69.969 73.524z"/><path fill="#FFF" d="M330.525 439.752l10.004-10.521-69.924-73.524-10.007 10.521 69.927 73.524"/><path fill="#190C80" d="M270.605 523.819l-10.007-10.521 69.927-73.546 10.004 10.519z"/><path fill="#FFF" d="M190.627 523.819l-10.004-10.521 69.969-73.546 10.006 10.519-69.97 73.548"/><path fill="#190C80" d="M190.627 19.508l-10.004 10.474 69.969 73.57 10.006-10.52-69.97-73.524z"/><path fill="#190C80" d="M220.599 19.508L180.623 61.54l39.976 42.012 40-42.012z"/><path fill="#FFF" d="M270.605 19.508l-10.007 10.474 69.927 73.57 10.004-10.52-69.924-73.524"/><path fill="#FFF" d="M300.532 19.508L260.598 61.54l39.934 42.012L340.53 61.54l-39.997-42.033"/><path fill="#190C80" d="M330.525 103.553l10.004 10.52-69.924 73.525-10.007-10.523z"/><path fill="#190C80" d="M300.532 103.553l39.997 42.033-39.997 42.012-39.934-42.012z"/><path fill="#FFF" d="M250.592 103.553l10.006 10.52-69.97 73.525-10.005-10.523 69.969-73.522"/><path fill="#FFF" d="M220.599 103.553l40 42.033-40 42.012-39.976-42.012 39.976-42.033"/><path fill="#190C80" d="M30.742 187.598l-9.984 10.494 69.928 73.548 10.003-10.472z"/><path fill="#190C80" d="M60.758 187.598l-40 42.03 40 42.012 39.931-42.011z"/><path fill="#FFF" d="M110.695 187.598l-10.006 10.494 69.972 73.548 9.962-10.472-69.928-73.57"/><path fill="#FFF" d="M140.69 187.598l-40 42.03 40 42.012 39.933-42.011-39.933-42.031"/><path fill="#190C80" d="M190.627 187.598l-10.004 10.494 69.969 73.548 10.006-10.472z"/><path fill="#190C80" d="M220.599 187.598l-39.976 42.03 39.976 42.012 40-42.011z"/><path fill="#FFF" d="M270.605 187.598l-10.007 10.494 69.927 73.548 10.004-10.472-69.924-73.57"/><path fill="#FFF" d="M300.532 187.598l-39.934 42.03 39.934 42.012 39.997-42.011-39.997-42.031"/><path fill="#190C80" d="M170.661 103.553l9.962 10.52-69.928 73.525-10.006-10.523 69.972-73.522z"/><path fill="#190C80" d="M140.69 103.553l39.933 42.033-39.933 42.012-40-42.012z"/><path fill="#FFF" d="M90.686 103.553l10.003 10.52-69.947 73.525-9.984-10.523 69.928-73.522"/><path fill="#FFF" d="M60.758 103.553l39.931 42.033-39.931 42.012-40-42.012 40-42.033"/><path fill="#190C80" d="M30.742 19.508l-9.984 10.474 69.928 73.57 10.003-10.52-69.947-73.524z"/><path fill="#190C80" d="M60.758 19.508l-40 42.033 40 42.012 39.931-42.012z"/><path fill="#FFF" d="M110.695 19.508L100.69 29.982l69.972 73.57 9.962-10.52-69.928-73.524"/><path fill="#FFF" d="M140.69 19.508l-40 42.033 40 42.012 39.933-42.012-39.933-42.033"/><path fill="#190C80" d="M170.661 523.819l9.962-10.521-69.928-73.546-10.006 10.519 69.972 73.548z"/><path fill="#190C80" d="M140.69 523.819l39.933-42.058-39.933-42.01-40 42.01z"/><path fill="#FFF" d="M90.686 523.819l10.003-10.521-69.947-73.546-9.984 10.519 69.928 73.548"/><path fill="#FFF" d="M60.758 523.819l39.931-42.058-39.931-42.01-40 42.01 40 42.058"/><path fill="#190C80" d="M60.758 439.752l-40-42.012 40-42.033 39.931 42.033z"/><path fill="#FFF" d="M110.695 439.752L100.69 429.23l69.972-73.524 9.962 10.521-69.928 73.524"/><path fill="#FFF" d="M140.69 439.752l-40-42.012 40-42.033 39.933 42.033-39.933 42.012"/><path fill="#190C80" d="M330.525 355.707l10.004-10.497-69.924-73.57-10.007 10.521z"/><path fill="#190C80" d="M300.532 355.707l39.997-42.033-39.997-42.034-39.934 42.034z"/><path fill="#FFF" d="M250.592 355.707l10.006-10.497-69.97-73.57-10.005 10.521 69.969 73.546"/><path fill="#FFF" d="M220.599 355.707l40-42.033-40-42.034-39.976 42.034 39.976 42.033"/><path fill="#190C80" d="M170.661 355.707l9.962-10.497-69.928-73.57-10.006 10.521 69.972 73.546z"/><path fill="#190C80" d="M140.69 355.707l39.933-42.033-39.933-42.034-40 42.034z"/><path fill="#FFF" d="M90.686 355.707l10.003-10.497-69.947-73.57-9.984 10.521 69.928 73.546"/><path fill="#FFF" d="M60.758 355.707l39.931-42.033-39.931-42.034-40 42.034 40 42.033"/><path fill="#190C80" d="M190.627 439.752l-10.004-10.521 69.969-73.524 10.006 10.521-69.97 73.524z"/><path fill="#190C80" d="M220.599 439.752l-39.976-42.012 39.976-42.033 40 42.033z"/><path fill="#FFF" d="M270.605 439.752l-10.007-10.521 69.927-73.524 10.004 10.521-69.924 73.524"/><path fill="#FFF" d="M300.532 439.752l-39.934-42.012 39.934-42.033 39.997 42.033-39.997 42.012"/><path fill="#190C80" d="M330.525 523.819l10.004-10.521-69.924-73.546-10.007 10.519z"/><path fill="#190C80" d="M300.532 523.819l39.997-42.058-39.997-42.01-39.934 42.01z"/><path fill="#FFF" d="M250.592 523.819l10.006-10.521-69.97-73.546-10.005 10.519 69.969 73.548"/><path fill="#FFF" d="M220.599 523.819l40-42.058-40-42.01-39.976 42.01 39.976 42.058M240.61 82.513V39.199h-40v43.314h40z"/><path fill="#190C80" d="M320.541 82.513V39.199h-39.955v43.314zM220.599 45.762l-14.985 15.78 14.985 15.71 15.008-15.71-15.008-15.78"/><path fill="#FFF" d="M300.532 45.762l-14.963 15.78 14.963 15.71 15.006-15.71-15.006-15.78M320.541 166.58v-43.314h-39.955v43.314z"/><path fill="#190C80" d="M240.61 166.58v-43.314h-40v43.314h40zM300.532 129.829l15.006 15.757-15.006 15.733-14.963-15.733 14.963-15.757"/><path fill="#FFF" d="M220.599 129.829l15.008 15.757-15.008 15.733-14.985-15.733L220.6 129.83M80.702 250.647v-43.338H40.746v43.338z"/><path fill="#190C80" d="M160.657 250.647v-43.338H120.68v43.338zM60.758 213.85l-15.01 15.779 15.01 15.78 14.941-15.78-14.941-15.78"/><path fill="#FFF" d="M140.69 213.85l-15.008 15.779 15.008 15.78 14.964-15.78-14.964-15.78M240.61 250.647v-43.338h-40v43.338h40z"/><path fill="#190C80" d="M320.541 250.647v-43.338h-39.955v43.338zM220.599 213.85l-14.985 15.779 14.985 15.78 15.008-15.78-15.008-15.78"/><path fill="#FFF" d="M300.532 213.85l-14.963 15.779 14.963 15.78 15.006-15.78-15.006-15.78M160.657 166.58v-43.314H120.68v43.314z"/><path fill="#190C80" d="M80.702 166.58v-43.314H40.746v43.314zM140.69 129.829l14.964 15.757-14.964 15.733-15.008-15.733 15.008-15.757"/><path fill="#FFF" d="M60.758 129.829l14.941 15.757-14.941 15.733-15.01-15.733 15.01-15.757M80.702 82.513V39.199H40.746v43.314z"/><path fill="#190C80" d="M160.657 82.513V39.199H120.68v43.314zM60.758 45.762l-15.01 15.78 15.01 15.71 14.941-15.71-14.941-15.78"/><path fill="#FFF" d="M140.69 45.762l-15.008 15.78 15.008 15.71 14.964-15.71-14.964-15.78M160.657 504.082v-43.29H120.68v43.29z"/><path fill="#190C80" d="M80.702 504.082v-43.29H40.746v43.29zM140.69 497.541l14.964-15.78-14.964-15.732-15.008 15.732 15.008 15.78"/><path fill="#FFF" d="M60.758 497.541l14.941-15.78-14.941-15.732-15.01 15.732 15.01 15.78"/><path fill="#190C80" d="M160.657 420.061v-43.336H120.68v43.336z"/><path fill="#FFF" d="M140.69 413.497l-15.008-15.757 15.008-15.778 14.964 15.778-14.964 15.757M320.541 335.994v-43.358h-39.955v43.358h39.955z"/><path fill="#190C80" d="M240.61 335.994v-43.358h-40v43.358h40zM300.532 329.452l15.006-15.778-15.006-15.779-14.963 15.779 14.963 15.778"/><path fill="#FFF" d="M220.599 329.452l15.008-15.778-15.008-15.779-14.985 15.779 14.985 15.778M160.657 335.994v-43.358H120.68v43.358h39.977z"/><path fill="#190C80" d="M80.702 335.994v-43.358H40.746v43.358h39.956zM140.69 329.452l14.964-15.778-14.964-15.779-15.008 15.779 15.008 15.778"/><path fill="#FFF" d="M60.758 329.452l14.941-15.778-14.941-15.779-15.01 15.779 15.01 15.778M240.61 420.061v-43.336h-40v43.336h40z"/><path fill="#190C80" d="M320.541 420.061v-43.336h-39.955v43.336zM220.599 413.497l-14.985-15.757 14.985-15.778 15.008 15.778-15.008 15.757"/><path fill="#FFF" d="M300.532 413.497L285.57 397.74l14.963-15.778 15.006 15.778-15.006 15.757M320.541 504.082v-43.29h-39.955v43.29z"/><path fill="#190C80" d="M240.61 504.082v-43.29h-40v43.29h40zM300.532 497.541l15.006-15.78-15.006-15.732-14.963 15.732 14.963 15.78"/><path fill="#FFF" d="M220.599 497.541l15.008-15.78-15.008-15.732-14.985 15.732 14.985 15.78"/><path fill="#190C80" d="M30.742 439.752l-9.984-10.521 69.928-73.524 10.003 10.521-69.947 73.524z"/><path fill="#FFF" d="M80.702 420.061v-43.336H40.746v43.336z"/><path fill="#190C80" d="M60.758 413.497l-15.01-15.757 15.01-15.778 14.941 15.778-14.941 15.757"/><g stroke="#1E0C7D" stroke-width="6.887"><rect x=".554" y=".214" width="351.747" height="531.773" rx="25.482" transform="translate(4.217 5.563)"/></g></g></svg>