<svg width="360" height="540" xmlns="http://www.w3.org/2000/svg"><g transform="translate(0 -.362)" fill="none" fill-rule="evenodd"><rect stroke="#000" fill="#FFF" fill-rule="nonzero" x=".5" y=".862" width="359" height="539" rx="29.944"/><path d="M30 30.362v5h5v35a5 5 0 01-10 0v-5h-5v5c0 5.523 4.477 10 10 10s10-4.477 10-10v-40H30zM330 510.362v-5h-5v-35a5 5 0 0110 0v5h5v-5c0-5.523-4.477-10-10-10s-10 4.477-10 10v40h10z" fill="#F55" fill-rule="nonzero"/><path stroke="#55A" stroke-width="2" d="M30 150.362v360h270"/><path d="M292.458 165.372c-5.222 4.598-9.395 9.447-13.523 14.657-5.262 6.64-10.225 13.59-14.246 21.045-3.748 6.949-6.76 14.327-9.096 21.868-2.128 6.87-3.585 13.974-4.428 21.116-.748 6.343-.865 12.776-.54 19.155.273 5.346 1.353 10.621 2.085 15.925.838 6.07 1.017 12.283 2.642 18.191 1.852 6.733 4.84 13.136 8.016 19.355 2.532 4.958 5.917 9 8.755 14.222l6.13-5.45c-3.405-6.244-7.125-12.347-9.876-18.902-2.424-5.777-4.274-11.802-5.79-17.88-1.73-6.936-3.188-13.99-3.746-21.116-.462-5.887-.226-11.833.34-17.71.696-7.227 1.854-14.448 3.747-21.457 1.704-6.311 4.08-12.451 6.811-18.391 2.93-6.372 6.202-12.642 10.218-18.391 3.78-5.411 7.606-10.502 12.942-14.986-.455-3.633-.668-7.107-.44-11.251z" fill="#F55" fill-rule="nonzero"/><path d="M297.338 194.94c-4.007 6.01-8.787 11.572-12.02 18.032-3.637 7.266-6.262 15.073-8.132 22.98-1.53 6.473-2.317 13.15-2.475 19.8-.183 7.68.307 15.438 1.768 22.98 1.34 6.917 3.72 13.624 6.364 20.153 2.077 5.13 4.95 9.9 7.424 14.85l15.91-11.314.354-105.713c-1.414-.118-2.847-.098-4.243-.353-1.688-.309-3.3-.943-4.95-1.414z" fill="#F55" fill-rule="nonzero"/><path fill="#000" fill-rule="nonzero" d="M329 190.521l-3.024 3.712-3.889 2.652h-5.126l-3.89-.707.354 174.479L329 380.733zM312.718 115.037v46.67l13.435-2.299L329 162.59v-45.254l-8.327-.53zM329.585 97.781l-11.752-1.044-11.752-1.828-10.447-2.96-8.009-3.482-7.138-2.96 4.7 6.268 6.356 6.964 11.49 6.53 13.059 4.439 7.312 1.306 6.181.696z"/><g fill-rule="nonzero"><path d="M138.593 257.52s3.099 4.455 4.596 6.717c1.93 2.917 5.657 8.839 5.657 8.839l131.168-126.219s-7.246-5.642-10.606-7.778c-1.105-.173-3.182 1.06-3.182 1.06s-.886 2.935-2.122 3.536c-.854.416-2.828-.353-2.828-.353l-2.828 2.828s-1.993 4.935-3.536 7.071c-3.323 4.602-7.687 8.406-12.063 12.021-3.393 2.803-7.075 5.28-10.918 7.425-2.756 1.538-5.751 2.603-8.643 3.868-1.856.81-5.589 2.385-5.589 2.385l-79.106 78.6z" fill="#FF5"/><path fill="#000" d="M142.493 262.902l3.884 6.311 128.656-125.5-6.069-4.127z"/></g><g fill-rule="nonzero"><path d="M112.25 178.112l.25 62.75s7.36 2.97 10.75 5c3.575 2.14 10 7.5 10 7.5l-.75-83-10.75-9.25-9.5 17z" fill="#FF5"/><path fill="#000" d="M118.75 167.862l.25 75 7.25 4-.5-81.25-4-3.75z"/></g><path d="M110.22 148.682c4.818-3.161 10.526-6.916 15.344-10.078 3.613 3.914 6.795 8.276 10.84 11.743 3.994 3.424 8.464 6.315 13.098 8.808 3.557 1.913 7.337 3.434 11.184 4.663a69.753 69.753 0 0011.743 2.671c4.331.593 8.73.786 13.099.638 4.287-.145 8.585-.607 12.783-1.491 3.921-.827 7.736-2.138 11.489-3.545 3.336-1.252 6.627-2.66 9.768-4.343 2.257-1.208 4.604-3.132 6.486-4.11 1.881.902 2.85 3.772 4.974 4.388 1.83.53 3.885-.176 5.646-.904 1.544-.638 2.71-1.957 4.065-2.936.978 0 2.032.375 2.936 0 1.573-.651 1.978-3.137 3.613-3.613.666-.194 1.362.631 2.032.452 1.184-.317 1.807-1.656 2.71-2.484.678 0 1.407.259 2.033 0 1.082-.449 1.656-1.657 2.484-2.485l2.259.452c-2.259 3.463-4.042 7.287-6.775 10.388-3.461 3.927-7.67 7.179-11.97 10.163-4.817 3.344-10.046 6.095-15.356 8.582-5.33 2.495-10.833 4.686-16.486 6.323-4.793 1.388-9.718 2.405-14.68 2.936-4.716.505-9.487.407-14.227.226-4.08-.156-8.172-.434-12.195-1.13-3.598-.621-7.136-1.596-10.614-2.71-6.151-1.969-12.415-3.874-18.067-7-4.848-2.682-9.051-6.41-13.324-9.937-2.671-2.205-5.285-4.497-7.678-7-2.597-2.718-5.106-5.58-7.214-8.667h0z" stroke="#55A" stroke-width="2" fill="#FF5" fill-rule="nonzero" stroke-linecap="round" stroke-linejoin="round"/><path d="M115.804 146.152l5.437-3.678s2.847 3.87 4.463 5.642a64.01 64.01 0 006.281 5.984c2.834 2.365 5.82 4.566 8.949 6.525 4.533 2.836 9.189 5.573 14.167 7.525 4.968 1.947 10.205 3.255 15.473 4.101 5.163.83 10.433 1.084 15.66.932 4.972-.145 9.974-.63 14.82-1.752 5.23-1.211 10.31-3.104 15.193-5.332 4.947-2.257 14.168-8.084 14.168-8.084s4.072-.406 5.966-1.119c1.825-.687 5.033-2.983 5.033-2.983s2.064.38 2.983 0c1.218-.504 2.796-2.796 2.796-2.796s1.098.669 1.678.56c.954-.18 2.237-1.865 2.237-1.865s-2.463 3.008-3.915 4.288c-3.48 3.066-7.494 5.471-11.372 8.016-3.529 2.316-7.05 4.678-10.812 6.593-5.266 2.68-10.704 5.122-16.368 6.805-6.555 1.948-13.347 3.287-20.17 3.747-6.325.426-12.727.014-18.996-.932-6.095-.92-12.203-2.27-17.916-4.587-5.838-2.367-11.216-5.814-16.404-9.389-3.31-2.28-6.363-4.924-9.321-7.643-2.233-2.052-4.259-4.319-6.339-6.525a345.134 345.134 0 01-3.691-4.033z" fill="#000" fill-rule="nonzero"/><path d="M146.002 115.117c-.603 2.56-1.02 5.17-1.807 7.679-.643 2.047-1.473 4.036-2.371 5.984-.607 1.315-1.355 2.56-2.033 3.84-.15-1.318-.08-2.68-.452-3.953-.48-1.648-.924-3.548-2.258-4.63-1.567-1.27-3.855-1.538-5.872-1.467-1.7.06-3.514.532-4.855 1.58-1.399 1.094-2.385 2.797-2.823 4.517-.465 1.827-.285 3.867.339 5.646.518 1.478 1.607 2.726 2.71 3.84.816.823 1.882 1.354 2.823 2.032.113 1.054-.164 2.228.339 3.161.531.99 1.571 1.688 2.597 2.146.695.31 1.505.226 2.258.339.113.903-.085 1.904.339 2.71.422.802 1.194 1.462 2.032 1.806.663.272 1.43.076 2.146.113.263.866.221 1.893.79 2.597.487.603 1.265 1.023 2.033 1.13 1.302.18 2.559-.603 3.839-.904.451.753.622 1.775 1.355 2.258.697.46 1.652.417 2.484.34.948-.09 1.807-.603 2.71-.904.414.753.484 1.853 1.242 2.258.766.41 1.764.02 2.597-.226.694-.204 1.28-.677 1.92-1.016.64.678 1.072 1.644 1.92 2.033.753.345 1.699.38 2.483.113.607-.207 1.02-.784 1.468-1.243.712-.726 1.28-1.58 1.92-2.37-1.205-.754-2.472-1.414-3.613-2.26-1.244-.92-2.46-1.902-3.5-3.048-1.09-1.198-1.97-2.577-2.824-3.952-.968-1.56-1.776-3.214-2.597-4.855-.836-1.672-1.71-3.333-2.371-5.082-.943-2.495-1.579-5.098-2.258-7.678-.591-2.243-1.095-4.508-1.581-6.775-.41-1.913-.753-3.84-1.13-5.759z" fill="#FF5" fill-rule="nonzero"/><path d="M132.607 128.757c-1.43-.006-2.972 1.27-3.181 2.629-.245 1.587 1.177 3.334 2.617 4.045 1.784.88 4.273.596 5.948-.476 2.721-1.742 3.512-5.466 4.746-8.452 1.578-3.818 2.22-8.447 3.33-11.936" stroke="#55A" stroke-width="2" stroke-linecap="round" stroke-linejoin="round"/><path d="M137.954 134.77c1.242-1.291 1.935-4.101 1.694-6.245-.186-1.65-1.02-3.394-2.343-4.4-1.711-1.299-4.156-1.599-6.294-1.39-1.954.192-4.024.958-5.397 2.363-1.285 1.315-1.86 3.28-2.095 5.104-.23 1.785-.063 3.729.719 5.35.8 1.661 2.253 3.038 3.832 3.992 1.233.744 2.719 1.058 4.152 1.197 1.835.18 3.744.053 5.51-.479a12.442 12.442 0 004.438-2.414c1.273-1.086 2.166-2.563 3.067-3.973 1.243-1.947 2.129-4.099 3.194-6.148" stroke="#55A" stroke-width="2" stroke-linecap="round" stroke-linejoin="round"/><path d="M129.507 140.741c-.16 1.172.033 2.393.72 3.274.877 1.127 2.42 1.702 3.832 1.916 1.626.247 3.289-.345 4.87-.798 1.525-.437 3.023-1.033 4.392-1.837 1.225-.72 2.333-1.644 3.353-2.634 1.49-1.449 2.661-3.194 3.992-4.791M134.777 146.65c.16.825.001 1.784.48 2.475.461.668 1.277 1.128 2.075 1.278 1.304.244 2.647-.322 3.913-.719 1.227-.385 2.383-.981 3.513-1.597 1.555-.848 3.103-1.748 4.471-2.874 1.395-1.149 2.502-2.608 3.753-3.913M139.408 150.802c.186.718.071 1.596.56 2.156.642.737 1.735 1.094 2.714 1.117 1.186.029 2.28-.69 3.353-1.197 1.403-.664 2.732-1.49 3.992-2.396 1.136-.814 2.107-1.836 3.194-2.714.783-.632 1.597-1.225 2.396-1.837M145.955 153.351c.187 1.682.926 2.168 1.917 2.56 1.004.4 2.185-.168 3.193-.558 1.205-.466 2.234-1.31 3.274-2.076 1.52-1.12 2.874-2.449 4.312-3.673M152.423 155.273c.08.932.87 1.65 1.676 1.916.957.317 2.02-.26 2.955-.638.842-.34 1.599-.879 2.315-1.438.935-.729 1.704-1.65 2.555-2.475M158.49 156.55c.4.613.922 1.267 1.598 1.598.578.282 1.293.4 1.916.24.83-.216 1.498-.885 2.076-1.518.523-.573.798-1.33 1.198-1.996" stroke="#55A" stroke-width="2" stroke-linecap="round" stroke-linejoin="round"/><path d="M207.834 74.683c6.002.109 12.016-.089 18.007.326 4.973.344 9.934.955 14.857 1.793 3.227.55 6.403 1.413 9.604 2.12.5 3.804 1.029 7.604 1.5 11.413.533 4.288.951 8.593 1.502 12.88.412 3.212.663 6.462 1.35 9.619.411 1.89 1.1 3.695 1.65 5.543l2.252.326c.75-.815 1.238-2.1 2.25-2.445 1.358-.464 2.953.076 4.203.815 1.803 1.066 3.118 2.997 4.202 4.89 1.045 1.827 1.9 3.894 2.1 6.033a8.823 8.823 0 01-.6 4.076c-.389.955-.935 1.994-1.8 2.446-.857.447-1.901 0-2.852 0-.5.76-.837 1.687-1.5 2.282-1.019.914-2.402 1.196-3.602 1.794-.65.815-1.048 1.997-1.951 2.445-.773.384-1.7 0-2.551 0-.75.761-1.296 1.874-2.251 2.283-.791.339-1.7 0-2.551 0-.85 1.087-1.345 2.696-2.551 3.26-.874.41-1.901-.108-2.852-.163-.75.979-1.19 2.395-2.25 2.935-.861.438-1.901 0-2.852 0-.95.87-1.792 1.903-2.851 2.609-1.204.802-2.528 1.437-3.902 1.793-1.414.367-2.92.603-4.352.326-1.565-.303-3.06-1.11-4.352-2.12-1.437-1.122-2.622-2.636-3.601-4.238-1.337-2.189-2.262-4.673-3.002-7.174-1.341-4.536-1.78-9.331-2.55-14.021-1.006-6.122-1.724-12.296-2.702-18.423-.974-6.102-2.055-12.183-3.151-18.26-.913-5.063-1.901-10.109-2.851-15.163z" fill="#FF5" fill-rule="nonzero"/><g stroke="#55A" stroke-linecap="round" stroke-linejoin="round" stroke-width="2.025"><path d="M208.035 75.497s2.944 15.348 4.245 23.057c1.551 9.197 2.492 18.514 4.244 27.669 1.188 6.205 1.37 12.93 4.245 18.445 1.972 3.784 4.621 8.106 8.489 9.223 3.753 1.084 8.654-.18 11.24-3.327 2.173-2.643 2.62-7.181 1.493-10.507-1.224-3.615-4.506-7.692-8.05-7.552-3.688.147-7.78 4.497-7.829 8.507-.044 3.6 3.532 7.595 6.839 7.84 2.045.15 4.529-1.975 4.796-4.184.311-2.576-1.854-6.306-4.245-6.283-1.435.014-3.415 1.831-2.486 3.82"/><path d="M212.985 74.733c2.49 8.277 3.13 16.675 4.465 25.059 1.326 8.33 1.716 16.847 3.517 25.07 1.429 6.53 3.044 13.486 5.754 19.137M218.659 74.721c1.9 7.207 2.474 14.8 3.52 22.243 1.019 7.25 1.386 14.645 2.682 21.828.942 5.22 1.62 10.463 3.688 15.383M223.714 75.08c1.688 6.887 2.2 14.145 3.129 21.26.905 6.93 1.232 13.998 2.384 20.863.837 4.99 1.44 10.001 3.278 14.703M228.659 75.676c1.52 6.541 1.98 13.433 2.816 20.189.815 6.58 1.109 13.292 2.145 19.811.754 4.738 1.297 9.497 2.95 13.962M233.494 76.154c1.52 6.222 1.98 12.778 2.816 19.206.815 6.26 1.109 12.645 2.145 18.847.754 4.507 1.297 9.034 2.95 13.282M238.918 77.001c1.478 5.788 1.81 11.57 2.588 17.377.781 5.831 1.078 11.763 2.086 17.532.733 4.193 1.26 8.404 2.868 12.356M244.153 77.825c1.393 5.296 1.814 10.877 2.581 16.347.747 5.33 1.017 10.764 1.967 16.042.69 3.837 1.188 7.69 2.704 11.306M249.408 78.079c1.182 4.746 2.082 10.43 2.869 15.71.71 4.757.862 9.645 1.669 14.376.586 3.438 1.008 6.891 2.294 10.132M233.625 132.16c1.375-1.024 2.384-2.14 3.796-2.192 3.02-.113 5.445 1.882 7.215 4.121 1.885 2.384 3.028 5.775 2.833 8.91-.14 2.247-1.147 4.676-2.803 6.03-.828.678-1.71.517-3.053.632"/><path d="M238.63 129.894c1.155-1.382 2.022-2.448 3.393-2.536 2.712-.175 5.445 1.882 7.215 4.121 1.885 2.384 3.028 5.775 2.833 8.91-.14 2.247-.853 4.693-2.803 6.031-.675.463-1.043.937-2.386.217"/><path d="M242.806 127.148c1.375-1.024 2.595-2.827 4.271-2.894 2.716-.109 5.445 1.882 7.216 4.121 1.884 2.384 3.028 5.775 2.833 8.91-.14 2.247-1.05 4.829-2.803 6.031-.769.527-1.383.55-2.726.068"/><path d="M248.52 124.044c1.045-1.62 2.101-2.457 3.502-2.536 2.714-.153 5.445 1.882 7.216 4.121 1.884 2.384 3.028 5.775 2.833 8.91-.14 2.247-1.117 4.722-2.804 6.031-.776.603-1.382.789-2.835.426"/><path d="M253.355 120.94c.496-1.382 1.884-2.327 3.173-2.417 2.711-.188 5.445 1.882 7.215 4.122 1.885 2.383 3.028 5.775 2.833 8.91-.14 2.247-1.113 4.726-2.803 6.03-.643.497-1.002.224-2.345.34"/><path d="M258.41 118.552c.495-1.62 1.505-2.179 2.623-2.297 2.704-.287 5.445 1.882 7.215 4.121 1.885 2.384 2.906 5.77 2.833 8.91-.038 1.652-.566 3.502-1.704 4.599-.903.87-2.152.907-3.495 1.023"/></g><g fill-rule="nonzero" stroke-linecap="round" stroke-linejoin="round" stroke-width="2"><path d="M112.47 30.362l32.53 40s9.168-2.898 13.882-3.782c6.946-1.303 14.02-2.066 21.085-2.218 11.092-.238 22.25.398 33.22 2.057C225.673 68.307 250 75.362 250 75.362l28.963-45H112.47z" stroke="#55A" fill="#F55"/><path d="M129.154 31.844l18.65 27.14c7.299-2.252 11.526-1.796 20.83-2.723l-4.651-24.417h-6.445l5.76 20.883c-5.344.332-7.738.278-13.143 1.118l-13.596-22h-7.405zM173.993 31.844l4.484 23.706c11.336-.935 19.893-.957 31.228.041l5.642-23.747h-7.267l-3.428 19.278c-8.906-.473-13.603-.52-21.081-.04l-3.032-19.238h-6.546zM226.373 31.844l-8.228 25.048c8.275.611 19.524 4.997 28.527 6.904l16.23-31.952h-7.13L243.561 56.42c-5.028-1.219-12.983-2.81-18.011-3.428l6.993-21.147h-6.17z" stroke="#FFF" fill="#FFF"/></g><path stroke="#55A" stroke-width="2" d="M60 30.362h270v360h0"/><g stroke="#55A" stroke-linecap="round" stroke-linejoin="round" stroke-width="2.017"><path d="M157.655 94.65c.395.44.203 1.26-.094 1.771-.315.545-.957 1.012-1.588 1.026-.614.009-1.27-.408-1.587-.933-.354-.586-.581-1.57-.094-2.05.798-.79 2.613-.648 3.363.186h0zM207.896 83.318c-4.754-1.139-9.373-2.783-14.262-3.415-3.163-.41-6.52-1.102-9.6-.228-1.933.549-5.273 2.524-5.052 3.29.11.385.9.366 1.371.34 2.181-.118 4-1.88 6.15-2.264 2.61-.465 5.316-.221 7.954 0 4.548.381 8.959 1.518 13.439 2.277z" fill="#55A" fill-rule="nonzero"/><path d="M182.23 92.379c-.548-.493-3.025-.73-2.584-1.292.58-.74 3.935-3.302 6.287-4.214 2.191-.85 4.61-1 6.972-1.05 2.502-.056 5.071.025 7.448.788 2.878.924 6.007 3.814 7.888 4.471"/><path d="M210.501 97.504c-4.022-.89-7.76-4.734-12.068-5.67-2.866-.622-5.881-.331-8.776.122a18.869 18.869 0 00-5.105 1.556c-.97.456-1.698.689-2.704 1.78 1.966.769 2.152 3.464 3.832 4.306 3.068 1.537 6.765.97 10.148.728 2.665-.19 5.223-1.204 7.853-1.705 2.264-.43 4.672.056 6.82-1.117h0z"/><path d="M200.353 93.4c-.091 1.177.408 2.496-.274 3.53-.817 1.237-2.498 2.065-4.114 2.504-1.26.342-2.734.382-3.977 0-1.186-.364-2.232-1.148-2.88-2.05-.886-1.233-.731-2.807-1.097-4.211"/><path d="M195.795 93.435c.396.44.204 1.26-.093 1.772-.316.545-.958 1.012-1.588 1.026-.614.009-1.27-.408-1.588-.933-.354-.586-.58-1.57-.093-2.051.798-.788 2.613-.648 3.363.186h0z" fill="#55A" fill-rule="nonzero"/><path d="M196.447 107.982c-2.88-.456-5.965-2.214-8.459-4.114-2.345-1.788-4.308-4.572-5.838-6.647M165.492 85.373c.731 1.48 1.843 2.867 2.194 4.44.716 3.21.198 6.55-.274 9.79-.585 4.012-2.198 7.868-3.154 11.839-.615 2.551-2.989 5.432-1.66 7.695.775 1.322 2.996.72 4.396 1.344 1.827.816 3.676 2.38 5.14 3.102M182.663 110.753c1.874 1.707 4.618 2.968 5.623 5.123.478 1.026.557 2.303 0 3.301-.656 1.172-2.048 2.217-3.566 2.504-1.243.236-2.571-.308-3.703-.796-1.438-.621-2.243-2.032-3.702-2.619-1.049-.422-2.345-.925-3.429-.569-.365.12-.798.484-.685.797.366 1.012 2.37.773 3.565 1.138 1.547.474 3.109.911 4.663 1.366"/><path d="M189.312 131.821c-1.93-.803-4.638-.635-6.974-.588-2.377.047-4.677.97-7.052.88-2.707-.103-5.185-1.59-7.895-1.61-1.989-.016-4.261.72-5.819 1.09.125.565.321 1.299 0 1.74 1.998-.62 4.812-1.5 7.268-1.252 2.314.233 3.978 2.454 6.308 2.504 2.722.059 4.822-2.518 7.542-2.602 2.599-.08 5.377 1.642 7.406 2.033-.54-.665-.806-1.732-.784-2.195z" fill="#55A" fill-rule="nonzero"/><path d="M183.245 138.038c-1.917.682-3.706 1.704-5.75 2.045-1.521.254-3.128.2-4.655-.032-1.038-.158-1.998-.57-2.972-.91-.904-.313-1.773-.692-2.66-1.038M170.486 145.479c1.395-.466 2.716-.92 4.146-.91 1.192.01 2.307.38 3.442.812"/><path d="M165.234 82.995c-1.9-1.847-6.055-2.314-9.31-2.524-2.367-.152-4.764.27-7.03.947-1.283.383-2.104 1.156-3.624 1.735 2.597-.42 4.532-1.18 6.854-1.262 2.357-.083 4.726.346 7.03.788 1.623.312 3.126.934 4.56 1.578.63.283 1.986-.81 1.52-1.262h0z" fill="#55A" fill-rule="nonzero"/><path d="M165.9 91.108c-1.857-.76-3.472-2.902-5.571-3.592-2.797-.92-5.913-.978-8.814-.552-1.918.282-3.548 1.334-5.321 2.002M165.645 94.116c-2.053-.754-3.574-.977-5.4-1.183-2.702-.306-5.456-.408-8.148-.076-1.6.197-3.265.468-4.656 1.217-.879.472-1.441 1.318-2.162 1.977l.416 3.043c1.44.456 2.825 1.11 4.323 1.37 2.045.352 4.16.344 6.236.227 2.215-.125 4.457-.27 6.57-.989 1.137-.387 2.274-.927 3.196-1.758.646-.582 1.152-1.795 1.54-2.176-.36-.657-1.602-1.304-1.915-1.652h0z"/><path d="M161.835 94.37c-.091 1.177.409 2.496-.274 3.53-.817 1.238-2.498 2.065-4.114 2.504-1.26.343-2.733.382-3.977 0-1.185-.364-2.232-1.147-2.88-2.049-.886-1.234-.73-2.808-1.097-4.212M166.176 100.533c-1.53 1.4-2.794 3.034-4.586 4.198-1.437.932-3.215 1.431-4.822 2.147"/></g><path d="M144.415 71.194c.079 6.74-.005 13.485.237 20.222.238 6.59.397 13.2 1.19 19.747.795 6.563 1.552 13.214 3.569 19.51 1.764 5.506 3.96 11.035 7.375 15.702 2.552 3.487 5.738 6.707 9.517 8.803 3.163 1.754 6.859 2.615 10.468 2.855 4.152.275 8.35-.595 12.372-1.666 4.468-1.19 8.71-3.166 12.847-5.234 3.309-1.654 6.362-3.778 9.517-5.71 2.552-1.563 5.075-3.172 7.613-4.758" stroke="#55A" stroke-width="2" stroke-linecap="round" stroke-linejoin="round"/><path d="M110.839 148.271c-18.859 9.052-37.744 18.169-55.685 24.926l-.353 46.492s12.964-11.548 18.915-17.854a197.407 197.407 0 0014.85-17.678c3.656-4.918 6.829-10.181 10.075-15.38 4.214-6.745 12.198-20.506 12.198-20.506h0z" stroke="#55A" stroke-width="2" fill="#000" fill-rule="nonzero" stroke-linecap="round" stroke-linejoin="round"/><path d="M54.5 219.112l.25 19.5c5.167-4.166 10.44-8.203 15.5-12.5 5.623-4.775 11.473-9.35 16.5-14.75 4.736-5.087 8.677-10.867 12.75-16.5 4.36-6.03 8.44-12.263 12.5-18.5 3.167-4.863 6.167-9.833 9.25-14.75l-11-12.5c-3.083 5.334-6.034 10.746-9.25 16-3.524 5.757-7.048 11.528-11 17-4.13 5.719-8.573 11.22-13.25 16.5a145.184 145.184 0 01-10 10.25c-3.906 3.619-8.167 6.834-12.25 10.25z" stroke="#55A" stroke-width="2" fill="#55A" fill-rule="nonzero" stroke-linecap="round" stroke-linejoin="round"/><path d="M107.781 157.112c-1.012-.287-1.555 1.64-1.656 2.688-.306 3.156 5.324 6.43 3.344 8.906-1.616 2.02-5.273-1.99-7.688-1.063-1.056.406-1.971 1.484-2.187 2.594-.66 3.389 5.48 7.235 3.219 9.844-1.822 2.102-5.579-2.311-8.22-1.438-1.049.348-1.985 1.342-2.28 2.407-.963 3.475 4.837 7.957 2.343 10.562-1.946 2.033-5.634-2.332-8.312-1.469-1.052.34-2.003 1.315-2.313 2.375-.98 3.36 4.593 7.8 2.125 10.282-2.277 2.29-6.393-2.789-9.5-1.907-1.042.296-2.007 1.2-2.375 2.22-1.185 3.278 4.08 8.255 1.313 10.374-2.244 1.719-5.029-3.469-7.844-3.219-1.082.097-2.204.811-2.75 1.75-1.893 3.255 2.79 9.566-.563 11.282-1.977 1.012-3.408-3.222-5.593-3.625-.933-.172-2.266-.202-2.781.593-.516.796.055 2.001.593 2.782 1.915 2.778 5.13 5.333 8.5 5.5 1.159.057 2.466-.619 3.094-1.594 2.158-3.35-2.768-9.8.594-11.938 2.554-1.624 5.406 3.842 8.406 3.438 1.134-.153 2.28-1.037 2.719-2.094 1.418-3.414-4.112-8.481-1.406-11 2.434-2.266 6.597 2.93 9.78 1.969 1.072-.324 2.056-1.302 2.376-2.375 1.007-3.375-4.608-7.815-2.156-10.344 1.965-2.028 5.662 2.354 8.343 1.469 1.05-.347 1.986-1.341 2.281-2.406.967-3.485-4.843-7.98-2.343-10.594 2.003-2.094 5.832 2.47 8.562 1.5 1.079-.383 2.023-1.472 2.25-2.594.694-3.425-5.489-7.285-3.25-9.969 1.684-2.017 5.37 2.03 7.813 1.063 1.06-.42 1.972-1.53 2.156-2.656.499-3.052-5.243-6.324-3.25-8.688 1.257-1.492 3.84 1.49 5.75 1.094.925-.192 2.167-.666 2.344-1.594.177-.928-.804-1.826-1.594-2.344-2.624-1.72-6.134-1.375-9.25-1.75-.197-.023-.457.113-.594-.03z" fill="#FFF" fill-rule="nonzero"/><path d="M133.269 246.637c.242-3.64-.265-5.782-.022-9.423 6.23-8.092 11.284-19.37 17.515-27.46 1.688-6.067 11.218-17.357 13.853-19.284 1.849.37 3.528 1.104 2.9 3.34-.627 2.236-2.717 5.973-7.082 11.628-1.86 2.184-5.438 10.113-8.473 14.983-2.956 4.742-6.22 9.289-9.467 13.836-2.991 4.188-6.15 8.254-9.225 12.38h0z" stroke="#55A" stroke-width="2" fill="#FF5" fill-rule="nonzero" stroke-linecap="round" stroke-linejoin="round"/><path stroke="#55A" stroke-width="2" fill="#FF5" fill-rule="nonzero" stroke-linecap="round" stroke-linejoin="round" d="M165.315 193.139l-1.33-10.218 5.453-3.037 2.206 6.068z"/><path d="M164.824 210.019s-2.412 10.154-5.096 14.528c-2.693 4.39-7.36 7.23-10.68 11.167-2.015 2.387-4.446 4.616-5.584 7.525-1.097 2.804-.037 6.119-.971 8.982-.754 2.309-3.641 6.311-3.641 6.311l-5.826-5.098.485-6.797s6.389-7.259 9.225-11.166c2.307-3.18 4.14-6.678 6.311-9.953 1.414-2.132 2.995-4.153 4.37-6.311 4.455-6.993 12.555-21.474 12.555-21.474l4.483-2.888-5.631 15.174zM132.54 171.386l.479 80.777M216.045 180.125l-72.824 71.853M133.511 179.154l4.37-3.884M133.269 186.436l10.68-8.496M133.269 192.747l17.235-12.38M133.754 199.544l23.547-17.477M133.997 207.07l24.916-19.592M133.754 214.352l24.196-21.04M134.24 220.42l19.63-16.953M134.482 226.49l11.404-10.165M146.862 240.083l.729 6.554M151.232 234.015l.485 8.253M156.33 228.674l.97 8.739M161.67 223.09l1.214 7.526M165.076 212.423l2.42 14.795M167.766 202.519l4.831 20.314M171.648 192.832l5.558 24.662M176.235 186.436l4.855 26.702M182.546 186.436l3.642 20.876M187.644 186.193l3.398 16.264M193.227 185.95l2.913 12.38M199.298 184.494l1.93 9.725M203.423 183.766l1.213 5.826M208.52 182.31l.723 4.128" stroke="#55A" stroke-width="2" fill="#F55" fill-rule="nonzero" stroke-linecap="round" stroke-linejoin="round"/><path d="M303.827 183.512c-1.14-1.838 2.08-5.635 2.093-8.578.018-3.756-2.897-7.23-2.57-10.972.202-2.289 1.982-4.158 2.716-6.335.584-1.733 1.76-3.544 1.333-5.322-.454-1.896-1.89-4.305-3.836-4.413-1.715-.095-2.743 2.129-3.79 3.492-2.428 3.164-4.3 6.812-5.557 10.598-1.365 4.114-2.069 5.817-2.043 8.841.032 3.772.26 5.92 2.736 10.981-.133 2.287-.688 4.588-.4 6.86.217 1.701.485 3.574 1.575 4.897 1.227 1.49 3.19 2.365 5.071 2.799 3.3.759 7.112.874 10.144-.525" stroke="#55A" stroke-width="2" stroke-linecap="round" stroke-linejoin="round"/><path d="M297.232 155.7c.96.905 1.583 2.48 2.881 2.717.95.173 1.935-.492 2.67-1.116.853-.726 1.281-1.848 1.78-2.851.566-1.138.96-2.782 1.36-3.561M314.922 170.81c.184-.447.458-.867.551-1.341.13-.658.172-1.364 0-2.012-.237-.895-.63-1.867-1.378-2.413-.872-.637-2.096-.793-3.168-.671-1.158.132-2.33.667-3.17 1.475-.579.557-1.025 1.345-1.101 2.146-.062.649.125 1.383.55 1.877.629.727 1.683.989 2.618 1.207 1.656.386 3.4.227 5.098.134 2.141-.117 4.362-.129 6.375-.869 1.79-.658 3.457-1.765 4.822-3.084.822-.795 1.78-1.697 1.929-2.816.199-1.5-.172-3.414-1.516-4.291-.795-.519-1.965-.071-2.936.037-2.44.273-4.772 1.098-7.18 1.532-2.074.373-4.231.33-6.254.92-2.045.596-3.929 1.765-5.833 2.611" stroke="#55A" stroke-width="2" stroke-linecap="round" stroke-linejoin="round"/><path d="M325.52 167.393c1.001.939 2.423 1.499 3.004 2.817.41.93.47 2.149.13 3.114-.536 1.526-1.942 2.479-3.134 3.41-1.428 1.115-3.045 1.945-4.703 2.52-1.643.57-3.383.716-5.094.89-1.692.172-3.41.399-5.094.148-.765-.114-1.608-.21-2.221-.741-.528-.458-.969-1.178-1.045-1.928-.079-.776.257-1.584.653-2.224.606-.979 1.465-1.909 2.482-2.224.933-.288 1.96.086 2.874.445.811.32 1.745.67 2.22 1.483.365.623.318 1.479.262 2.224-.063.825-.436 1.581-.654 2.372" stroke="#55A" stroke-width="2" stroke-linecap="round" stroke-linejoin="round"/><path d="M326.429 177.03c.682 1.137 1.77 2.088 2.048 3.41.317 1.506.24 3.31-.546 4.597-.903 1.475-2.69 2.093-4.233 2.669-1.91.712-3.99.74-6.007.89-1.725.126-3.5.413-5.187 0-1.033-.254-2.094-.699-2.867-1.483-.61-.62-1.187-1.467-1.229-2.373-.04-.862.392-1.764.956-2.372.738-.795 1.84-1.156 2.867-1.334 1.037-.181 2.207-.228 3.14.296.688.387 1.197 1.154 1.501 1.928.342.868.45 1.892.273 2.817-.169.888-.819 1.581-1.228 2.372" stroke="#55A" stroke-width="2" stroke-linecap="round" stroke-linejoin="round"/><path d="M325.306 187.557c.922.445 2.514.82 2.91 1.928.4 1.116-.398 2.404-1.018 3.41-.877 1.421-2.125 2.745-3.638 3.41-1.25.55-2.713.318-4.074.297-1.901-.03-3.837-.095-5.674-.593-1.385-.376-3.059-.62-3.929-1.78-.387-.516-.451-1.298-.291-1.927.278-1.09 1.089-2.09 2.037-2.669 1.224-.748 2.905-1.309 4.22-.741 1.189.513 1.84 1.993 2.182 3.262a3.778 3.778 0 01-.145 2.372c-.31.74-1.067 1.186-1.601 1.78" stroke="#55A" stroke-width="2" stroke-linecap="round" stroke-linejoin="round"/><path d="M111.793 177.11l.712 63.153s-4.556-13.945-7.795-20.499c-3.023-6.116-10.779-17.4-10.779-17.4s6.297-8.009 9.24-12.165c3.018-4.264 8.622-13.089 8.622-13.089h0z" stroke="#55A" stroke-width="2" fill="#F55" fill-rule="nonzero" stroke-linecap="round" stroke-linejoin="round"/><path d="M329 51.915l-16.194 14.952.2 23.326s5.015 1.192 7.575 1.396c2.798.222 8.419-.2 8.419-.2V51.915z" fill="#000" fill-rule="nonzero"/><path stroke="#55A" stroke-width="2" fill="#FF5" fill-rule="nonzero" stroke-linecap="round" stroke-linejoin="round" d="M330 43.946l-23.175 20.13v25.718l5.781.798.4-23.725L330 52.712z"/><path d="M330 91.589c-5.117-.2-11.001-.494-16.422-1.382-6.07-.994-12.11-2.375-17.918-4.4-5.868-2.046-11.456-4.862-16.946-7.775-3.846-2.041-7.443-4.52-11.164-6.779 2.458 5.383 4.192 11.16 7.376 16.149 3.905 6.119 8.436 12.078 14.155 16.547 5.854 4.576 12.897 7.592 19.937 9.969 5.063 1.71 10.452 2.288 15.75 2.99 1.734.23 3.57.266 5.232.399v-5.782c-3.92-.163-8.31-.544-12.359-1.446-5.487-1.222-10.902-2.962-16-5.332-3.814-1.773-7.524-3.9-10.766-6.58-2.557-2.114-4.674-4.735-6.694-7.367-1.406-1.833-3.005-3.474-3.748-5.83 2.593 1.205 5.783 2.991 8.772 4.274 3.491 1.498 7.04 2.894 10.678 3.987 3.507 1.054 7.103 1.806 10.704 2.469a113.93 113.93 0 009.719 1.345c3.221.31 6.504.26 9.694.526V91.59z" stroke="#55A" stroke-width="2" fill="#FF5" fill-rule="nonzero" stroke-linecap="round" stroke-linejoin="round"/><path d="M294.717 94.889a1.5 1.5 0 11-3 0 1.5 1.5 0 013 0zM303.42 98.415a2.5 2.5 0 11-5 0 2.5 2.5 0 015 0zM314.735 101.768a3.5 3.5 0 11-7 0 3.5 3.5 0 017 0zM326.92 104.076a4.5 4.5 0 11-9 0 4.5 4.5 0 019 0z" fill="#FF5" fill-rule="nonzero"/><path stroke="#55A" stroke-width="2" fill="#FF5" fill-rule="nonzero" stroke-linecap="round" stroke-linejoin="round" d="M306.884 113.623v50.205l5.48-1.768v-46.492zM306.53 197.592l4.774-1.944 2.298.884-.354 174.478 16.617 10.253.135 9.1-23.646-14.933z"/><path d="M294.156 186.809c-3.889 5.067-8.3 9.774-11.667 15.203-3.528 5.688-6.437 11.783-8.839 18.03-2.463 6.407-4.392 13.054-5.657 19.8-1.177 6.282-1.846 12.701-1.767 19.092.075 6.051 1.137 12.06 2.121 18.03.921 5.588 1.925 11.189 3.536 16.618 1.4 4.72 3.29 9.294 5.303 13.788 1.896 4.234 4.242 8.25 6.364 12.375l7.424-6.718c-3.3-6.481-7.366-12.627-9.9-19.445-2.239-6.029-3.608-12.383-4.595-18.738-1.07-6.887-1.742-13.899-1.414-20.86.275-5.845 1.477-11.631 2.828-17.324 1.454-6.13 3.19-12.236 5.657-18.031 2.21-5.193 5.06-10.115 8.132-14.85 2.013-3.104 4.478-5.892 6.717-8.838-1.178-.943-2.793-1.515-3.535-2.829-.878-1.553-.472-3.535-.708-5.303z" fill="#55A" fill-rule="nonzero"/><path d="M296.601 156.529c-1.475-1.135-4.951-2.27-6.427-3.406-3.52 4.087-7.072 8.146-10.558 12.26-2.293 2.707-4.604 5.399-6.812 8.175-2.572 3.234-5.125 6.49-7.492 9.877-2.166 3.097-4.239 6.265-6.13 9.536-1.857 3.209-3.495 6.54-5.11 9.877-1.682 3.476-3.345 6.968-4.768 10.558-1.547 3.905-3.049 7.85-4.087 11.92-1.166 4.575-1.837 9.274-2.384 13.964-.65 5.577-1.077 11.197-1.063 16.812.014 5.193.525 10.378 1.063 15.543.678 6.499 1.264 13.044 2.725 19.413 1.573 6.859 3.948 13.525 6.471 20.094a167.523 167.523 0 007.493 16.688c1.749 3.392 3.86 6.585 5.79 9.877l7.152-7.152c-3.633-6.244-7.99-12.12-10.899-18.732-2.92-6.639-4.792-13.719-6.47-20.775-1.759-7.39-3.182-14.903-3.747-22.478-.524-7.02-.246-14.101.34-21.116.541-6.47 1.295-12.971 2.925-19.255 1.747-6.74 4.39-13.244 7.293-19.571 2.648-5.773 5.898-11.26 9.195-16.689 2.763-4.548 5.465-9.181 8.856-13.282 3.694-4.47 8.428-8.457 12.401-12.203.909-3.633 3.335-6.302 4.243-9.935z" fill="#55A" fill-rule="nonzero"/><path d="M270.689 140.35l26.082 16.617" stroke="#55A" stroke-width="2" stroke-linecap="round" stroke-linejoin="round"/><path d="M227.34 198.63l53.463-51.778 9.633 7.466s-10.5 10.75-15.172 16.617c-5.715 7.177-11.045 14.705-15.653 22.637-2.237 3.85-3.99 7.966-5.78 12.042-2.087 4.749-5.78 14.45-5.78 14.45L227.34 198.63z" stroke="#55A" stroke-width="2" fill="#55A" fill-rule="nonzero" stroke-linecap="round" stroke-linejoin="round"/><path d="M276.375 151.83c-.946.373-1.644 1.417-1.875 2.407-.716 3.066 4.29 7.194 1.906 9.25-1.93 1.666-4.672-3.048-7.187-2.625-1.14.192-2.27 1.111-2.688 2.188-1.11 2.856 3.842 7.32 1.344 9.093-2.032 1.444-4.18-2.98-6.625-3.468-.705-.141-1.578-.25-2.147.19-.569.439-.686 1.311-.728 2.028-.205 3.534 5.175 8.139 2.406 10.344-2.321 1.849-5.075-3.404-8-3.906-.698-.12-1.558-.2-2.112.243-.553.442-.661 1.3-.7 2.007-.214 3.896 5.705 9.011 2.625 11.406-2.858 2.222-6.1-4.298-9.656-4.969-.711-.133-1.595-.23-2.159.223-.564.453-.62 1.338-.685 2.059-.507 5.54 7.327 14.12 2.312 16.53-4.004 1.926-4.885-8.463-9.156-9.687-.91-.26-2.271-.099-2.75.719-.48.818.2 1.957.719 2.75 3.566 5.45 9.127 10.154 15.344 12.094.702.219 1.615.305 2.202-.138s.704-1.346.735-2.08c.243-5.8-8.937-13.218-4.406-16.845 2.782-2.227 6.003 4.219 9.5 4.907.705.138 1.578.249 2.147-.19.569-.44.686-1.312.728-2.03.23-3.95-5.785-9.1-2.688-11.562 2.334-1.855 5.097 3.413 8.031 3.938.706.126 1.577.226 2.14-.219.561-.445.667-1.315.704-2.031.183-3.482-5.129-8.05-2.375-10.188 1.855-1.44 3.952 2.77 6.25 3.25.682.143 1.517.262 2.085-.14.568-.404.732-1.231.822-1.922.417-3.238-3.969-7.625-1.438-9.688 2.046-1.667 4.842 3.198 7.438 2.72 1.14-.211 2.253-1.184 2.625-2.282 1.012-2.992-4.294-7.213-1.907-9.281 2.326-2.016 5.611 3.202 8.688 3.125.985-.025 2.395-.211 2.728-1.139.332-.927-.64-1.965-1.385-2.611-3.22-2.796-7.902-3.279-12.03-4.344-.256-.066-.537-.222-.782-.125z" fill="#FFF" fill-rule="nonzero"/><path stroke="#55A" stroke-width="2" fill="#F55" fill-rule="nonzero" stroke-linecap="round" stroke-linejoin="round" d="M166.77 192.237l5.212-5.088 1.928 7.515-5.694 6.07zM156.353 188.263l6.54-4.736 1.493 7.304-6.105 6.29z"/><path d="M150.5 273.362l62-5.5s3.048 5.341 4.836 7.836c2.183 3.046 4.5 6.03 7.164 8.664 2.52 2.492 5.338 4.69 8.268 6.682 2.552 1.736 5.374 3.04 8.06 4.56l6.172 3.5s-2.867-10.918-3.755-16.482c-.803-5.026-1.115-10.122-1.414-15.203-.278-4.707-.547-9.43-.354-14.142.271-6.632.898-13.275 2.121-19.8.833-4.439 3.536-13.08 3.536-13.08l-19.86-21.275-76.774 74.24z" stroke="#000" stroke-width="2" fill="#000" fill-rule="nonzero" stroke-linecap="round" stroke-linejoin="round"/><path fill="#FF5" fill-rule="nonzero" d="M221.094 206.3l-4.063 4 8.438.062-1.563 1.469h-.625l-7.78.156-3.938 4 8-.094-2.313 2.156-6.719-.812-4.5 3.969 7.438.406-1.344 1.281-7.5.219-3.875 4 6.969-.094-1.25 1.188h-6.875l-4.031 4h6.625l-2.125 2-5.656-.625-4.438 3.968 9.375.594.361 13.696 4-3.969-.361-11.258 2.094-2 .156 11.406 4-4.062-.219-11.032 1.875-1.75.344 11.5 4-4.187-.5-10.938 1.531-1.437.344 10.875 4-4.188-.5-10.28 1.188-1.126.406 9.938 4-4.25-.625-9.25 2.5-2.344.281 10.562 3.969-4.156-.438-11.531-.062-1.906-1.906-.032zM235.016 221.797l-4.062 4 8.437.063-1.562 1.469h-.625l-7.781.156-3.938 4 8-.094-2.313 2.156-6.718-.812-4.5 3.969 7.437.406-1.343 1.281-7.5.219-3.875 4 6.968-.094-1.25 1.188h-6.875l-4.031 4h6.625l-2.125 2-5.656-.625-4.438 3.968 9.375.594.467 13.379 4-3.97-.467-10.94 2.094-2 .156 11.406 4-4.062-.218-11.032 1.875-1.75.343 11.5 4-4.187-.5-10.938 1.532-1.437.343 10.875 4-4.188-.5-10.28 1.188-1.126.406 9.938 4-4.25-.625-9.25 2.5-2.344.281 10.562 1.428-7.862 2.104-7.825-.063-1.906-1.906-.032zM238.649 246.723l-4.5 3.969 5.955.406-.39 1.493-6.971.007-3.875 4 6.969-.094-1.25 1.188h-6.875l-4.032 4h6.625l-2.125 2-5.656-.625-4.438 3.969 9.375.593.467 13.379 4-3.969-.466-10.94 2.093-2 .156 11.405 4-4.062-.218-11.031 1.875-1.75.344 11.5 1.035-2.282-.077-11.679.472-9.132zM324.688 63.425c-.555-.013-1.042.427-1.47.78-2.921 2.42-5.794 5.323-7.124 8.876a3.888 3.888 0 00-.094 2.344c.978 3.54 3.023 7.112 6.031 9.218.791.554 2.012 1.19 2.82.661.808-.528.714-1.902.524-2.848-.63-3.136-5.405-4.837-5.25-8.031.16-3.294 4.913-4.678 6.188-7.72.281-.671.581-1.517.258-2.17-.324-.653-1.155-1.094-1.883-1.11zM317.719 119.175c-.94.6-1.464 1.919-1.406 3.03.237 4.615 7.483 7.304 7.093 11.907-.314 3.71-5.896 5.031-7.25 8.5a3.87 3.87 0 00-.093 2.469c1.108 3.637 3.478 7.228 6.718 9.219.805.494 2.031 1.005 2.797.453.766-.552.673-1.878.453-2.797-.765-3.198-5.935-4.683-5.812-7.969.137-3.663 5.699-4.998 7.125-8.375a3.89 3.89 0 00.219-2.312c-1.118-4.968-4.073-9.67-7.813-13.125-.554-.512-1.296-.83-2.031-1zM321.938 198.3c-.67.18-1.465.44-1.794 1.05-.33.609-.109 1.416.106 2.075.75 2.296 3.877 3.649 3.969 6.062.18 4.743-5.613 7.894-6.875 12.469a3.926 3.926 0 00-.063 1.812c.931 4.514 6.21 7.902 5.906 12.5-.291 4.406-5.807 6.932-7.187 11.125a3.936 3.936 0 00-.125 2c1.152 5.523 7.722 9.421 7.719 15.063-.003 5.106-5.757 8.673-7 13.625a3.953 3.953 0 00-.031 1.781c1.155 5.304 7.226 9.263 7.03 14.688-.168 4.685-5.73 7.696-6.968 12.218a3.942 3.942 0 00-.031 1.907c1.154 4.96 7.047 8.502 6.969 13.593-.074 4.783-5.705 7.94-6.938 12.563a3.892 3.892 0 00-.031 1.875c1.145 4.819 7.143 8.209 6.906 13.156-.197 4.127-5.406 6.48-6.781 10.375a3.993 3.993 0 00-.188 1.875c.495 3.408 1.547 7.055 3.907 9.563.677.72 1.756 1.657 2.671 1.285.916-.372 1.034-1.797 1.016-2.785-.057-3.093-3.798-5.515-3.5-8.594.403-4.164 5.587-6.52 6.875-10.5.209-.645.24-1.37.094-2.031-1.079-4.868-6.996-8.265-6.938-13.25.056-4.774 5.705-7.919 6.938-12.532a3.925 3.925 0 00.031-1.875c-1.154-4.96-7.075-8.502-6.969-13.593.098-4.669 5.64-7.693 6.907-12.188a3.937 3.937 0 00.062-1.844c-1.106-5.319-7.078-9.286-7-14.718.074-5.124 5.8-8.706 7-13.688a3.92 3.92 0 000-1.812c-1.313-5.44-7.936-9.35-7.656-14.938.22-4.41 5.803-6.933 7.187-11.125a3.927 3.927 0 00.125-1.937c-.868-4.55-6.08-7.933-5.937-12.563.148-4.79 5.814-7.934 6.937-12.594a3.932 3.932 0 00-.062-2.062c-.845-2.693-2.568-5.161-4.625-7.094a3.931 3.931 0 00-1.656-.937z"/><path d="M112.5 240.612c3.167 1.25 6.55 2.051 9.5 3.75 3.959 2.28 7.382 5.413 10.75 8.5a80.757 80.757 0 018.25 8.75c2.862 3.542 5.167 7.5 7.75 11.25" stroke="#000" stroke-width="2" stroke-linecap="round" stroke-linejoin="round"/><g><path d="M67.542 375.353c5.222-4.598 9.395-9.447 13.523-14.657 5.262-6.64 10.225-13.59 14.246-21.046 3.748-6.948 6.76-14.326 9.096-21.868 2.128-6.87 3.585-13.973 4.428-21.115.748-6.344.865-12.776.54-19.156-.273-5.346-1.353-10.621-2.085-15.924-.838-6.07-1.017-12.284-2.642-18.192-1.852-6.733-4.84-13.136-8.016-19.355-2.532-4.957-5.917-9-8.755-14.221l-6.13 5.449c3.405 6.244 7.125 12.347 9.876 18.902 2.424 5.777 4.274 11.802 5.79 17.88 1.73 6.937 3.188 13.99 3.746 21.117.462 5.886.226 11.832-.34 17.71-.696 7.227-1.853 14.447-3.747 21.456-1.704 6.311-4.08 12.452-6.811 18.392-2.93 6.371-6.202 12.642-10.218 18.39-3.78 5.412-7.606 10.502-12.942 14.986.455 3.633.668 7.108.44 11.252z" fill="#F55" fill-rule="nonzero"/><path d="M62.662 345.784c4.007-6.01 8.787-11.572 12.02-18.031 3.637-7.267 6.262-15.074 8.132-22.981 1.53-6.473 2.317-13.15 2.475-19.8.183-7.68-.307-15.438-1.768-22.98-1.34-6.916-3.72-13.623-6.364-20.153-2.077-5.13-4.95-9.9-7.424-14.85l-15.91 11.315-.354 105.712c1.414.118 2.847.099 4.243.354 1.688.308 3.3.942 4.95 1.414z" fill="#F55" fill-rule="nonzero"/><path fill="#000" fill-rule="nonzero" d="M31 350.203l3.024-3.712 3.889-2.652h5.126l3.89.707-.354-174.478L31 159.992zM47.282 425.687v-46.67l-13.435 2.299L31 378.134v45.255l8.327.53zM30.415 442.943l11.752 1.045 11.752 1.828 10.447 2.96 8.009 3.482 7.138 2.96-4.7-6.268-6.356-6.965-11.49-6.529-13.059-4.44-7.312-1.305-6.181-.697z"/><g fill-rule="nonzero"><path d="M221.407 283.205s-3.099-4.455-4.596-6.718c-1.93-2.917-5.657-8.838-5.657-8.838L79.986 393.867s7.246 5.643 10.606 7.778c1.105.173 3.182-1.06 3.182-1.06s.886-2.934 2.122-3.536c.854-.416 2.828.354 2.828.354l2.828-2.829s1.993-4.934 3.536-7.07c3.323-4.603 7.687-8.406 12.063-12.022 3.393-2.803 7.075-5.28 10.918-7.424 2.756-1.538 5.751-2.604 8.643-3.868 1.856-.811 5.589-2.385 5.589-2.385l79.106-78.6z" fill="#FF5"/><path fill="#000" d="M217.507 277.823l-3.884-6.312L84.967 397.012l6.069 4.127z"/></g><g fill-rule="nonzero"><path d="M247.75 362.612l-.25-62.75s-7.36-2.97-10.75-5c-3.575-2.14-10-7.5-10-7.5l.75 83 10.75 9.25 9.5-17z" fill="#FF5"/><path fill="#000" d="M241.25 372.862l-.25-75-7.25-4 .5 81.25 4 3.75z"/></g><path d="M249.78 392.042c-4.818 3.162-10.526 6.917-15.344 10.079-3.613-3.915-6.795-8.277-10.84-11.744-3.994-3.424-8.464-6.315-13.098-8.807-3.557-1.914-7.337-3.434-11.184-4.664a69.753 69.753 0 00-11.743-2.67c-4.331-.594-8.73-.786-13.099-.639-4.287.145-8.585.607-12.783 1.492-3.921.826-7.736 2.137-11.489 3.545-3.336 1.251-6.627 2.66-9.768 4.343-2.257 1.208-4.604 3.132-6.485 4.11-1.882-.903-2.851-3.773-4.975-4.388-1.83-.53-3.885.175-5.646.903-1.544.639-2.71 1.957-4.065 2.936-.978 0-2.032-.375-2.936 0-1.573.652-1.978 3.137-3.613 3.613-.666.194-1.362-.63-2.032-.451-1.184.317-1.807 1.656-2.71 2.484-.678 0-1.407-.26-2.033 0-1.082.448-1.656 1.656-2.484 2.484l-2.259-.452c2.259-3.462 4.042-7.286 6.776-10.388 3.46-3.927 7.67-7.178 11.969-10.163 4.817-3.343 10.046-6.095 15.356-8.581 5.33-2.496 10.833-4.687 16.486-6.324 4.793-1.387 9.718-2.404 14.68-2.935 4.716-.505 9.487-.408 14.227-.226 4.08.156 8.172.434 12.195 1.129 3.598.622 7.137 1.597 10.614 2.71 6.151 1.97 12.415 3.875 18.067 7 4.848 2.682 9.051 6.41 13.324 9.937 2.671 2.205 5.285 4.498 7.678 7.001 2.597 2.717 5.106 5.58 7.214 8.666h0z" stroke="#55A" stroke-width="2" fill="#FF5" fill-rule="nonzero" stroke-linecap="round" stroke-linejoin="round"/><path d="M244.196 394.572l-5.437 3.678s-2.847-3.87-4.463-5.641a64.01 64.01 0 00-6.281-5.984c-2.834-2.366-5.82-4.567-8.949-6.525-4.533-2.837-9.189-5.573-14.167-7.525-4.968-1.948-10.205-3.255-15.473-4.102-5.163-.829-10.433-1.084-15.66-.932-4.972.145-9.974.63-14.82 1.752-5.23 1.211-10.31 3.105-15.193 5.332-4.947 2.257-14.168 8.085-14.168 8.085s-4.072.405-5.966 1.118c-1.825.688-5.033 2.983-5.033 2.983s-2.064-.38-2.983 0c-1.218.504-2.796 2.796-2.796 2.796s-1.098-.668-1.678-.559c-.954.18-2.237 1.864-2.237 1.864s2.463-3.008 3.915-4.287c3.48-3.067 7.494-5.472 11.372-8.017 3.529-2.316 7.05-4.678 10.812-6.593 5.266-2.68 10.704-5.121 16.368-6.804 6.555-1.948 13.347-3.287 20.17-3.747 6.325-.427 12.727-.014 18.996.932 6.095.92 12.203 2.27 17.916 4.586 5.838 2.368 11.216 5.815 16.404 9.39 3.31 2.28 6.363 4.923 9.321 7.643 2.233 2.052 4.259 4.318 6.339 6.524a345.134 345.134 0 013.691 4.033z" fill="#000" fill-rule="nonzero"/><path d="M213.998 425.607c.603-2.56 1.02-5.17 1.807-7.678.643-2.047 1.473-4.036 2.371-5.985.607-1.315 1.355-2.56 2.033-3.839.15 1.317.08 2.68.452 3.952.48 1.649.924 3.549 2.258 4.63 1.567 1.27 3.855 1.538 5.872 1.468 1.7-.06 3.514-.533 4.855-1.581 1.399-1.094 2.385-2.796 2.823-4.517.465-1.827.285-3.867-.339-5.646-.518-1.478-1.607-2.726-2.71-3.839-.816-.824-1.882-1.355-2.823-2.032-.113-1.054.164-2.229-.339-3.162-.531-.989-1.571-1.688-2.597-2.145-.695-.31-1.505-.226-2.258-.34-.113-.903.085-1.903-.339-2.71-.422-.801-1.194-1.462-2.032-1.806-.663-.272-1.43-.075-2.146-.113-.263-.865-.221-1.893-.79-2.597-.487-.603-1.265-1.022-2.033-1.129-1.302-.18-2.559.602-3.839.903-.451-.752-.622-1.775-1.355-2.258-.697-.46-1.652-.416-2.484-.339-.948.089-1.807.602-2.71.904-.414-.753-.484-1.854-1.242-2.259-.766-.41-1.764-.02-2.597.226-.694.205-1.28.678-1.92 1.016-.64-.677-1.072-1.644-1.92-2.032-.753-.346-1.699-.38-2.483-.113-.607.207-1.02.784-1.468 1.242-.712.727-1.28 1.58-1.92 2.371 1.205.753 2.472 1.413 3.613 2.259 1.244.92 2.46 1.903 3.5 3.048 1.09 1.199 1.97 2.577 2.824 3.952.968 1.56 1.776 3.214 2.597 4.856.836 1.671 1.71 3.333 2.371 5.081.943 2.496 1.579 5.099 2.258 7.678.591 2.243 1.095 4.508 1.581 6.775.41 1.913.753 3.84 1.13 5.76z" fill="#FF5" fill-rule="nonzero"/><path d="M227.393 411.968c1.43.006 2.972-1.27 3.181-2.63.245-1.587-1.177-3.334-2.617-4.044-1.784-.88-4.273-.597-5.948.476-2.721 1.742-3.512 5.465-4.746 8.452-1.578 3.817-2.22 8.446-3.33 11.936" stroke="#55A" stroke-width="2" stroke-linecap="round" stroke-linejoin="round"/><path d="M222.046 405.954c-1.242 1.291-1.935 4.102-1.694 6.245.186 1.651 1.02 3.395 2.343 4.4 1.711 1.299 4.156 1.6 6.294 1.39 1.954-.191 4.024-.958 5.397-2.362 1.285-1.316 1.86-3.28 2.095-5.105.23-1.784.063-3.729-.719-5.35-.8-1.66-2.253-3.038-3.832-3.991-1.233-.745-2.719-1.059-4.152-1.198-1.835-.179-3.744-.053-5.51.479a12.442 12.442 0 00-4.438 2.415c-1.273 1.085-2.166 2.562-3.067 3.973-1.243 1.946-2.129 4.098-3.194 6.148" stroke="#55A" stroke-width="2" stroke-linecap="round" stroke-linejoin="round"/><path d="M230.493 399.983c.16-1.171-.033-2.392-.719-3.274-.878-1.127-2.42-1.702-3.833-1.916-1.626-.247-3.289.345-4.87.798-1.525.438-3.023 1.033-4.392 1.837-1.225.72-2.333 1.644-3.353 2.635-1.49 1.448-2.661 3.194-3.992 4.79M225.223 394.074c-.16-.825-.001-1.784-.48-2.475-.461-.668-1.277-1.128-2.075-1.277-1.304-.244-2.647.321-3.913.718-1.227.386-2.383.982-3.513 1.597-1.555.848-3.103 1.748-4.471 2.875-1.395 1.148-2.502 2.608-3.753 3.912M220.592 389.923c-.186-.719-.071-1.597-.56-2.156-.642-.738-1.735-1.095-2.714-1.118-1.186-.028-2.28.69-3.353 1.198-1.403.663-2.732 1.49-3.992 2.395-1.136.815-2.107 1.837-3.194 2.715-.783.632-1.597 1.224-2.396 1.836M214.045 387.373c-.187-1.681-.926-2.167-1.917-2.56-1.004-.399-2.185.168-3.193.558-1.205.467-2.234 1.31-3.274 2.076-1.52 1.12-2.874 2.449-4.312 3.673M207.577 385.451c-.08-.931-.87-1.65-1.676-1.916-.957-.316-2.02.261-2.955.639-.842.34-1.599.878-2.315 1.437-.935.73-1.704 1.65-2.555 2.475M201.51 384.174c-.4-.612-.922-1.266-1.598-1.597-.578-.283-1.293-.401-1.916-.24-.83.215-1.498.885-2.076 1.517-.523.573-.798 1.331-1.198 1.996" stroke="#55A" stroke-width="2" stroke-linecap="round" stroke-linejoin="round"/><path d="M152.166 466.041c-6.002-.108-12.016.09-18.007-.326a150.408 150.408 0 01-14.857-1.793c-3.227-.55-6.403-1.413-9.604-2.12-.5-3.804-1.029-7.604-1.5-11.412-.533-4.289-.951-8.594-1.502-12.88-.412-3.212-.663-6.463-1.35-9.62-.411-1.89-1.1-3.695-1.65-5.543l-2.252-.326c-.75.816-1.238 2.1-2.25 2.446-1.358.463-2.953-.077-4.203-.815-1.803-1.066-3.118-2.998-4.202-4.891-1.045-1.826-1.9-3.894-2.1-6.033a8.823 8.823 0 01.6-4.076c.389-.954.935-1.993 1.8-2.445.857-.448 1.901 0 2.852 0 .5-.761.837-1.688 1.5-2.283 1.019-.913 2.402-1.195 3.602-1.793.65-.815 1.048-1.998 1.951-2.446.773-.384 1.7 0 2.551 0 .75-.76 1.296-1.873 2.251-2.282.791-.34 1.7 0 2.551 0 .85-1.087 1.345-2.697 2.551-3.261.874-.41 1.901.109 2.852.163.75-.978 1.19-2.395 2.25-2.935.861-.438 1.901 0 2.852 0 .95-.87 1.792-1.903 2.851-2.608 1.204-.802 2.528-1.437 3.902-1.794 1.414-.367 2.92-.603 4.352-.326 1.565.303 3.06 1.111 4.352 2.12 1.437 1.122 2.622 2.636 3.601 4.239 1.337 2.188 2.262 4.673 3.002 7.173 1.341 4.536 1.78 9.331 2.55 14.022 1.006 6.121 1.724 12.296 2.702 18.423.974 6.102 2.055 12.183 3.151 18.26.913 5.062 1.901 10.108 2.851 15.162z" fill="#FF5" fill-rule="nonzero"/><g stroke="#55A" stroke-linecap="round" stroke-linejoin="round" stroke-width="2.025"><path d="M151.965 465.227s-2.944-15.347-4.245-23.057c-1.551-9.197-2.492-18.514-4.244-27.668-1.188-6.205-1.37-12.93-4.245-18.446-1.972-3.783-4.621-8.106-8.489-9.223-3.753-1.083-8.654.18-11.24 3.327-2.173 2.643-2.62 7.182-1.493 10.508 1.224 3.614 4.506 7.692 8.05 7.551 3.688-.147 7.78-4.497 7.829-8.506.044-3.6-3.532-7.596-6.839-7.84-2.045-.151-4.529 1.975-4.796 4.183-.311 2.576 1.854 6.306 4.245 6.283 1.435-.014 3.415-1.83 2.486-3.82"/><path d="M147.015 465.992c-2.49-8.278-3.13-16.676-4.465-25.06-1.326-8.33-1.716-16.846-3.517-25.07-1.429-6.529-3.044-13.486-5.754-19.137M141.341 466.003c-1.9-7.206-2.474-14.8-3.52-22.243-1.019-7.25-1.386-14.645-2.682-21.827-.942-5.22-1.62-10.464-3.688-15.383M136.286 465.645c-1.688-6.888-2.2-14.146-3.129-21.26-.905-6.93-1.232-13.999-2.384-20.864-.837-4.99-1.44-10-3.278-14.703M131.341 465.048c-1.52-6.54-1.98-13.432-2.816-20.188-.815-6.581-1.109-13.293-2.145-19.812-.754-4.738-1.297-9.496-2.95-13.962M126.506 464.57c-1.52-6.222-1.98-12.778-2.816-19.205-.815-6.26-1.109-12.646-2.145-18.847-.754-4.508-1.297-9.035-2.95-13.283M121.082 463.723c-1.478-5.788-1.81-11.57-2.588-17.376-.781-5.832-1.078-11.764-2.086-17.533-.733-4.193-1.26-8.404-2.868-12.355M115.847 462.9c-1.393-5.297-1.814-10.877-2.581-16.348-.747-5.329-1.017-10.763-1.967-16.042-.69-3.837-1.188-7.69-2.704-11.306M110.592 462.646c-1.182-4.747-2.082-10.43-2.869-15.71-.71-4.757-.862-9.646-1.669-14.376-.586-3.439-1.008-6.892-2.294-10.132M126.375 408.565c-1.375 1.023-2.384 2.14-3.796 2.192-3.02.112-5.445-1.882-7.215-4.122-1.885-2.383-3.028-5.775-2.833-8.91.14-2.247 1.147-4.676 2.803-6.03.828-.678 1.71-.516 3.053-.632"/><path d="M121.37 410.83c-1.155 1.383-2.022 2.448-3.393 2.537-2.712.175-5.445-1.882-7.215-4.122-1.885-2.383-3.028-5.775-2.833-8.91.14-2.247.853-4.692 2.803-6.03.675-.464 1.043-.938 2.386-.217"/><path d="M117.194 413.577c-1.375 1.023-2.595 2.827-4.271 2.894-2.716.108-5.445-1.882-7.216-4.122-1.884-2.383-3.028-5.775-2.833-8.91.14-2.247 1.05-4.829 2.803-6.03.769-.528 1.383-.55 2.726-.069"/><path d="M111.48 416.68c-1.045 1.621-2.101 2.458-3.502 2.537-2.714.153-5.445-1.882-7.216-4.122-1.884-2.383-3.028-5.775-2.833-8.91.14-2.247 1.117-4.722 2.804-6.03.776-.603 1.382-.79 2.835-.427"/><path d="M106.645 419.785c-.496 1.381-1.884 2.327-3.173 2.416-2.711.188-5.445-1.882-7.215-4.121-1.885-2.384-3.028-5.775-2.833-8.91.14-2.247 1.113-4.727 2.803-6.031.643-.496 1.002-.224 2.345-.339"/><path d="M101.59 422.172c-.495 1.62-1.505 2.18-2.623 2.298-2.704.286-5.445-1.882-7.215-4.122-1.885-2.384-2.906-5.769-2.833-8.91.038-1.652.566-3.502 1.704-4.598.903-.87 2.152-.908 3.495-1.023"/></g><g fill-rule="nonzero" stroke-linecap="round" stroke-linejoin="round" stroke-width="2"><path d="M247.53 510.362l-32.53-40s-9.168 2.898-13.882 3.782c-6.946 1.303-14.02 2.066-21.085 2.218-11.092.239-22.25-.398-33.22-2.056-12.486-1.889-36.813-8.944-36.813-8.944l-28.963 45H247.53z" stroke="#55A" fill="#F55"/><path d="M230.846 508.88l-18.65-27.14c-7.299 2.252-11.526 1.796-20.83 2.723l4.651 24.417h6.445l-5.76-20.882c5.344-.332 7.738-.279 13.143-1.118l13.596 22h7.405zM186.007 508.88l-4.484-23.706c-11.336.936-19.893.957-31.228-.04l-5.642 23.746h7.267l3.428-19.278c8.906.473 13.603.52 21.081.041l3.032 19.237h6.546zM133.627 508.88l8.228-25.047c-8.275-.612-19.524-4.998-28.527-6.905l-16.23 31.952h7.13l12.211-24.574c5.028 1.218 12.983 2.808 18.011 3.427l-6.993 21.147h6.17z" stroke="#FFF" fill="#FFF"/></g><path stroke="#55A" stroke-width="2" d="M300 510.362H30v-360h0"/><g stroke="#55A" stroke-linecap="round" stroke-linejoin="round" stroke-width="2.017"><path d="M202.345 446.075c-.395-.44-.203-1.26.094-1.772.315-.544.957-1.012 1.588-1.025.614-.01 1.27.407 1.587.932.354.586.581 1.57.094 2.051-.798.789-2.613.648-3.363-.186h0zM152.104 457.407c4.754 1.138 9.373 2.782 14.262 3.415 3.163.41 6.52 1.102 9.6.227 1.933-.549 5.273-2.523 5.052-3.289-.11-.385-.9-.367-1.371-.341-2.181.118-4 1.881-6.15 2.264-2.61.466-5.316.222-7.954 0-4.548-.381-8.959-1.517-13.439-2.276z" fill="#55A" fill-rule="nonzero"/><path d="M177.77 448.345c.548.494 3.025.73 2.584 1.293-.58.74-3.935 3.301-6.287 4.214-2.191.85-4.61.999-6.972 1.05-2.502.055-5.071-.025-7.448-.788-2.878-.924-6.007-3.815-7.888-4.472"/><path d="M149.499 443.22c4.022.89 7.76 4.734 12.068 5.67 2.866.623 5.881.331 8.776-.121a18.869 18.869 0 005.105-1.557c.97-.456 1.698-.689 2.704-1.78-1.966-.768-2.152-3.464-3.832-4.306-3.068-1.537-6.765-.969-10.148-.727-2.665.19-5.223 1.204-7.853 1.704-2.264.431-4.672-.055-6.82 1.117h0z"/><path d="M159.647 447.324c.091-1.176-.408-2.495.274-3.529.817-1.238 2.498-2.065 4.114-2.504 1.26-.343 2.734-.382 3.977 0 1.186.364 2.232 1.147 2.88 2.049.886 1.234.731 2.808 1.097 4.212"/><path d="M164.205 447.289c-.396-.44-.204-1.26.093-1.772.316-.544.958-1.012 1.588-1.025.614-.01 1.27.407 1.588.932.354.586.58 1.57.093 2.051-.798.789-2.613.648-3.363-.186h0z" fill="#55A" fill-rule="nonzero"/><path d="M163.553 432.743c2.88.455 5.965 2.213 8.459 4.114 2.345 1.788 4.308 4.571 5.838 6.647M194.508 455.352c-.731-1.48-1.843-2.867-2.194-4.44-.716-3.21-.198-6.55.274-9.79.585-4.013 2.198-7.87 3.154-11.84.615-2.55 2.989-5.432 1.66-7.695-.775-1.321-2.996-.719-4.396-1.344-1.827-.815-3.676-2.38-5.14-3.101M177.337 429.971c-1.874-1.707-4.618-2.968-5.623-5.122-.478-1.026-.557-2.303 0-3.302.656-1.172 2.048-2.217 3.566-2.504 1.243-.235 2.571.308 3.703.797 1.438.62 2.243 2.03 3.702 2.618 1.049.422 2.345.925 3.429.57.365-.12.798-.485.685-.798-.366-1.012-2.37-.772-3.565-1.138-1.547-.473-3.109-.91-4.663-1.366"/><path d="M170.688 408.903c1.93.803 4.638.635 6.974.588 2.377-.047 4.677-.97 7.052-.88 2.707.103 5.185 1.59 7.895 1.61 1.989.016 4.261-.72 5.819-1.09-.125-.564-.321-1.298 0-1.74-1.998.62-4.812 1.5-7.268 1.253-2.314-.233-3.978-2.454-6.308-2.505-2.722-.059-4.822 2.519-7.542 2.603-2.599.08-5.377-1.643-7.406-2.034.54.666.806 1.732.784 2.195z" fill="#55A" fill-rule="nonzero"/><path d="M176.755 402.687c1.917-.682 3.706-1.705 5.75-2.046 1.521-.254 3.128-.199 4.655.033 1.038.157 1.998.57 2.972.909.904.314 1.773.692 2.66 1.039M189.514 395.246c-1.395.465-2.716.92-4.146.909-1.192-.01-2.307-.379-3.442-.812"/><path d="M194.766 457.73c1.9 1.846 6.055 2.313 9.31 2.523 2.367.153 4.764-.27 7.03-.946 1.283-.383 2.104-1.157 3.624-1.735-2.597.42-4.532 1.18-6.854 1.262-2.357.082-4.726-.347-7.03-.79-1.623-.31-3.126-.933-4.56-1.576-.63-.283-1.986.81-1.52 1.261h0z" fill="#55A" fill-rule="nonzero"/><path d="M194.1 449.616c1.857.76 3.472 2.902 5.571 3.592 2.797.92 5.913.978 8.814.552 1.918-.281 3.548-1.334 5.321-2.001M194.355 446.608c2.053.755 3.574.977 5.4 1.184 2.702.306 5.456.408 8.148.076 1.6-.198 3.265-.468 4.656-1.217.879-.473 1.441-1.319 2.162-1.978l-.416-3.043c-1.44-.456-2.825-1.11-4.323-1.369-2.045-.353-4.16-.345-6.236-.228-2.215.125-4.457.27-6.57.989-1.137.387-2.274.927-3.196 1.759-.646.582-1.152 1.795-1.54 2.175.36.658 1.602 1.304 1.915 1.652h0z"/><path d="M198.165 446.354c.091-1.177-.409-2.496.274-3.53.817-1.237 2.498-2.065 4.114-2.504 1.26-.342 2.733-.382 3.977 0 1.185.364 2.232 1.148 2.88 2.05.886 1.233.73 2.807 1.097 4.211M193.824 440.191c1.53-1.399 2.794-3.034 4.586-4.197 1.437-.932 3.215-1.432 4.822-2.148"/></g><path d="M215.585 469.53c-.079-6.74.005-13.485-.237-20.222-.238-6.59-.397-13.2-1.19-19.747-.795-6.563-1.552-13.213-3.569-19.509-1.764-5.507-3.96-11.036-7.375-15.702-2.552-3.488-5.738-6.707-9.517-8.803-3.163-1.754-6.859-2.616-10.468-2.855-4.152-.275-8.35.594-12.372 1.665-4.468 1.19-8.71 3.166-12.847 5.234-3.309 1.655-6.362 3.778-9.517 5.71-2.552 1.563-5.075 3.173-7.613 4.759" stroke="#55A" stroke-width="2" stroke-linecap="round" stroke-linejoin="round"/><path d="M249.161 392.453c18.859-9.051 37.744-18.168 55.685-24.926l.353-46.492s-12.964 11.549-18.915 17.855a197.407 197.407 0 00-14.85 17.677c-3.656 4.919-6.829 10.182-10.075 15.38-4.214 6.745-12.198 20.506-12.198 20.506h0z" stroke="#55A" stroke-width="2" fill="#000" fill-rule="nonzero" stroke-linecap="round" stroke-linejoin="round"/><path d="M305.5 321.612l-.25-19.5c-5.167 4.167-10.44 8.204-15.5 12.5-5.623 4.776-11.473 9.35-16.5 14.75-4.736 5.088-8.677 10.868-12.75 16.5-4.36 6.031-8.44 12.263-12.5 18.5-3.167 4.864-6.167 9.834-9.25 14.75l11 12.5c3.083-5.333 6.034-10.745 9.25-16 3.524-5.757 7.048-11.528 11-17 4.13-5.718 8.573-11.22 13.25-16.5a145.184 145.184 0 0110-10.25c3.906-3.618 8.167-6.833 12.25-10.25z" stroke="#55A" stroke-width="2" fill="#55A" fill-rule="nonzero" stroke-linecap="round" stroke-linejoin="round"/><path d="M252.219 383.612c1.012.287 1.555-1.64 1.656-2.687.306-3.157-5.324-6.43-3.344-8.907 1.616-2.02 5.273 1.99 7.688 1.063 1.056-.405 1.971-1.484 2.187-2.594.66-3.388-5.48-7.234-3.219-9.844 1.822-2.101 5.579 2.311 8.22 1.438 1.049-.347 1.985-1.341 2.28-2.406.963-3.476-4.837-7.958-2.343-10.563 1.946-2.032 5.634 2.332 8.312 1.469 1.052-.34 2.003-1.314 2.313-2.375.98-3.36-4.593-7.8-2.125-10.281 2.277-2.29 6.393 2.788 9.5 1.906 1.042-.296 2.007-1.2 2.375-2.219 1.185-3.278-4.08-8.255-1.313-10.375 2.244-1.718 5.029 3.47 7.844 3.219 1.082-.096 2.204-.81 2.75-1.75 1.893-3.254-2.79-9.566.563-11.281 1.977-1.012 3.408 3.222 5.593 3.625.933.172 2.266.201 2.781-.594.516-.796-.055-2-.593-2.781-1.915-2.78-5.13-5.334-8.5-5.5-1.159-.057-2.466.618-3.094 1.593-2.158 3.35 2.768 9.8-.594 11.938-2.554 1.625-5.406-3.842-8.406-3.438-1.134.153-2.28 1.038-2.719 2.094-1.418 3.414 4.112 8.481 1.406 11-2.434 2.266-6.597-2.93-9.78-1.969-1.072.324-2.056 1.303-2.376 2.375-1.007 3.375 4.608 7.815 2.156 10.344-1.965 2.028-5.662-2.354-8.343-1.469-1.05.347-1.986 1.342-2.281 2.407-.967 3.485 4.843 7.98 2.343 10.593-2.003 2.094-5.832-2.47-8.562-1.5-1.079.384-2.023 1.472-2.25 2.594-.694 3.426 5.489 7.285 3.25 9.969-1.684 2.018-5.37-2.03-7.813-1.063-1.06.42-1.972 1.531-2.156 2.657-.499 3.051 5.243 6.323 3.25 8.687-1.257 1.492-3.84-1.49-5.75-1.094-.925.192-2.167.666-2.344 1.594-.177.928.804 1.826 1.594 2.344 2.624 1.72 6.134 1.375 9.25 1.75.197.024.457-.113.594.031z" fill="#FFF" fill-rule="nonzero"/><path d="M226.732 294.087c-.243 3.641.264 5.782.021 9.424-6.23 8.091-11.284 19.369-17.515 27.46-1.688 6.067-11.218 17.356-13.853 19.284-1.849-.37-3.528-1.105-2.9-3.34.627-2.236 2.717-5.974 7.082-11.628 1.86-2.185 5.438-10.114 8.473-14.983 2.956-4.743 6.22-9.29 9.467-13.837 2.991-4.188 6.15-8.253 9.225-12.38h0z" stroke="#55A" stroke-width="2" fill="#FF5" fill-rule="nonzero" stroke-linecap="round" stroke-linejoin="round"/><path stroke="#55A" stroke-width="2" fill="#FF5" fill-rule="nonzero" stroke-linecap="round" stroke-linejoin="round" d="M194.685 347.586l1.33 10.217-5.453 3.038-2.206-6.069z"/><path d="M195.176 330.705s2.412-10.154 5.096-14.528c2.693-4.39 7.36-7.23 10.68-11.166 2.015-2.388 4.446-4.617 5.584-7.526 1.097-2.804.037-6.119.971-8.981.754-2.31 3.641-6.312 3.641-6.312l5.826 5.098-.485 6.797s-6.389 7.259-9.225 11.166c-2.307 3.18-4.14 6.679-6.311 9.953-1.414 2.133-2.995 4.154-4.37 6.311-4.455 6.993-12.555 21.474-12.555 21.474l-4.483 2.888 5.631-15.174zM227.46 369.339l-.478-80.778M143.955 360.6l72.824-71.853M226.489 361.57l-4.37 3.885M226.732 354.288l-10.681 8.497M226.732 347.977l-17.236 12.38M226.246 341.18l-23.547 17.478M226.003 333.655l-24.916 19.591M226.246 326.372l-24.196 21.04M225.76 320.304l-19.63 16.954M225.518 314.235L214.114 324.4M213.138 300.641l-.729-6.554M208.768 306.71l-.485-8.254M203.67 312.05l-.97-8.739M198.33 317.633l-1.214-7.525M194.924 328.3l-2.42-14.793M192.234 338.206l-4.831-20.314M188.352 347.892l-5.558-24.662M183.765 354.288l-4.855-26.702M177.454 354.288l-3.641-20.876M172.356 354.531l-3.398-16.264M166.773 354.774l-2.913-12.38M160.702 356.23l-1.93-9.725M156.577 356.959l-1.213-5.826M151.48 358.415l-.723-4.129" stroke="#55A" stroke-width="2" fill="#F55" fill-rule="nonzero" stroke-linecap="round" stroke-linejoin="round"/><path d="M56.173 357.212c1.14 1.838-2.08 5.635-2.093 8.578-.018 3.757 2.897 7.23 2.57 10.973-.202 2.288-1.982 4.157-2.716 6.334-.584 1.733-1.76 3.544-1.333 5.323.454 1.895 1.89 4.305 3.836 4.413 1.715.095 2.743-2.13 3.79-3.492 2.428-3.165 4.3-6.813 5.557-10.599 1.365-4.113 2.069-5.816 2.043-8.84-.032-3.773-.26-5.92-2.736-10.982.133-2.286.688-4.588.4-6.86-.217-1.7-.485-3.573-1.575-4.897-1.227-1.49-3.19-2.365-5.071-2.798-3.3-.76-7.112-.875-10.144.525" stroke="#55A" stroke-width="2" stroke-linecap="round" stroke-linejoin="round"/><path d="M62.768 385.025c-.96-.906-1.583-2.481-2.881-2.718-.95-.173-1.935.492-2.67 1.116-.853.726-1.281 1.848-1.78 2.852-.566 1.137-.96 2.782-1.36 3.56M45.078 369.915c-.184.447-.458.867-.551 1.34-.13.659-.172 1.364 0 2.012.237.896.63 1.868 1.378 2.414.872.636 2.096.793 3.168.67 1.158-.132 2.33-.667 3.17-1.475.579-.557 1.025-1.345 1.101-2.145.062-.65-.125-1.384-.55-1.878-.629-.727-1.683-.988-2.618-1.206-1.656-.387-3.4-.227-5.098-.135-2.141.117-4.362.13-6.375.87-1.79.658-3.457 1.764-4.822 3.084-.822.795-1.78 1.697-1.929 2.816-.199 1.5.172 3.414 1.516 4.29.795.519 1.965.071 2.936-.037 2.44-.273 4.772-1.098 7.18-1.531 2.074-.374 4.231-.331 6.254-.92 2.045-.597 3.929-1.766 5.833-2.612" stroke="#55A" stroke-width="2" stroke-linecap="round" stroke-linejoin="round"/><path d="M34.48 373.331c-1.001-.939-2.423-1.498-3.004-2.817-.41-.929-.47-2.148-.13-3.113.536-1.526 1.942-2.48 3.134-3.41 1.428-1.116 3.045-1.945 4.703-2.52 1.643-.572 3.383-.717 5.094-.89 1.692-.172 3.41-.4 5.094-.149.765.114 1.608.21 2.221.742.528.458.969 1.178 1.045 1.927.079.776-.257 1.584-.653 2.224-.606.98-1.465 1.91-2.482 2.224-.933.289-1.96-.085-2.874-.445-.811-.319-1.745-.67-2.22-1.482-.365-.624-.318-1.48-.262-2.224.063-.826.436-1.582.654-2.373" stroke="#55A" stroke-width="2" stroke-linecap="round" stroke-linejoin="round"/><path d="M33.571 363.694c-.682-1.137-1.77-2.087-2.048-3.41-.317-1.506-.24-3.31.546-4.596.903-1.476 2.69-2.094 4.233-2.67 1.91-.712 3.99-.74 6.007-.889 1.725-.127 3.5-.414 5.187 0 1.033.254 2.094.698 2.867 1.483.61.62 1.187 1.466 1.229 2.372.04.862-.392 1.764-.956 2.372-.738.796-1.84 1.156-2.867 1.335-1.037.18-2.207.228-3.14-.297-.688-.387-1.197-1.153-1.501-1.927a5.229 5.229 0 01-.273-2.817c.169-.889.819-1.582 1.228-2.372" stroke="#55A" stroke-width="2" stroke-linecap="round" stroke-linejoin="round"/><path d="M34.694 353.167c-.922-.445-2.514-.82-2.91-1.927-.4-1.117.398-2.405 1.018-3.41.877-1.422 2.125-2.745 3.638-3.41 1.25-.55 2.713-.319 4.074-.297 1.901.03 3.837.094 5.674.593 1.385.376 3.059.619 3.929 1.78.387.516.451 1.297.291 1.927-.278 1.09-1.089 2.089-2.037 2.668-1.224.748-2.905 1.31-4.22.742-1.189-.514-1.84-1.993-2.182-3.262a3.778 3.778 0 01.145-2.372c.31-.74 1.067-1.187 1.6-1.78" stroke="#55A" stroke-width="2" stroke-linecap="round" stroke-linejoin="round"/><path d="M248.207 363.614l-.712-63.152s4.556 13.945 7.795 20.498c3.023 6.117 10.779 17.4 10.779 17.4s-6.297 8.01-9.24 12.165c-3.018 4.264-8.622 13.089-8.622 13.089h0z" stroke="#55A" stroke-width="2" fill="#F55" fill-rule="nonzero" stroke-linecap="round" stroke-linejoin="round"/><path d="M31 488.81l16.194-14.953-.2-23.326s-5.015-1.192-7.575-1.395c-2.798-.223-8.419.2-8.419.2v39.474z" fill="#000" fill-rule="nonzero"/><path stroke="#55A" stroke-width="2" fill="#FF5" fill-rule="nonzero" stroke-linecap="round" stroke-linejoin="round" d="M30 496.778l23.175-20.13V450.93l-5.781-.797-.4 23.724L30 488.012z"/><path d="M30 449.136c5.117.2 11.001.493 16.422 1.381 6.07.994 12.11 2.376 17.918 4.4 5.868 2.046 11.456 4.862 16.946 7.776 3.846 2.04 7.443 4.519 11.164 6.778-2.458-5.383-4.192-11.16-7.376-16.149-3.905-6.118-8.436-12.077-14.155-16.547-5.854-4.575-12.897-7.591-19.937-9.968-5.063-1.71-10.452-2.288-15.75-2.99-1.734-.23-3.57-.267-5.232-.4v5.782c3.92.163 8.31.545 12.359 1.446 5.487 1.222 10.902 2.963 16 5.333 3.814 1.772 7.524 3.899 10.766 6.579 2.557 2.114 4.674 4.735 6.694 7.368 1.406 1.832 3.005 3.474 3.748 5.829-2.593-1.205-5.783-2.991-8.772-4.274-3.491-1.498-7.04-2.893-10.678-3.987-3.507-1.054-7.103-1.805-10.704-2.468a113.93 113.93 0 00-9.719-1.345c-3.221-.31-6.504-.261-9.694-.527v5.983z" stroke="#55A" stroke-width="2" fill="#FF5" fill-rule="nonzero" stroke-linecap="round" stroke-linejoin="round"/><path d="M65.283 445.836a1.5 1.5 0 113 0 1.5 1.5 0 01-3 0zM56.58 442.309a2.5 2.5 0 115 0 2.5 2.5 0 01-5 0zM45.265 438.956a3.5 3.5 0 117 0 3.5 3.5 0 01-7 0zM33.08 436.648a4.5 4.5 0 119 0 4.5 4.5 0 01-9 0z" fill="#FF5" fill-rule="nonzero"/><path stroke="#55A" stroke-width="2" fill="#FF5" fill-rule="nonzero" stroke-linecap="round" stroke-linejoin="round" d="M53.116 427.101v-50.204l-5.48 1.767v46.493zM53.47 343.132l-4.774 1.945-2.298-.884.354-174.479-16.617-10.253-.135-9.099 23.646 14.933z"/><path d="M65.844 353.916c3.889-5.068 8.3-9.775 11.667-15.203 3.528-5.689 6.437-11.784 8.839-18.031 2.463-6.407 4.392-13.053 5.657-19.8 1.177-6.281 1.846-12.7 1.767-19.091-.075-6.052-1.137-12.06-2.121-18.031-.921-5.588-1.925-11.188-3.536-16.618-1.4-4.72-3.29-9.294-5.303-13.788-1.896-4.233-4.242-8.25-6.364-12.374l-7.424 6.717c3.3 6.482 7.366 12.627 9.9 19.445 2.239 6.03 3.608 12.384 4.595 18.739 1.07 6.886 1.742 13.898 1.414 20.86-.275 5.844-1.477 11.63-2.828 17.324-1.454 6.129-3.19 12.235-5.657 18.03-2.21 5.193-5.06 10.116-8.132 14.85-2.013 3.105-4.478 5.893-6.717 8.839 1.178.943 2.793 1.514 3.535 2.828.878 1.553.472 3.536.708 5.304z" fill="#55A" fill-rule="nonzero"/><path d="M63.399 384.196c1.475 1.135 4.951 2.27 6.427 3.405 3.52-4.087 7.072-8.145 10.558-12.26 2.293-2.707 4.604-5.399 6.812-8.174 2.572-3.235 5.125-6.49 7.492-9.877 2.166-3.097 4.239-6.265 6.13-9.536 1.857-3.21 3.495-6.54 5.11-9.877 1.682-3.476 3.345-6.968 4.768-10.558 1.547-3.905 3.049-7.85 4.087-11.92 1.166-4.576 1.837-9.274 2.384-13.964.65-5.578 1.077-11.197 1.063-16.813-.014-5.193-.525-10.377-1.063-15.542-.678-6.5-1.264-13.044-2.725-19.413-1.573-6.86-3.948-13.526-6.471-20.095a167.523 167.523 0 00-7.493-16.688c-1.749-3.392-3.86-6.585-5.79-9.877l-7.152 7.152c3.633 6.244 7.99 12.12 10.899 18.732 2.92 6.64 4.792 13.72 6.47 20.776 1.759 7.39 3.182 14.903 3.747 22.478.524 7.02.246 14.1-.34 21.116-.541 6.47-1.295 12.97-2.925 19.255-1.747 6.739-4.39 13.243-7.293 19.57-2.648 5.774-5.898 11.26-9.195 16.69-2.763 4.547-5.465 9.18-8.856 13.282-3.694 4.47-8.428 8.456-12.401 12.202-.909 3.633-3.335 6.303-4.243 9.936z" fill="#55A" fill-rule="nonzero"/><path d="M89.311 400.375L63.23 383.758" stroke="#55A" stroke-width="2" stroke-linecap="round" stroke-linejoin="round"/><path d="M132.66 342.095l-53.463 51.777-9.633-7.465s10.5-10.75 15.172-16.617c5.715-7.177 11.045-14.705 15.653-22.638 2.237-3.85 3.99-7.965 5.78-12.041 2.087-4.75 5.78-14.45 5.78-14.45l20.711 21.434z" stroke="#55A" stroke-width="2" fill="#55A" fill-rule="nonzero" stroke-linecap="round" stroke-linejoin="round"/><path d="M83.625 388.893c.946-.372 1.644-1.416 1.875-2.406.716-3.065-4.29-7.193-1.906-9.25 1.93-1.666 4.672 3.048 7.187 2.625 1.14-.191 2.27-1.11 2.688-2.187 1.11-2.857-3.842-7.32-1.344-9.094 2.032-1.443 4.18 2.98 6.625 3.469.705.14 1.578.249 2.147-.19.569-.44.686-1.312.728-2.029.205-3.534-5.175-8.138-2.406-10.344 2.321-1.849 5.075 3.405 8 3.906.698.12 1.558.2 2.112-.242.553-.443.661-1.3.7-2.008.214-3.895-5.705-9.011-2.625-11.406 2.858-2.222 6.1 4.299 9.657 4.969.71.134 1.594.23 2.158-.223.564-.452.62-1.338.685-2.058.507-5.541-7.327-14.12-2.312-16.532 4.004-1.925 4.885 8.464 9.156 9.688.91.26 2.271.1 2.75-.719.48-.817-.2-1.957-.719-2.75-3.566-5.449-9.127-10.154-15.343-12.094-.703-.219-1.616-.305-2.203.138-.587.444-.704 1.346-.735 2.081-.243 5.799 8.937 13.218 4.406 16.844-2.782 2.227-6.003-4.218-9.5-4.906-.705-.139-1.578-.25-2.147.19-.569.439-.686 1.311-.728 2.028-.23 3.95 5.785 9.1 2.688 11.563-2.334 1.855-5.097-3.413-8.031-3.938-.706-.126-1.577-.225-2.14.22-.561.444-.667 1.315-.704 2.03-.183 3.483 5.129 8.05 2.375 10.188-1.855 1.44-3.952-2.77-6.25-3.25-.682-.142-1.517-.262-2.085.141-.568.403-.732 1.23-.821 1.921-.418 3.238 3.968 7.626 1.437 9.688-2.046 1.668-4.842-3.198-7.437-2.719-1.14.21-2.254 1.183-2.625 2.281-1.013 2.992 4.293 7.213 1.906 9.282-2.326 2.015-5.611-3.202-8.688-3.125-.985.024-2.395.21-2.728 1.138-.332.928.64 1.966 1.385 2.612 3.22 2.795 7.902 3.278 12.03 4.343.256.066.537.222.782.125z" fill="#FFF" fill-rule="nonzero"/><path stroke="#55A" stroke-width="2" fill="#F55" fill-rule="nonzero" stroke-linecap="round" stroke-linejoin="round" d="M193.23 348.487l-5.212 5.089-1.928-7.516 5.694-6.069zM203.647 352.461l-6.54 4.737-1.493-7.305 6.105-6.29z"/><path d="M209.5 267.362l-62 5.5s-3.048-5.341-4.836-7.836c-2.183-3.045-4.5-6.029-7.164-8.664-2.52-2.491-5.338-4.689-8.268-6.682-2.552-1.736-5.374-3.039-8.06-4.56l-6.172-3.5s2.867 10.918 3.755 16.483c.803 5.025 1.115 10.122 1.414 15.202.278 4.708.547 9.431.354 14.143-.271 6.631-.898 13.275-2.121 19.799-.833 4.44-3.536 13.081-3.536 13.081l19.86 21.274 76.774-74.24z" stroke="#000" stroke-width="2" fill="#000" fill-rule="nonzero" stroke-linecap="round" stroke-linejoin="round"/><path fill="#FF5" fill-rule="nonzero" d="M138.906 334.425l4.063-4-8.438-.062 1.563-1.47h.625l7.78-.155 3.938-4-8 .093 2.313-2.156 6.719.812 4.5-3.968-7.438-.407 1.344-1.28 7.5-.22 3.875-4-6.969.094 1.25-1.187h6.875l4.031-4h-6.625l2.125-2 5.657.625 4.437-3.97-9.375-.593-.361-13.696-4 3.969.361 11.258-2.094 2-.156-11.406-4 4.063.219 11.03-1.875 1.75-.344-11.5-4 4.188.5 10.938-1.531 1.437-.344-10.875-4 4.188.5 10.281-1.187 1.125-.407-9.937-4 4.25.625 9.25-2.5 2.343-.281-10.562-3.969 4.156.438 11.532.062 1.906 1.907.031zM124.984 318.927l4.062-4-8.437-.062 1.562-1.47h.625l7.782-.155 3.937-4-8 .093 2.313-2.156 6.718.813 4.5-3.97-7.437-.405 1.344-1.282 7.5-.218 3.875-4-6.97.093 1.25-1.187h6.876l4.031-4h-6.625l2.125-2 5.656.625 4.438-3.969-9.375-.594-.467-13.378-4 3.969.467 10.94-2.094 2-.156-11.406-4 4.063.219 11.031-1.875 1.75-.344-11.5-4 4.187.5 10.938-1.531 1.437-.344-10.875-4 4.188.5 10.281-1.188 1.125-.406-9.937-4 4.25.625 9.25-2.5 2.343-.281-10.562-1.428 7.862-2.103 7.826.062 1.906 1.906.031zM121.351 294.001l4.5-3.969-5.955-.406.39-1.493 6.971-.007 3.875-4-6.968.094 1.25-1.188h6.875l4.03-4h-6.624l2.125-2 5.656.625 4.438-3.968-9.375-.594-.467-13.378-4 3.968.467 10.941-2.094 2-.156-11.406-4 4.062.218 11.032-1.875 1.75-.343-11.5-1.036 2.281.077 11.679-.472 9.133zM35.313 477.3c.554.012 1.041-.428 1.468-.782 2.922-2.419 5.795-5.322 7.125-8.875.274-.732.302-1.59.094-2.343-.978-3.54-3.023-7.113-6.031-9.219-.791-.554-2.012-1.19-2.82-.661-.808.529-.714 1.902-.524 2.848.63 3.136 5.405 4.837 5.25 8.032-.16 3.293-4.913 4.677-6.188 7.718-.281.672-.581 1.518-.258 2.171.324.653 1.155 1.095 1.883 1.11zM42.281 421.55c.94-.6 1.464-1.92 1.407-3.032-.238-4.613-7.484-7.302-7.094-11.906.314-3.71 5.896-5.03 7.25-8.5a3.87 3.87 0 00.093-2.469c-1.108-3.637-3.478-7.228-6.718-9.218-.805-.495-2.031-1.006-2.797-.454-.766.553-.673 1.879-.453 2.797.765 3.198 5.935 4.684 5.812 7.97-.137 3.662-5.699 4.998-7.125 8.374a3.89 3.89 0 00-.219 2.313c1.118 4.967 4.073 9.67 7.813 13.125.554.512 1.296.829 2.031 1zM38.063 342.425c.668-.182 1.464-.44 1.793-1.05.33-.61.109-1.417-.106-2.075-.75-2.296-3.877-3.65-3.969-6.063-.18-4.743 5.613-7.893 6.875-12.469.161-.582.185-1.22.063-1.812-.931-4.513-6.21-7.902-5.906-12.5.291-4.405 5.807-6.931 7.187-11.125a3.936 3.936 0 00.125-2c-1.152-5.523-7.722-9.42-7.719-15.063.003-5.106 5.757-8.672 7-13.625a3.953 3.953 0 00.031-1.78c-1.155-5.304-7.226-9.264-7.03-14.688.168-4.686 5.73-7.697 6.968-12.219a3.942 3.942 0 00.031-1.906c-1.154-4.96-7.047-8.503-6.969-13.594.074-4.783 5.705-7.94 6.938-12.563a3.892 3.892 0 00.031-1.875c-1.145-4.818-7.143-8.209-6.906-13.156.197-4.127 5.406-6.479 6.781-10.375.21-.592.278-1.253.188-1.875-.495-3.407-1.547-7.055-3.907-9.562-.677-.72-1.756-1.658-2.671-1.286-.916.373-1.034 1.798-1.016 2.786.057 3.092 3.798 5.515 3.5 8.593-.403 4.165-5.587 6.52-6.875 10.5a3.941 3.941 0 00-.094 2.032c1.079 4.867 6.996 8.265 6.938 13.25-.056 4.774-5.705 7.918-6.938 12.531a3.925 3.925 0 00-.031 1.875c1.154 4.96 7.075 8.503 6.969 13.594-.098 4.668-5.64 7.693-6.907 12.187a3.937 3.937 0 00-.062 1.844c1.106 5.319 7.078 9.286 7 14.719-.074 5.124-5.8 8.705-7 13.687a3.92 3.92 0 000 1.813c1.313 5.439 7.936 9.35 7.656 14.937-.22 4.41-5.803 6.933-7.187 11.125a3.927 3.927 0 00-.125 1.938c.868 4.55 6.08 7.933 5.937 12.562-.148 4.79-5.814 7.935-6.937 12.594a3.932 3.932 0 00.062 2.062c.845 2.694 2.568 5.162 4.625 7.094a3.931 3.931 0 001.656.938z"/><path d="M247.5 300.112c-3.167-1.25-6.55-2.05-9.5-3.75-3.959-2.28-7.382-5.413-10.75-8.5a80.757 80.757 0 01-8.25-8.75c-2.862-3.542-5.167-7.5-7.75-11.25" stroke="#000" stroke-width="2" stroke-linecap="round" stroke-linejoin="round"/></g><path d="M180 255.362s3 5.167 6.5 8.5c3.5 3.334 8.5 6.5 8.5 6.5s-5 3.334-8.5 6.667c-3.5 3.333-6.5 8.333-6.5 8.333s-3-5-6.5-8.333-8.5-6.5-8.5-6.5 5-3.5 8.5-6.833c3.5-3.334 6.5-8.334 6.5-8.334" fill="#FF5" fill-rule="nonzero"/><path d="M180 260.362s2 3.445 4.333 5.667c2.334 2.222 5.667 4.333 5.667 4.333s-3.333 2.222-5.667 4.445C182 277.029 180 280.362 180 280.362s-2-3.333-4.333-5.555c-2.334-2.223-5.667-4.334-5.667-4.334s3.333-2.333 5.667-4.555c2.333-2.222 4.333-5.556 4.333-5.556M90 45.362s6 15 13 25 17 20 17 20-10 10-17 20-13 25-13 25-6-15-13-25-17-20-17-20 10-10 17-20 13-25 13-25M30 90.362s3 7.5 6.5 12.5 8.5 10 8.5 10-5 5-8.5 10-6.5 12.5-6.5 12.5-3-7.5-6.5-12.5-8.5-10-8.5-10 5-5 8.5-10 6.5-12.5 6.5-12.5M270 495.362s-6-15-13-25-17-20-17-20 10-10 17-20 13-25 13-25 6 15 13 25 17 20 17 20-10 10-17 20-13 25-13 25M330 450.362s-3-7.5-6.5-12.5-8.5-10-8.5-10 5-5 8.5-10 6.5-12.5 6.5-12.5 3 7.5 6.5 12.5 8.5 10 8.5 10-5 5-8.5 10-6.5 12.5-6.5 12.5" fill="#F55" fill-rule="nonzero"/></g></svg>