<svg width="360" height="540" xmlns="http://www.w3.org/2000/svg"><g transform="translate(0 -.362)" fill="none" fill-rule="evenodd"><rect stroke="#000" fill="#FFF" fill-rule="nonzero" x=".5" y=".862" width="359" height="539" rx="29.944"/><path d="M30 30.362v5h5v35a5 5 0 01-10 0v-5h-5v5c0 5.523 4.477 10 10 10s10-4.477 10-10v-40H30zM330 510.362v-5h-5v-35a5 5 0 0110 0v5h5v-5c0-5.523-4.477-10-10-10s-10 4.477-10 10v40h10z" fill="#F55" fill-rule="nonzero"/><path stroke="#55A" stroke-width="2" d="M60 30.362h270v360h0M30 150.362v360h270"/><g stroke="#55A" stroke-linecap="round" stroke-linejoin="round" stroke-width="2"><path d="M30 346.4l48.981 30.981M30 339.018l52.69 33.818M30 331.636l52.036 33.382M30 324.254l36.763 23.782M30 316.873L58.254 335.2M30 309.49l23.454 15.492M30 302.11l19.309 11.999M32.727 296.218l13.527 9.164M37.963 292.51l7.855 5.454"/></g><path d="M130.175 147.374c-5.805 3.46-11.672 6.817-17.415 10.379-9.192 5.701-18.364 11.448-27.267 17.59-6.834 4.717-13.607 9.544-20.054 14.778-6.938 5.633-13.443 11.785-20 17.859-5.235 4.848-10.293 9.886-15.439 14.83v74.969c4.718-2.932 8.713-5.286 13.431-8.218 1.349 6.685 2.217 13.612 4.19 20.199 2.229 7.433 5.078 14.717 8.59 21.637 2.882 5.683 6.403 11.046 10.17 16.184 2.776 3.785 6.033 7.193 9.117 10.73 3.53 4.05 6.873 8.202 10.743 12.013l52.906-70.082 7.564-.176 9.851-20.582 16.494.145-.47-18.434-16.288-.113-.264-20.826 18.966.106c-1.935-8.326-3.922-17.342-6.652-25.79-2.575-7.968-5.444-15.886-9.147-23.396-4.363-8.848-9.806-17.14-15.305-25.331-4.274-6.368-9.147-12.314-13.72-18.471z" fill="#000" fill-rule="nonzero"/><path d="M193.683 60.889s10.71 1.181 16.046 1.926c4.72.658 9.435 1.38 14.121 2.246 6.881 1.272 20.54 4.333 20.54 4.333s1.11 9.102 1.765 13.64a571.324 571.324 0 002.407 15.083c.7 4.074 1.017 8.25 2.247 12.196 1.204 3.862 2.44 7.918 4.974 11.072 1.628 2.026 6.258 4.653 6.258 4.653s1.698-2.313 2.889-3.049c1.569-.969 3.451-1.576 5.295-1.604 2.05-.031 4.09.716 5.937 1.604 1.794.863 3.61 1.946 4.814 3.53 1.28 1.685 2.018 3.834 2.247 5.938.24 2.203-.234 4.486-.963 6.579-.772 2.218-1.872 4.434-3.53 6.098-1.574 1.579-3.668 2.646-5.777 3.37-2.297.787-4.793.997-7.22.962a23.669 23.669 0 01-6.9-1.123 31.03 31.03 0 01-8.345-4.172c-1.822-1.29-3.334-2.984-4.814-4.654-1.47-1.657-4.012-5.295-4.012-5.295l-64.026.32s7.849-5.606 11.072-9.146c3.267-3.586 6.118-7.645 8.184-12.035 2.206-4.686 3.539-9.804 4.333-14.923.648-4.177.695-8.466.32-12.677-.352-3.97-1.236-7.903-2.406-11.714-1.394-4.539-5.456-13.158-5.456-13.158z" fill="#FF5" fill-rule="nonzero"/><path fill="#000" fill-rule="nonzero" d="M140.451 142.56l6.767-2.76 98.579 1.664 4.172 3.447-10.159 12.516h-96.323l-3.628-5.986-4.7-6.27z"/><path fill="#F55" fill-rule="nonzero" d="M330 55.362l-.5 122.5-18.5-12-1-97.818z"/><path d="M109.47 30.362l28.53 36s10.763-2.848 16.244-3.782c6.724-1.145 13.522-2.066 20.341-2.218 10.702-.238 21.425.738 32.048 2.057 12.62 1.567 37.514 6.943 37.514 6.943l27.94-39H109.47z" stroke="#55A" stroke-width="2" fill="#F55" fill-rule="nonzero" stroke-linecap="round" stroke-linejoin="round"/><path d="M125.565 31.844l17.582 26.32c7.041-2.252 11.53-2.976 20.506-3.903l-4.488-22.417h-6.217l5.556 18.883c-5.566.742-7.465.843-12.679 2.298l-13.116-21.18h-7.144zM168.822 31.844l4.326 21.706c10.935-.935 19.395-.597 30.33.606l5.239-22.312h-7.011l-3.717 17.638c-8.592-1.088-12.713-.88-19.927-.4l-2.925-17.238h-6.315zM219.353 31.844l-7.322 23.613c7.982.611 18.22 3.972 26.905 5.88l15.658-29.493h-6.879l-11.78 24.575c-4.85-1.219-12.525-3.63-17.375-4.248l6.746-20.327h-5.953z" stroke="#FFF" stroke-width="2" fill="#FFF" fill-rule="nonzero" stroke-linecap="round" stroke-linejoin="round"/><path d="M194.342 61.886c2.05 5.877 5.044 11.506 6.15 17.63 1.118 6.189 1.192 12.621.41 18.86-.634 5.068-2.058 10.08-4.1 14.761-1.668 3.824-3.833 7.502-6.56 10.66-3.614 4.185-7.99 7.78-12.71 10.66-2.828 1.726-5.989 2.901-9.163 3.85-3.166.948-6.446 1.666-9.748 1.81-3.867.167-8.421 1.143-11.56-1.125-1.019-.737-1.333-2.208-1.524-3.452-.185-1.197.389-2.4.401-3.612.01-.886.018-1.8-.24-2.649-.277-.905-.702-1.814-1.365-2.488-.605-.616-1.903-.494-2.248-1.285-.33-.755-.051-1.857.562-2.408.983-.883 2.62-.349 3.933-.482 1.336-.135 2.684-.502 4.014-.32 1.694.23 3.147 1.205 4.816 1.765.117-.715-1.328-2.186-1.926-2.97-.678.547-2.021.501-3.05.642-1.223.168-2.464.14-3.693.241-1.072.089-2.135.327-3.211.321-.97-.005-2.095.234-2.89-.32-.49-.343-.79-1.008-.803-1.606-.012-.527.411-.972.642-1.445.4-.818 1.108-1.516 1.285-2.408.313-1.583.265-3.386-.482-4.817-.685-1.312-2.066-2.191-3.371-2.89-1.569-.84-3.479-.803-5.138-1.445-1.116-.431-2.707-.52-3.21-1.605-.858-1.849.726-4.033 1.444-5.94 1.425-3.786 3.91-7.09 5.62-10.757 1.246-2.676 2.695-5.315 3.37-8.188.345-1.462.58-3.015.322-4.495-.34-1.96-1.936-3.527-2.408-5.46-.395-1.614-.214-3.317-.321-4.976" stroke="#55A" stroke-width="2" stroke-linecap="round" stroke-linejoin="round"/><path d="M174.387 81.965c-4.516-3.515-8.613-6.172-13.403-8.356-3.098-1.413-6.338-2.968-9.766-3-2.152-.02-6.19.955-6.203 1.772-.006.41.808.621 1.298.732 2.273.514 4.685-.692 7.009-.447 2.82.297 5.535 1.237 8.15 2.3 4.537 1.842 9.291 4.228 12.915 6.999z" stroke="#55A" stroke-width="2" fill="#55A" fill-rule="nonzero" stroke-linecap="round" stroke-linejoin="round"/><path d="M145.5 79.612c1 .417 1.986.553 3 .52 1.456-.046 2.797-.914 4.25-1.02 2.754-.2 5.573.073 8.25.75 2.461.623 4.777 1.775 7 3 1.417.781 2.667 1.834 4 2.75M147.733 82.418c1.314.292 2.6.766 3.942.876 1.749.143 3.508-.454 5.255-.292 2.245.207 4.526.655 6.57 1.605 2.841 1.322 5.06 3.699 7.59 5.548" stroke="#55A" stroke-width="2" stroke-linecap="round" stroke-linejoin="round"/><path d="M148.901 84.024c.098 1.167-.225 2.451.292 3.503.669 1.36 2 2.393 3.358 3.066 1.462.724 3.186.94 4.817.876 1.71-.068 3.382-.66 4.964-1.314.987-.408 1.766-1.249 2.773-1.606.882-.313 1.85-.292 2.774-.438" stroke="#55A" stroke-width="2" stroke-linecap="round" stroke-linejoin="round"/><path d="M156.638 84.024c.292 1.07.919 2.102.876 3.211a3.704 3.704 0 01-.73 2.044c-.504.668-1.362.973-2.043 1.46" stroke="#55A" stroke-width="2" stroke-linecap="round" stroke-linejoin="round"/><path d="M152.405 88.257c.791.039 1.53-.963 1.606-1.752.07-.74-.429-1.826-1.168-1.898-.857-.083-1.708 1.038-1.752 1.898-.037.73.585 1.716 1.314 1.752z" stroke="#55A" stroke-width="2" fill="#55A" fill-rule="nonzero" stroke-linecap="round" stroke-linejoin="round"/><path d="M149.193 90.447c1.314 1.216 2.52 2.562 3.942 3.65 1.094.836 2.254 1.61 3.503 2.189 1.16.537 2.433.779 3.65 1.168" stroke="#55A" stroke-width="2" stroke-linecap="round" stroke-linejoin="round"/><path d="M150.799 100.665c.584.876 1.545 1.596 1.752 2.628.204 1.02-.092 2.156-.597 3.066-.46.827-1.182 1.63-2.078 1.932-.928.312-1.999.03-2.924-.292-1.127-.392-1.95-1.391-3.014-1.932-.838-.426-1.693-.922-2.628-1.022-.588-.063-1.16.286-1.752.279-.533-.006-1.164.052-1.575-.288-.36-.297-.716-.888-.507-1.305.32-.638 1.352-.609 2.065-.57 1.312.069 2.513.818 3.667 1.446 1.103.6 1.938 1.637 3.066 2.19.86.422 1.815 1.01 2.756.824 1.112-.22 2.07-1.16 2.645-2.138.383-.653.493-1.488.386-2.237-.135-.948-.97-1.656-1.262-2.58h0zM163.061 107.965c1.8.68 3.826 1.223 5.209 2.269 1.082.819 1.391 2.425 1.215 3.716-.214 1.564-1.337 3.032-2.628 3.941-1.148.81-2.684.973-4.087 1.022-1.68.06-3.34-.446-4.964-.876-1.398-.37-2.691-1.08-4.087-1.46-1.004-.273-2.026-.618-3.066-.583-1.156.038-2.241 1.178-3.358.875-.73-.198-1.574-.849-1.605-1.605-.035-.828.873-1.511 1.605-1.898 1.255-.663 2.833-.66 4.234-.438 1.42.226 2.633 1.156 3.941 1.752 1.466.668 2.827 1.617 4.38 2.043 1.415.39 2.935.698 4.38.438 1.296-.232 2.761-.681 3.55-1.736.752-1.006.979-2.508.631-3.714-.278-.968-1.199-1.658-2.011-2.252-.984-.72-2.365-.91-3.339-1.494h0z" stroke="#55A" stroke-width="2" fill="#55A" fill-rule="nonzero" stroke-linecap="round" stroke-linejoin="round"/><path stroke="#55A" stroke-width="2" fill="#FF5" fill-rule="nonzero" stroke-linecap="round" stroke-linejoin="round" d="M287.5 151.862l42.5 27.5v9.5l-47.5-31.5zM284.5 50.362c-3.833 6.334-8.34 11.498-10.616 18.116-1.956 5.687-2.65 11.876-2.384 17.884.303 6.827 1.709 13.763 4.5 20 2.343 5.235 6.667 9.334 10 14 1.5-4.833 2.166-10.01 4.5-14.5 2.137-4.111 5.176-7.771 8.5-11 1.626-1.58 3.667-2.666 5.5-4l-1-14.5c-3-1.833-6.388-3.147-9-5.5a29.392 29.392 0 01-6.5-8.5c-1.88-3.718-2.333-8-3.5-12z"/><path d="M284.737 50.594s-4.125 11.68-4.237 17.768c-.062 3.399 2 10 2 10l-10.5 7 10.5 8s-1.863 7.651-1.5 11.5c.525 5.56 5.237 15.914 5.237 15.914s1.67-10.387 3.97-15.03c1.721-3.474 4.53-6.315 7.147-9.177 2.045-2.237 6.646-6.207 6.646-6.207v-15.5s-7.58-2.837-10.5-5.5c-2.493-2.274-4.06-5.448-5.5-8.5-1.533-3.247-3.263-10.268-3.263-10.268zM273.75 85.457l30.25-.22M282.5 78.737l20.5-.375M281.138 71.112h14.996M281.573 63.57l7.625-.126M282.125 92.862l19.134-.302M282 100.487l11.362-.302M282.625 106.987l6.655-.021" stroke="#55A" stroke-width="2" fill="#FF5" fill-rule="nonzero" stroke-linecap="round" stroke-linejoin="round"/><path stroke="#55A" stroke-width="2" fill="#FF5" fill-rule="nonzero" stroke-linecap="round" stroke-linejoin="round" d="M330 46.362l-26 17.5v98.5l6 3.7v-97.7l20-13z"/><path d="M242.813 137.582l3.207 3.864-88.506-.129s4.297-.474 6.414-.898c1.82-.364 3.616-.855 5.387-1.41 1.304-.41 3.848-1.411 3.848-1.411l69.65-.016zM143.301 157.427l96.872-.362-3.81 4.716-89.61.363zM167.25 143.46v11.61l12.699.18-.182-11.79zM196.275 143.822l-.182 11.429h13.06l-.18-11.61zM224.391 143.822v11.247h11.791l-.18-11.61zM138.693 143.46h13.501l-.181 11.79-9.796.363s-1.762-2.936-2.72-4.353c-1.389-2.052-4.386-6.002-4.386-6.002l3.582-1.798z" fill="#FF5" fill-rule="nonzero"/><path d="M148.943 149.348a3 3 0 11-6 0 3 3 0 016 0zM176.697 149.257a3 3 0 11-6 0 3 3 0 016 0zM205.358 149.439a3 3 0 11-6 0 3 3 0 016 0zM233.475 148.895a3 3 0 11-6 0 3 3 0 016 0z" stroke="#000" stroke-width="2" fill="#FF5" fill-rule="nonzero"/><path d="M163.548 149.755a3.5 3.5 0 11-7 0 3.5 3.5 0 017 0zM191.612 149.446a3.5 3.5 0 11-7 0 3.5 3.5 0 017 0zM220.636 149.627a3.5 3.5 0 11-7 0 3.5 3.5 0 017 0zM246.757 148.902l-3.681 4.225c-1.27 1.458-2.775-1.385-2.775-3.318a3.5 3.5 0 013.5-3.5c1.933 0 4.226 1.135 2.956 2.593z" fill="#FF5" fill-rule="nonzero"/><path d="M147.493 162.207l89.106-.379-55.739 78.489s-3.38-15.702-5.877-23.32c-2.87-8.753-6.468-17.275-10.427-25.593-2.881-6.053-6.25-11.866-9.67-17.632-2.333-3.935-7.393-11.565-7.393-11.565z" fill="#55A" fill-rule="nonzero"/><path d="M166.726 172.54l46.749-.165-28.748 38.865s-2.274-8.018-3.72-11.92a115.975 115.975 0 00-4.833-11.207c-1.62-3.269-3.456-6.432-5.373-9.536-1.277-2.065-4.075-6.037-4.075-6.037z" fill="#FFF" fill-rule="nonzero"/><path d="M130.056 147.539c4.045 5.245 9.738 11.985 14.03 18.39a231.713 231.713 0 0114.408 24.646c3.684 7.306 7.05 14.81 9.67 22.56 2.898 8.583 4.36 17.316 6.635 26.353 1.517.127 4.17.063 5.687.19-.758-3.602-1.596-6.837-2.464-10.238-1.62-6.342-2.971-12.775-5.119-18.959-2.369-6.82-5.418-13.393-8.531-19.906-3.146-6.58-6.458-13.1-10.238-19.338-3.062-5.052-6.594-9.806-10.048-14.598-2.946-4.087-6.636-8.652-9.1-12.065-1.201.759-3.729 2.206-4.93 2.965z" stroke="#000" stroke-width="2" fill="#FF5" fill-rule="nonzero" stroke-linecap="round" stroke-linejoin="round"/><path d="M173.839 175.97l31.68-.11-19.481 25.91s-1.541-5.345-2.521-7.947a76.663 76.663 0 00-3.275-7.471c-1.098-2.18-2.342-4.288-3.642-6.357-.865-1.377-2.761-4.025-2.761-4.025z" fill="#55A" fill-rule="nonzero"/><path fill="#000" fill-rule="nonzero" d="M254.912 147.388l5.657 1.414 7.955.177 6.01-1.591 4.066-2.652 9.9 6.126-67.297 89.687-33.643-.53z"/><path d="M271.031 150.487c-.847-.029-1.454.997-1.844 1.75-1.512 2.926.803 7.338-1.406 9.781-4.463 4.937-13.711 1.319-19.375 4.813a3.91 3.91 0 00-1.5 1.75c-3.214 7.486 2.996 18.298-2.5 24.312-4.037 4.42-12.406.506-17.625 3.438-.7.394-1.3 1.046-1.625 1.781-3.115 7.042 2.81 17.115-2.156 23-3.52 4.172-10.986 1.703-15.813 4.25a3.91 3.91 0 00-1.312 1.125c-1.94 2.64-3.761 5.758-3.875 9.031-.034.978.07 2.381.967 2.772s1.998-.485 2.69-1.178c2.084-2.091 1.296-6.195 3.53-8.125 4.23-3.653 11.464-1.388 16.188-4.375a3.87 3.87 0 001.469-1.719c2.99-7.062-2.993-17.222 2.156-22.906 4.018-4.436 12.394-.528 17.625-3.437a3.9 3.9 0 001.625-1.75c3.377-7.46-2.869-18.255 2.5-24.438 4.348-5.007 13.62-1.378 19.313-4.781a3.906 3.906 0 001.5-1.656c1.592-3.391 2.702-7.547 1.593-11.125-.31-1-1.079-2.277-2.125-2.313z" fill="#FF5" fill-rule="nonzero"/><path d="M262.478 156.934a3.5 3.5 0 11-7 0 3.5 3.5 0 017 0zM260.533 176.91a3.5 3.5 0 11-7 0 3.5 3.5 0 017 0zM240.027 185.748a3.5 3.5 0 11-7 0 3.5 3.5 0 017 0zM239.143 206.961a3.5 3.5 0 11-7 0 3.5 3.5 0 017 0zM218.46 215.27a3.5 3.5 0 11-7 0 3.5 3.5 0 017 0zM219.344 234.892a3.5 3.5 0 11-7 0 3.5 3.5 0 017 0z" fill="#FF5" fill-rule="nonzero"/><path stroke="#000" stroke-width="2" fill="#F55" fill-rule="nonzero" stroke-linecap="round" stroke-linejoin="round" d="M249.496 143.937l-69.2 95.93h7.584l66.924-92.707z"/><g stroke="#55A" stroke-linecap="round" stroke-linejoin="round" stroke-width="2"><path d="M244.158 69.676c1.485 7.569 2.487 15.22 3.783 22.821 1.074 6.296 1.281 12.817 3.31 18.873 1.259 3.76 2.939 7.494 5.416 10.59 1.332 1.665 3.233 2.78 4.916 4.092"/><path d="M237.393 68.856c1.589 9.428 2.948 18.175 4.632 27.225 1.094 5.876 1.532 11.95 3.554 17.575 2.162 6.012 4.53 12.375 9.034 16.906 3.14 3.159 7.294 6.311 11.748 6.367 1.794.022 4.53-.672 4.794-2.446.22-1.474-2.114-2.783-3.217-3.1"/><path d="M230.218 67.011c2.201 7.156 3.21 14.585 4.51 21.936 1.385 7.832 1.184 15.994 3.503 23.602 2.27 7.442 4.814 15.305 10.036 21.072 4.076 4.502 9.54 8.937 15.594 9.425 4.3.347 9.91-1.063 12.006-4.835 1.824-3.282 1.44-9.475-1.947-11.094-2.267-1.084-7.964-1.569-6.597 3.65"/><path d="M223.658 66.191c2.036 5.835 2.688 12.013 3.966 18.034 2.681 12.64 3.145 25.91 7.764 37.976 2.315 6.048 5.439 11.99 9.812 16.766 3.635 3.969 7.907 8.198 13.164 9.345 6.78 1.48 15.66 1.134 20.454-3.885 4.094-4.285 5.912-12.745 2.514-17.601-3.363-4.805-12.427-7.012-17.217-3.628-3.093 2.184-2.84 7.715-1.507 11.26.416 1.103 1.78 1.71 2.665 2.326M216.893 64.756c1.825 5.6 3.171 11.346 4.329 17.116 2.194 10.939 1.93 22.36 4.943 33.103 1.843 6.57 5.026 13.225 7.948 18.867M209.308 63.321c1.82 5.25 3.208 10.65 4.332 16.09 1.907 9.232 2.698 18.533 4.073 27.987 1.351 9.294 5.415 18.33 9.84 26.4M201.312 62.501c2.2 4.83 3.928 9.869 5.233 15.001 2.977 11.702 3.153 23.98 5.861 35.747 1.056 4.583 2.266 9.163 4.036 13.52 1.085 2.673 2.787 5.406 4.007 7.67M201.035 82.797c1.063 7 1.836 14.09 3.168 21.066 1.248 6.54 2.555 13.093 4.514 19.455 1.108 3.595 2.86 6.96 4.076 10.524M198.647 109.037c.964 5.367 1.883 10.77 3.408 16.009.896 3.075 2.192 6.019 3.358 9.001M193.727 119.902c.684 4.964 1.997 9.883 4.305 14.35M189.012 126.052c.571 2.753 1.197 5.56 2.665 7.995M183.628 130.865c.418 1.254.521 2.635 1.507 3.708"/></g><path fill="#000" fill-rule="nonzero" d="M179.742 134.283l60.556-.154 2.565 3.536-69.748-.01z"/><g stroke="#55A" stroke-linecap="round" stroke-linejoin="round" stroke-width="2"><path d="M310 76.809l20-13M310 84.851l20-13M310 92.894l20-13M310 100.936l20-13M310 108.979l20-13M310 117.022l20-13M310 125.064l20-13M310 133.107l20-13M310 141.15l20-13M310 149.192l20-13M310 157.234l20-13M310 165.277l20-13M316 169.32l14-9M322 173.362l8-5"/></g><path d="M124.219 153.768c-.936.03-1.572 1.188-1.906 2.063-1.134 2.968-.765 6.49.156 9.531.2.664.609 1.287 1.125 1.75 5.269 4.73 15.177 3.54 19 9.5 4.05 6.317-1.21 15.256.75 22.5.154.572.452 1.118.844 1.563 3.964 4.505 12.35 4.946 14.625 10.5 2.212 5.399-2.906 11.415-2.97 17.25-.004.421.06.849.188 1.25.875 2.718 1.752 5.75 3.906 7.625.726.631 1.868 1.385 2.726.949.857-.436.923-1.804.837-2.762-.234-2.622-3.2-4.429-3.594-7.031-.902-5.959 3.754-11.822 3.094-17.813a3.928 3.928 0 00-.813-1.968c-3.789-4.787-11.999-5.302-14.875-10.688-3.563-6.675 1.532-15.473-.75-22.687a3.94 3.94 0 00-1.125-1.72c-5.288-4.708-15.232-3.504-19-9.5-1.474-2.345.984-5.772-.124-8.312-.387-.884-1.13-2.03-2.094-2z" fill="#FF5" fill-rule="nonzero"/><path d="M135.962 160.446a3.5 3.5 0 11-7 0 3.5 3.5 0 017 0zM140.385 180.79a3.5 3.5 0 11-7 0 3.5 3.5 0 017 0zM156.97 193.395a3.5 3.5 0 11-7 0 3.5 3.5 0 017 0zM156.307 214.625a3.5 3.5 0 11-7 0 3.5 3.5 0 017 0zM170.46 228.556a3.5 3.5 0 11-7 0 3.5 3.5 0 017 0zM113.38 157.835l-3.331 2.027s9.276 11.85 12.795 16.969c3.107 4.52 5.908 9.304 8.531 14.187 3.572 6.65 6.71 13.59 9.813 20.563 2.388 5.368 6.812 16.5 6.812 16.5l3.719-1.469s-4.43-11.093-6.906-16.656c-3.11-6.987-6.28-14.002-9.938-20.813-2.665-4.961-5.496-9.874-8.719-14.562-3.798-5.526-12.777-16.746-12.777-16.746zM108.875 164.375c-3.12 2.25-6.092 4.084-9.594 6.906-1.51 1.218-1.866 3.087-1.812 4.75.054 1.664.512 3.305.906 4.594.708 2.315 2.2 4.56 4.469 5.813 1.108.612 2.433 1.145 3.844 1.343 1.41.199 2.968.09 4.28-.812a218.504 218.504 0 019.532-6.219l-1.563-2.563c-3.27 2.007-6.388 4.069-9.656 6.313-.453.311-1.21.446-2.156.313-.947-.134-2.03-.552-2.844-1-1.367-.756-2.555-2.406-3.062-4.063-.362-1.182-.712-2.63-.75-3.813-.039-1.183.217-1.94.719-2.343 3.352-2.703 6.218-4.46 9.437-6.781l-1.75-2.438zM122.719 184.281c-3.099 1.734-6.46 3.08-9.75 5.438-1.305.935-1.957 2.363-2.281 3.75-.325 1.387-.32 2.823-.188 4.062.276 2.603 1.607 5.127 3.688 6.781 1.086.864 2.477 1.726 4 2.25 1.522.525 3.298.774 4.843-.187 2.927-1.82 5.716-3.063 9.125-5.031l-1.5-2.594c-3.27 1.888-6.097 3.153-9.219 5.094-.38.237-1.202.247-2.28-.125-1.08-.372-2.282-1.08-3.126-1.75-1.352-1.075-2.377-3.033-2.562-4.781-.103-.972-.094-2.095.125-3.032.219-.936.61-1.6 1.125-1.969 2.943-2.109 6.166-3.433 9.469-5.28l-1.47-2.626zM134.469 204.594c-3.716 1.783-5.71 2.905-10.313 6.094-1.289.892-1.924 2.301-2.25 3.656a11.434 11.434 0 00-.219 3.937c.334 2.924 1.785 6.036 4.438 7.75 1.117.722 2.43 1.421 3.969 1.688 1.51.261 3.238-.006 4.844-1l.03.031 8.407-4.813-1.5-2.593-8.375 4.781-.063.031c-1.022.654-1.878.756-2.812.594-.934-.162-1.94-.646-2.875-1.25-1.617-1.044-2.82-3.404-3.063-5.531-.104-.92-.092-2.034.125-2.938.218-.904.603-1.556 1.063-1.875 4.545-3.148 6.25-4.089 9.906-5.844l-1.312-2.718z" fill="#FF5" fill-rule="nonzero"/><path d="M149.313 223.3s-10.759 6.233-16 10.187a87.282 87.282 0 00-13.518 12.701c-4.235 4.915-7.992 10.403-10.688 16.406-2.626 5.848-4.436 11.764-5.357 17.956-.793 5.328-.821 10.743-.469 16.03.338 5.066 1.646 9.376 3.215 14.39 2.166 6.922 9.674 19.96 9.674 19.96l2.607-3.398s-6.637-11.898-8.469-17.75c-1.42-4.54-2.73-8.56-3.058-13.482-.34-5.088-.3-10.2.438-15.157.888-5.973 2.663-11.552 5.075-16.924 2.498-5.56 6.024-10.749 10.063-15.437a83.185 83.185 0 0112.893-12.107c4.728-3.567 15.625-9.907 15.625-9.907l-2.031-3.468z" fill="#FF5" fill-rule="nonzero"/><path d="M88.683 173.764l-3.147 2.24s8.22 9.42 11.495 13.733c2.662 3.505 5.187 7.124 7.406 10.875 4.332 7.322 8.125 14.971 11.594 22.781 1.518 3.418 3.695 9.608 4.156 10.907-1.333 1.376-7.888 8.205-11.25 13.03-3.655 5.249-7.048 10.885-9.312 17.032-2.556 6.942-4.28 14.354-4.531 21.844-.296 8.812 1.08 17.688 3.594 26.062 2.686 8.954 12.361 25.523 12.361 25.523l2.576-3.429s-8.758-15.435-11.094-23.219c-2.406-8.02-3.716-16.516-3.437-24.812.233-6.96 1.842-13.97 4.281-20.594 2.09-5.677 5.297-11.032 8.844-16.125 3.217-4.619 11.719-13.469 11.719-13.469.522-.527.712-1.36.468-2.062 0 0-2.87-8.152-4.719-12.313-3.516-7.916-7.381-15.698-11.812-23.187-2.32-3.92-4.927-7.656-7.656-11.25-3.53-4.647-11.536-13.567-11.536-13.567z" fill="#FF5" fill-rule="nonzero"/><path d="M100.406 193.768S97.9 212.1 95 220.331c-3.365 9.551-8.267 18.621-13.969 27.062-5.314 7.867-12.1 14.8-18.812 21.782-4.896 5.093-9.892 10.074-15.375 14.375C42.252 287.15 30 294.362 30 294.362v4s13.69-8.55 18.688-12.469c5.67-4.446 10.76-9.5 15.687-14.625 6.699-6.968 13.608-14.02 19.125-22.187 5.814-8.606 10.873-17.93 14.344-27.781 3.173-9.008 5.531-27.157 5.531-27.157l-2.969-.375zM67.152 189.323s-.479 13.454-1.87 18.82c-1.714 6.606-3.954 13.119-7.126 19.032-3.469 6.466-7.98 12.43-12.968 17.937C41.45 249.237 30 257.554 30 257.554v5.035s13.83-10.013 18.156-14.79c5.148-5.682 9.863-11.91 13.532-18.75 3.377-6.296 5.702-13.1 7.468-19.906 1.603-6.177 1.996-22.77 1.996-22.77l-4 2.95z" fill="#FF5" fill-rule="nonzero"/><path d="M90.125 184.05c-5.53 1.741-12.27 3.306-15.375 8.218-.468.74-.54 1.854-.125 2.625 2.181 4.057 8.628 3.797 11.875 7.063 2.452 2.467 6.247 5.658 5.281 9-.85 2.94-5.207 3.397-8.156 4.219-4.103 1.143-9.355-1.73-12.75.843-.722.548-1.12 1.682-.906 2.563.853 3.516 6.013 4.354 7.906 7.437 2.033 3.312 5.284 7.857 3.281 11.188-1.704 2.835-6.411 2.01-9.719 2-3.812-.012-7.61-3.694-11.187-2.375-.85.314-1.578 1.253-1.656 2.156-.35 4.03 4.572 6.845 5.625 10.75.854 3.172 2.732 7.495.437 9.844-2.417 2.474-6.995.518-10.375-.219-3.537-.771-6.4-4.919-9.968-4.312-.894.152-1.763.968-2 1.843-1.256 4.624 3.983 8.964 4.187 13.75.112 2.64.425 6.123-1.656 7.75-1.757 1.375-4.515.283-6.688-.218-1.167-.27-2.164-1.904-3.281-1.47-.93.363-1.555 1.822-1.188 2.75.51 1.29 2.46 1.355 3.813 1.657 2.756.616 5.788 1.139 8.469.25a2.885 2.885 0 001.5-1.187c1.73-2.797 2.129-6.369 2.031-9.657-.114-3.831-5.892-8.541-3.031-11.093 1.925-1.718 4.658 2.361 7.187 2.875 4.064.825 8.591 1.798 12.438.25.67-.27 1.269-.86 1.531-1.532 1.463-3.749.488-8.16-.5-12.062-.751-2.967-5.876-5.808-4.031-8.25 1.703-2.255 5.518 1.536 8.343 1.5 4.02-.052 8.542-.1 11.813-2.438.6-.429 1.034-1.174 1.125-1.906.575-4.622-1.595-9.38-3.938-13.406-1.289-2.216-6.233-3.127-5.343-5.531 1.086-2.934 6.342.005 9.344-.875 3.612-1.06 7.65-2.272 10.03-5.188a2.858 2.858 0 00.594-2.094c-.54-4.186-3.493-7.88-6.437-10.906-2.745-2.821-10.138-2.347-10-6.281.17-4.839 11.322-2.237 12.813-6.844.306-.948-.362-2.987-1.313-2.687z" fill="#FF5" fill-rule="nonzero"/><path d="M74.438 199.518c-.937.352-1.478 1.846-1.126 2.782.712 1.887 3.768 1.542 5.407 2.718.999.718 2.954 1.41 2.625 2.594-.333 1.198-2.386.775-3.625.875-1.947.158-4.319-1.658-5.844-.437-.781.625-1.064 2.188-.438 2.968 1.367 1.703 4.356.649 6.532.47 2.306-.191 5.08-.024 6.75-1.626.602-.577.898-1.599.687-2.406-.582-2.23-3.036-3.526-4.906-4.875-1.836-1.325-3.943-3.859-6.063-3.063zM93.844 190.08c-2.39 1.379-3.793 1.713-6.625 3.532-.64.411-.33 1.649.094 2.281.414.62 1.378.578 2.03.938.99.545 2.074 1.018 2.844 1.844.602.644.905 1.515 1.282 2.312.254.537.117 1.408.656 1.656.76.35 2.023-.053 2.375-.812.278-.598-.43-1.25-.719-1.844-.511-1.054-.98-2.176-1.781-3.031-.938-1.002-3.48-.942-3.406-2.313.09-1.66 3.913-.754 4.406-2.343.247-.797-.434-2.635-1.156-2.22zM90.344 217.175c-.82-.114-1.304 1.022-2 1.468-1.084.695-2.15 1.48-3.375 1.875-.42.136-.873.13-1.313.157-.301.018-.647-.156-.906 0-.647.389-1.093 1.245-1.063 2 .052 1.296 1.57 2.094 2.094 3.28.646 1.462-.11 3.788 1.25 4.626.706.435 2.004.207 2.438-.5.926-1.51-.702-3.5-1.406-5.125-.302-.695-1.51-1.252-1.188-1.938.125-.266.595-.032.875-.125 1.442-.48 2.718-1.37 4-2.187.742-.472 2.004-.692 2.125-1.563.114-.823-.708-1.854-1.531-1.968zM83.406 179.787c-1.547-.018-2.143 1.874-3.394 2.63-1.227.74-3.435.658-3.98 1.835-.36.776.034 2.062.968 2.362 1.719.552 3.346-1.323 4.837-2.222 1.363-.823 3.672-1.467 3.694-2.866.014-.826-1.13-1.728-2.125-1.74zM68.531 222.675c-.3.956-1.88 1.479-1.719 2.468.107.654 1.082.767 1.594 1.188.792.65 1.639 1.264 2.281 2.062.737.917 1.226 2.01 1.75 3.063.036.07.133.15.094.219-.036.064-.145.026-.219.03-1.174.084-2.366.17-3.53 0-.904-.13-1.763-.482-2.626-.78-.56-.195-1.107-.884-1.656-.657-.922.383-1.567 1.827-1.188 2.75.244.593 1.176.51 1.782.72 1.066.367 2.134.775 3.25.937 1.381.2 2.793.098 4.187.03.806-.038 1.729.188 2.406-.25.66-.424 1.14-1.248 1.188-2.03.05-.815-.601-1.521-.969-2.25-.634-1.26-1.242-2.557-2.125-3.657-.789-.983-1.81-1.757-2.781-2.562-.55-.456-1.08-1.602-1.719-1.281zM56.313 243.425c-.98-.228-2.277.707-2.5 1.687-.336 1.47 1.71 2.51 2.28 3.906.581 1.423 2.202 3.373 1.126 4.47-.712.724-2.013-.344-2.969-.688-1.468-.529-2.693-2.542-4.188-2.094-.956.287-1.788 1.637-1.5 2.594.5 1.659 3.029 1.718 4.657 2.312 1.863.68 3.871 1.942 5.781 1.406.794-.222 1.531-.954 1.75-1.75.672-2.445-.923-5.024-1.875-7.375-.645-1.591-.89-4.08-2.563-4.468zM39.219 259.675c-.885-.456-2.357.115-2.813 1-.943 1.828 1.367 3.905 1.688 5.937.181 1.153 1.04 2.776.125 3.5-.957.758-2.469-1.568-3.532-.969-.867.49-1.3 2.008-.812 2.875.938 1.668 3.65 1.88 5.531 1.532.777-.144 1.565-.694 1.907-1.407.864-1.805.068-4.023-.25-6-.357-2.213.149-5.441-1.844-6.468zM77.188 243.393c-.998-.29-1.765 1.195-2.782 1.407-1.052.218-2.222-.59-3.219-.188-.71.287-1.724.938-1.562 1.688.495 2.284 2.154 5.425 1.438 6.968-.352.757 1.943.747 2.5.125 1.344-1.502-2.206-4.377-.97-5.968.508-.653 1.673.002 2.47-.22 1.216-.336 3.043-.446 3.406-1.655.24-.801-.479-1.923-1.281-2.157zM52.719 264.862c-.611-.197-.949.946-1.125 1.563-.64 2.238-1.052 5.205.468 6.968.544.63 1.794 1.058 2.438.532 1.58-1.293-1.576-4.721-.094-6.125 1.524-1.444 4.94 2.052 6.282.437.529-.637-.004-1.858-.626-2.406-1.726-1.52-4.571-.517-6.843-.875-.168-.026-.392.037-.5-.094zM34.156 283.3c-.27.786-1.766 1.17-1.531 1.968.312 1.06 2.038.902 3.125 1.094.77.136 1.754.544 2.344.031.626-.544.853-1.84.312-2.468-.55-.64-1.7.08-2.531-.063-.594-.102-1.23-.916-1.719-.562zM112.531 169.219c-2.448 1.819-5.1 3.009-7.875 5.906-1.305 1.363-1.203 3.287-.437 4.5.522.828 1.292 1.315 2.125 1.625.833.31 1.756.474 2.719-.031 3.479-1.828 5.063-3.213 7.812-5.094l-1.406-2.062c-2.853 1.951-4.27 3.238-7.563 4.968.087-.045-.276.029-.687-.125-.412-.153-.817-.483-.906-.625-.295-.467-.417-.872.124-1.437 2.446-2.554 4.883-3.611 7.594-5.625a24.634 24.634 0 01-1.5-2zM125.25 189.781c-2.029 1.13-4.358 1.482-7 3.25-1.04.696-1.579 1.814-1.781 2.938-.203 1.123-.08 2.332.625 3.344.637.916 1.616 1.286 2.562 1.437.947.151 1.936.11 2.813-.469 2.407-1.586 3.835-1.98 6.344-3.812l-1.47-2.031c-2.272 1.66-3.633 2.025-6.25 3.75-.09.06-.598.167-1.062.093-.464-.074-.837-.307-.906-.406-.173-.248-.297-.86-.188-1.469.11-.61.434-1.143.688-1.312 2.172-1.454 4.357-1.74 6.844-3.125l-1.219-2.188zM136.75 209.844s-5.258 2.497-8.438 4.656c-1.067.725-1.305 1.87-1.343 2.938-.039 1.068.176 2.198 1 3.093 1.541 1.676 4.069 1.558 5.969.438 2.075-1.224 6.625-4.094 6.625-4.094l-1.344-2.094s-4.59 2.869-6.563 4.031c-1.073.633-2.386.529-2.844.032-.111-.122-.364-.728-.343-1.313.02-.584.345-1.033.25-.969 2.852-1.937 8.094-4.468 8.094-4.468l-1.063-2.25z" fill="#FF5" fill-rule="nonzero"/><path d="M46.836 285.658c1.472 8.193 2.269 15.862 4.561 23.418 2.439 8.04 5.704 15.865 9.637 23.289 2.85 5.38 6.31 10.446 10.038 15.258 5.29 6.827 11.914 13.173 17.402 19.196" stroke="#FF5" stroke-width="4" stroke-linejoin="round"/><path d="M155.576 252.572c-4.549 3.202-9.155 8.257-11.982 11.884-2.364 3.032-4.692 6.312-6.281 10.062-1.74 4.106-2.73 8.5-3.188 12.844-.481 4.563-.572 10.922 1.656 16.813l2.75-4.094c-.45-2.944-.812-8.462-.406-12.313.426-4.034 1.327-8.036 2.875-11.687 1.363-3.215 3.463-6.253 5.75-9.188 2.512-3.222 4.888-6.922 8.906-9.25l-.08-5.071z" fill="#FF5" fill-rule="nonzero"/><g fill="#FF5" fill-rule="nonzero"><path d="M141.875 242.162a3.5 3.5 0 11-7 0 3.5 3.5 0 017 0zM149.601 243.075a3.5 3.5 0 11-7 0 3.5 3.5 0 017 0zM141.87 250.007a3.5 3.5 0 11-7 0 3.5 3.5 0 017 0z"/></g><g fill="#FF5" fill-rule="nonzero"><path d="M127.384 256.905a3.5 3.5 0 11-6.714 1.982 3.5 3.5 0 016.714-1.982zM135.052 255.593a3.5 3.5 0 11-6.713 1.982 3.5 3.5 0 016.713-1.982zM129.6 264.43a3.5 3.5 0 11-6.713 1.983 3.5 3.5 0 016.714-1.983z"/></g><g fill="#FF5" fill-rule="nonzero"><path d="M119.788 277.456a3.5 3.5 0 11-6.187 3.274 3.5 3.5 0 016.187-3.274zM127.044 274.648a3.5 3.5 0 11-6.187 3.275 3.5 3.5 0 016.187-3.275zM123.454 284.391a3.5 3.5 0 11-6.187 3.275 3.5 3.5 0 016.187-3.275z"/></g><g fill="#FF5" fill-rule="nonzero"><path d="M118.182 302.395a3.5 3.5 0 11-3.574 6.019 3.5 3.5 0 013.574-6.02zM122.912 296.217a3.5 3.5 0 11-3.574 6.02 3.5 3.5 0 013.574-6.02zM124.925 306.403a3.5 3.5 0 11-3.573 6.02 3.5 3.5 0 013.573-6.02z"/></g><path fill="#55A" fill-rule="nonzero" d="M156.135 242.304l12.677.203-4.87 10.957h4.87l5.68-10.754h13.19l-4.668 10.55h5.479l4.87-10.753h14.202l-4.87 10.957h4.464l-2.637 4.87-8.725-.61 5.073-10.347h-4.667l-5.275 10.753-14.61-.405 4.668-9.943h-4.464l-5.276 10.551-14.203-.406 5.682-10.55-4.261-.203-2.332 3.652z"/><path fill="#FF5" fill-rule="nonzero" d="M151.565 252.246l-8.319-4.464 3.855 8.725zM139.48 264.699l-8.93-3.062 5.213 7.987zM132.102 280.994l-9.412.736 7.956 5.261zM130.896 298.189l-7.194 6.113 9.53-.401zM107.87 231.052l8.342 4.418-3.903-8.704zM98.105 242.882l9.06 2.655-5.57-7.744zM90.35 257.823l9.42.62-7.121-6.347zM85.412 274.288l9.333-1.422-8.32-4.665zM83.644 289.294l8.964-2.96-8.982-3.21zM84.847 304.377l8.41-4.292-9.367-1.805zM89.162 319.412l7.031-6.3-9.516.652zM94.888 333.13l7.03-6.3-9.515.652zM101.877 345.242l6.034-7.26-9.318 2.035z"/><path d="M36.571 221.675c4.753-4.243 8.941-8.71 13.707-12.73 4.003-3.377 8.318-6.366 12.477-9.548-.237 1.697-.36 3.41-.713 5.092-.45 2.15-1.188 4.243-1.782 6.365-3.446 2.016-6.747 4.245-10.338 6.047a62.024 62.024 0 01-7.486 3.183c-1.914.663-3.726 1.06-5.865 1.591h0zM35.13 226.654c3.228-1.076 6.505-2.036 9.685-3.228 2.233-.837 4.475-1.68 6.587-2.751 2.346-1.19 4.477-2.71 6.716-4.066-.387 1.634-.475 3.356-1.162 4.903-.582 1.31-1.636 2.392-2.454 3.588-2.325.677-4.585 1.585-6.974 2.033-2.247.42-4.557.717-6.845.598-1.889-.099-3.703-.718-5.554-1.077h0zM34.988 230.759c2.346.12 4.69.346 7.038.36 1.648.011 3.304.02 4.942-.19 1.819-.234 3.595-.792 5.393-1.188-.704 1.17-1.244 2.5-2.114 3.511-.736.856-1.707 1.392-2.561 2.089-1.662-.164-3.348-.126-4.985-.49-1.54-.342-3.086-.802-4.5-1.581-1.168-.643-2.142-1.674-3.213-2.511h0zM34.489 235.17c1.626.808 3.214 1.697 4.878 2.425 1.168.51 2.342 1.023 3.58 1.36 1.375.374 2.832.486 4.247.73-.907.686-1.753 1.546-2.723 2.06-.821.435-1.698.552-2.547.828-1.125-.633-2.337-1.118-3.374-1.898-.976-.733-1.916-1.558-2.65-2.59-.607-.852-.94-1.944-1.411-2.915h0zM33.29 241.326c.956.826 1.881 1.72 2.87 2.477.693.531 1.39 1.065 2.144 1.45.836.427 1.748.631 2.622.947-.636.535-1.247 1.226-1.908 1.605-.558.321-1.124.36-1.686.54-.655-.635-1.379-1.148-1.966-1.906-.552-.712-1.072-1.503-1.445-2.46-.307-.789-.421-1.768-.632-2.653h0z" stroke="#F55" stroke-width="2" fill="#F55" fill-rule="nonzero" stroke-linecap="round" stroke-linejoin="round"/><path d="M104.195 203.565c1.257 2.604 2.876 5.363 4.204 8.1 1.57 3.235 2.962 6.553 4.444 9.83-2.963 3.007-6.173 5.79-8.888 9.022-3.829 4.558-7.401 9.381-10.368 14.542-3.044 5.295-5.624 10.9-7.541 16.698-1.788 5.408-2.925 11.046-3.636 16.697-.623 4.947-.754 9.966-.539 14.947.238 5.512.875 11.031 2.02 16.428 1.023 4.82 2.555 9.535 4.31 14.14 1.83 4.804 3.913 9.54 6.463 14.004 2.112 3.697 4.847 7.002 7.271 10.503l-11.042 14.947c-4.802-5.476-9.922-10.69-14.408-16.428-4.41-5.64-8.746-11.399-12.254-17.64-2.787-4.96-4.937-10.272-6.91-15.609-1.61-4.351-2.904-8.822-4-13.33-1.096-4.511-1.615-9.849-2.567-13.69 2.983-2.824 8.574-8.051 12.708-12.232 4.36-4.409 8.83-8.74 12.75-13.544 5.49-6.724 10.569-13.822 15.006-21.283 3.149-5.294 6.078-10.78 8.188-16.567 2.297-6.299 3.77-12.83 4.789-19.535z" fill="#F55" fill-rule="nonzero"/><path d="M146.928 139.797a90.282 90.282 0 00-12.602 5.094c-7.905 3.897-15.276 8.8-22.79 13.406-8.497 5.209-17.01 10.412-25.203 16.087a322.297 322.297 0 00-19.304 14.478c-7.285 5.9-14.303 12.131-21.181 18.5-5.43 5.028-10.933 10.367-15.848 15.55" stroke="#55A" stroke-width="2" stroke-linecap="round" stroke-linejoin="round"/><path d="M163.379 267.88s.273-1.673.8-2.2c.527-.527 1.454-.8 2.2-.8.745 0 1.673.273 2.2.8.527.527.8 1.455.8 2.2 0 .745-.4 1.8-.8 2.2-.4.4-.8.6-1.2 1-.4.4-.6.4-1 .8l-1 1c-.4.4-1 1.2-1.4 2-.4.8-.6 2-.6 2s-.2-1.2-.6-2c-.4-.8-1-1.6-1.4-2l-1-1c-.4-.4-.6-.4-1-.8s-.8-.6-1.2-1c-.4-.4-.8-1.455-.8-2.2 0-.745.273-1.673.8-2.2.527-.527 1.454-.8 2.2-.8.745 0 1.673.273 2.2.8.527.527.8 2.2.8 2.2z" fill="#F55" fill-rule="nonzero"/><path d="M71.771 184.687c-.766-3.24-.715-6.792-2.298-9.722-1.466-2.714-3.754-5.074-6.364-6.718-1.624-1.023-3.56-1.724-5.48-1.768-2.015-.046-4.01.733-5.833 1.591-1.76.829-3.285 2.107-4.773 3.36-1.148.965-2.608 1.795-3.182 3.181-.339.817-.366 1.847 0 2.652.517 1.14 1.679 1.976 2.828 2.475 1.087.471 2.4.69 3.536.353 1.085-.32 1.808-1.366 2.651-2.121.994-.89 1.886-1.886 2.829-2.828.176.648.115 1.415.53 1.944.749.955 2.121 1.179 3.182 1.768-.943.884-2.139 1.559-2.828 2.651-.726 1.151-1.099 2.536-1.238 3.89-.176 1.709-.153 3.55.53 5.126.715 1.648 2.357 2.71 3.536 4.066" stroke="#55A" stroke-width="2" stroke-linecap="round" stroke-linejoin="round"/><path d="M48.027 171.034c.984-.551 2.718.962 3.061 2.163.335 1.168-.575 2.48-1.414 3.359-.946.99-2.475 1.178-3.712 1.768M54.094 166.303c-1.827-1.945-3.08-4.67-5.48-5.834a5.898 5.898 0 00-4.066-.353c-1.417.404-2.737 1.413-3.536 2.651-.589.913-.92 2.117-.707 3.182.241 1.202 1.27 2.123 2.121 3.005 1.08 1.12 2.475 1.886 3.713 2.829" stroke="#55A" stroke-width="2" stroke-linecap="round" stroke-linejoin="round"/><path d="M40.835 167.894c-1.178.118-2.474-.174-3.535.353-1.008.501-2.006 1.388-2.298 2.475-.345 1.284.196 2.752.884 3.89 1.363 2.252 3.882 3.575 6.01 5.126 1.903 1.387 3.899 2.67 6.01 3.712 1.188.586 2.423 1.715 3.713 1.414 1.096-.256 1.982-1.394 2.298-2.475.185-.632-.085-1.343-.354-1.944-.274-.614-.825-1.06-1.237-1.591M47.523 179.926c-.618.318-.927 1.256-1.264 2.136M36.946 177.263c-1.001.825-2.356 1.35-3.005 2.475-.537.931-.858 2.158-.53 3.182.28.873 1.318 1.275 1.944 1.944.856.915 1.477 2.071 2.475 2.829 1.197.908 2.63 1.505 4.066 1.944 1.538.47 3.177.903 4.773.707 1.075-.131 2.402-.337 3.005-1.237.525-.783.361-1.958 0-2.829-.382-.923-1.257-1.617-2.121-2.12-.95-.556-2.112-1.142-3.182-.885-.933.224-1.67 1.099-2.121 1.945-.366.683-.46 1.53-.354 2.298.097.705.59 1.296.884 1.944" stroke="#55A" stroke-width="2" stroke-linecap="round" stroke-linejoin="round"/><path d="M35.002 186.632c-.648.53-1.586.834-1.945 1.591-.353.745-.295 1.705 0 2.475.568 1.48 1.86 2.66 3.182 3.535 1.507.999 3.373 1.33 5.127 1.768 1.1.274 2.311.964 3.359.53.74-.306 1.274-1.155 1.414-1.944.15-.845-.176-1.802-.707-2.475-.67-.849-1.75-1.512-2.829-1.59-.818-.06-1.7.32-2.298.883-.518.488-.762 1.243-.884 1.945-.121.699.118 1.414.177 2.12M41.366 200.42l2.121 3.183 3.359 2.298" stroke="#55A" stroke-width="2" stroke-linecap="round" stroke-linejoin="round"/><path d="M37.123 195.648c-.471 1.885-1.15 3.731-1.414 5.656-.281 2.044-.118 4.125-.177 6.188l4.596-.177c-.059-2.18-.37-4.368-.176-6.54.128-1.44.589-2.83.883-4.243l-3.712-.884zM49.674 160.116c1.591-2.593 2.6-5.65 4.773-7.779a22.677 22.677 0 019.37-5.48c2.886-.843 6.008-.294 9.015-.353 3.594-.07 7.224.503 10.783 0 2.733-.387 5.428-1.19 7.955-2.298 1.768-.776 3.608-1.618 4.95-3.006.752-.777 1.06-1.885 1.591-2.828-.236 2.475.011 5.045-.707 7.425a22.106 22.106 0 01-4.066 7.601c-2.078 2.521-4.673 4.738-7.601 6.187-2.553 1.264-5.49 1.583-8.309 2-4.029.597-8.127.571-12.197.707-2.297.077-4.66-.472-6.895.061-1.854.442-3.417 1.357-5.126 2.535l-3.536-4.772h0z" stroke="#55A" stroke-width="2" fill="#FF5" fill-rule="nonzero" stroke-linecap="round" stroke-linejoin="round"/><path d="M89.047 148.183l-5.176 3.565-.05-1.092-6.88 1.926 1.065-1.681-10.337 2.4c-.064.005 1.414-1.586 1.353-1.571l-10.085 3.038c-.226.044.242-1.321.06-1.181l-7.906 8.09.59.663 8.894-4.572-1.516-.438 8.965-.724-.817-.724 10.845.399-1.396-.856c.106-.01 10.307-1.967 10.409-1.998l-1.784-.534c1.27-.697 4.04-1.347 5.032-1.948.991-.602-1.001-.475-.943-.51l3.713-3.105-3.984 1.847-.052-.994z" stroke="#55A" fill="#55A" fill-rule="nonzero" stroke-linecap="round" stroke-linejoin="round"/><g><g stroke="#55A" stroke-linejoin="round" stroke-width="2"><path d="M330 201.706l-53.444-35.304M330 194.325l-50.175-32.395"/><path d="M330 209.088l-52.036-33.381M330 216.47l-36.763-23.782M330 223.852l-28.254-18.327M330 231.234l-23.454-15.491M330 238.615l-19.309-12M327.273 244.506l-13.527-9.163M322.037 248.215l-7.855-5.454" stroke-linecap="round"/></g><path d="M229.825 393.35c5.805-3.46 11.672-6.816 17.415-10.378 9.192-5.702 18.364-11.449 27.267-17.592 6.834-4.715 13.607-9.542 20.054-14.776 6.938-5.634 13.443-11.786 20-17.86 5.235-4.848 10.293-9.886 15.439-14.83v-74.969c-4.718 2.932-8.713 5.286-13.431 8.218-1.349-6.685-2.217-13.612-4.19-20.199-2.229-7.433-5.078-14.717-8.59-21.637-2.882-5.682-6.403-11.045-10.17-16.184-2.776-3.785-6.033-7.193-9.117-10.73-3.53-4.05-6.873-8.201-10.743-12.013l-52.906 70.083-7.564.176-9.851 20.581-16.494-.145.47 18.434 16.288.114.264 20.625-18.12.704c1.936 8.327 3.263 16.95 5.806 25.18 2.472 8 5.444 15.886 9.147 23.396 4.363 8.848 9.806 17.14 15.305 25.332 4.274 6.368 9.147 12.314 13.72 18.47z" fill="#000" fill-rule="nonzero"/><path d="M166.317 479.835s-10.71-1.18-16.046-1.925c-4.72-.659-9.435-1.38-14.121-2.247-6.881-1.272-20.54-4.332-20.54-4.332s-1.11-9.103-1.765-13.64a571.324 571.324 0 00-2.407-15.084c-.7-4.074-1.017-8.249-2.247-12.195-1.204-3.863-2.44-7.918-4.974-11.072-1.628-2.027-6.258-4.654-6.258-4.654S96.26 417 95.07 417.735c-1.569.97-3.451 1.577-5.295 1.605-2.05.03-4.09-.716-5.937-1.605-1.794-.863-3.61-1.946-4.814-3.53-1.28-1.685-2.018-3.834-2.247-5.937-.24-2.204.234-4.486.963-6.58.772-2.218 1.872-4.434 3.53-6.097 1.574-1.58 3.668-2.647 5.777-3.37 2.297-.788 4.793-.998 7.22-.963 2.33.034 4.683.407 6.9 1.123a31.03 31.03 0 018.345 4.172c1.822 1.29 3.334 2.984 4.814 4.654 1.47 1.657 4.012 5.295 4.012 5.295l64.026-.32s-7.849 5.607-11.072 9.146c-3.267 3.587-6.118 7.646-8.184 12.035-2.206 4.687-3.539 9.805-4.333 14.923-.648 4.177-.695 8.467-.32 12.677.352 3.97 1.236 7.904 2.406 11.714 1.394 4.54 5.456 13.158 5.456 13.158z" fill="#FF5" fill-rule="nonzero"/><path fill="#000" fill-rule="nonzero" d="M219.549 398.164l-6.767 2.76-98.579-1.664-4.172-3.446 10.159-12.517h96.323l3.628 5.986 4.7 6.27z"/><path fill="#F55" fill-rule="nonzero" d="M30 485.362l.5-122.5 18.5 12 1 97.818z"/><path d="M250.53 510.362l-28.53-36s-10.763 2.849-16.244 3.782c-6.724 1.145-13.522 2.066-20.341 2.218-10.702.238-21.425-.737-32.048-2.056-12.62-1.568-37.514-6.944-37.514-6.944l-27.94 39H250.53z" stroke="#55A" stroke-width="2" fill="#F55" fill-rule="nonzero" stroke-linecap="round" stroke-linejoin="round"/><path d="M234.435 508.88l-17.582-26.32c-7.041 2.252-11.53 2.976-20.506 3.903l4.488 22.417h6.217l-5.556-18.882c5.566-.742 7.465-.844 12.679-2.298l13.116 21.18h7.144zM191.178 508.88l-4.326-21.706c-10.935.936-19.395.597-30.33-.606l-5.239 22.312h7.011l3.717-17.638c8.592 1.088 12.713.88 19.927.401l2.925 17.237h6.315zM140.647 508.88l7.322-23.612c-7.982-.612-18.22-3.973-26.905-5.88l-15.658 29.492h6.879l11.78-24.574c4.85 1.218 12.525 3.628 17.375 4.247l-6.746 20.327h5.953z" stroke="#FFF" stroke-width="2" fill="#FFF" fill-rule="nonzero" stroke-linecap="round" stroke-linejoin="round"/><path d="M165.658 478.838c-2.05-5.877-5.044-11.505-6.15-17.63-1.118-6.188-1.192-12.62-.41-18.86.634-5.067 2.058-10.08 4.1-14.76 1.668-3.825 3.833-7.503 6.56-10.66 3.614-4.186 7.99-7.78 12.71-10.66 2.828-1.727 5.989-2.902 9.163-3.851 3.166-.947 6.446-1.666 9.748-1.809 3.867-.167 8.421-1.144 11.56 1.124 1.019.737 1.333 2.209 1.524 3.452.185 1.197-.389 2.4-.401 3.612-.01.887-.018 1.801.24 2.65.277.904.702 1.813 1.365 2.488.605.615 1.903.493 2.248 1.284.33.756.051 1.858-.562 2.408-.983.883-2.62.349-3.933.482-1.336.135-2.684.503-4.014.321-1.694-.231-3.147-1.206-4.816-1.766-.117.715 1.328 2.186 1.926 2.97.678-.547 2.021-.5 3.05-.642 1.223-.168 2.464-.14 3.693-.24 1.072-.09 2.135-.328 3.211-.322.97.005 2.095-.233 2.89.321.49.342.79 1.008.803 1.606.012.527-.411.971-.642 1.445-.4.817-1.108 1.515-1.285 2.408-.313 1.583-.265 3.386.482 4.816.685 1.313 2.066 2.192 3.371 2.89 1.569.84 3.479.804 5.138 1.445 1.116.432 2.707.52 3.21 1.606.858 1.848-.726 4.033-1.444 5.94-1.425 3.786-3.91 7.09-5.62 10.757-1.246 2.675-2.695 5.314-3.37 8.187-.345 1.463-.58 3.016-.322 4.496.34 1.96 1.936 3.527 2.408 5.458.395 1.615.214 3.318.321 4.977" stroke="#55A" stroke-width="2" stroke-linecap="round" stroke-linejoin="round"/><path d="M185.613 458.76c4.516 3.515 8.613 6.171 13.403 8.355 3.098 1.413 6.338 2.969 9.766 3 2.152.02 6.19-.955 6.203-1.771.006-.411-.808-.622-1.298-.733-2.273-.514-4.685.693-7.009.448-2.82-.298-5.535-1.238-8.15-2.3-4.537-1.843-9.291-4.229-12.915-7z" stroke="#55A" stroke-width="2" fill="#55A" fill-rule="nonzero" stroke-linecap="round" stroke-linejoin="round"/><path d="M214.5 461.112c-1-.416-1.986-.552-3-.52-1.456.047-2.797.915-4.25 1.02-2.754.2-5.573-.073-8.25-.75-2.461-.622-4.777-1.775-7-3-1.417-.78-2.667-1.833-4-2.75M212.267 458.307c-1.314-.292-2.6-.767-3.942-.876-1.749-.143-3.508.453-5.255.292-2.245-.208-4.526-.655-6.57-1.606-2.841-1.322-5.06-3.698-7.59-5.547" stroke="#55A" stroke-width="2" stroke-linecap="round" stroke-linejoin="round"/><path d="M211.099 456.7c-.098-1.167.225-2.451-.292-3.503-.669-1.36-2-2.393-3.358-3.065-1.462-.725-3.186-.94-4.817-.876-1.71.067-3.382.66-4.964 1.314-.987.408-1.766 1.248-2.773 1.605-.882.313-1.85.292-2.774.438" stroke="#55A" stroke-width="2" stroke-linecap="round" stroke-linejoin="round"/><path d="M203.362 456.7c-.292-1.07-.919-2.102-.876-3.21a3.704 3.704 0 01.73-2.045c.504-.668 1.362-.973 2.043-1.46" stroke="#55A" stroke-width="2" stroke-linecap="round" stroke-linejoin="round"/><path d="M207.595 452.467c-.791-.039-1.53.964-1.606 1.752-.07.74.429 1.826 1.168 1.898.857.083 1.708-1.038 1.752-1.898.037-.729-.585-1.716-1.314-1.752z" stroke="#55A" stroke-width="2" fill="#55A" fill-rule="nonzero" stroke-linecap="round" stroke-linejoin="round"/><path d="M210.807 450.278c-1.314-1.217-2.52-2.562-3.942-3.65-1.094-.836-2.254-1.61-3.503-2.19-1.16-.537-2.433-.778-3.65-1.167" stroke="#55A" stroke-width="2" stroke-linecap="round" stroke-linejoin="round"/><path d="M209.201 440.059c-.584-.876-1.545-1.596-1.752-2.628-.204-1.02.092-2.155.597-3.065.46-.827 1.182-1.63 2.078-1.932.928-.313 1.999-.03 2.924.292 1.127.392 1.95 1.39 3.014 1.932.838.426 1.693.922 2.628 1.021.588.063 1.16-.285 1.752-.279.533.006 1.164-.052 1.575.288.36.298.716.888.507 1.305-.32.639-1.352.61-2.065.571-1.312-.07-2.513-.819-3.667-1.447-1.103-.6-1.938-1.637-3.066-2.19-.86-.421-1.815-1.01-2.756-.824-1.112.22-2.07 1.161-2.645 2.139-.383.652-.493 1.487-.386 2.237.135.947.97 1.655 1.262 2.58h0zM196.939 432.76c-1.8-.681-3.826-1.223-5.209-2.27-1.082-.818-1.391-2.424-1.215-3.715.214-1.565 1.337-3.032 2.628-3.942 1.148-.809 2.684-.972 4.087-1.022 1.68-.059 3.34.446 4.964.876 1.398.37 2.691 1.08 4.087 1.46 1.004.273 2.026.619 3.066.584 1.156-.039 2.241-1.18 3.358-.876.73.198 1.574.85 1.605 1.606.035.828-.873 1.51-1.605 1.898-1.255.662-2.833.66-4.234.437-1.42-.225-2.633-1.155-3.941-1.751-1.466-.668-2.827-1.617-4.38-2.044-1.415-.389-2.935-.697-4.38-.438-1.296.233-2.761.682-3.55 1.737-.752 1.005-.979 2.507-.631 3.714.278.967 1.199 1.658 2.011 2.252.984.72 2.365.91 3.339 1.494h0z" stroke="#55A" stroke-width="2" fill="#55A" fill-rule="nonzero" stroke-linecap="round" stroke-linejoin="round"/><path stroke="#55A" stroke-width="2" fill="#FF5" fill-rule="nonzero" stroke-linecap="round" stroke-linejoin="round" d="M72.5 388.862l-42.5-27.5v-9.5l47.5 31.5zM75.5 490.362c3.833-6.333 8.34-11.497 10.616-18.116 1.956-5.687 2.65-11.876 2.384-17.884-.303-6.826-1.709-13.763-4.5-20-2.343-5.234-6.667-9.333-10-14-1.5 4.834-2.166 10.01-4.5 14.5-2.137 4.112-5.176 7.772-8.5 11-1.626 1.58-3.667 2.667-5.5 4l1 14.5c3 1.834 6.388 3.147 9 5.5a29.392 29.392 0 016.5 8.5c1.88 3.718 2.333 8 3.5 12z"/><path d="M75.263 490.13s4.125-11.68 4.237-17.768c.062-3.399-2-10-2-10l10.5-7-10.5-8s1.863-7.651 1.5-11.5c-.525-5.56-5.237-15.914-5.237-15.914s-1.67 10.387-3.97 15.03c-1.721 3.475-4.53 6.316-7.147 9.177-2.045 2.237-6.646 6.207-6.646 6.207v15.5s7.58 2.837 10.5 5.5c2.493 2.275 4.06 5.448 5.5 8.5 1.533 3.248 3.263 10.268 3.263 10.268zM86.25 455.268l-30.25.22M77.5 461.987l-20.5.375M78.862 469.612H63.866M78.427 477.155l-7.625.125M77.875 447.862l-19.134.302M78 440.237l-11.362.302M77.375 433.737l-6.655.022M30 494.362l26-17.5v-98.5l-6-3.7v97.7l-20 13z" stroke="#55A" stroke-width="2" fill="#FF5" fill-rule="nonzero" stroke-linecap="round" stroke-linejoin="round"/><path d="M117.187 403.142l-3.207-3.863 88.506.128s-4.297.474-6.414.898c-1.82.364-3.616.856-5.387 1.41-1.304.41-3.848 1.412-3.848 1.412l-69.65.015zM216.699 383.297l-96.872.363 3.81-4.717 89.61-.362zM192.75 397.265v-11.61l-12.699-.181.182 11.79zM163.725 396.902l.182-11.428h-13.06l.18 11.61zM135.609 396.902v-11.247h-11.791l.18 11.61zM221.307 397.265h-13.501l.181-11.791 9.796-.363s1.762 2.936 2.72 4.354c1.389 2.052 4.386 6.001 4.386 6.001l-3.582 1.799z" fill="#FF5" fill-rule="nonzero"/><path d="M211.057 391.376a3 3 0 116 0 3 3 0 01-6 0zM183.303 391.467a3 3 0 116 0 3 3 0 01-6 0zM154.642 391.286a3 3 0 116 0 3 3 0 01-6 0zM126.525 391.83a3 3 0 116 0 3 3 0 01-6 0z" stroke="#000" stroke-width="2" fill="#FF5" fill-rule="nonzero"/><path d="M196.452 390.97a3.5 3.5 0 117 0 3.5 3.5 0 01-7 0zM168.388 391.279a3.5 3.5 0 117 0 3.5 3.5 0 01-7 0zM139.365 391.097a3.5 3.5 0 117 0 3.5 3.5 0 01-7 0zM113.243 391.823l3.681-4.226c1.27-1.457 2.775 1.386 2.775 3.319a3.5 3.5 0 01-3.5 3.5c-1.933 0-4.226-1.136-2.956-2.593z" fill="#FF5" fill-rule="nonzero"/><path d="M212.507 378.517l-89.106.38 55.739-78.49s3.38 15.703 5.877 23.32c2.87 8.753 6.468 17.276 10.427 25.594 2.881 6.052 6.25 11.866 9.67 17.631 2.333 3.936 7.393 11.565 7.393 11.565z" fill="#55A" fill-rule="nonzero"/><path d="M193.274 368.184l-46.749.166 28.748-38.865s2.274 8.017 3.72 11.92a115.975 115.975 0 004.833 11.206c1.62 3.27 3.456 6.432 5.373 9.536 1.277 2.065 4.075 6.037 4.075 6.037z" fill="#FFF" fill-rule="nonzero"/><path d="M229.944 393.186c-4.045-5.246-9.738-11.985-14.03-18.39a231.713 231.713 0 01-14.408-24.647c-3.684-7.305-7.05-14.809-9.67-22.56-2.898-8.582-4.36-17.316-6.635-26.353-1.517-.126-4.17-.063-5.687-.19.758 3.603 1.596 6.837 2.464 10.238 1.62 6.343 2.971 12.775 5.119 18.959 2.369 6.82 5.418 13.393 8.531 19.906 3.146 6.58 6.458 13.1 10.238 19.338 3.062 5.052 6.594 9.806 10.048 14.599 2.946 4.086 6.636 8.652 9.1 12.064 1.201-.758 3.729-2.206 4.93-2.964z" stroke="#000" stroke-width="2" fill="#FF5" fill-rule="nonzero" stroke-linecap="round" stroke-linejoin="round"/><path d="M186.161 364.754l-31.68.11 19.481-25.91s1.541 5.345 2.521 7.948a76.663 76.663 0 003.275 7.47c1.098 2.18 2.342 4.288 3.642 6.358.865 1.377 2.761 4.024 2.761 4.024z" fill="#55A" fill-rule="nonzero"/><path fill="#000" fill-rule="nonzero" d="M105.088 393.337l-5.657-1.414-7.955-.177-6.01 1.59-4.066 2.652-10.662-6.364 68.059-89.949 33.643.53z"/><path d="M88.969 390.238c.847.028 1.454-.998 1.844-1.75 1.512-2.927-.803-7.339 1.406-9.782 4.463-4.936 13.711-1.318 19.375-4.813a3.91 3.91 0 001.5-1.75c3.214-7.486-2.996-18.298 2.5-24.312 4.037-4.419 12.406-.505 17.625-3.438.7-.393 1.3-1.046 1.625-1.78 3.115-7.043-2.81-17.116 2.156-23 3.52-4.172 10.986-1.703 15.813-4.25a3.91 3.91 0 001.312-1.126c1.94-2.64 3.761-5.757 3.875-9.031.034-.978-.07-2.38-.967-2.772-.897-.39-1.998.485-2.69 1.178-2.084 2.091-1.296 6.195-3.53 8.125-4.23 3.654-11.464 1.388-16.188 4.375a3.87 3.87 0 00-1.469 1.719c-2.99 7.062 2.993 17.222-2.156 22.906-4.018 4.437-12.394.529-17.625 3.438a3.9 3.9 0 00-1.625 1.75c-3.377 7.46 2.869 18.254-2.5 24.437-4.348 5.008-13.62 1.379-19.312 4.781a3.906 3.906 0 00-1.5 1.657c-1.593 3.39-2.703 7.546-1.594 11.125.31 1 1.079 2.276 2.125 2.313z" fill="#FF5" fill-rule="nonzero"/><path d="M97.522 383.79a3.5 3.5 0 117 0 3.5 3.5 0 01-7 0zM99.467 363.815a3.5 3.5 0 117 0 3.5 3.5 0 01-7 0zM119.973 354.976a3.5 3.5 0 117 0 3.5 3.5 0 01-7 0zM120.857 333.763a3.5 3.5 0 117 0 3.5 3.5 0 01-7 0zM141.54 325.455a3.5 3.5 0 117 0 3.5 3.5 0 01-7 0zM140.656 305.832a3.5 3.5 0 117 0 3.5 3.5 0 01-7 0z" fill="#FF5" fill-rule="nonzero"/><path stroke="#000" stroke-width="2" fill="#F55" fill-rule="nonzero" stroke-linecap="round" stroke-linejoin="round" d="M110.504 396.788l69.2-95.931h-7.584l-66.924 92.708z"/><g stroke="#55A" stroke-linecap="round" stroke-linejoin="round" stroke-width="2"><path d="M115.842 471.048c-1.485-7.568-2.487-15.22-3.783-22.82-1.074-6.297-1.281-12.817-3.31-18.874-1.259-3.76-2.939-7.493-5.416-10.59-1.332-1.665-3.233-2.78-4.916-4.092"/><path d="M122.607 471.868c-1.589-9.428-2.948-18.175-4.632-27.225-1.094-5.876-1.532-11.95-3.554-17.574-2.162-6.013-4.53-12.375-9.034-16.907-3.14-3.159-7.294-6.311-11.748-6.367-1.794-.022-4.53.672-4.794 2.447-.22 1.473 2.114 2.782 3.217 3.1"/><path d="M129.782 473.713c-2.201-7.155-3.21-14.585-4.51-21.935-1.385-7.832-1.184-15.995-3.503-23.603-2.27-7.442-4.814-15.304-10.036-21.071-4.076-4.503-9.54-8.938-15.594-9.426-4.3-.346-9.91 1.064-12.006 4.835-1.824 3.282-1.44 9.475 1.947 11.094 2.267 1.084 7.964 1.57 6.597-3.65"/><path d="M136.342 474.533c-2.036-5.835-2.688-12.013-3.966-18.033-2.681-12.64-3.145-25.91-7.764-37.977-2.315-6.047-5.439-11.99-9.812-16.766-3.635-3.968-7.907-8.198-13.164-9.345-6.78-1.48-15.66-1.133-20.454 3.885-4.094 4.286-5.912 12.746-2.514 17.602 3.363 4.805 12.427 7.012 17.217 3.628 3.093-2.185 2.84-7.716 1.507-11.26-.416-1.104-1.78-1.71-2.665-2.327M143.107 475.968c-1.825-5.6-3.171-11.346-4.329-17.116-2.194-10.938-1.93-22.36-4.943-33.102-1.843-6.571-5.026-13.226-7.948-18.868M150.692 477.403c-1.82-5.249-3.208-10.65-4.332-16.089-1.907-9.232-2.698-18.534-4.073-27.988-1.351-9.293-5.415-18.329-9.84-26.4M158.688 478.223c-2.2-4.83-3.928-9.869-5.233-15.001-2.977-11.702-3.153-23.98-5.861-35.746-1.056-4.584-2.266-9.163-4.036-13.52-1.085-2.674-2.787-5.406-4.007-7.671M158.965 457.928c-1.063-7-1.836-14.091-3.168-21.066-1.248-6.54-2.555-13.093-4.514-19.456-1.108-3.595-2.86-6.959-4.076-10.524M161.353 431.687c-.964-5.366-1.883-10.77-3.408-16.009-.896-3.074-2.192-6.018-3.358-9M166.273 420.822c-.684-4.964-1.997-9.883-4.305-14.35M170.988 414.672c-.571-2.752-1.197-5.56-2.665-7.995M176.372 409.859c-.418-1.254-.521-2.635-1.507-3.708"/></g><path fill="#000" fill-rule="nonzero" d="M180.258 406.441l-60.556.154-2.565-3.535 69.748.009z"/><g stroke="#55A" stroke-linecap="round" stroke-linejoin="round" stroke-width="2"><path d="M50 463.916l-20 13M50 455.873l-20 13M50 447.83l-20 13M50 439.788l-20 13M50 431.745l-20 13M50 423.703l-20 13M50 415.66l-20 13M50 407.618l-20 13M50 399.575l-20 13M50 391.533l-20 13M50 383.49l-20 13M50 375.447l-20 13M44 371.405l-14 9M38 367.362l-8 5"/></g><path d="M235.781 386.957c.936-.03 1.572-1.189 1.906-2.064 1.134-2.968.765-6.49-.156-9.53a3.932 3.932 0 00-1.125-1.75c-5.269-4.731-15.177-3.54-19-9.5-4.05-6.318 1.21-15.257-.75-22.5a3.967 3.967 0 00-.844-1.563c-3.964-4.506-12.35-4.947-14.625-10.5-2.212-5.4 2.906-11.416 2.97-17.25a3.955 3.955 0 00-.188-1.25c-.875-2.719-1.752-5.75-3.906-7.625-.726-.632-1.868-1.386-2.726-.95-.857.437-.923 1.804-.837 2.762.234 2.622 3.2 4.429 3.594 7.031.902 5.959-3.754 11.823-3.094 17.813.078.706.372 1.412.812 1.969 3.79 4.787 12 5.301 14.875 10.687 3.564 6.675-1.531 15.473.75 22.688a3.94 3.94 0 001.125 1.718c5.29 4.709 15.233 3.505 19 9.5 1.475 2.347-.983 5.773.125 8.313.387.884 1.13 2.03 2.094 2z" fill="#FF5" fill-rule="nonzero"/><path d="M224.038 380.279a3.5 3.5 0 117 0 3.5 3.5 0 01-7 0zM219.615 359.934a3.5 3.5 0 117 0 3.5 3.5 0 01-7 0zM203.03 347.329a3.5 3.5 0 117 0 3.5 3.5 0 01-7 0zM203.693 326.1a3.5 3.5 0 117 0 3.5 3.5 0 01-7 0zM189.54 312.168a3.5 3.5 0 117 0 3.5 3.5 0 01-7 0zM246.62 382.89l3.331-2.027s-9.276-11.85-12.795-16.97c-3.107-4.52-5.908-9.304-8.531-14.187-3.572-6.65-6.71-13.59-9.812-20.563-2.39-5.367-6.813-16.5-6.813-16.5l-3.719 1.47s4.43 11.092 6.907 16.655c3.109 6.988 6.279 14.002 9.937 20.813 2.665 4.962 5.496 9.874 8.719 14.562 3.798 5.526 12.777 16.746 12.777 16.746zM251.125 376.35c3.12-2.25 6.092-4.084 9.594-6.907 1.51-1.218 1.866-3.086 1.812-4.75-.054-1.663-.512-3.305-.906-4.594-.708-2.315-2.2-4.559-4.469-5.812-1.108-.612-2.433-1.145-3.844-1.344-1.41-.198-2.968-.089-4.28.813a218.504 218.504 0 01-9.532 6.218l1.562 2.563c3.27-2.007 6.389-4.068 9.657-6.313.453-.311 1.21-.445 2.156-.312.947.133 2.03.551 2.844 1 1.367.755 2.555 2.405 3.062 4.062.362 1.183.712 2.63.75 3.813.039 1.183-.217 1.94-.719 2.344-3.352 2.702-6.218 4.46-9.437 6.78l1.75 2.438zM237.281 356.443c3.099-1.733 6.46-3.08 9.75-5.437 1.305-.936 1.957-2.363 2.281-3.75.325-1.387.32-2.824.188-4.063-.276-2.603-1.607-5.127-3.687-6.781-1.087-.864-2.478-1.725-4-2.25-1.523-.525-3.299-.773-4.844.187-2.927 1.82-5.716 3.063-9.125 5.032l1.5 2.593c3.27-1.888 6.097-3.152 9.219-5.093.38-.237 1.202-.247 2.28.125 1.08.372 2.282 1.08 3.126 1.75 1.352 1.074 2.377 3.033 2.562 4.78.103.973.094 2.095-.125 3.032-.219.937-.61 1.6-1.125 1.969-2.943 2.11-6.166 3.434-9.469 5.281l1.47 2.625zM225.531 336.13c3.716-1.783 5.71-2.904 10.313-6.093 1.289-.893 1.924-2.302 2.25-3.656.325-1.355.358-2.718.219-3.938-.334-2.923-1.785-6.036-4.438-7.75-1.117-.722-2.43-1.42-3.969-1.687-1.51-.262-3.238.006-4.843 1l-.032-.032-8.406 4.813 1.5 2.594 8.375-4.782.063-.03c1.022-.654 1.878-.756 2.812-.594.934.161 1.94.646 2.875 1.25 1.617 1.044 2.82 3.403 3.063 5.53.104.92.092 2.035-.125 2.938-.218.904-.603 1.557-1.063 1.875-4.545 3.148-6.25 4.09-9.906 5.844l1.312 2.719z" fill="#FF5" fill-rule="nonzero"/><path d="M210.688 317.425s10.758-6.234 16-10.188a87.282 87.282 0 0013.517-12.7c4.235-4.916 7.992-10.404 10.688-16.407 2.626-5.848 4.436-11.764 5.357-17.955.793-5.329.821-10.743.469-16.032-.338-5.064-1.646-9.375-3.215-14.388-2.166-6.922-9.674-19.96-9.674-19.96l-2.607 3.398s6.637 11.897 8.469 17.75c1.42 4.54 2.73 8.559 3.058 13.482.34 5.087.3 10.2-.437 15.156-.89 5.974-2.664 11.552-5.076 16.924-2.498 5.56-6.024 10.75-10.063 15.438a83.185 83.185 0 01-12.893 12.107c-4.728 3.566-15.625 9.906-15.625 9.906l2.032 3.469z" fill="#FF5" fill-rule="nonzero"/><path d="M271.317 366.96l3.147-2.24s-8.22-9.42-11.495-13.733c-2.662-3.505-5.187-7.123-7.406-10.875-4.332-7.322-8.125-14.971-11.594-22.781-1.518-3.418-3.695-9.607-4.156-10.906 1.333-1.377 7.888-8.206 11.25-13.032 3.655-5.247 7.048-10.883 9.312-17.03 2.556-6.943 4.28-14.355 4.531-21.845.296-8.811-1.08-17.687-3.593-26.062-2.687-8.954-12.362-25.523-12.362-25.523l-2.576 3.43s8.758 15.434 11.094 23.218c2.406 8.02 3.716 16.517 3.437 24.812-.233 6.96-1.842 13.97-4.281 20.594-2.09 5.678-5.297 11.033-8.844 16.125-3.217 4.62-11.718 13.469-11.718 13.469a2.046 2.046 0 00-.47 2.062s2.871 8.152 4.72 12.313c3.516 7.917 7.381 15.699 11.812 23.187 2.32 3.92 4.927 7.656 7.656 11.25 3.53 4.647 11.536 13.568 11.536 13.568z" fill="#FF5" fill-rule="nonzero"/><path d="M259.594 346.956s2.506-18.332 5.406-26.563c3.365-9.55 8.267-18.621 13.969-27.062 5.314-7.867 12.1-14.8 18.812-21.781 4.896-5.093 9.892-10.075 15.375-14.375 4.592-3.601 16.844-10.813 16.844-10.813v-4s-13.69 8.55-18.688 12.469c-5.67 4.446-10.76 9.5-15.687 14.625-6.699 6.968-13.608 14.02-19.125 22.187-5.814 8.606-10.873 17.93-14.344 27.782-3.173 9.007-5.531 27.156-5.531 27.156l2.969.375zM292.848 351.401s.479-13.454 1.87-18.82c1.714-6.605 3.954-13.118 7.126-19.031 3.469-6.467 7.98-12.43 12.969-17.938 3.736-4.125 15.187-12.441 15.187-12.441v-5.035s-13.83 10.012-18.156 14.789c-5.148 5.682-9.863 11.911-13.531 18.75-3.378 6.297-5.703 13.1-7.47 19.906-1.602 6.177-1.995 22.77-1.995 22.77l4-2.95z" fill="#FF5" fill-rule="nonzero"/><path d="M269.875 356.675c5.53-1.742 12.27-3.307 15.375-8.219.468-.74.54-1.853.125-2.625-2.181-4.056-8.628-3.796-11.875-7.063-2.452-2.466-6.247-5.658-5.281-9 .85-2.94 5.207-3.397 8.156-4.218 4.103-1.143 9.355 1.728 12.75-.844.722-.547 1.12-1.682.906-2.563-.853-3.516-6.013-4.354-7.906-7.437-2.033-3.312-5.284-7.857-3.281-11.188 1.704-2.834 6.411-2.01 9.719-2 3.812.012 7.61 3.695 11.187 2.375.85-.313 1.578-1.253 1.656-2.156.35-4.029-4.572-6.845-5.625-10.75-.854-3.171-2.732-7.494-.437-9.844 2.417-2.474 6.995-.518 10.375.22 3.537.77 6.4 4.918 9.969 4.312.893-.152 1.762-.969 2-1.844 1.255-4.624-3.984-8.963-4.188-13.75-.112-2.64-.425-6.123 1.656-7.75 1.757-1.374 4.515-.283 6.688.219 1.167.27 2.164 1.903 3.281 1.468.93-.362 1.555-1.821 1.188-2.75-.51-1.288-2.46-1.354-3.813-1.656-2.756-.615-5.788-1.138-8.469-.25-.605.2-1.164.645-1.5 1.188-1.73 2.797-2.129 6.368-2.031 9.656.114 3.832 5.892 8.542 3.031 11.094-1.925 1.718-4.658-2.362-7.187-2.875-4.064-.825-8.591-1.799-12.438-.25-.67.27-1.269.858-1.531 1.531-1.463 3.749-.488 8.161.5 12.062.751 2.968 5.876 5.808 4.031 8.25-1.703 2.255-5.518-1.536-8.344-1.5-4.02.052-8.541.1-11.812 2.438-.6.429-1.034 1.174-1.125 1.906-.575 4.622 1.595 9.38 3.937 13.406 1.29 2.216 6.234 3.128 5.344 5.532-1.086 2.933-6.342-.005-9.344.875-3.612 1.06-7.65 2.272-10.03 5.187a2.858 2.858 0 00-.594 2.094c.54 4.187 3.493 7.88 6.437 10.906 2.745 2.822 10.138 2.348 10 6.281-.17 4.84-11.322 2.237-12.813 6.844-.306.949.362 2.987 1.313 2.688z" fill="#FF5" fill-rule="nonzero"/><path d="M285.563 341.206c.936-.352 1.477-1.845 1.125-2.781-.712-1.888-3.768-1.543-5.407-2.719-.999-.717-2.954-1.409-2.625-2.594.333-1.197 2.386-.774 3.625-.875 1.947-.158 4.319 1.658 5.844.438.781-.625 1.064-2.189.438-2.969-1.367-1.702-4.356-.648-6.532-.469-2.306.19-5.08.024-6.75 1.625-.602.578-.898 1.6-.687 2.406.582 2.231 3.036 3.527 4.906 4.875 1.836 1.325 3.943 3.86 6.063 3.063zM266.156 350.643c2.39-1.377 3.793-1.712 6.625-3.53.64-.412.33-1.65-.094-2.282-.414-.62-1.378-.578-2.03-.938-.99-.545-2.074-1.017-2.844-1.843-.602-.645-.905-1.516-1.282-2.313-.254-.537-.117-1.407-.656-1.656-.76-.35-2.023.054-2.375.812-.278.599.43 1.25.719 1.844.511 1.055.98 2.176 1.781 3.031.938 1.002 3.48.943 3.406 2.313-.09 1.661-3.913.755-4.406 2.344-.247.796.434 2.635 1.156 2.218zM269.656 323.55c.82.114 1.304-1.023 2-1.469 1.084-.695 2.15-1.479 3.375-1.875.42-.136.873-.13 1.313-.156.301-.018.647.155.906 0 .647-.39 1.093-1.246 1.063-2-.052-1.297-1.57-2.095-2.094-3.282-.646-1.46.11-3.787-1.25-4.625-.706-.435-2.004-.206-2.438.5-.926 1.51.702 3.5 1.406 5.125.302.696 1.51 1.252 1.188 1.938-.125.267-.595.032-.875.125-1.442.48-2.718 1.37-4 2.187-.742.473-2.004.692-2.125 1.563-.114.823.708 1.854 1.531 1.969zM276.594 360.938c1.547.017 2.143-1.874 3.394-2.63 1.227-.741 3.435-.659 3.98-1.835.36-.777-.034-2.063-.968-2.363-1.719-.551-3.346 1.323-4.837 2.223-1.363.822-3.672 1.466-3.694 2.865-.014.826 1.13 1.728 2.125 1.74zM291.469 318.05c.3-.957 1.88-1.48 1.719-2.469-.107-.654-1.082-.767-1.594-1.188-.792-.65-1.639-1.263-2.281-2.062-.737-.916-1.226-2.01-1.75-3.063-.036-.07-.133-.15-.094-.218.036-.064.145-.026.219-.031 1.174-.084 2.366-.17 3.53 0 .904.131 1.763.482 2.626.78.56.195 1.107.884 1.656.657.922-.382 1.567-1.826 1.188-2.75-.244-.592-1.176-.51-1.782-.719-1.066-.367-2.134-.775-3.25-.937-1.381-.2-2.793-.098-4.187-.031-.806.038-1.729-.187-2.406.25-.66.424-1.14 1.248-1.188 2.03-.05.816.601 1.521.969 2.25.634 1.26 1.242 2.558 2.125 3.657.789.983 1.81 1.758 2.781 2.563.55.456 1.08 1.601 1.719 1.28zM303.688 297.3c.979.227 2.276-.708 2.5-1.688.335-1.47-1.712-2.51-2.282-3.906-.58-1.422-2.2-3.372-1.125-4.469.712-.725 2.013.344 2.969.688 1.468.528 2.693 2.542 4.188 2.093.956-.286 1.788-1.637 1.5-2.593-.5-1.66-3.029-1.719-4.657-2.313-1.863-.68-3.871-1.942-5.781-1.406-.794.223-1.531.955-1.75 1.75-.672 2.446.923 5.024 1.875 7.375.645 1.592.89 4.08 2.562 4.469zM320.781 281.05c.885.455 2.357-.116 2.813-1 .943-1.829-1.367-3.905-1.688-5.938-.181-1.153-1.04-2.775-.125-3.5.957-.757 2.469 1.569 3.531.969.868-.49 1.301-2.007.813-2.875-.938-1.667-3.65-1.879-5.531-1.531-.777.143-1.565.694-1.906 1.406-.865 1.805-.069 4.024.25 6 .356 2.214-.15 5.442 1.843 6.469zM282.813 297.331c.997.29 1.764-1.195 2.78-1.406 1.053-.219 2.223.589 3.22.187.71-.286 1.724-.938 1.562-1.687-.495-2.285-2.154-5.425-1.437-6.969.35-.757-1.944-.747-2.5-.125-1.345 1.502 2.205 4.377.968 5.969-.507.652-1.672-.002-2.469.218-1.216.338-3.043.447-3.406 1.657-.24.8.479 1.922 1.281 2.156zM307.281 275.862c.611.197.949-.945 1.125-1.562.64-2.239 1.052-5.206-.469-6.969-.543-.63-1.793-1.058-2.437-.531-1.58 1.293 1.576 4.72.094 6.125-1.524 1.443-4.94-2.052-6.281-.438-.53.638.003 1.859.625 2.406 1.726 1.52 4.571.518 6.843.875.168.027.392-.036.5.094zM325.844 257.425c.27-.787 1.766-1.172 1.531-1.969-.312-1.059-2.038-.902-3.125-1.094-.77-.136-1.754-.544-2.344-.031-.626.544-.853 1.84-.312 2.469.55.64 1.7-.08 2.531.062.594.103 1.23.917 1.719.563zM247.469 371.506c2.448-1.82 5.1-3.01 7.875-5.907 1.305-1.363 1.203-3.286.437-4.5-.522-.828-1.292-1.314-2.125-1.625-.833-.31-1.756-.474-2.719.032-3.479 1.828-5.063 3.212-7.812 5.093l1.406 2.063c2.853-1.952 4.27-3.239 7.563-4.969-.087.046.276-.028.687.125.412.153.817.483.906.625.295.467.417.872-.125 1.438-2.445 2.554-4.882 3.61-7.593 5.625a24.634 24.634 0 011.5 2zM234.75 350.943c2.029-1.13 4.358-1.482 7-3.25 1.04-.696 1.579-1.814 1.781-2.937.203-1.124.08-2.332-.625-3.344-.637-.916-1.616-1.286-2.562-1.438-.947-.15-1.936-.109-2.813.47-2.407 1.586-3.835 1.98-6.344 3.812l1.47 2.03c2.272-1.659 3.633-2.024 6.25-3.75.09-.06.598-.167 1.062-.093.464.074.837.307.906.406.173.248.297.86.187 1.47-.11.609-.433 1.142-.687 1.312-2.172 1.453-4.357 1.74-6.844 3.125l1.219 2.187zM223.25 330.88s5.258-2.497 8.438-4.656c1.067-.725 1.305-1.869 1.343-2.937.039-1.068-.176-2.198-1-3.094-1.541-1.675-4.069-1.557-5.968-.437-2.076 1.223-6.625 4.093-6.625 4.093l1.343 2.094s4.59-2.868 6.563-4.031c1.073-.633 2.386-.529 2.844-.031.111.121.364.728.343 1.312-.02.585-.345 1.034-.25.969-2.852 1.937-8.093 4.469-8.093 4.469l1.062 2.25z" fill="#FF5" fill-rule="nonzero"/><path d="M313.164 255.066c-1.472-8.193-2.269-15.862-4.561-23.417-2.439-8.04-5.704-15.865-9.637-23.29-2.85-5.38-6.31-10.445-10.038-15.258-5.29-6.827-11.914-13.172-17.402-19.196" stroke="#FF5" stroke-width="4" stroke-linejoin="round"/><path d="M204.424 288.153c4.549-3.203 9.155-8.257 11.982-11.885 2.364-3.031 4.692-6.312 6.282-10.062 1.74-4.105 2.729-8.5 3.187-12.844.481-4.563.572-10.921-1.656-16.813l-2.75 4.094c.45 2.945.812 8.462.406 12.313-.426 4.035-1.327 8.036-2.875 11.687-1.363 3.215-3.463 6.254-5.75 9.188-2.512 3.223-4.888 6.922-8.906 9.25l.08 5.072z" fill="#FF5" fill-rule="nonzero"/><g fill="#FF5" fill-rule="nonzero"><path d="M218.125 298.562a3.5 3.5 0 117 0 3.5 3.5 0 01-7 0zM210.399 297.65a3.5 3.5 0 117 0 3.5 3.5 0 01-7 0zM218.13 290.717a3.5 3.5 0 117 0 3.5 3.5 0 01-7 0z"/></g><g fill="#FF5" fill-rule="nonzero"><path d="M232.616 283.819a3.5 3.5 0 116.714-1.982 3.5 3.5 0 01-6.714 1.982zM224.948 285.131a3.5 3.5 0 116.713-1.982 3.5 3.5 0 01-6.713 1.982zM230.4 276.294a3.5 3.5 0 116.713-1.982 3.5 3.5 0 01-6.714 1.982z"/></g><g fill="#FF5" fill-rule="nonzero"><path d="M240.212 263.269a3.5 3.5 0 116.187-3.275 3.5 3.5 0 01-6.187 3.275zM232.956 266.076a3.5 3.5 0 116.187-3.274 3.5 3.5 0 01-6.187 3.274zM236.546 256.333a3.5 3.5 0 116.187-3.275 3.5 3.5 0 01-6.187 3.275z"/></g><g fill="#FF5" fill-rule="nonzero"><path d="M241.818 238.33a3.5 3.5 0 113.574-6.02 3.5 3.5 0 01-3.574 6.02zM237.088 244.507a3.5 3.5 0 113.574-6.019 3.5 3.5 0 01-3.574 6.02zM235.075 234.321a3.5 3.5 0 113.573-6.02 3.5 3.5 0 01-3.573 6.02z"/></g><path fill="#55A" fill-rule="nonzero" d="M203.865 298.42l-12.677-.203 4.87-10.956h-4.87l-5.68 10.753h-13.19l4.668-10.55h-5.479l-4.87 10.753h-14.202l4.87-10.956h-4.464l2.637-4.87 8.725.609-5.073 10.348h4.667l5.275-10.754 14.61.406-4.668 9.942h4.464l5.276-10.55 14.203.405-5.682 10.55 4.261.204 2.232-3.653z"/><path fill="#FF5" fill-rule="nonzero" d="M208.435 288.478l8.319 4.464-3.855-8.725zM220.52 276.026l8.93 3.062-5.213-7.988zM227.898 259.73l9.412-.736-7.956-5.26zM229.104 242.535l7.194-6.113-9.53.402zM252.13 309.673l-8.342-4.418 3.903 8.703zM261.895 297.842l-9.06-2.654 5.57 7.743zM269.65 282.901l-9.42-.619 7.121 6.346zM274.588 266.436l-9.333 1.423 8.32 4.664zM276.356 251.43l-8.964 2.961 8.982 3.21zM275.153 236.348l-8.41 4.292 9.367 1.804zM270.838 221.313l-7.031 6.3 9.516-.652zM265.112 207.594l-7.03 6.3 9.515-.651zM258.123 195.483l-6.034 7.26 9.318-2.036z"/><path d="M323.429 319.05c-4.753 4.243-8.941 8.709-13.707 12.73-4.003 3.377-8.318 6.365-12.477 9.548.237-1.698.36-3.411.713-5.093.45-2.15 1.188-4.243 1.782-6.365 3.446-2.016 6.747-4.244 10.338-6.047a62.024 62.024 0 017.486-3.183c1.914-.663 3.726-1.06 5.865-1.59h0zM324.87 314.07c-3.228 1.076-6.505 2.037-9.685 3.229-2.233.837-4.475 1.679-6.587 2.75-2.346 1.19-4.477 2.711-6.716 4.066.387-1.634.475-3.355 1.162-4.903.582-1.309 1.636-2.391 2.454-3.587 2.325-.678 4.585-1.586 6.974-2.033 2.247-.421 4.557-.717 6.845-.598 1.889.098 3.703.717 5.554 1.076h0zM325.012 309.966c-2.346-.12-4.69-.347-7.038-.362-1.648-.01-3.304-.02-4.942.192-1.819.234-3.595.791-5.393 1.187.704-1.17 1.244-2.499 2.114-3.51.736-.857 1.707-1.393 2.561-2.09 1.662.164 3.348.127 4.985.49 1.54.343 3.086.802 4.5 1.581 1.168.644 2.142 1.675 3.213 2.512h0zM325.511 305.555c-1.626-.809-3.214-1.698-4.878-2.425-1.168-.511-2.342-1.023-3.58-1.36-1.375-.375-2.832-.487-4.247-.73.907-.687 1.753-1.546 2.723-2.06.821-.436 1.698-.553 2.547-.829 1.125.633 2.337 1.118 3.374 1.898.976.733 1.916 1.559 2.65 2.59.607.852.94 1.944 1.411 2.916h0zM326.71 299.398c-.956-.825-1.881-1.719-2.87-2.476-.693-.532-1.39-1.065-2.144-1.45-.836-.428-1.748-.632-2.622-.947.636-.535 1.247-1.226 1.908-1.606.558-.321 1.124-.36 1.686-.54.655.636 1.379 1.149 1.966 1.906.552.713 1.072 1.503 1.445 2.46.307.79.421 1.769.632 2.653h0z" stroke="#F55" stroke-width="2" fill="#F55" fill-rule="nonzero" stroke-linecap="round" stroke-linejoin="round"/><path d="M255.805 337.159c-1.257-2.603-2.876-5.362-4.204-8.1-1.57-3.234-2.962-6.552-4.444-9.83 2.963-3.006 6.173-5.789 8.888-9.021 3.829-4.559 7.401-9.382 10.368-14.543 3.044-5.294 5.624-10.9 7.541-16.698 1.788-5.408 2.925-11.045 3.636-16.697.623-4.947.754-9.966.539-14.947-.238-5.512-.875-11.03-2.02-16.428-1.023-4.82-2.555-9.535-4.31-14.139-1.83-4.804-3.913-9.54-6.463-14.004-2.112-3.698-4.847-7.003-7.271-10.504l11.042-14.947c4.802 5.477 9.922 10.69 14.408 16.429 4.41 5.64 8.746 11.398 12.254 17.64 2.787 4.96 4.937 10.271 6.91 15.608 1.61 4.352 2.904 8.823 4 13.33 1.096 4.512 1.615 9.85 2.567 13.69-2.983 2.824-8.574 8.052-12.708 12.232-4.36 4.409-8.83 8.741-12.75 13.544-5.49 6.724-10.569 13.823-15.006 21.283-3.149 5.295-6.078 10.78-8.188 16.568-2.297 6.298-3.77 12.83-4.789 19.534z" fill="#F55" fill-rule="nonzero"/><path d="M213.072 400.927a90.282 90.282 0 0012.602-5.094c7.905-3.896 15.276-8.8 22.79-13.406 8.497-5.208 17.01-10.411 25.203-16.087a322.297 322.297 0 0019.304-14.478c7.285-5.9 14.303-12.131 21.181-18.5 5.43-5.028 10.933-10.367 15.848-15.55" stroke="#55A" stroke-width="2" stroke-linecap="round" stroke-linejoin="round"/><path d="M196.621 272.844s-.273 1.673-.8 2.2c-.527.527-1.454.8-2.2.8-.745 0-1.673-.273-2.2-.8-.527-.527-.8-1.454-.8-2.2 0-.745.4-1.8.8-2.2.4-.4.8-.6 1.2-1 .4-.4.6-.4 1-.8l1-1c.4-.4 1-1.2 1.4-2 .4-.8.6-2 .6-2s.2 1.2.6 2c.4.8 1 1.6 1.4 2l1 1c.4.4.6.4 1 .8s.8.6 1.2 1c.4.4.8 1.455.8 2.2 0 .746-.273 1.673-.8 2.2-.527.527-1.454.8-2.2.8-.745 0-1.673-.273-2.2-.8-.527-.527-.8-2.2-.8-2.2z" fill="#F55" fill-rule="nonzero"/><path d="M288.229 356.037c.766 3.24.715 6.793 2.298 9.723 1.466 2.714 3.754 5.073 6.364 6.717 1.624 1.023 3.56 1.724 5.48 1.768 2.015.046 4.01-.733 5.833-1.591 1.76-.828 3.285-2.107 4.773-3.359 1.148-.965 2.608-1.796 3.182-3.182.339-.816.366-1.847 0-2.651-.517-1.141-1.679-1.977-2.828-2.475-1.087-.472-2.4-.69-3.536-.354-1.085.321-1.808 1.367-2.651 2.121-.994.89-1.886 1.886-2.829 2.829-.176-.648-.115-1.416-.53-1.945-.749-.954-2.121-1.178-3.182-1.767.943-.884 2.139-1.56 2.828-2.652.726-1.15 1.099-2.536 1.238-3.89.176-1.708.153-3.55-.53-5.126-.715-1.647-2.357-2.71-3.536-4.066" stroke="#55A" stroke-width="2" stroke-linecap="round" stroke-linejoin="round"/><path d="M311.973 369.69c-.984.552-2.718-.961-3.061-2.163-.335-1.168.575-2.48 1.414-3.358.946-.991 2.475-1.179 3.712-1.768M305.906 374.422c1.827 1.944 3.08 4.669 5.48 5.833a5.898 5.898 0 004.066.354c1.417-.405 2.737-1.414 3.536-2.652.589-.913.92-2.116.707-3.182-.241-1.202-1.27-2.122-2.121-3.005-1.08-1.12-2.475-1.886-3.713-2.828" stroke="#55A" stroke-width="2" stroke-linecap="round" stroke-linejoin="round"/><path d="M319.165 372.83c1.178-.117 2.474.174 3.535-.353 1.008-.5 2.006-1.387 2.298-2.475.345-1.284-.196-2.751-.884-3.889-1.363-2.253-3.882-3.575-6.01-5.126-1.903-1.387-3.899-2.67-6.01-3.713-1.188-.586-2.423-1.715-3.713-1.414-1.096.256-1.982 1.394-2.298 2.475-.185.632.085 1.343.354 1.945.274.613.825 1.06 1.237 1.59M312.477 360.799c.618-.319.927-1.256 1.264-2.137M323.054 363.462c1.001-.825 2.356-1.351 3.005-2.475.537-.932.858-2.158.53-3.182-.28-.873-1.318-1.275-1.944-1.945-.856-.915-1.477-2.071-2.475-2.828-1.197-.908-2.63-1.506-4.066-1.945-1.538-.47-3.177-.902-4.773-.707-1.075.132-2.402.337-3.005 1.238-.525.783-.361 1.957 0 2.828.382.924 1.257 1.617 2.121 2.121.95.555 2.112 1.141 3.182.884.933-.224 1.67-1.098 2.121-1.944.366-.684.46-1.53.354-2.298-.097-.706-.59-1.297-.884-1.945" stroke="#55A" stroke-width="2" stroke-linecap="round" stroke-linejoin="round"/><path d="M324.998 354.092c.648-.53 1.586-.834 1.945-1.59.353-.746.295-1.705 0-2.475-.568-1.48-1.86-2.66-3.182-3.536-1.507-.998-3.373-1.33-5.127-1.768-1.1-.274-2.311-.964-3.359-.53-.74.307-1.274 1.155-1.414 1.944-.15.845.176 1.802.707 2.475.67.85 1.75 1.513 2.829 1.591.818.06 1.7-.32 2.298-.884.518-.488.762-1.243.884-1.944.121-.7-.118-1.414-.177-2.121M318.634 340.304l-2.121-3.182-3.359-2.298" stroke="#55A" stroke-width="2" stroke-linecap="round" stroke-linejoin="round"/><path d="M322.877 345.077c.471-1.886 1.15-3.732 1.414-5.657.281-2.044.118-4.125.177-6.187l-4.596.177c.059 2.18.37 4.368.176 6.54-.128 1.44-.589 2.829-.883 4.243l3.712.884zM310.326 380.609c-1.591 2.593-2.6 5.65-4.773 7.778a22.677 22.677 0 01-9.37 5.48c-2.886.843-6.008.295-9.015.354-3.594.07-7.224-.504-10.783 0-2.733.387-5.428 1.189-7.955 2.298-1.768.775-3.608 1.618-4.95 3.005-.752.778-1.06 1.886-1.591 2.828.236-2.474-.011-5.044.707-7.424a22.106 22.106 0 014.066-7.602c2.078-2.52 4.673-4.737 7.601-6.187 2.553-1.264 5.49-1.582 8.309-2 4.029-.597 8.127-.571 12.197-.707 2.297-.077 4.66.472 6.895-.06 1.854-.443 3.417-1.358 5.126-2.536l3.536 4.773h0z" stroke="#55A" stroke-width="2" fill="#FF5" fill-rule="nonzero" stroke-linecap="round" stroke-linejoin="round"/><path d="M270.953 392.541l5.176-3.564.05 1.091 6.88-1.925-1.065 1.68 10.337-2.399c.064-.006-1.414 1.585-1.353 1.57l10.084-3.038c.227-.044-.241 1.322-.058 1.182l7.905-8.09-.59-.663-8.894 4.571 1.516.439-8.965.724.817.724-10.845-.4 1.396.857c-.106.01-10.307 1.966-10.409 1.998l1.784.533c-1.27.697-4.04 1.347-5.032 1.949-.991.601 1.001.475.943.509l-3.713 3.105 3.984-1.846.052.993z" stroke="#55A" fill="#55A" fill-rule="nonzero" stroke-linecap="round" stroke-linejoin="round"/></g><path d="M29.5 99.362c0-5.523-2.858-9-7-9-4.142 0-7.5 4.477-7.5 10 .017.478.01.946 0 1.406 0 3.65 1.338 7.189 2.5 10.5 1.195 3.406 2.917 6.39 4.531 9.438 2.5 4.72 7.969 13.656 7.969 13.656s5.468-8.936 7.969-13.656c1.614-3.047 3.336-6.032 4.531-9.438 1.162-3.311 2.5-6.85 2.5-10.5-.014-.487-.01-.957 0-1.406 0-5.523-3.358-10-7.5-10-4.142 0-7 3.477-7 9 0 1-1 1-1 0zM89 63.362c0-11.046-5.716-18-14-18-8.284 0-15 8.954-15 20 .035.956.018 1.891 0 2.813 0 7.298 2.677 14.377 5 21 2.389 6.81 5.834 12.78 9.063 18.875 5 9.44 15.937 27.312 15.937 27.312s10.936-17.873 15.938-27.312c3.228-6.095 6.673-12.064 9.062-18.875 2.323-6.623 5-13.702 5-21a56.086 56.086 0 010-2.813c0-11.046-6.716-20-15-20-8.284 0-14 6.954-14 18 0 2-2 2-2 0zM330.5 441.362c0 5.523 2.858 9 7 9 4.142 0 7.5-4.477 7.5-10a24.972 24.972 0 010-1.406c0-3.65-1.338-7.188-2.5-10.5-1.195-3.406-2.917-6.39-4.531-9.438-2.5-4.72-7.969-13.656-7.969-13.656s-5.468 8.937-7.969 13.656c-1.614 3.048-3.336 6.032-4.531 9.438-1.162 3.312-2.5 6.85-2.5 10.5.014.487.009.957 0 1.406 0 5.523 3.358 10 7.5 10 4.142 0 7-3.477 7-9 0-1 1-1 1 0zM271 477.362c0 11.046 5.716 18 14 18 8.284 0 15-8.954 15-20a49.662 49.662 0 010-2.812c0-7.299-2.677-14.377-5-21-2.389-6.811-5.834-12.781-9.063-18.875-5-9.44-15.937-27.313-15.937-27.313s-10.936 17.873-15.938 27.313c-3.228 6.094-6.673 12.064-9.062 18.875-2.323 6.623-5 13.701-5 21 .028.974.019 1.914 0 2.812 0 11.046 6.716 20 15 20 8.284 0 14-6.954 14-18 0-2 2-2 2 0z" fill="#F55" fill-rule="nonzero"/></g></svg>