<svg width="360" height="540" xmlns="http://www.w3.org/2000/svg"><g fill="none" fill-rule="evenodd"><path d="M30.437.496h299.126c16.583 0 29.94 13.358 29.94 29.941v479.126c0 16.583-13.357 29.94-29.94 29.94H30.437c-16.583 0-29.94-13.357-29.94-29.94V30.437c0-16.583 13.357-29.94 29.94-29.94z" stroke="#000" stroke-width=".992" fill="#FFF" fill-rule="nonzero"/><path fill="#FF5" fill-rule="nonzero" d="M260.22 302.315l-9.531.673-12.224-2.374-13.465-5.28-11.728-6.625-9.036-7.512-16.653-20.764-8.859-12.401-8.326-7.335-16.193-11.906-13.96-7.476-17.186-5.102-13.43-1.382-9.708-.177-11.055 3.26 11.197 19.665 9.531-.673 12.26 2.409 13.43 5.244 11.763 6.661 9 7.477 16.69 20.764 8.857 12.437 8.327 7.299 16.158 11.905 13.96 7.512 17.185 5.103 13.43 1.346 9.708.177 11.055-3.224z"/><path stroke="#55A" stroke-width="1.984" d="M59.988 30.012h270v360h0"/><path d="M30.012 30.012v4.996h4.996v35.008c0 2.728-2.232 4.996-4.996 4.996-2.764 0-4.996-2.268-4.996-4.996v-5.032h-5.032v5.032c0 5.492 4.5 9.992 10.028 9.992 5.527 0 9.992-4.5 9.992-9.992V30.012h-9.992zM329.988 509.988v-4.996h-4.996v-35.008c0-2.728 2.232-4.996 4.996-4.996 2.764 0 4.996 2.268 4.996 4.996v5.032h5.032v-5.032c0-5.492-4.5-9.992-10.028-9.992-5.527 0-9.992 4.5-9.992 9.992v40.004h9.992z" fill="#000" fill-rule="nonzero"/><path fill="#FF5" fill-rule="nonzero" d="M170.079 184.43l37.878 30.755-.284 62.717-3.862 2.657-6.803-6.803-10.347-13.89-8.574-12.118-3.863-4.146-4.712-3.862zM222.165 293.28l24.839-18.036 2.374 4.748-21.295 16.866z"/><path fill="#FF5" fill-rule="nonzero" d="M203.811 279.992l36.106-23.67 2.055 4.713-33.732 22.217z"/><path fill="#F55" fill-rule="nonzero" d="M217.134 208.382l-.319 63.035 23.988-15.697-3.862-17.751-2.658-17.15-.602-15.98.319-8.575z"/><path d="M207.673 283.252l34.3-22.784s2.409 6.095 3.543 9.178a578.15 578.15 0 012.09 5.598l-25.44 18.354s-6.485-2.126-9.178-4.145c-2.197-1.63-5.315-6.201-5.315-6.201zM148.004 167.74l59.244 47.268L234 198l-.248-13.996.744-13.252.496-10.488-27.248 18.496-35.008-28.772-4.5-2.232-2.48-2.268-4.004-.496-2.268-3.26-2.976.78-3.012-3.756h-3.012l-2.48-2.268z" fill="#000" fill-rule="nonzero"/><path fill="#000" fill-rule="nonzero" d="M138.012 131.492l-.248 89.008 5.988 2.232 4.996 2.764-.248-89.256-3.26-.496-3.224-3.26-2.02.78z"/><path d="M260.008 208.24l20.232-9.992s3.898 11.055 6.024 16.512c2.126 5.457 4.04 11.02 6.732 16.228 1.807 3.508 3.827 6.91 6.236 10.028 2.374 3.012 8.008 8.22 8.008 8.22l-.248 78.52s-9.886-11.976-13.996-18.496c-3.579-5.705-6.307-11.941-9.248-18-3.827-7.937-7.902-15.768-10.984-24.024-2.09-5.527-3.544-11.267-5.032-16.972-1.523-5.953-2.87-11.977-3.968-18-.815-4.394-1.311-8.858-2.02-13.252-.567-3.614-1.736-10.772-1.736-10.772h0z" stroke="#55A" stroke-width="1.984" fill="#F55" fill-rule="nonzero" stroke-linecap="round" stroke-linejoin="round"/><path fill="#FF5" fill-rule="nonzero" d="M263.764 149.492l27.248 14.74-2.764 10.276.992 9.992 3.012 6.732-8.008 6.024-13.748 5.988-10.24 4.252-.992-9.992v-12.012l.744-13.996 2.232-15.732z"/><path d="M226.488 296.752l22.748-17.008s3.969 8.681 6.024 13.004c1.63 3.437 4.996 10.24 4.996 10.24s-11.09.709-16.512-.248c-5.988-1.063-17.256-5.988-17.256-5.988z" fill="#55A" fill-rule="nonzero"/><path fill="#000" fill-rule="nonzero" d="M329.988 382.748l-16.866-14.634.248-279.744 16.618-.106z"/><path d="M95.988 148.606l.177 66.827-6.91 2.126S78.06 201.933 72.32 194.21c-4.181-5.563-8.681-10.914-12.756-16.618-.992-1.382-2.835-4.217-2.835-4.217s11.09-8.079 16.796-11.87a246.712 246.712 0 0112.401-7.583c3.295-1.878 10.063-5.315 10.063-5.315z" fill="#55A" fill-rule="nonzero"/><path d="M112.252 140.492l-.354 74.232s-5.528-.283-8.292-.177c-2.87.142-8.504.886-8.504.886l.178-66.827s6.307-3.401 9.531-4.925c2.445-1.17 7.441-3.189 7.441-3.189z" fill="#000" fill-rule="nonzero"/><path d="M205.228 64.134c-7.05.106-14.137-.106-21.189.354-5.882.355-11.728 1.028-17.504 1.914-3.826.602-7.547 1.559-11.338 2.303-.567 4.145-1.205 8.256-1.772 12.366-.602 4.677-1.098 9.319-1.736 13.996-.496 3.472-.78 6.98-1.595 10.417-.496 2.055-1.31 4.004-1.948 6.024l-2.658.354c-.886-.886-1.453-2.303-2.657-2.657-1.595-.496-3.473.07-4.96.886-2.127 1.133-3.65 3.224-4.926 5.28-1.24 1.983-2.232 4.216-2.48 6.554a9.064 9.064 0 00.708 4.43c.46 1.027 1.099 2.16 2.126 2.657.992.46 2.232 0 3.366 0 .567.815.957 1.807 1.737 2.445 1.204.992 2.834 1.31 4.252 1.949.78.885 1.24 2.16 2.303 2.657.921.425 2.02 0 3.012 0 .885.815 1.523 2.02 2.657 2.48.921.355 1.984 0 2.976 0 1.028 1.17 1.595 2.906 3.012 3.544 1.028.425 2.232-.142 3.366-.178.886 1.063 1.418 2.587 2.658 3.19 1.027.46 2.232 0 3.366 0 1.098.92 2.09 2.055 3.33 2.799 1.453.885 3.012 1.559 4.607 1.948 1.665.39 3.437.674 5.138.355 1.842-.32 3.614-1.205 5.138-2.303 1.665-1.205 3.082-2.835 4.216-4.571 1.595-2.374 2.658-5.067 3.543-7.796 1.595-4.925 2.09-10.098 3.012-15.2 1.17-6.626 2.02-13.323 3.19-19.985 1.133-6.59 2.409-13.216 3.684-19.771 1.099-5.492 2.268-10.984 3.366-16.441z" fill="#FF5" fill-rule="nonzero"/><path d="M131.988 30.012l20.02 40.004s10.17-2.693 15.378-3.544c8.15-1.31 16.37-2.196 24.626-2.48 9.992-.319 20.02.142 29.976.992 11.764 1.063 35.008 5.032 35.008 5.032l22.996-40.004H131.988z" stroke="#55A" stroke-width="1.984" fill="#F55" fill-rule="nonzero" stroke-linecap="round" stroke-linejoin="round"/><path d="M146.835 31.465L162 61.015c6.484-2.267 11.41-2.338 19.7-3.26l-3.897-26.29h-5.74l5.102 22.748c-4.748.318-8.504.283-12.614 1.913l-11.126-24.661h-6.59zM186.697 31.465l3.047 25.299c10.063-.921 18.142-1.488 28.205-.46l5.492-24.84h-6.449l-3.047 19.808c-7.902-.461-12.579.035-19.205.496l-2.232-20.303h-5.811zM233.256 31.465l-7.335 25.05c7.37.639 18.071 1.595 26.079 3.473l13.713-28.523h-6.343l-10.382 23.527c-4.464-1.205-12.012-1.736-16.476-2.374l6.236-21.153h-5.492z" stroke="#55A" stroke-width="1.984" fill="#55A" fill-rule="nonzero" stroke-linecap="round" stroke-linejoin="round"/><path d="M205.016 64.984S201.543 81.638 199.984 90c-1.807 9.957-2.905 20.09-4.996 30.012-1.382 6.732-1.594 13.996-4.996 19.984-2.303 4.11-5.421 8.787-9.992 9.992-4.43 1.17-10.205-.177-13.252-3.579-2.551-2.87-3.083-7.795-1.736-11.409 1.417-3.933 5.28-8.327 9.46-8.185 4.359.142 9.178 4.89 9.248 9.213.036 3.897-4.18 8.255-8.078 8.504-2.41.177-5.315-2.126-5.634-4.536-.39-2.8 2.161-6.839 4.996-6.803 1.7 0 4.004 1.984 2.94 4.146" stroke="#55A" stroke-width="1.984" stroke-linecap="round" stroke-linejoin="round"/><path d="M199.17 64.17c-2.942 8.964-3.686 18.07-5.245 27.176-1.594 9.036-2.02 18.248-4.145 27.178-1.701 7.086-3.615 14.633-6.804 20.763M192.472 64.17c-2.232 7.795-2.905 16.05-4.145 24.094-1.205 7.866-1.63 15.874-3.154 23.67-1.098 5.668-1.913 11.338-4.323 16.688M186.52 64.56c-1.985 7.44-2.587 15.342-3.685 23.03-1.063 7.512-1.453 15.201-2.8 22.642-.992 5.386-1.7 10.843-3.862 15.945M180.709 65.197c-1.807 7.086-2.339 14.563-3.331 21.897-.957 7.123-1.311 14.386-2.516 21.473-.886 5.138-1.523 10.311-3.472 15.13M175.004 65.728c-1.772 6.733-2.339 13.855-3.295 20.8-.992 6.803-1.311 13.712-2.552 20.444-.885 4.89-1.523 9.78-3.472 14.386M168.626 66.614c-1.736 6.307-2.126 12.579-3.047 18.85-.922 6.343-1.276 12.756-2.48 19.028-.851 4.536-1.453 9.106-3.367 13.394M162.46 67.535c-1.665 5.74-2.16 11.8-3.047 17.717-.885 5.776-1.204 11.657-2.303 17.398-.815 4.145-1.417 8.326-3.189 12.26M155.48 69.484c-1.417 5.138-1.842 10.205-2.586 15.343-.78 5.173-1.028 10.453-1.985 15.59-.673 3.72-1.169 7.477-2.692 10.985M175.43 127.205c-1.63-1.099-3.084-3.083-5.032-3.154-3.225-.106-6.414 2.055-8.504 4.465-2.233 2.586-3.579 6.271-3.331 9.673.142 2.445 1.346 5.067 3.295 6.555.957.709 2.02.532 3.579.673" stroke="#55A" stroke-width="1.984" stroke-linecap="round" stroke-linejoin="round"/><path d="M168.945 123.98c-1.347-1.488-2.374-2.657-3.969-2.763-3.224-.178-6.413 2.055-8.504 4.5-2.232 2.55-3.578 6.236-3.33 9.637.141 2.445 1.204 5.28 3.295 6.555.992.603 1.878.71 3.472-.07" stroke="#55A" stroke-width="1.984" stroke-linecap="round" stroke-linejoin="round"/><path d="M164.055 121.004c-1.63-1.098-3.083-3.083-5.031-3.154-3.225-.106-6.414 2.056-8.504 4.5-2.233 2.552-3.58 6.237-3.331 9.638.142 2.445 1.205 5.244 3.295 6.555.886.567 1.63.603 3.19.071" stroke="#55A" stroke-width="1.984" stroke-linecap="round" stroke-linejoin="round"/><path d="M157.323 117.638c-1.24-1.772-2.48-2.658-4.146-2.764-3.189-.142-6.413 2.055-8.504 4.5-2.197 2.551-3.543 6.236-3.33 9.638.177 2.445 1.31 5.138 3.295 6.555.921.638 1.63.85 3.366.46" stroke="#55A" stroke-width="1.984" stroke-linecap="round" stroke-linejoin="round"/><path d="M151.618 114.272c-.602-1.489-2.232-2.516-3.756-2.622-3.189-.213-6.413 2.055-8.468 4.464-2.233 2.587-3.579 6.272-3.366 9.673.177 2.445 1.31 5.103 3.33 6.52.744.567 1.17.248 2.729.39" stroke="#55A" stroke-width="1.984" stroke-linecap="round" stroke-linejoin="round"/><path d="M145.665 111.685c-.602-1.772-1.771-2.374-3.082-2.48-3.19-.32-6.414 2.02-8.504 4.464-2.233 2.587-3.437 6.237-3.331 9.638.035 1.807.638 3.827 1.984 4.996 1.063.957 2.551.992 4.11 1.099M256.783 70.476c-.85 10.17-1.452 20.304-2.515 30.437-.567 5.528-1.063 11.09-2.02 16.583-1.311 7.264-1.63 14.988-4.996 21.543-2.055 3.969-5.35 7.3-8.858 9.993-3.225 2.48-6.945 4.5-10.914 5.456-4.11 1.028-8.54 1.099-12.72.248-4.146-.886-7.83-3.224-11.551-5.244-4.678-2.516-8.93-5.74-13.394-8.61M202.96 83.87c3.934-1.134 7.76-2.764 11.8-3.401 2.622-.39 5.421-.922 7.972-.213 1.276.354 3.579 1.382 3.402 2.161-.106.39-.744.32-1.134.32-1.488.035-2.835-.922-4.323-1.135-2.161-.283-4.394-.212-6.59 0-3.756.39-7.406 1.524-11.126 2.268h0zM225 92.161c.46-.496 1.736-.92 1.346-1.452-.46-.744-3.295-2.552-5.208-3.296-1.807-.708-3.792-.992-5.776-1.027-2.055-.071-4.145.248-6.165.78-1.382.39-2.48.991-4.04 1.665M200.8 93.437c3.33-.85 6.59-2.126 9.991-2.516 2.41-.283 4.89-.354 7.264.107 1.949.39 3.862 1.133 5.492 2.196 1.063.745 1.878 1.772 2.693 2.8-1.63.708-3.153 1.736-4.89 2.161-2.728.709-5.598.992-8.397.673-2.374-.248-4.642-1.169-6.803-2.161-1.914-.85-3.544-2.197-5.35-3.26z" stroke="#55A" stroke-width="1.984" stroke-linecap="round" stroke-linejoin="round"/><path d="M209.197 91.949c.106 1.17-.32 2.48.248 3.508.673 1.24 2.055 2.055 3.401 2.515 1.028.32 2.268.355 3.296 0 .992-.39 1.842-1.169 2.374-2.055.744-1.24.602-2.799.921-4.216" stroke="#55A" stroke-width="1.984" stroke-linecap="round" stroke-linejoin="round"/><path d="M212.988 92.764c-.319.354-.177 1.027.071 1.417.284.46.815.815 1.311.815.532.035 1.063-.319 1.311-.744.319-.46.496-1.24.106-1.63-.673-.638-2.196-.496-2.799.142h0zM208.878 103.854c2.374-.46 5.705-.992 8.398-2.02 2.374-.92 4.641-2.692 6.696-3.649" stroke="#55A" stroke-width="1.984" fill="#55A" fill-rule="nonzero" stroke-linecap="round" stroke-linejoin="round"/><path d="M237.154 86.492c-.603 1.488-1.524 2.87-1.843 4.43-.567 3.188-.142 6.519.248 9.779.46 3.968 1.913 7.83 2.587 11.799.425 2.268 1.452 4.642.92 6.91-.247 1.133-1.097 2.055-1.912 2.834-1.028.957-2.445 1.453-3.65 2.162M223.866 111.26c-1.559 1.7-3.827 2.94-4.677 5.102-.39 1.028-.46 2.268 0 3.295.567 1.17 1.7 2.197 2.976 2.48 1.028.249 2.126-.318 3.048-.779 1.204-.638 1.878-2.055 3.082-2.622.85-.425 1.914-.921 2.835-.567.283.107.638.496.567.78-.32 1.027-1.984.78-2.941 1.134-1.311.496-2.587.92-3.862 1.382" stroke="#55A" stroke-width="1.984" stroke-linecap="round" stroke-linejoin="round"/><path d="M216.319 132.449c1.594-.815 3.862-.638 5.775-.603 1.985.036 3.898.957 5.847.886 2.232-.106 4.287-1.594 6.555-1.594 1.63-.036 3.508.708 4.784 1.063-.071.567-.249 1.31 0 1.736-1.63-.602-3.969-1.488-5.989-1.24-1.913.248-3.295 2.445-5.244 2.48-2.232.071-3.968-2.48-6.236-2.586-2.161-.071-4.43 1.63-6.13 2.02.46-.639.673-1.702.638-2.162h0z" stroke="#55A" stroke-width="1.984" fill="#55A" fill-rule="nonzero" stroke-linecap="round" stroke-linejoin="round"/><path d="M220.252 139.394c1.594.673 3.083 1.7 4.783 2.02 1.24.247 2.587.212 3.863-.036.85-.142 1.63-.567 2.445-.886.744-.319 1.452-.708 2.196-1.027M231.768 144.39c-1.17-.496-2.268-.921-3.437-.921-.992 0-1.914.39-2.835.814" stroke="#55A" stroke-width="1.984" stroke-linecap="round" stroke-linejoin="round"/><path d="M238.287 83.551c1.56-1.842 4.996-2.303 7.69-2.516 1.984-.141 3.932.39 5.846.957 1.346.39 2.657 1.134 3.933 1.736-2.162-.425-4.394-1.204-6.626-1.275-1.949-.036-3.898.354-5.811.78-1.347.318-2.587.956-3.791 1.594-.496.283-1.63-.815-1.24-1.276h0z" stroke="#55A" stroke-width="1.984" fill="#55A" fill-rule="nonzero" stroke-linecap="round" stroke-linejoin="round"/><path d="M237.72 90.354c1.56-.78 2.977-1.842 4.642-2.267 2.339-.674 4.89-.993 7.264-.567 1.594.283 2.94 1.346 4.43 1.984M236.693 93.65c1.7-.674 3.791-1.205 5.705-1.453 2.232-.284 4.535-.354 6.767-.071 1.311.177 2.693.425 3.863 1.098.708.426 1.169 1.205 1.771 1.807l-.354 2.729c-1.17.425-2.339 1.027-3.579 1.24-1.665.319-3.437.319-5.138.213-1.842-.107-3.72-.213-5.456-.886-1.311-.532-2.48-1.418-3.58-2.339-.353-.319-.637-.673-.956-1.027.32-.426.46-1.099.957-1.311h0z" stroke="#55A" stroke-width="1.984" stroke-linecap="round" stroke-linejoin="round"/><path d="M241.087 92.906c.07 1.169-.32 2.48.248 3.507.673 1.24 2.055 2.09 3.401 2.516 1.028.354 2.268.39 3.296 0 .956-.354 1.842-1.134 2.374-2.055.744-1.205.602-2.8.92-4.181" stroke="#55A" stroke-width="1.984" stroke-linecap="round" stroke-linejoin="round"/><path d="M244.56 93.756c-.32.354-.178.992.07 1.417.283.425.815.78 1.311.815.531 0 1.063-.319 1.311-.744.319-.46.496-1.275.106-1.665-.673-.603-2.161-.496-2.799.177h0z" stroke="#55A" stroke-width="1.984" fill="#55A" fill-rule="nonzero" stroke-linecap="round" stroke-linejoin="round"/><path d="M237.508 99.07c1.275 1.383 2.303 3.013 3.791 4.182 1.205.921 2.658 1.417 4.004 2.126" stroke="#55A" stroke-width="1.984" stroke-linecap="round" stroke-linejoin="round"/><path d="M253.56 108.602c.672 2.906 1.38 4.855 2.621 7.016 1.276 2.126 2.728 4.252 4.784 5.634 1.63 1.063 3.614 1.913 5.563 1.736 1.771-.142 3.65-.992 4.748-2.41 1.098-1.417 1.275-3.472 1.169-5.279-.106-1.63-.567-3.401-1.665-4.642-.957-1.133-2.41-1.913-3.863-2.055-1.027-.106-2.197.071-2.94.78-.568.531-.78 1.453-.78 2.232.035.85-.071 1.736.992 2.339-.78-.32-1.311-1.311-1.878-2.055-.744-1.063-1.382-2.268-1.913-3.508-.638-1.382-1.063-2.87-1.489-4.359-.531-2.02-.92-4.11-1.346-6.13a982.198 982.198 0 01-2.055-9.637c-.567 5.527-1.347 14.775-1.949 20.338h0z" stroke="#55A" stroke-width="1.984" fill="#FF5" fill-rule="nonzero" stroke-linecap="round" stroke-linejoin="round"/><path d="M250.83 128.587c.638 2.905 2.587 8.574 4.855 12.366 1.276 2.126 2.8 4.18 4.784 5.634 1.594 1.169 3.472 2.48 5.456 2.338 1.878-.142 3.756-1.453 4.855-3.012 1.027-1.452 1.275-3.472 1.169-5.244-.106-1.665-.567-3.437-1.666-4.677a6.288 6.288 0 00-3.897-2.055c-.992-.106-2.162.106-2.906.78-.567.531-.815 1.452-.78 2.232.072.815.036 1.559 1.064 2.161-.78-.319-1.382-1.134-1.949-1.842-.815-1.063-1.382-2.303-1.949-3.508-.602-1.417-.992-2.941-1.453-4.394-.531-1.736-1.027-3.508-1.559-5.244-1.169-4.11-2.976-9.709-3.508-12.26-.566 5.528-1.948 11.162-2.515 16.725h0z" stroke="#55A" stroke-width="1.984" fill="#FF5" fill-rule="nonzero" stroke-linecap="round" stroke-linejoin="round"/><path d="M248.598 136.417s.922 2.87 1.56 4.217c.744 1.523 2.622 4.358 2.622 4.358s3.224 1.453 4.89 2.055c1.558.567 4.747 1.453 4.747 1.453s-3.685-2.87-5.137-4.677c-1.276-1.56-2.162-3.402-3.048-5.244-.815-1.772-1.382-3.685-2.02-5.563-.566-1.666-1.558-5.067-1.558-5.067s-.567 3.33-.993 4.996c-.283 1.17-1.063 3.472-1.063 3.472h0z" stroke="#55A" stroke-width="1.984" fill="#FF5" fill-rule="nonzero" stroke-linecap="round" stroke-linejoin="round"/><path stroke="#55A" stroke-width="1.984" fill="#FF5" fill-rule="nonzero" stroke-linecap="round" stroke-linejoin="round" d="M252.78 144.992l-6.804-3.898 2.622-4.748zM182.41 149.209l24.909 20.693 28.063-18.461-.673 8.965-27.036 18.602-35.114-28.984c2.835.956 6.59.815 9.85-.815h0z"/><path stroke="#55A" stroke-width="1.984" stroke-linecap="round" stroke-linejoin="round" d="M112.252 158.528l9.354 10.594-9.177 9.709"/><path stroke="#55A" stroke-width="1.984" stroke-linecap="round" stroke-linejoin="round" d="M112.606 164.94l3.366 3.899-3.366 3.507"/><path d="M125.504 146.516l-9.354 9.708 9 9.886 9.106-9.886-8.752-9.708zm-.177 4.18l5.35 4.997-5.35 5.882-5.173-5.173 5.173-5.705z" stroke="#55A" stroke-width="1.984" fill="#55A" fill-rule="nonzero" stroke-linecap="round" stroke-linejoin="round"/><path stroke="#55A" stroke-width="1.984" fill="#FF5" fill-rule="nonzero" stroke-linecap="round" stroke-linejoin="round" d="M329.988 52.016l-37.984 36h37.984z"/><path stroke="#55A" stroke-width="1.984" fill="#F55" fill-rule="nonzero" stroke-linecap="round" stroke-linejoin="round" d="M329.988 59.988l-22.996 22.004h22.996z"/><path stroke="#55A" stroke-width="1.984" stroke-linecap="round" stroke-linejoin="round" d="M111.685 184.11l9.354 10.63-9.177 9.709"/><path stroke="#55A" stroke-width="1.984" stroke-linecap="round" stroke-linejoin="round" d="M112.04 190.56l3.366 3.861-3.367 3.544M137.161 159.626l-9.177 9.85 9.177 9.709"/><path stroke="#55A" stroke-width="1.984" stroke-linecap="round" stroke-linejoin="round" d="M136.984 165.295l-3.366 3.898 3.366 3.508M136.453 203.67l-8.61-9.284 9.177-9.709"/><path stroke="#55A" stroke-width="1.984" stroke-linecap="round" stroke-linejoin="round" d="M136.843 198.567l-3.331-3.862 3.33-3.544"/><path d="M124.512 172.276l-9.355 9.708 9 9.886 9.497-10.063-9.142-9.531zm-.177 4.18l5.35 4.997-5.35 5.882-5.174-5.174 5.174-5.704zM124.902 197.646l-9.32 9.708 9 9.426 9.674-9.213-9.354-9.921zm-.142 4.18l5.35 4.997-5.35 5.882-5.209-5.138 5.209-5.74z" stroke="#55A" stroke-width="1.984" fill="#55A" fill-rule="nonzero" stroke-linecap="round" stroke-linejoin="round"/><path stroke="#55A" stroke-width="1.984" stroke-linecap="round" stroke-linejoin="round" d="M137.374 152.291l-8.398-9.07 7.831-8.398"/><path stroke="#55A" stroke-width="1.984" stroke-linecap="round" stroke-linejoin="round" d="M137.232 147.012l-3.366-3.508 2.764-3.33M112.642 154.205l9.956-10.418-5.74-6.059"/><path stroke="#55A" stroke-width="1.984" stroke-linecap="round" stroke-linejoin="round" d="M112.996 147.791l3.366-3.897-3.366-3.544"/><path d="M111.756 210.295l3.862 4.607M137.48 210.083l-7.086 7.299M112.146 140.776l-.567 73.878M137.693 131.74l-.213 88.406" stroke="#55A" stroke-width="1.984" fill="#F55" fill-rule="nonzero" stroke-linecap="round" stroke-linejoin="round"/><path stroke="#55A" stroke-width="1.984" fill="#55A" fill-rule="nonzero" stroke-linecap="round" stroke-linejoin="round" d="M121.181 136.17l4.394 4.393 8.468-8.433-1.346-2.303z"/><path stroke="#55A" stroke-width="1.984" fill="#FF5" fill-rule="nonzero" stroke-linecap="round" stroke-linejoin="round" d="M306.992 88.016v70.972l6.024 2.02V88.016zM313.016 368.008V166.004h-6.024v203.988l22.996 20.02v-7.016z"/><path d="M321.484 90c-1.169 0-2.48 1.311-2.48 2.516 0 1.169 1.311 2.48 2.48 2.48 1.205 0 2.516-1.311 2.516-2.48 0-1.205-1.311-2.516-2.516-2.516zM321.484 103.996c-1.169 0-2.48 1.311-2.48 2.516 0 1.17 1.311 2.48 2.48 2.48 1.205 0 2.516-1.31 2.516-2.48 0-1.205-1.311-2.516-2.516-2.516zM324.496 97.016c-1.17 0-2.48 1.31-2.48 2.48s1.31 2.516 2.48 2.516 2.516-1.347 2.516-2.516c0-1.17-1.347-2.48-2.516-2.48zM318.508 97.016c-1.17 0-2.516 1.31-2.516 2.48s1.347 2.516 2.516 2.516c1.17 0 2.48-1.347 2.48-2.516 0-1.17-1.31-2.48-2.48-2.48zM321.661 138.756c-1.204 0-2.515 1.31-2.515 2.516 0 1.169 1.31 2.48 2.515 2.48 1.17 0 2.48-1.311 2.48-2.48 0-1.205-1.31-2.516-2.48-2.516zM321.661 152.752c-1.204 0-2.515 1.346-2.515 2.516 0 1.169 1.31 2.48 2.515 2.48 1.17 0 2.48-1.311 2.48-2.48 0-1.17-1.31-2.516-2.48-2.516zM324.638 145.772c-1.17 0-2.48 1.31-2.48 2.48 0 1.205 1.31 2.516 2.48 2.516 1.205 0 2.516-1.311 2.516-2.516 0-1.17-1.311-2.48-2.516-2.48zM318.65 145.772c-1.17 0-2.516 1.31-2.516 2.48 0 1.205 1.346 2.516 2.516 2.516 1.169 0 2.515-1.311 2.515-2.516 0-1.17-1.346-2.48-2.515-2.48zM321.449 187.547c-1.17 0-2.48 1.311-2.48 2.48 0 1.205 1.31 2.516 2.48 2.516s2.516-1.31 2.516-2.515c0-1.17-1.347-2.48-2.516-2.48zM321.449 201.543c-1.17 0-2.48 1.311-2.48 2.48 0 1.205 1.31 2.516 2.48 2.516s2.516-1.31 2.516-2.515c0-1.17-1.347-2.48-2.516-2.48zM324.46 194.528c-1.169 0-2.515 1.346-2.515 2.515 0 1.17 1.346 2.48 2.516 2.48 1.169 0 2.48-1.31 2.48-2.48 0-1.169-1.311-2.515-2.48-2.515zM318.472 194.528c-1.204 0-2.515 1.346-2.515 2.515 0 1.17 1.31 2.48 2.515 2.48 1.17 0 2.48-1.31 2.48-2.48 0-1.169-1.31-2.515-2.48-2.515zM321.272 237.083c-1.17 0-2.516 1.31-2.516 2.48 0 1.205 1.346 2.516 2.516 2.516 1.169 0 2.48-1.311 2.48-2.516 0-1.17-1.311-2.48-2.48-2.48zM321.272 251.079c-1.17 0-2.516 1.31-2.516 2.515 0 1.17 1.346 2.48 2.516 2.48 1.169 0 2.48-1.31 2.48-2.48 0-1.204-1.311-2.515-2.48-2.515zM324.248 244.063c-1.17 0-2.48 1.346-2.48 2.516 0 1.169 1.31 2.515 2.48 2.515 1.205 0 2.516-1.346 2.516-2.515 0-1.17-1.311-2.516-2.516-2.516zM318.26 244.063c-1.17 0-2.48 1.346-2.48 2.516 0 1.169 1.31 2.515 2.48 2.515s2.516-1.346 2.516-2.515c0-1.17-1.347-2.516-2.516-2.516zM321.272 285.484c-1.17 0-2.516 1.311-2.516 2.48 0 1.17 1.346 2.516 2.516 2.516 1.169 0 2.48-1.346 2.48-2.515 0-1.17-1.311-2.48-2.48-2.48zM321.272 299.48c-1.17 0-2.516 1.311-2.516 2.48 0 1.205 1.346 2.516 2.516 2.516 1.169 0 2.48-1.31 2.48-2.515 0-1.17-1.311-2.48-2.48-2.48zM324.248 292.465c-1.17 0-2.48 1.31-2.48 2.515 0 1.17 1.31 2.48 2.48 2.48 1.205 0 2.516-1.31 2.516-2.48 0-1.204-1.311-2.515-2.516-2.515zM318.26 292.465c-1.17 0-2.48 1.31-2.48 2.515 0 1.17 1.31 2.48 2.48 2.48s2.516-1.31 2.516-2.48c0-1.204-1.347-2.515-2.516-2.515zM320.705 334.063c-1.205 0-2.516 1.311-2.516 2.48 0 1.205 1.311 2.516 2.516 2.516 1.169 0 2.48-1.311 2.48-2.516 0-1.169-1.311-2.48-2.48-2.48zM320.705 348.06c-1.205 0-2.516 1.31-2.516 2.48 0 1.204 1.311 2.515 2.516 2.515 1.169 0 2.48-1.31 2.48-2.516 0-1.169-1.311-2.48-2.48-2.48zM323.681 341.043c-1.17 0-2.48 1.347-2.48 2.516 0 1.17 1.31 2.48 2.48 2.48s2.516-1.31 2.516-2.48-1.347-2.516-2.516-2.516zM317.693 341.043c-1.17 0-2.516 1.347-2.516 2.516 0 1.17 1.347 2.48 2.516 2.48 1.17 0 2.48-1.31 2.48-2.48s-1.31-2.516-2.48-2.516zM315 126.992v-4.996l13.004-12.012v5.032zM315 135v-4.996l13.004-12.012v4.996zM315 176.988v-4.996l13.004-11.976v4.996zM315 184.996V180l13.004-12.012v4.996zM315 226.984v-4.996l13.004-11.976v4.996zM315 234.992v-4.996l13.004-12.012v5.032zM315 274.996V270l13.004-12.012v4.996zM315 283.004v-4.996l13.004-12.012v4.996zM315 322.016v-5.032l13.004-11.976v4.996zM315 329.988v-4.996l13.004-11.976v4.996zM315.142 368.256l-.142-1.24 13.004-12.012V360l-9.992 9.886zM321.732 373.5l-2.374-1.984 8.646-8.504v4.996z" fill="#FF5" fill-rule="nonzero"/><path d="M247.5 170.965l-9.354 9.744 9 9.885 9.673-9.708-9.319-9.921zm-.177 4.216l5.35 4.996-5.35 5.847-5.173-5.138 5.173-5.705zM251.22 143.469l-10.523 8.468 7.689 10.949 10.807-8.398-7.973-11.02zm-.673 4.145l4.642 5.634-6.06 5.138-4.464-5.776 5.882-4.996zM247.146 196.83l-8.256 9.922 10.027 8.22 8.363-9.92-10.134-8.221zm.283 3.898l5.847 4.075-4.678 5.953-5.704-4.252 4.535-5.776zM249.59 220.217l-7.83 10.984 10.346 8.504 8.185-11.02-10.7-8.468zm.461 4.18l6.024 4.146-4.43 6.59-5.881-4.322 4.287-6.413zM253.772 246.012l-6.024 12.047 11.516 6.803 6.378-12.153-11.87-6.697zm1.098 4.04l6.59 3.188-3.366 7.193-6.484-3.366 3.26-7.016zM261.035 271.417l-4.89 12.58 12.119 5.668 5.208-12.685-12.437-5.563zm1.489 3.933l6.838 2.552-2.657 7.476-6.768-2.728 2.587-7.3zM271.772 297.07l-2.41 13.253 12.969 3.295 2.693-13.429-13.252-3.118zm2.197 3.58l7.228 1.204-1.24 7.831-7.158-1.417 1.17-7.618zM285.236 320.776l-1.275 13.429 13.216 2.161 1.524-13.642-13.465-1.948zm2.48 3.401l7.3.567-.532 7.937-7.264-.815.497-7.689z" stroke="#55A" stroke-width="1.984" fill="#55A" fill-rule="nonzero" stroke-linecap="round" stroke-linejoin="round"/><path stroke="#55A" stroke-width="1.984" stroke-linecap="round" stroke-linejoin="round" d="M261.248 158.776l-10.205 8.185 8.079 9.992"/><path stroke="#55A" stroke-width="1.984" stroke-linecap="round" stroke-linejoin="round" d="M260.469 163.984l-3.756 3.296 2.94 3.614M262.488 149.492s-1.453 12.33-1.984 18.496c-.744 8.575-1.843 17.15-1.772 25.76.107 7.547 1.063 15.024 2.02 22.5 1.028 7.972 2.197 15.91 4.004 23.74a232.622 232.622 0 007.476 25.76c2.729 7.583 5.953 15.024 9.532 22.252a242.053 242.053 0 0012.72 22.748c3.544 5.598 11.516 16.264 11.516 16.264M235.028 176.138l10.63-11.339-9.497-11.41"/><path stroke="#55A" stroke-width="1.984" stroke-linecap="round" stroke-linejoin="round" d="M235.453 169.618l4.535-4.748-4.18-5.173M258.52 184.57l-8.54 8.221 7.902 8.681"/><path stroke="#55A" stroke-width="1.984" stroke-linecap="round" stroke-linejoin="round" d="M258.2 189.425l-3.153 3.26 2.906 3.154M234.07 206.043l10.241-11.693-9.85-11.09"/><path stroke="#55A" stroke-width="1.984" stroke-linecap="round" stroke-linejoin="round" d="M234.283 199.524l4.359-4.926-4.359-4.996M236.835 231.343l8.964-12.686-10.913-10.027"/><path stroke="#55A" stroke-width="1.984" stroke-linecap="round" stroke-linejoin="round" d="M236.374 224.823l3.827-5.315-4.855-4.571M241.583 256.677l7.44-13.642-12.047-8.68"/><path stroke="#55A" stroke-width="1.984" stroke-linecap="round" stroke-linejoin="round" d="M240.378 250.264l3.189-5.74-5.35-3.969M252 282.756l5.315-14.634-13.181-6.768"/><path stroke="#55A" stroke-width="1.984" stroke-linecap="round" stroke-linejoin="round" d="M249.839 276.59l2.303-6.165-5.882-3.118M264.543 309.224l3.544-15.165-13.926-5.138"/><path stroke="#55A" stroke-width="1.984" stroke-linecap="round" stroke-linejoin="round" d="M261.673 303.343l1.524-6.378-6.2-2.374"/><path stroke="#55A" stroke-width="2.055" stroke-linecap="round" stroke-linejoin="round" d="M279.319 333.354l2.02-15.413-13.217-3.898"/><path stroke="#55A" stroke-width="2.055" stroke-linecap="round" stroke-linejoin="round" d="M276.165 327.756l.922-6.484-5.918-1.843M297.213 356.705l-.745-16.051-13.677-1.489"/><path stroke="#55A" stroke-width="2.055" stroke-linecap="round" stroke-linejoin="round" d="M293.138 351.07l-.248-6.483-6.13-.744"/><path d="M260.752 303.732c4.004 6.697 7.795 13.465 12.012 20.02 5.386 8.433 10.878 16.795 16.972 24.732 5.173 6.733 11.02 12.862 16.512 19.276M300.756 360.248l5.74.744" stroke="#55A" stroke-width="1.984" stroke-linecap="round" stroke-linejoin="round"/><path stroke="#55A" stroke-width="1.984" fill="#55A" fill-rule="nonzero" stroke-linecap="round" stroke-linejoin="round" d="M306.248 356.988l-5.492-1.24.496-14.492 4.996 1.24z"/><path stroke="#55A" stroke-width="1.984" stroke-linecap="round" stroke-linejoin="round" d="M302.244 323.256l-.992 13.004 4.996 1.24M259.689 207.815l-7.476 9.283 8.964 7.583"/><path stroke="#55A" stroke-width="1.984" stroke-linecap="round" stroke-linejoin="round" d="M259.972 212.705l-2.728 3.65 3.26 2.763M261.992 232.44l-5.74 10.383 10.098 5.953"/><path stroke="#55A" stroke-width="1.984" stroke-linecap="round" stroke-linejoin="round" d="M263.126 237.189l-2.055 4.04 3.685 2.16M268.512 256.783l-4.855 10.843 10.56 5.102"/><path stroke="#55A" stroke-width="1.984" stroke-linecap="round" stroke-linejoin="round" d="M270.035 261.46l-1.7 4.182 3.862 1.842M276.697 281.232l-2.906 11.516 11.303 3.189"/><path stroke="#55A" stroke-width="1.984" stroke-linecap="round" stroke-linejoin="round" d="M279 285.555l-.957 4.43 4.146 1.133M288.673 304.264l-1.559 11.799 11.587 1.843"/><path stroke="#55A" stroke-width="1.984" stroke-linecap="round" stroke-linejoin="round" d="M291.472 308.303l-.425 4.5 4.217.673"/><path d="M280.984 198.496c3.19 8.752 5.811 17.717 9.532 26.256 2.338 5.386 4.606 10.913 7.972 15.732 2.232 3.19 5.35 5.67 8.008 8.504l-.248-13.996-4.5.992 2.516-6.236-5.776-.248 3.508-4.252-5.244-.496 3.26-4.5-5.776-.248 4.004-4.996-6.484-.496 3.756-4.996-5.776-.532 3.508-4.748-4.996-.744 3.26-5.492-7.016-.248-3.508.744z" stroke="#55A" stroke-width="1.984" fill="#55A" fill-rule="nonzero" stroke-linecap="round" stroke-linejoin="round"/><path d="M292.004 164.232c2.339-2.515 6.2-3.153 9.496-4.18 1.772-.532 3.65-1.1 5.492-.993 2.09.106 4.288.532 6.024 1.736.921.674 1.913 1.63 1.984 2.764.07.85-.602 1.7-1.24 2.232-.603.496-1.488.567-2.268.744-1.24.355-2.622.142-3.756.745-1.027.566-1.984 1.452-2.41 2.55-.53 1.24-.354 2.764-.106 4.11.284 1.525 1.099 3.12 1.772 4.288l-.248 14.28c-2.835.319-5.81 1.24-8.752.992-1.736-.142-3.685-.354-4.996-1.488-2.374-2.126-3.012-5.67-3.756-8.752-.709-3.19-.957-6.555-.496-9.744.46-3.26 1.028-6.874 3.26-9.284h0zM260.752 207.496c4.5-1.842 8.079-3.366 12.012-5.244 3.366-1.63 6.697-3.437 9.992-5.244 3.118-1.7 6.732-3.579 9.248-5.244M262.24 149.244c5.421 2.587 10.914 5.067 16.264 7.76 4.287 2.161 8.504 4.5 12.756 6.732" stroke="#55A" stroke-width="1.984" fill="#FFF" fill-rule="nonzero" stroke-linecap="round" stroke-linejoin="round"/><path d="M286.512 161.504s-2.303 7.228-2.764 10.984c-.46 3.827-.602 7.725 0 11.516.567 3.366 3.26 9.744 3.26 9.744l-12.756 7.264 5.492-9-5.988-6.024 6.484-7.228-5.988-8.256 5.244-4.252-3.26-9.992 10.276 5.244z" stroke="#55A" stroke-width="1.984" fill="#FFF" fill-rule="nonzero" stroke-linecap="round" stroke-linejoin="round"/><path stroke="#55A" stroke-width="1.984" stroke-linecap="round" stroke-linejoin="round" d="M264.012 151.264l7.476 12.224-6.484 6.272 6.236 8.504-6.484 7.972 5.74 5.776-6.98 13.5"/><path stroke="#55A" stroke-width="1.984" stroke-linecap="round" stroke-linejoin="round" d="M262.488 157.748l2.516 4.004-3.756 3.012M260.504 174.756l3.012 3.756-3.26 4.252M259.76 189.248l3.224 4.5-3.224 4.996"/><path d="M266.74 213.732l11.268-5.492s3.401 11.445 5.492 17.008c1.772 4.748 3.472 9.602 5.988 13.996 2.941 5.067 10.524 13.996 10.524 13.996v52.264s-9.886-15.697-13.996-23.988c-4.252-8.575-8.044-17.433-11.02-26.504-2.48-7.583-4.252-15.414-5.74-23.28-1.134-5.917-2.516-18-2.516-18h0zM264.685 56.516s.673 7.299 2.303 10.488c1.595 3.083 4.181 5.74 7.016 7.76 2.445 1.736 5.315 2.905 8.256 3.472 2.445.496 4.996.248 7.476 0 1.701-.142 4.996-.992 4.996-.992s-3.189-1.027-4.216-2.232c-2.233-2.551-2.551-6.272-3.508-9.496-.957-3.225-1.17-6.626-2.268-9.78-1.098-3.189-2.09-6.626-4.252-9.248-1.17-1.417-2.764-2.551-4.5-3.224-1.027-.425-3.295-.532-3.295-.532l-8.008 13.784z" stroke="#55A" stroke-width="1.984" fill="#FF5" fill-rule="nonzero" stroke-linecap="round" stroke-linejoin="round"/><path d="M269.504 49.465c1.205 3.968 2.232 7.795 4.252 11.267 1.7 3.012 4.11 5.528 6.484 8.008 1.56 1.63 3.33 3.012 4.996 4.5" stroke="#55A" stroke-width="1.984" stroke-linecap="round" stroke-linejoin="round"/><path d="M278.114 52.618c-1.771.957-5.705.106-7.653-.283-1.347 2.657-2.445 4.712-2.339 7.193M279.709 57.154c-1.772.956-5.103.673-7.052.283-1.346 2.657-2.444 5.244-2.338 7.724M281.976 63.319c-1.807.957-4.358.248-6.307-.142-1.346 2.658-1.063 5.067-.956 7.547M284.563 67.819c-1.772.992-2.906.07-4.854-.319-1.347 2.657-.638 3.685-.532 6.165M270 48.366c1.772.284 3.543.425 5.315-.354" stroke="#55A" stroke-width="1.984" stroke-linecap="round" stroke-linejoin="round"/><path d="M149.917 141.59c-.85.32-1.948.886-2.055 1.808-.106.885.886 1.665 1.63 2.161.425.284 1.028.248 1.524.425.531.177 1.24.248 1.594.744.355.496.107 1.24.248 1.843.425 1.488.603 3.26 1.736 4.287.993.957 2.516 1.134 3.863 1.276 1.169.106 2.338-.284 3.472-.425.921-.107 1.807-.39 2.728-.32.461.072.957.107 1.311.39.32.284.426.745.497 1.134.212.85.07 1.737.106 2.622.035 1.134-.177 2.304.106 3.367.355 1.275.886 2.657 1.914 3.472 1.098.886 2.622 1.098 4.003 1.17 1.17.035 2.304-.426 3.473-.638.886-.178 1.736-.532 2.657-.497.39 0 .85 0 1.134.284.177.142.177.46.213.673.07.744-.142 1.453-.213 2.197-.07.992-.425 2.02-.248 3.012.177 1.205.532 2.551 1.382 3.437.957.957 2.445 1.382 3.791 1.63 1.17.177 2.374-.248 3.544-.284 1.453 0 3.224-.744 4.358.177.886.71.567 2.162.78 3.26.212 1.028.106 2.09.496 3.012.496 1.134 1.133 2.339 2.161 2.976.85.532 1.984.603 2.976.532.745-.035 1.453-.46 2.197-.673.603-.177 1.276-.78 1.878-.532.177.071.213.32.248.496.284.603.39 1.24.603 1.878.283.78.39 1.736.956 2.374.78.922 1.878 1.807 3.083 1.807 1.17-.035 2.268-.92 3.012-1.807.531-.673.567-1.594.815-2.374.212-.602.319-1.204.531-1.807.071-.106.071-.283.177-.319.142-.106.355-.035.532 0 .602.142 1.134.496 1.7.709.816.283 1.56.78 2.41.85 1.134.071 2.41.036 3.295-.637 1.028-.745 1.524-2.126 1.808-3.367.248-1.027-.071-2.055-.107-3.118-.035-.708-.212-1.452-.106-2.197.035-.177 0-.39.142-.496.283-.248.744-.141 1.098-.141.815.035 1.595.283 2.374.496 1.063.354 2.02 1.204 3.118 1.275.957.036 2.339 0 2.764-.85.46-.85-.283-2.02-.921-2.728-.957-.957-2.48-1.099-3.756-1.489-1.099-.319-2.197-.708-3.33-.708-1.241.035-2.623.106-3.615.85-1.028.78-1.56 2.126-1.843 3.366-.248.992.071 2.055.071 3.083.036.78.638 1.807.071 2.338-.46.426-1.24-.035-1.842-.177-.815-.212-1.524-.78-2.339-.92-1.063-.143-2.232-.249-3.224.212-.957.496-1.595 1.488-2.162 2.41-.39.672-.035 2.16-.815 2.16-.815 0-.425-1.594-.815-2.303-.567-.956-1.169-2.055-2.196-2.445-1.56-.637-3.367.426-5.067.39-.638 0-1.453.248-1.95-.177-.566-.531-.212-1.524-.424-2.268-.603-2.09-.603-4.712-2.304-6.059-1.948-1.559-4.89-.956-7.37-1.027-.92 0-1.807.354-2.693.248-.46-.071-.992-.142-1.275-.496-.177-.177-.213-.46-.248-.744-.071-.744.177-1.489.248-2.233.07-1.027.39-2.055.248-3.047-.213-1.205-.602-2.551-1.56-3.401-1.027-.922-2.55-1.205-3.932-1.311-1.17-.071-2.339.425-3.473.637-.921.142-1.807.496-2.728.496-.425 0-.921 0-1.24-.248-.32-.248-.425-.708-.532-1.098-.177-.85-.035-1.7-.07-2.551-.036-1.134.141-2.303-.142-3.402-.32-1.275-.815-2.657-1.843-3.508-1.027-.886-2.48-1.169-3.827-1.31-1.169-.142-2.338.212-3.507.354-.922.106-1.843.39-2.764.354-.46-.035-1.063 0-1.347-.354-.354-.355-.141-.993-.248-1.453-.319-1.453-.354-3.118-1.31-4.288-.78-.992-2.162-1.417-3.331-1.878-.638-.248-1.276-.354-1.95-.496a1.26 1.26 0 00-.354-.07z" fill="#FF5" fill-rule="nonzero"/><path d="M150.024 153.142a2.153 2.153 0 00-1.878 1.382c-.248.78.035 1.736.708 2.232L207 202.642c.673.496 1.665.531 2.374.035l22.748-15.945c.921-.602 1.205-1.949.567-2.834-.602-.886-1.984-1.099-2.835-.461l-21.578 15.13-56.977-44.965a2.082 2.082 0 00-1.275-.46z" fill="#FF5" fill-rule="nonzero"/><path fill="#000" fill-rule="nonzero" d="M207.07 213.732v63.886l9.745-6.803.319-63.319z"/><path fill="#F55" fill-rule="nonzero" d="M148.5 167.882l21.012 16.866.283 54.425-21.295-14.492z"/><path d="M169.795 183.827l.603 56.232M175.713 188.043l.283 57.331M202.642 210.756l.283 68.35" stroke="#000" stroke-width="1.984" stroke-linecap="round" stroke-linejoin="round"/><path d="M240.484 255.437l-36.39 24.236" stroke="#55A" stroke-width="1.984" stroke-linecap="round" stroke-linejoin="round"/><path stroke="#000" stroke-width="1.984" stroke-linecap="round" stroke-linejoin="round" d="M202.606 269.752l-26.326-26.858 26.503-25.654-26.787-27.496"/><path stroke="#000" stroke-width="1.984" stroke-linecap="round" stroke-linejoin="round" d="M191.87 201.189l-16.051 16.405 26.787 27.922-15.165 14.173"/><path stroke="#000" stroke-width="1.984" stroke-linecap="round" stroke-linejoin="round" d="M189.035 211.43l-4.925 5.279 4.925 5.81 5.103-5.279zM188.894 239.102l-4.288 4.713 4.855 4.925 4.322-4.606z"/><path stroke="#000" stroke-width="1.984" fill="#000" fill-rule="nonzero" stroke-linecap="round" stroke-linejoin="round" d="M176.882 197.681l4.89 5.35-5.138 5.422zM202.075 225.709l-5.244 5.456 5.315 5.174zM176.598 225.673l4.82 5.244-4.926 4.536zM202.217 253.205l-4.607 4.748 4.855 4.748z"/><path d="M132.945 129.508c-7.087 3.543-14.173 7.051-21.225 10.63-5.066 2.551-10.204 5.031-15.2 7.76-7.193 3.933-14.35 7.937-21.225 12.401-6.449 4.181-12.472 8.93-18.744 13.43 4.146 5.527 8.185 11.125 12.402 16.617 3.578 4.642 7.476 9.071 10.949 13.784 3.224 4.358 6.13 8.964 9.177 13.43 2.48-.71 4.89-1.737 7.44-2.127 4.997-.744 10.135-.673 15.201-.354 4.04.248 8.044.992 12.012 1.771 4.288.85 8.61 1.737 12.756 3.19 4.252 1.488 8.398 3.472 12.366 5.669 4.536 2.48 8.859 5.42 13.075 8.468 4.536 3.295 9.106 6.626 13.075 10.595 3.862 3.862 6.945 8.433 10.276 12.756 3.614 4.748 6.838 9.815 10.594 14.492 2.551 3.189 5.173 6.342 8.114 9.177 4.075 3.897 8.327 7.618 13.11 10.594 4.394 2.8 9.248 4.89 14.138 6.733 4.677 1.807 9.496 3.543 14.492 4.252 4.89.708 9.886 0 14.847 0-2.729-5.563-5.634-10.985-8.15-16.619-3.118-7.086-6.059-14.244-8.468-21.578a193.1 193.1 0 01-5.67-20.87c-1.488-7.229-2.41-14.563-3.189-21.898-.567-5.528-.885-11.09-1.063-16.618-.177-6.13-.035-12.26 0-18.39.071-5.775.142-11.551.355-17.327.248-6.023.708-12.011 1.063-18.035" stroke="#55A" stroke-width="1.984" stroke-linecap="round" stroke-linejoin="round"/><path fill="#FF5" fill-rule="nonzero" d="M189.921 355.57l-37.878-30.755.284-62.717 3.862-2.657 6.803 6.803 10.347 13.89 8.574 12.118 3.863 4.146 4.712 3.862zM137.835 246.72l-24.839 18.036-2.374-4.748 21.295-16.866z"/><path fill="#FF5" fill-rule="nonzero" d="M156.189 260.008l-36.106 23.67-2.055-4.713 33.732-22.217z"/><path fill="#F55" fill-rule="nonzero" d="M142.866 331.618l.319-63.035-23.988 15.697 3.862 17.752 2.658 17.15.602 15.98-.319 8.574z"/><path d="M152.327 256.748l-34.3 22.784s-2.409-6.095-3.543-9.178c-.708-1.842-2.09-5.598-2.09-5.598l25.44-18.354s6.485 2.126 9.178 4.145c2.197 1.63 5.315 6.201 5.315 6.201zM211.996 372.26l-59.244-47.268L126 342l.248 13.996-.744 13.252-.496 10.488 27.248-18.496 35.008 28.772 4.5 2.232 2.48 2.268 4.004.496 2.268 3.26 2.976-.78 3.012 3.756h3.012l2.48 2.268z" fill="#000" fill-rule="nonzero"/><path fill="#000" fill-rule="nonzero" d="M221.988 408.508l.248-89.008-5.988-2.232-4.996-2.764.248 89.256 3.26.496 3.224 3.26 2.02-.78z"/><path d="M99.992 331.76l-20.232 9.992s-3.898-11.055-6.024-16.512c-2.126-5.457-4.04-11.02-6.732-16.228-1.807-3.508-3.827-6.91-6.272-10.028-2.338-3.012-7.972-8.22-7.972-8.22l.248-78.52s9.886 11.976 13.996 18.496c3.579 5.705 6.307 11.941 9.248 18 3.827 7.937 7.902 15.768 10.984 24.024 2.09 5.527 3.544 11.267 4.996 16.972a243.823 243.823 0 014.004 18c.815 4.394 1.311 8.858 2.02 13.252.567 3.614 1.736 10.772 1.736 10.772h0z" stroke="#55A" stroke-width="1.984" fill="#F55" fill-rule="nonzero" stroke-linecap="round" stroke-linejoin="round"/><path fill="#FF5" fill-rule="nonzero" d="M96.236 390.508l-27.248-14.74 2.764-10.276-.992-9.992-3.012-6.732 8.008-6.024 13.748-5.988 10.24-4.252.992 9.992v12.012l-.744 13.996-2.232 15.732z"/><path d="M133.512 243.248l-22.748 17.008s-3.969-8.681-6.024-13.004c-1.63-3.437-4.996-10.24-4.996-10.24s11.09-.709 16.512.248c5.988 1.063 17.256 5.988 17.256 5.988z" fill="#55A" fill-rule="nonzero"/><path fill="#000" fill-rule="nonzero" d="M30.012 157.252l16.866 14.634-.248 279.744-16.618.106z"/><path d="M264.012 391.394l-.177-66.827 6.91-2.126s11.196 15.626 16.936 23.35c4.181 5.563 8.681 10.914 12.756 16.618.992 1.382 2.835 4.217 2.835 4.217s-11.09 8.079-16.796 11.87a246.714 246.714 0 01-12.401 7.583c-3.295 1.878-10.063 5.315-10.063 5.315z" fill="#55A" fill-rule="nonzero"/><path d="M247.748 399.508l.354-74.232s5.528.283 8.292.177c2.87-.142 8.504-.886 8.504-.886l-.178 66.827s-6.307 3.401-9.531 4.925c-2.445 1.17-7.441 3.189-7.441 3.189z" fill="#000" fill-rule="nonzero"/><path d="M154.772 475.866c7.05-.106 14.137.106 21.189-.354 5.882-.355 11.728-1.028 17.504-1.914 3.826-.602 7.547-1.559 11.338-2.303.567-4.145 1.205-8.256 1.772-12.366.602-4.677 1.098-9.319 1.736-13.996.496-3.472.78-6.98 1.595-10.417.496-2.055 1.31-4.004 1.948-6.024l2.658-.354c.886.886 1.453 2.303 2.657 2.657 1.595.496 3.473-.07 4.96-.886 2.127-1.133 3.65-3.224 4.926-5.28 1.24-1.983 2.232-4.216 2.48-6.554a9.064 9.064 0 00-.708-4.43c-.46-1.027-1.099-2.16-2.126-2.657-.992-.46-2.232 0-3.366 0-.567-.815-.957-1.807-1.737-2.445-1.204-.992-2.834-1.31-4.252-1.949-.78-.885-1.24-2.16-2.303-2.657-.921-.425-2.02 0-3.012 0-.885-.815-1.523-2.02-2.657-2.48-.921-.355-1.984 0-2.976 0-1.028-1.17-1.595-2.906-3.012-3.544-1.028-.425-2.232.142-3.366.178-.886-1.063-1.418-2.587-2.658-3.19-1.027-.46-2.232 0-3.366 0-1.098-.92-2.09-2.055-3.33-2.799-1.453-.885-3.012-1.559-4.607-1.948-1.665-.39-3.437-.674-5.138-.355-1.842.32-3.614 1.205-5.138 2.303-1.665 1.205-3.082 2.835-4.216 4.571-1.595 2.374-2.658 5.067-3.543 7.796-1.595 4.925-2.09 10.098-3.012 15.2-1.17 6.626-2.02 13.323-3.19 19.985-1.133 6.59-2.409 13.216-3.684 19.771-1.099 5.492-2.268 10.984-3.366 16.441z" fill="#FF5" fill-rule="nonzero"/><path d="M228.012 509.988l-20.02-40.004s-10.17 2.693-15.378 3.544c-8.15 1.31-16.37 2.196-24.626 2.48-9.992.319-20.02-.142-29.976-.992-11.764-1.063-35.008-5.032-35.008-5.032l-22.996 40.004h148.004z" stroke="#55A" stroke-width="1.984" fill="#F55" fill-rule="nonzero" stroke-linecap="round" stroke-linejoin="round"/><path d="M213.165 508.535L198 478.985c-6.484 2.267-11.41 2.338-19.7 3.26l3.897 26.29h5.74l-5.102-22.748c4.748-.318 8.504-.283 12.614-1.913l11.126 24.661h6.59zM173.303 508.535l-3.047-25.299c-10.063.921-18.142 1.488-28.205.46l-5.492 24.84h6.449l3.047-19.808c7.902.461 12.579-.035 19.205-.496l2.232 20.303h5.811zM126.744 508.535l7.335-25.05c-7.37-.639-18.071-1.56-26.079-3.473l-13.713 28.523h6.343l10.382-23.527c4.464 1.205 12.012 1.736 16.476 2.374l-6.236 21.153h5.492z" stroke="#55A" stroke-width="1.984" fill="#55A" fill-rule="nonzero" stroke-linecap="round" stroke-linejoin="round"/><path d="M154.984 475.016s3.473-16.654 5.032-25.016c1.807-9.957 2.905-20.09 4.996-30.012 1.382-6.732 1.594-13.996 4.996-19.984 2.303-4.11 5.421-8.787 9.992-9.992 4.43-1.17 10.205.177 13.252 3.579 2.551 2.87 3.083 7.795 1.736 11.409-1.417 3.933-5.28 8.327-9.46 8.185-4.359-.142-9.178-4.89-9.248-9.213-.036-3.897 4.18-8.255 8.078-8.503 2.41-.178 5.315 2.125 5.634 4.535.39 2.8-2.161 6.839-4.996 6.803-1.7 0-4.004-1.984-2.94-4.146" stroke="#55A" stroke-width="1.984" stroke-linecap="round" stroke-linejoin="round"/><path d="M160.83 475.83c2.942-8.964 3.686-18.07 5.245-27.176 1.594-9.036 2.02-18.248 4.145-27.178 1.701-7.086 3.615-14.633 6.804-20.763M167.528 475.83c2.232-7.795 2.905-16.05 4.145-24.094 1.205-7.866 1.63-15.874 3.154-23.67 1.098-5.668 1.913-11.338 4.323-16.688M173.48 475.44c1.985-7.44 2.587-15.342 3.685-23.03 1.063-7.512 1.453-15.201 2.8-22.642.992-5.386 1.7-10.843 3.862-15.945M179.291 474.803c1.807-7.086 2.339-14.563 3.331-21.897.957-7.123 1.311-14.386 2.516-21.473.886-5.138 1.523-10.31 3.472-15.13M184.996 474.272c1.772-6.733 2.339-13.855 3.295-20.8.992-6.803 1.311-13.712 2.552-20.444.885-4.89 1.523-9.78 3.472-14.386M191.374 473.386c1.736-6.307 2.126-12.579 3.047-18.85.922-6.343 1.276-12.756 2.48-19.028.851-4.536 1.453-9.106 3.367-13.394M197.54 472.465c1.665-5.74 2.16-11.8 3.047-17.717.885-5.776 1.204-11.657 2.303-17.398.815-4.145 1.417-8.326 3.189-12.26M204.52 470.516c1.417-5.138 1.842-10.205 2.586-15.343.78-5.173 1.028-10.453 1.985-15.59.673-3.72 1.169-7.477 2.692-10.985M184.57 412.795c1.63 1.134 3.084 3.083 5.032 3.154 3.225.106 6.414-2.055 8.504-4.465 2.233-2.586 3.579-6.271 3.331-9.673-.142-2.445-1.346-5.067-3.295-6.555-.957-.709-2.02-.532-3.579-.673" stroke="#55A" stroke-width="1.984" stroke-linecap="round" stroke-linejoin="round"/><path d="M191.055 416.02c1.347 1.488 2.374 2.657 3.969 2.763 3.224.178 6.413-2.055 8.504-4.5 2.232-2.55 3.578-6.236 3.33-9.637-.141-2.445-1.204-5.28-3.295-6.555-.992-.603-1.878-.71-3.472.07" stroke="#55A" stroke-width="1.984" stroke-linecap="round" stroke-linejoin="round"/><path d="M195.945 418.996c1.63 1.098 3.083 3.083 5.031 3.154 3.225.106 6.414-2.056 8.504-4.5 2.233-2.552 3.58-6.237 3.331-9.638-.142-2.445-1.205-5.244-3.295-6.555-.886-.567-1.63-.603-3.19-.071" stroke="#55A" stroke-width="1.984" stroke-linecap="round" stroke-linejoin="round"/><path d="M202.677 422.362c1.24 1.772 2.48 2.658 4.146 2.764 3.189.142 6.413-2.055 8.504-4.5 2.197-2.551 3.543-6.236 3.33-9.638-.177-2.445-1.31-5.138-3.295-6.555-.921-.638-1.63-.85-3.366-.46" stroke="#55A" stroke-width="1.984" stroke-linecap="round" stroke-linejoin="round"/><path d="M208.382 425.728c.602 1.489 2.232 2.516 3.756 2.622 3.189.213 6.413-2.055 8.468-4.464 2.233-2.587 3.579-6.272 3.366-9.673-.177-2.445-1.31-5.103-3.33-6.52-.744-.567-1.17-.248-2.729-.39" stroke="#55A" stroke-width="1.984" stroke-linecap="round" stroke-linejoin="round"/><path d="M214.335 428.315c.602 1.772 1.771 2.374 3.082 2.48 3.19.32 6.414-2.02 8.504-4.464 2.233-2.587 3.437-6.237 3.331-9.638-.035-1.807-.638-3.827-1.984-4.996-1.063-.957-2.551-.992-4.11-1.099M103.217 469.524c.85-10.17 1.452-20.304 2.515-30.437.567-5.528 1.063-11.09 2.02-16.583 1.311-7.264 1.63-14.988 4.996-21.543 2.055-3.969 5.35-7.3 8.858-9.993 3.225-2.48 6.945-4.5 10.914-5.456 4.11-1.028 8.54-1.099 12.72-.248 4.146.886 7.83 3.224 11.551 5.244 4.678 2.516 8.93 5.74 13.394 8.61M157.04 456.13c-3.934 1.134-7.76 2.764-11.8 3.401-2.622.39-5.421.922-7.972.213-1.276-.354-3.579-1.382-3.402-2.161.106-.39.744-.32 1.134-.32 1.488-.035 2.835.922 4.323 1.135 2.161.283 4.394.212 6.59 0 3.756-.39 7.406-1.524 11.126-2.268h0zM135 447.839c-.46.496-1.736.92-1.346 1.452.46.744 3.295 2.552 5.208 3.296 1.807.708 3.792.992 5.776 1.027 2.055.071 4.145-.248 6.165-.78 1.382-.39 2.48-.991 4.04-1.665M159.2 446.563c-3.33.85-6.59 2.126-9.991 2.516-2.41.283-4.89.354-7.264-.107-1.949-.39-3.862-1.133-5.492-2.196-1.063-.745-1.878-1.772-2.693-2.8 1.63-.708 3.153-1.736 4.89-2.161 2.728-.709 5.598-.992 8.397-.673 2.374.248 4.642 1.169 6.803 2.161 1.914.85 3.544 2.197 5.35 3.26h0z" stroke="#55A" stroke-width="1.984" stroke-linecap="round" stroke-linejoin="round"/><path d="M150.803 448.051c-.106-1.17.32-2.48-.248-3.508-.673-1.24-2.055-2.055-3.401-2.515-1.028-.32-2.268-.355-3.296 0-.992.39-1.842 1.169-2.374 2.055-.744 1.24-.602 2.799-.921 4.216" stroke="#55A" stroke-width="1.984" stroke-linecap="round" stroke-linejoin="round"/><path d="M147.012 447.236c.319-.354.177-1.027-.071-1.417-.284-.46-.815-.815-1.311-.815-.532-.035-1.063.319-1.311.744-.319.46-.496 1.24-.106 1.63.673.638 2.196.496 2.799-.142h0zM151.122 436.146c-2.374.46-5.705.992-8.398 2.02-2.374.92-4.641 2.692-6.696 3.649" stroke="#55A" stroke-width="1.984" fill="#55A" fill-rule="nonzero" stroke-linecap="round" stroke-linejoin="round"/><path d="M122.846 453.508c.603-1.488 1.524-2.87 1.843-4.43.567-3.188.142-6.519-.248-9.779-.46-3.968-1.913-7.83-2.587-11.799-.425-2.268-1.452-4.642-.92-6.91.247-1.133 1.097-2.055 1.912-2.834 1.028-.957 2.445-1.453 3.65-2.162M136.134 428.74c1.559-1.7 3.827-2.94 4.677-5.102.39-1.028.46-2.268 0-3.295-.567-1.17-1.7-2.197-2.976-2.48-1.028-.249-2.126.318-3.048.779-1.204.638-1.878 2.055-3.082 2.622-.85.425-1.914.921-2.835.567-.283-.107-.638-.496-.567-.78.32-1.027 1.984-.78 2.941-1.134 1.311-.496 2.587-.92 3.862-1.382" stroke="#55A" stroke-width="1.984" stroke-linecap="round" stroke-linejoin="round"/><path d="M143.681 407.551c-1.594.815-3.862.638-5.775.603-1.985-.036-3.898-.957-5.847-.886-2.232.106-4.287 1.594-6.555 1.594-1.63.036-3.508-.708-4.784-1.063.071-.567.249-1.31 0-1.736 1.63.602 3.969 1.488 5.989 1.24 1.913-.248 3.295-2.445 5.244-2.48 2.232-.071 3.968 2.48 6.236 2.586 2.161.071 4.43-1.63 6.13-2.02-.46.639-.673 1.702-.638 2.162h0z" stroke="#55A" stroke-width="1.984" fill="#55A" fill-rule="nonzero" stroke-linecap="round" stroke-linejoin="round"/><path d="M139.748 400.606c-1.594-.673-3.083-1.7-4.783-2.02-1.24-.247-2.587-.212-3.863.036-.85.142-1.63.567-2.445.886-.744.319-1.452.709-2.196 1.027M128.232 395.61c1.17.496 2.268.921 3.437.921.992 0 1.914-.39 2.835-.814" stroke="#55A" stroke-width="1.984" stroke-linecap="round" stroke-linejoin="round"/><path d="M121.713 456.449c-1.56 1.842-4.996 2.303-7.69 2.516-1.984.141-3.932-.39-5.846-.957-1.346-.39-2.657-1.134-3.933-1.736 2.162.425 4.394 1.204 6.626 1.275 1.949.036 3.898-.354 5.811-.78 1.347-.318 2.587-.956 3.791-1.594.497-.283 1.63.815 1.24 1.276h0z" stroke="#55A" stroke-width="1.984" fill="#55A" fill-rule="nonzero" stroke-linecap="round" stroke-linejoin="round"/><path d="M122.28 449.646c-1.56.78-2.977 1.842-4.642 2.267-2.339.674-4.89.993-7.264.567-1.594-.283-2.94-1.346-4.43-1.984M123.307 446.35c-1.7.674-3.791 1.205-5.705 1.453-2.232.284-4.535.354-6.767.071-1.311-.177-2.693-.425-3.863-1.098-.708-.426-1.169-1.205-1.771-1.807l.354-2.729c1.17-.425 2.339-1.027 3.579-1.24 1.665-.319 3.437-.319 5.138-.213 1.842.107 3.72.213 5.456.886 1.311.532 2.48 1.418 3.58 2.339.353.319.637.673.956 1.027-.32.426-.46 1.099-.957 1.311h0z" stroke="#55A" stroke-width="1.984" stroke-linecap="round" stroke-linejoin="round"/><path d="M118.913 447.094c-.07-1.169.32-2.48-.248-3.507-.673-1.24-2.055-2.09-3.401-2.516-1.028-.354-2.268-.39-3.295 0-.957.354-1.843 1.134-2.375 2.055-.744 1.205-.602 2.8-.92 4.181" stroke="#55A" stroke-width="1.984" stroke-linecap="round" stroke-linejoin="round"/><path d="M115.44 446.244c.32-.354.178-.992-.07-1.417-.283-.425-.815-.78-1.311-.815-.531 0-1.063.319-1.311.744-.319.46-.496 1.276-.106 1.665.673.603 2.161.496 2.799-.177h0z" stroke="#55A" stroke-width="1.984" fill="#55A" fill-rule="nonzero" stroke-linecap="round" stroke-linejoin="round"/><path d="M122.492 440.93c-1.275-1.383-2.303-3.013-3.791-4.182-1.205-.921-2.658-1.417-4.004-2.126" stroke="#55A" stroke-width="1.984" stroke-linecap="round" stroke-linejoin="round"/><path d="M106.44 431.398c-.672-2.906-1.38-4.855-2.621-7.016-1.276-2.126-2.728-4.252-4.784-5.634-1.63-1.063-3.614-1.913-5.563-1.736-1.771.142-3.65.992-4.748 2.41-1.098 1.417-1.275 3.472-1.169 5.279.106 1.63.567 3.401 1.665 4.642.957 1.133 2.41 1.913 3.863 2.055 1.027.106 2.197-.071 2.94-.78.568-.531.78-1.453.78-2.232-.035-.85.071-1.736-.992-2.339.78.32 1.311 1.311 1.878 2.055.744 1.063 1.382 2.268 1.913 3.508.638 1.382 1.063 2.87 1.489 4.358.531 2.02.92 4.11 1.346 6.13a982.143 982.143 0 012.055 9.638c.567-5.527 1.347-14.775 1.949-20.338h0z" stroke="#55A" stroke-width="1.984" fill="#FF5" fill-rule="nonzero" stroke-linecap="round" stroke-linejoin="round"/><path d="M109.17 411.413c-.639-2.905-2.587-8.574-4.855-12.366-1.276-2.126-2.8-4.18-4.784-5.634-1.594-1.169-3.472-2.48-5.456-2.338-1.878.142-3.756 1.453-4.855 3.012-1.027 1.452-1.275 3.472-1.169 5.244.106 1.665.567 3.437 1.666 4.677a6.288 6.288 0 003.897 2.055c.992.106 2.162-.106 2.906-.78.567-.531.815-1.452.78-2.232-.072-.815-.036-1.559-1.064-2.161.78.319 1.382 1.134 1.949 1.842.815 1.063 1.382 2.303 1.949 3.508.602 1.417.992 2.941 1.453 4.394.531 1.736 1.027 3.508 1.559 5.244 1.169 4.11 2.976 9.709 3.508 12.26.566-5.528 1.948-11.162 2.515-16.725h0z" stroke="#55A" stroke-width="1.984" fill="#FF5" fill-rule="nonzero" stroke-linecap="round" stroke-linejoin="round"/><path d="M111.402 403.583s-.922-2.87-1.56-4.217c-.744-1.523-2.622-4.358-2.622-4.358s-3.224-1.453-4.89-2.055c-1.558-.567-4.747-1.453-4.747-1.453s3.685 2.87 5.137 4.677c1.276 1.56 2.162 3.402 3.048 5.244.815 1.772 1.382 3.685 2.02 5.563.566 1.666 1.558 5.067 1.558 5.067s.567-3.33.993-4.996c.283-1.17 1.063-3.472 1.063-3.472z" stroke="#55A" stroke-width="1.984" fill="#FF5" fill-rule="nonzero" stroke-linecap="round" stroke-linejoin="round"/><path stroke="#55A" stroke-width="1.984" fill="#FF5" fill-rule="nonzero" stroke-linecap="round" stroke-linejoin="round" d="M107.22 395.008l6.804 3.898-2.622 4.748zM177.59 390.791l-24.909-20.693-28.063 18.461.673-8.965 27.036-18.602 35.114 28.984c-2.835-.956-6.59-.815-9.85.815z"/><path stroke="#55A" stroke-width="1.984" stroke-linecap="round" stroke-linejoin="round" d="M247.748 381.472l-9.354-10.594 9.177-9.709"/><path stroke="#55A" stroke-width="1.984" stroke-linecap="round" stroke-linejoin="round" d="M247.394 375.06l-3.366-3.899 3.366-3.507"/><path d="M234.496 393.484l9.354-9.708-9-9.886-9.106 9.886 8.752 9.708zm.177-4.18l-5.35-4.997 5.35-5.882 5.173 5.173-5.173 5.705z" stroke="#55A" stroke-width="1.984" fill="#55A" fill-rule="nonzero" stroke-linecap="round" stroke-linejoin="round"/><path stroke="#55A" stroke-width="1.984" fill="#FF5" fill-rule="nonzero" stroke-linecap="round" stroke-linejoin="round" d="M30.012 487.984l37.984-36H30.012z"/><path stroke="#55A" stroke-width="1.984" fill="#F55" fill-rule="nonzero" stroke-linecap="round" stroke-linejoin="round" d="M30.012 480.012l22.996-22.004H30.012z"/><path stroke="#55A" stroke-width="1.984" stroke-linecap="round" stroke-linejoin="round" d="M248.315 355.89l-9.354-10.63 9.177-9.709"/><path stroke="#55A" stroke-width="1.984" stroke-linecap="round" stroke-linejoin="round" d="M247.96 349.44l-3.366-3.861 3.367-3.544M222.839 380.374l9.177-9.85-9.177-9.709"/><path stroke="#55A" stroke-width="1.984" stroke-linecap="round" stroke-linejoin="round" d="M223.016 374.705l3.366-3.898-3.366-3.508M223.547 336.33l8.61 9.284-9.177 9.709"/><path stroke="#55A" stroke-width="1.984" stroke-linecap="round" stroke-linejoin="round" d="M223.157 341.433l3.331 3.862-3.33 3.544"/><path d="M235.488 367.724l9.355-9.708-9-9.886-9.497 10.063 9.142 9.531zm.177-4.18l-5.35-4.997 5.35-5.882 5.174 5.174-5.174 5.704zM235.098 342.354l9.32-9.708-9-9.567-9.674 9.354 9.354 9.921zm.142-4.18l-5.35-4.997 5.35-5.882 5.209 5.138-5.209 5.74z" stroke="#55A" stroke-width="1.984" fill="#55A" fill-rule="nonzero" stroke-linecap="round" stroke-linejoin="round"/><path stroke="#55A" stroke-width="1.984" stroke-linecap="round" stroke-linejoin="round" d="M222.626 387.709l8.398 9.07-7.831 8.398"/><path stroke="#55A" stroke-width="1.984" stroke-linecap="round" stroke-linejoin="round" d="M222.768 392.988l3.366 3.508-2.764 3.33M247.358 385.795l-9.956 10.418 5.74 6.059"/><path stroke="#55A" stroke-width="1.984" stroke-linecap="round" stroke-linejoin="round" d="M247.004 392.209l-3.366 3.897 3.366 3.544"/><path d="M248.244 329.705l-3.862-4.607M222.52 329.917l7.086-7.299M247.854 399.224l.674-74.126M222.307 408.26l.213-88.902" stroke="#55A" stroke-width="1.984" fill="#F55" fill-rule="nonzero" stroke-linecap="round" stroke-linejoin="round"/><path stroke="#55A" stroke-width="1.984" fill="#55A" fill-rule="nonzero" stroke-linecap="round" stroke-linejoin="round" d="M238.819 403.83l-4.394-4.393-8.468 8.433 1.346 2.303z"/><path stroke="#55A" stroke-width="1.984" fill="#FF5" fill-rule="nonzero" stroke-linecap="round" stroke-linejoin="round" d="M53.008 451.984v-70.972l-6.024-2.02v72.992zM46.984 171.992v202.004h6.024V170.008l-22.996-20.02v7.016z"/><path d="M38.516 450c1.169 0 2.48-1.311 2.48-2.516 0-1.169-1.311-2.48-2.48-2.48-1.205 0-2.516 1.311-2.516 2.48 0 1.205 1.311 2.516 2.516 2.516zM38.516 436.004c1.169 0 2.48-1.311 2.48-2.516 0-1.17-1.311-2.48-2.48-2.48-1.205 0-2.516 1.31-2.516 2.48 0 1.205 1.311 2.516 2.516 2.516zM35.504 442.984c1.17 0 2.48-1.31 2.48-2.48s-1.31-2.516-2.48-2.516-2.516 1.347-2.516 2.516c0 1.17 1.347 2.48 2.516 2.48zM41.492 442.984c1.17 0 2.516-1.31 2.516-2.48s-1.347-2.516-2.516-2.516c-1.17 0-2.48 1.347-2.48 2.516 0 1.17 1.31 2.48 2.48 2.48zM38.339 401.244c1.204 0 2.515-1.31 2.515-2.516 0-1.169-1.31-2.48-2.515-2.48-1.17 0-2.48 1.311-2.48 2.48 0 1.205 1.31 2.516 2.48 2.516zM38.339 387.248c1.204 0 2.515-1.346 2.515-2.516 0-1.169-1.31-2.48-2.515-2.48-1.17 0-2.48 1.311-2.48 2.48 0 1.17 1.31 2.516 2.48 2.516zM35.362 394.228c1.17 0 2.48-1.31 2.48-2.48 0-1.205-1.31-2.516-2.48-2.516-1.205 0-2.516 1.311-2.516 2.516 0 1.17 1.311 2.48 2.516 2.48zM41.35 394.228c1.17 0 2.516-1.31 2.516-2.48 0-1.205-1.346-2.516-2.516-2.516-1.169 0-2.515 1.311-2.515 2.516 0 1.17 1.346 2.48 2.515 2.48zM38.551 352.453c1.17 0 2.48-1.311 2.48-2.48 0-1.205-1.31-2.516-2.48-2.516s-2.516 1.31-2.516 2.515c0 1.17 1.347 2.48 2.516 2.48zM38.551 338.457c1.17 0 2.48-1.311 2.48-2.48 0-1.205-1.31-2.516-2.48-2.516s-2.516 1.31-2.516 2.515c0 1.17 1.347 2.48 2.516 2.48zM35.54 345.472c1.169 0 2.515-1.346 2.515-2.515 0-1.17-1.346-2.48-2.516-2.48-1.169 0-2.48 1.31-2.48 2.48 0 1.169 1.311 2.515 2.48 2.515zM41.528 345.472c1.204 0 2.515-1.346 2.515-2.515 0-1.17-1.31-2.48-2.515-2.48-1.17 0-2.48 1.31-2.48 2.48 0 1.169 1.31 2.515 2.48 2.515zM38.728 302.917c1.17 0 2.516-1.31 2.516-2.48 0-1.205-1.346-2.516-2.516-2.516-1.169 0-2.48 1.311-2.48 2.516 0 1.17 1.311 2.48 2.48 2.48zM38.728 288.921c1.17 0 2.516-1.31 2.516-2.515 0-1.17-1.346-2.48-2.516-2.48-1.169 0-2.48 1.31-2.48 2.48 0 1.204 1.311 2.515 2.48 2.515zM35.752 295.937c1.17 0 2.48-1.346 2.48-2.516 0-1.169-1.31-2.515-2.48-2.515-1.205 0-2.516 1.346-2.516 2.515 0 1.17 1.311 2.516 2.516 2.516zM41.74 295.937c1.17 0 2.48-1.346 2.48-2.516 0-1.169-1.31-2.515-2.48-2.515s-2.516 1.346-2.516 2.515c0 1.17 1.347 2.516 2.516 2.516zM38.728 254.516c1.17 0 2.516-1.311 2.516-2.48 0-1.17-1.346-2.516-2.516-2.516-1.169 0-2.48 1.346-2.48 2.515 0 1.17 1.311 2.48 2.48 2.48zM38.728 240.52c1.17 0 2.516-1.311 2.516-2.48 0-1.205-1.346-2.516-2.516-2.516-1.169 0-2.48 1.31-2.48 2.515 0 1.17 1.311 2.48 2.48 2.48zM35.752 247.535c1.17 0 2.48-1.31 2.48-2.515 0-1.17-1.31-2.48-2.48-2.48-1.205 0-2.516 1.31-2.516 2.48 0 1.204 1.311 2.515 2.516 2.515zM41.74 247.535c1.17 0 2.48-1.31 2.48-2.515 0-1.17-1.31-2.48-2.48-2.48s-2.516 1.31-2.516 2.48c0 1.204 1.347 2.515 2.516 2.515zM39.295 205.937c1.205 0 2.516-1.311 2.516-2.48 0-1.205-1.311-2.516-2.516-2.516-1.169 0-2.48 1.311-2.48 2.516 0 1.169 1.311 2.48 2.48 2.48zM39.295 191.94c1.205 0 2.516-1.31 2.516-2.48 0-1.204-1.311-2.515-2.516-2.515-1.169 0-2.48 1.31-2.48 2.516 0 1.169 1.311 2.48 2.48 2.48zM36.319 198.957c1.17 0 2.48-1.347 2.48-2.516 0-1.17-1.31-2.48-2.48-2.48s-2.516 1.31-2.516 2.48 1.347 2.516 2.516 2.516zM42.307 198.957c1.17 0 2.516-1.347 2.516-2.516 0-1.17-1.347-2.48-2.516-2.48-1.17 0-2.48 1.31-2.48 2.48s1.31 2.516 2.48 2.516zM45 413.008v4.996l-13.004 12.012v-5.032zM45 405v4.996l-13.004 12.012v-4.996zM45 363.012v4.996l-13.004 11.976v-4.996zM45 355.004V360l-13.004 12.012v-4.996zM45 313.016v4.996l-13.004 11.976v-4.996zM45 305.008v4.996l-13.004 12.012v-5.032zM45 265.004V270l-13.004 12.012v-4.996zM45 256.996v4.996l-13.004 12.012v-4.996zM45 217.984v5.032l-13.004 11.976v-4.996zM45 210.012v4.996l-13.004 11.976v-4.996zM44.858 171.744l.142 1.24-13.004 12.012V180l9.992-9.886zM38.232 166.5l2.41 1.984-8.646 8.504v-4.996z" fill="#FF5" fill-rule="nonzero"/><path d="M112.5 369.035l9.354-9.744-9-9.885-9.673 9.708 9.319 9.921zm.177-4.216l-5.35-4.996 5.35-5.847 5.173 5.138-5.173 5.705zM108.78 396.531l10.523-8.468-7.689-10.949-10.807 8.398 7.973 11.02zm.673-4.145l-4.642-5.634 6.06-5.138 4.464 5.776-5.882 4.996zM112.854 343.17l8.256-9.922-10.027-8.22-8.363 9.92 10.134 8.221zm-.283-3.898l-5.847-4.075 4.678-5.953 5.704 4.252-4.535 5.776zM110.41 319.783l7.83-10.984-10.346-8.504-8.185 11.02 10.7 8.468zm-.461-4.18l-6.024-4.146 4.43-6.59 5.881 4.322-4.287 6.413zM106.228 293.988l6.024-12.047-11.516-6.803-6.378 12.153 11.87 6.697zm-1.098-4.04l-6.59-3.188 3.366-7.193 6.484 3.366-3.26 7.016zM98.965 268.583l4.89-12.58-12.119-5.668-5.208 12.685 12.437 5.563zm-1.489-3.933l-6.838-2.552 2.657-7.476 6.768 2.728-2.587 7.3zM88.228 242.93l2.41-13.253-12.969-3.295-2.693 13.429 13.252 3.118zm-2.197-3.58l-7.228-1.204 1.24-7.831 7.158 1.417-1.17 7.618zM74.764 219.224l1.275-13.429-13.216-2.161-1.524 13.642 13.465 1.948zm-2.48-3.401l-7.3-.567.532-7.937 7.264.815-.497 7.689z" stroke="#55A" stroke-width="1.984" fill="#55A" fill-rule="nonzero" stroke-linecap="round" stroke-linejoin="round"/><path stroke="#55A" stroke-width="1.984" stroke-linecap="round" stroke-linejoin="round" d="M98.752 381.224l10.205-8.185-8.079-9.992"/><path stroke="#55A" stroke-width="1.984" stroke-linecap="round" stroke-linejoin="round" d="M99.531 376.016l3.756-3.296-2.94-3.614M97.512 390.508s1.453-12.33 1.984-18.496c.744-8.575 1.843-17.15 1.736-25.76-.07-7.547-1.027-15.024-1.984-22.5-1.028-7.972-2.197-15.91-4.004-23.74a225.376 225.376 0 00-7.512-25.76c-2.693-7.583-5.917-15.024-9.496-22.252a242.053 242.053 0 00-12.72-22.748C61.972 223.654 54 212.988 54 212.988M124.972 363.862l-10.63 11.339 9.497 11.41"/><path stroke="#55A" stroke-width="1.984" stroke-linecap="round" stroke-linejoin="round" d="M124.547 370.382l-4.535 4.748 4.18 5.173M101.48 355.43l8.54-8.221-7.902-8.681"/><path stroke="#55A" stroke-width="1.984" stroke-linecap="round" stroke-linejoin="round" d="M101.8 350.575l3.153-3.26-2.906-3.154M125.93 333.957l-10.241 11.693 9.85 11.09"/><path stroke="#55A" stroke-width="1.984" stroke-linecap="round" stroke-linejoin="round" d="M125.717 340.476l-4.359 4.926 4.359 4.996M123.165 308.657l-8.964 12.686 10.913 10.027"/><path stroke="#55A" stroke-width="1.984" stroke-linecap="round" stroke-linejoin="round" d="M123.626 315.177l-3.827 5.315 4.855 4.571M118.417 283.323l-7.44 13.642 12.047 8.68"/><path stroke="#55A" stroke-width="1.984" stroke-linecap="round" stroke-linejoin="round" d="M119.622 289.736l-3.189 5.74 5.35 3.969M108 257.244l-5.315 14.634 13.181 6.768"/><path stroke="#55A" stroke-width="1.984" stroke-linecap="round" stroke-linejoin="round" d="M110.161 263.41l-2.303 6.165 5.882 3.118M95.457 230.776l-3.544 15.165 13.926 5.138"/><path stroke="#55A" stroke-width="1.984" stroke-linecap="round" stroke-linejoin="round" d="M98.327 236.657l-1.524 6.378 6.2 2.374"/><path stroke="#55A" stroke-width="2.055" stroke-linecap="round" stroke-linejoin="round" d="M80.681 206.646l-2.02 15.413 13.217 3.898"/><path stroke="#55A" stroke-width="2.055" stroke-linecap="round" stroke-linejoin="round" d="M83.835 212.244l-.922 6.484 5.918 1.843M62.787 183.295l.744 16.051 13.678 1.489"/><path stroke="#55A" stroke-width="2.055" stroke-linecap="round" stroke-linejoin="round" d="M66.862 188.93l.248 6.483 6.13.744"/><path d="M99.248 236.268c-4.004-6.697-7.795-13.465-12.012-20.02-5.386-8.433-10.878-16.795-16.972-24.732-5.173-6.733-11.02-12.862-16.512-19.276M59.244 179.752l-5.74-.744" stroke="#55A" stroke-width="1.984" stroke-linecap="round" stroke-linejoin="round"/><path stroke="#55A" stroke-width="1.984" fill="#55A" fill-rule="nonzero" stroke-linecap="round" stroke-linejoin="round" d="M53.752 183.012l5.492 1.24-.496 14.492-4.996-1.24z"/><path stroke="#55A" stroke-width="1.984" stroke-linecap="round" stroke-linejoin="round" d="M57.756 216.744l.992-13.004-4.996-1.24M100.311 332.185l7.476-9.283-8.964-7.583"/><path stroke="#55A" stroke-width="1.984" stroke-linecap="round" stroke-linejoin="round" d="M100.028 327.295l2.728-3.65-3.26-2.763M98.008 307.56l5.74-10.383-10.098-5.953"/><path stroke="#55A" stroke-width="1.984" stroke-linecap="round" stroke-linejoin="round" d="M96.874 302.811l2.055-4.04-3.685-2.16M91.488 283.217l4.855-10.843-10.56-5.102"/><path stroke="#55A" stroke-width="1.984" stroke-linecap="round" stroke-linejoin="round" d="M89.965 278.54l1.7-4.182-3.862-1.842M83.303 258.768l2.906-11.516-11.303-3.189"/><path stroke="#55A" stroke-width="1.984" stroke-linecap="round" stroke-linejoin="round" d="M81 254.445l.957-4.43-4.146-1.133M71.327 235.736l1.559-11.799-11.587-1.843"/><path stroke="#55A" stroke-width="1.984" stroke-linecap="round" stroke-linejoin="round" d="M68.528 231.697l.425-4.5-4.217-.673"/><path d="M79.016 341.504c-3.19-8.752-5.811-17.717-9.532-26.256-2.338-5.386-4.606-10.913-7.972-15.732-2.232-3.19-5.35-5.67-8.008-8.504l.248 13.996 4.5-.992-2.516 6.236 5.776.248-3.508 4.252 5.244.496-3.26 4.5 5.776.248-4.004 4.996 6.484.496-3.756 4.996 5.776.532-3.508 4.748 4.996.744-3.26 5.492 7.016.248 3.508-.744z" stroke="#55A" stroke-width="1.984" fill="#55A" fill-rule="nonzero" stroke-linecap="round" stroke-linejoin="round"/><path d="M67.996 375.768c-2.339 2.515-6.2 3.153-9.496 4.18-1.772.532-3.65 1.1-5.492.993-2.09-.106-4.288-.532-6.024-1.736-.921-.673-1.913-1.63-1.984-2.764-.07-.85.602-1.7 1.24-2.232.603-.496 1.488-.567 2.268-.744 1.24-.355 2.622-.142 3.756-.745 1.027-.566 1.984-1.452 2.41-2.55.53-1.24.354-2.764.106-4.11-.284-1.525-1.099-3.12-1.772-4.288l.248-14.28c2.835-.319 5.81-1.24 8.752-.992 1.736.142 3.685.354 4.996 1.488 2.374 2.126 3.012 5.67 3.756 8.752.709 3.19.957 6.555.496 9.744-.46 3.26-1.028 6.874-3.26 9.284h0zM99.248 332.504c-4.5 1.842-8.079 3.366-12.012 5.244-3.366 1.63-6.697 3.437-9.992 5.244-3.118 1.7-6.732 3.579-9.248 5.244M97.76 390.756c-5.421-2.587-10.914-5.067-16.264-7.76-4.287-2.161-8.504-4.5-12.756-6.732" stroke="#55A" stroke-width="1.984" fill="#FFF" fill-rule="nonzero" stroke-linecap="round" stroke-linejoin="round"/><path d="M73.488 378.496s2.303-7.228 2.764-10.984c.46-3.827.602-7.725 0-11.516-.567-3.366-3.26-9.744-3.26-9.744l12.756-7.264-5.492 9 5.988 6.024-6.484 7.228 5.988 8.256-5.244 4.252 3.26 9.992-10.276-5.244z" stroke="#55A" stroke-width="1.984" fill="#FFF" fill-rule="nonzero" stroke-linecap="round" stroke-linejoin="round"/><path stroke="#55A" stroke-width="1.984" stroke-linecap="round" stroke-linejoin="round" d="M95.988 388.736l-7.476-12.224 6.484-6.272-6.236-8.504 6.484-7.972-5.74-5.776 6.98-13.5"/><path stroke="#55A" stroke-width="1.984" stroke-linecap="round" stroke-linejoin="round" d="M97.512 382.252l-2.516-4.004 3.756-3.012M99.496 365.244l-3.012-3.756 3.26-4.252M100.24 350.752l-3.224-4.5 3.224-4.996"/><path d="M93.26 326.268l-11.268 5.492s-3.401-11.445-5.492-17.008c-1.772-4.748-3.472-9.602-5.988-13.996-2.941-5.067-10.524-13.996-10.524-13.996v-52.264s9.886 15.697 13.996 23.988c4.252 8.575 8.044 17.433 11.02 26.504 2.48 7.583 4.252 15.414 5.74 23.28 1.134 5.917 2.516 18 2.516 18h0zM95.315 483.484s-.673-7.299-2.303-10.488c-1.595-3.083-4.181-5.74-7.016-7.76-2.445-1.736-5.315-2.905-8.256-3.472-2.445-.496-4.996-.248-7.476 0-1.701.142-5.032.992-5.032.992s3.225 1.027 4.252 2.232c2.233 2.551 2.551 6.272 3.508 9.496.957 3.225 1.17 6.626 2.268 9.78 1.098 3.189 2.09 6.626 4.252 9.248 1.17 1.417 2.764 2.551 4.5 3.224 1.027.425 3.295.532 3.295.532l8.008-13.784z" stroke="#55A" stroke-width="1.984" fill="#FF5" fill-rule="nonzero" stroke-linecap="round" stroke-linejoin="round"/><path d="M90.496 490.535c-1.205-3.968-2.232-7.795-4.252-11.267-1.7-3.012-4.11-5.528-6.484-8.008-1.56-1.63-3.33-3.012-4.996-4.5" stroke="#55A" stroke-width="1.984" stroke-linecap="round" stroke-linejoin="round"/><path d="M81.886 487.382c1.771-.957 5.705-.106 7.653.283 1.347-2.657 2.445-4.712 2.339-7.193M80.291 482.846c1.772-.956 5.103-.673 7.052-.283 1.346-2.657 2.444-5.244 2.338-7.724M78.024 476.681c1.807-.957 4.358-.248 6.307.142 1.346-2.658 1.063-5.067.956-7.547M75.437 472.181c1.772-.992 2.906-.07 4.854.319 1.347-2.657.638-3.685.532-6.165M90 491.634c-1.772-.284-3.543-.425-5.315.354" stroke="#55A" stroke-width="1.984" stroke-linecap="round" stroke-linejoin="round"/><path d="M210.083 398.41c.85-.32 1.948-.886 2.055-1.808.106-.885-.886-1.665-1.63-2.161-.425-.284-1.028-.248-1.524-.425-.531-.177-1.24-.248-1.594-.744-.355-.496-.107-1.24-.248-1.843-.425-1.488-.603-3.26-1.736-4.287-.993-.957-2.516-1.134-3.863-1.276-1.169-.106-2.338.284-3.472.425-.921.107-1.807.39-2.728.32-.461-.072-.957-.107-1.311-.39-.32-.284-.426-.745-.497-1.134-.212-.85-.07-1.737-.106-2.622-.035-1.134.177-2.304-.106-3.367-.355-1.275-.886-2.657-1.914-3.472-1.098-.85-2.622-1.098-4.003-1.17-1.17-.035-2.304.426-3.473.638-.886.178-1.736.532-2.657.497-.39 0-.85 0-1.134-.284-.177-.142-.177-.46-.213-.673-.07-.744.142-1.453.213-2.197.07-.992.425-2.02.248-3.012-.177-1.205-.532-2.551-1.382-3.437-.957-.957-2.445-1.382-3.791-1.63-1.17-.177-2.374.248-3.544.284-1.453 0-3.224.744-4.358-.177-.886-.71-.567-2.162-.78-3.26-.212-1.028-.106-2.09-.496-3.012-.496-1.134-1.133-2.339-2.161-2.976-.85-.532-1.984-.603-2.976-.532-.745.035-1.453.46-2.197.673-.603.177-1.276.78-1.878.532-.177-.071-.213-.32-.248-.496-.284-.603-.39-1.24-.603-1.878-.283-.78-.39-1.736-.956-2.374-.78-.922-1.878-1.807-3.083-1.807-1.17.035-2.268.92-3.012 1.807-.531.673-.567 1.594-.815 2.374-.212.602-.319 1.204-.531 1.807-.071.106-.071.283-.177.319-.142.106-.355.035-.532 0-.602-.142-1.134-.496-1.7-.709-.816-.283-1.56-.78-2.41-.85-1.134-.071-2.41-.036-3.295.637-1.028.745-1.524 2.126-1.808 3.367-.248 1.027.071 2.055.107 3.118.035.708.212 1.452.106 2.197-.035.177 0 .39-.142.496-.283.248-.744.141-1.098.141-.815-.035-1.595-.283-2.374-.496-1.063-.354-2.02-1.204-3.118-1.275-.957-.036-2.339 0-2.764.85-.46.85.283 2.02.921 2.728.957.957 2.48 1.099 3.756 1.489 1.099.319 2.197.708 3.33.708 1.241-.035 2.623-.106 3.615-.85 1.028-.78 1.56-2.126 1.843-3.366.248-.992-.071-2.055-.071-3.083-.036-.78-.638-1.807-.071-2.338.46-.426 1.24.035 1.842.177.815.212 1.524.78 2.339.92 1.063.143 2.232.249 3.224-.212.957-.496 1.595-1.488 2.162-2.41.39-.672.035-2.16.815-2.16.815 0 .425 1.594.815 2.303.567.956 1.169 2.055 2.196 2.445 1.56.637 3.367-.426 5.067-.39.638 0 1.453-.248 1.95.177.566.531.212 1.524.424 2.268.603 2.09.603 4.712 2.304 6.059 1.948 1.559 4.89.956 7.37 1.027.92 0 1.807-.354 2.693-.248.46.071.992.142 1.275.496.177.177.213.46.248.744.071.744-.177 1.489-.248 2.233-.07 1.027-.39 2.055-.248 3.047.213 1.205.602 2.551 1.56 3.401 1.027.922 2.55 1.205 3.932 1.311 1.17.071 2.339-.425 3.473-.637.921-.142 1.807-.496 2.728-.496.425 0 .921 0 1.24.248.32.248.425.708.532 1.098.177.85.035 1.7.07 2.551.036 1.134-.141 2.303.142 3.402.32 1.275.815 2.657 1.843 3.508 1.027.886 2.48 1.169 3.827 1.31 1.169.142 2.338-.212 3.507-.354.922-.106 1.843-.39 2.764-.354.46.035 1.063 0 1.347.354.354.355.141.993.248 1.453.319 1.453.354 3.118 1.31 4.288.78.992 2.162 1.417 3.331 1.878.638.248 1.276.354 1.95.496.106.035.247.07.354.07z" fill="#FF5" fill-rule="nonzero"/><path d="M209.976 386.858a2.153 2.153 0 001.878-1.382c.248-.78-.035-1.736-.708-2.232L153 337.358c-.673-.496-1.665-.531-2.374-.035l-22.748 15.945c-.921.602-1.205 1.949-.567 2.834.602.886 1.984 1.099 2.835.461l21.578-15.13 56.977 44.965c.354.283.815.46 1.275.46z" fill="#FF5" fill-rule="nonzero"/><path fill="#000" fill-rule="nonzero" d="M152.93 326.268v-63.886l-9.745 6.803-.319 63.319z"/><path fill="#F55" fill-rule="nonzero" d="M211.5 372.118l-21.012-16.866-.283-54.425 21.295 14.492z"/><path d="M190.205 356.173l-.603-56.232M184.287 351.957l-.283-57.331M157.358 329.244l-.283-68.35" stroke="#000" stroke-width="1.984" stroke-linecap="round" stroke-linejoin="round"/><path d="M119.516 284.563l36.39-24.236" stroke="#55A" stroke-width="1.984" stroke-linecap="round" stroke-linejoin="round"/><path stroke="#000" stroke-width="1.984" stroke-linecap="round" stroke-linejoin="round" d="M157.394 270.248l26.326 26.858-26.503 25.654 26.787 27.496"/><path stroke="#000" stroke-width="1.984" stroke-linecap="round" stroke-linejoin="round" d="M168.13 338.811l16.051-16.405-26.787-27.922 15.165-14.173"/><path stroke="#000" stroke-width="1.984" stroke-linecap="round" stroke-linejoin="round" d="M170.965 328.57l4.925-5.279-4.925-5.81-5.103 5.279zM171.106 300.898l4.288-4.713-4.855-4.925-4.322 4.606z"/><path stroke="#000" stroke-width="1.984" fill="#000" fill-rule="nonzero" stroke-linecap="round" stroke-linejoin="round" d="M183.118 342.319l-4.89-5.35 5.138-5.422zM157.925 314.291l5.244-5.456-5.315-5.174zM183.402 314.327l-4.82-5.244 4.926-4.536zM157.783 286.795l4.607-4.748-4.855-4.748z"/><path d="M227.055 410.492c7.087-3.543 14.173-7.051 21.225-10.63 5.066-2.551 10.204-5.031 15.2-7.76 7.193-3.933 14.35-7.937 21.225-12.401 6.449-4.181 12.472-8.93 18.744-13.43-4.146-5.527-8.185-11.125-12.402-16.617-3.579-4.642-7.476-9.071-10.949-13.784-3.224-4.358-6.13-8.964-9.177-13.43-2.48.71-4.89 1.737-7.44 2.127-4.997.744-10.135.673-15.201.354-4.04-.248-8.044-.992-12.012-1.771-4.288-.85-8.61-1.737-12.756-3.19-4.252-1.488-8.398-3.472-12.366-5.669-4.536-2.48-8.859-5.42-13.075-8.468-4.536-3.295-9.106-6.626-13.075-10.595-3.862-3.862-6.945-8.433-10.276-12.756-3.614-4.748-6.838-9.815-10.594-14.492-2.551-3.189-5.173-6.342-8.114-9.177-4.075-3.897-8.327-7.618-13.11-10.594-4.394-2.8-9.248-4.89-14.138-6.733-4.677-1.807-9.496-3.543-14.492-4.252-4.89-.708-9.886 0-14.847 0 2.729 5.563 5.634 10.985 8.15 16.619 3.118 7.086 6.059 14.244 8.468 21.578a193.1 193.1 0 015.67 20.87c1.488 7.229 2.41 14.563 3.189 21.898.567 5.528.885 11.09 1.063 16.618.177 6.13.035 12.26 0 18.39-.071 5.775-.142 11.551-.355 17.327-.248 6.023-.708 12.011-1.063 18.035" stroke="#55A" stroke-width="1.984" stroke-linecap="round" stroke-linejoin="round"/><path stroke="#55A" stroke-width="1.984" d="M30.012 149.988v360h270"/><path d="M187.937 269.469c-.673.07-1.417.673-2.835 1.7l-3.118 2.197-3.082 2.232c-3.863 2.304-2.8 2.587-.178 5.74l2.941 3.544 2.906 3.508c2.693 3.614 2.551 3.862 5.705.956l2.834-2.586 2.835-2.587c3.33-2.586 2.657-2.764.142-5.775l-2.622-3.154-2.658-3.153c-1.382-1.914-2.02-2.693-2.87-2.623zm-.531 5.527c.673 0 1.452.248 1.948.744.32.354.426.886.426 1.347 0 .212-.284.496-.107.673.142.142.39-.177.603-.177.496.035 1.027.141 1.381.496.497.46.745 1.24.745 1.913 0 .709-.248 1.453-.745 1.949-.354.319-.885.39-1.381.425-.213.036-.461-.283-.603-.106-.177.142.107.39.107.602 0 .496-.107 1.028-.426 1.382-.496.496-1.275.744-1.948.744-.674 0-1.453-.248-1.95-.744-.318-.354-.424-.886-.46-1.382 0-.212.319-.46.177-.602-.177-.177-.46.142-.673.106-.496-.035-.992-.106-1.346-.425-.497-.496-.745-1.24-.745-1.949 0-.673.248-1.453.745-1.913.354-.355.85-.46 1.346-.496.213 0 .496.319.673.177.142-.177-.177-.46-.177-.673.035-.461.142-.993.46-1.347.497-.496 1.276-.744 1.95-.744zM201.437 285.236c-.638.142-1.311.886-2.516 2.126l-2.693 2.693-2.657 2.693c-3.473 2.941-2.339 3.047.744 5.705l3.508 3.012 3.437 2.976c3.26 3.118 3.153 3.402 5.81 0l2.34-3.047 2.373-2.977c2.87-3.118 2.197-3.189-.814-5.74l-3.119-2.693-3.118-2.657c-1.7-1.666-2.48-2.339-3.295-2.09zm.39 5.528c.708-.107 1.488 0 2.055.425.39.283.567.78.638 1.24.07.213-.177.532 0 .673.177.142.354-.248.602-.248.46-.07 1.028-.035 1.417.213.567.39.957 1.098 1.063 1.807.107.673 0 1.453-.425 2.02-.283.39-.815.567-1.275.673-.213.035-.496-.213-.638-.035-.107.177.212.39.248.602.035.46.035 1.027-.213 1.417-.39.567-1.098.957-1.807 1.063-.673.107-1.453 0-2.02-.425-.39-.283-.602-.78-.708-1.276-.036-.212.248-.496.07-.637-.176-.142-.39.212-.637.248-.46.035-.992.07-1.382-.213-.567-.39-.957-1.098-1.063-1.772-.106-.708 0-1.488.425-2.055.284-.39.78-.567 1.24-.673.213-.07.532.213.674.035.106-.177-.248-.39-.284-.602-.035-.496-.035-1.027.248-1.417.39-.567 1.099-.957 1.772-1.063zM217.311 297.567c-.567.354-.957 1.276-1.736 2.835l-1.701 3.401-1.665 3.402c-2.374 3.862-1.24 3.614 2.515 5.173l4.252 1.736 4.217 1.736c4.075 1.914 4.075 2.233 5.492-1.842l1.276-3.614 1.31-3.579c1.737-3.898 1.064-3.72-2.586-5.209l-3.791-1.523-3.827-1.56c-2.126-1.027-3.047-1.452-3.756-.956zm2.126 5.138c.602-.32 1.382-.46 2.055-.248.46.141.78.567 1.028.956.106.213-.036.567.177.638.212.106.283-.319.496-.425.425-.177.957-.354 1.417-.213.673.178 1.24.744 1.56 1.347.354.602.46 1.417.247 2.055-.141.46-.567.78-.992 1.028-.177.141-.567-.036-.602.212-.071.213.283.284.39.46.212.461.39.957.248 1.454-.178.637-.744 1.24-1.347 1.559-.602.318-1.417.46-2.055.248-.46-.142-.815-.567-1.063-.993-.106-.177.035-.566-.142-.637-.212-.071-.319.319-.531.425-.425.212-.921.39-1.382.248-.673-.177-1.276-.744-1.595-1.347-.318-.637-.46-1.417-.248-2.09.142-.46.567-.78.993-1.028.177-.106.566.036.637-.177.071-.212-.354-.319-.46-.496-.213-.425-.32-.957-.213-1.417.213-.673.744-1.24 1.382-1.56zM236.02 305.398c-.426.531-.567 1.523-.815 3.224l-.638 3.756-.602 3.756c-1.134 4.358-.142 3.791 3.933 4.181l4.57.425 4.571.425c4.43.638 4.5.922 4.678-3.366l.177-3.827.177-3.826c.531-4.217-.071-3.827-3.969-4.181l-4.11-.39-4.11-.355c-2.339-.354-3.33-.46-3.862.178zm3.508 4.287c.496-.46 1.24-.85 1.913-.815.496 0 .921.284 1.276.638.141.142.141.531.354.531.248 0 .177-.39.354-.531.355-.319.815-.638 1.276-.638.708-.035 1.417.319 1.913.815.496.496.85 1.205.85 1.913 0 .461-.354.922-.673 1.276-.141.177-.531.142-.531.354 0 .213.39.178.531.355.32.354.674.815.674 1.275 0 .709-.355 1.418-.85 1.914-.497.496-1.206.85-1.879.85-.496-.035-.956-.319-1.31-.673-.178-.142-.107-.532-.355-.532-.213 0-.177.39-.354.532-.355.319-.78.638-1.276.673-.673 0-1.417-.354-1.878-.85-.496-.496-.85-1.205-.85-1.914 0-.46.283-.921.602-1.275.177-.177.602-.107.567-.355 0-.212-.425-.177-.567-.354-.319-.354-.602-.78-.602-1.276-.036-.673.354-1.417.815-1.913zM173.693 272.693c.638-.071 1.417-.673 2.835-1.665l3.082-2.233 3.118-2.197c3.863-2.303 2.764-2.622.178-5.775l-2.941-3.508-2.906-3.543c-2.693-3.58-2.551-3.863-5.705-.957l-2.834 2.622-2.835 2.551c-3.366 2.587-2.693 2.764-.142 5.776l2.622 3.153 2.658 3.154c1.382 1.913 2.02 2.728 2.87 2.622zm.531-5.528c-.708 0-1.452-.248-1.948-.744-.32-.354-.426-.85-.426-1.346-.035-.213.248-.496.107-.638-.142-.177-.39.177-.603.142-.496-.036-1.027-.142-1.382-.46-.496-.497-.744-1.241-.744-1.95 0-.673.248-1.452.744-1.949.355-.318.886-.39 1.382-.425.213 0 .461.284.603.142.141-.177-.142-.425-.107-.638 0-.496.107-1.027.426-1.382.496-.496 1.24-.744 1.948-.744.674 0 1.453.248 1.914.744.354.355.46.886.496 1.382 0 .213-.319.46-.177.638.177.142.425-.142.673-.142.46.036.992.107 1.346.425.496.497.744 1.276.744 1.95 0 .708-.248 1.452-.744 1.948-.354.319-.885.425-1.346.46-.248.036-.496-.318-.673-.141-.142.142.177.425.177.638-.036.496-.142.992-.496 1.346-.46.496-1.24.744-1.914.744zM160.476 256.642c.638-.177 1.311-.922 2.552-2.126l2.657-2.729 2.693-2.693c3.437-2.905 2.303-3.011-.78-5.704l-3.472-2.977-3.472-3.011c-3.225-3.083-3.119-3.367-5.776.035l-2.339 3.012-2.374 3.012c-2.87 3.118-2.196 3.153.78 5.704l3.118 2.693 3.154 2.658c1.7 1.665 2.444 2.338 3.26 2.126zm-.39-5.528c-.673.106-1.488-.035-2.02-.425-.389-.283-.566-.78-.672-1.276-.036-.212.212-.531.035-.637-.177-.142-.39.212-.602.248-.46.035-1.028.035-1.418-.248-.567-.39-.956-1.099-1.063-1.772-.141-.673 0-1.488.39-2.055.284-.39.815-.532 1.311-.638.213-.07.496.213.638 0 .106-.177-.213-.354-.248-.567-.07-.496-.07-1.063.213-1.453.39-.567 1.098-.956 1.771-1.063.673-.106 1.488 0 2.055.426.39.283.567.815.674 1.275.035.213-.213.496-.036.638.177.142.39-.213.603-.213.496-.07 1.027-.07 1.417.177.567.39.957 1.134 1.063 1.808.106.673 0 1.488-.425 2.02-.284.389-.78.602-1.24.708-.213.035-.567-.248-.674-.071-.106.213.248.425.248.638.071.46.036.992-.212 1.417-.39.567-1.134.921-1.807 1.063zM143.362 243.035c.567-.39.957-1.275 1.736-2.834l1.701-3.402 1.666-3.437c2.338-3.827 1.24-3.579-2.516-5.138l-4.252-1.736-4.252-1.771c-4.04-1.914-4.04-2.197-5.457 1.877l-1.275 3.615-1.311 3.578c-1.737 3.863-1.063 3.685 2.586 5.174l3.792 1.559 3.826 1.523c2.126 1.063 3.048 1.453 3.756.992zm-2.126-5.137c-.602.319-1.382.46-2.055.248-.46-.142-.78-.567-1.027-.992-.107-.178.035-.567-.178-.638-.212-.071-.283.354-.496.425-.425.213-.956.39-1.417.248-.673-.177-1.24-.744-1.594-1.346-.32-.638-.461-1.418-.249-2.091.178-.46.603-.78 1.028-1.028.177-.106.532.036.602-.177.071-.212-.319-.283-.39-.496-.212-.425-.39-.957-.283-1.417.213-.673.78-1.24 1.382-1.56.602-.318 1.382-.46 2.055-.247.46.142.815.567 1.063.992.106.177-.07.531.142.602.213.071.319-.319.531-.39.426-.212.922-.39 1.382-.248.674.178 1.24.745 1.595 1.347.319.602.46 1.417.248 2.055-.177.46-.567.815-.992 1.063-.177.106-.567-.07-.638.177-.071.177.354.284.425.496.213.425.354.922.248 1.418-.212.637-.78 1.24-1.382 1.559zM124.689 235.063c.425-.496.531-1.488.815-3.189l.602-3.756.603-3.756c1.134-4.393.141-3.827-3.933-4.216l-4.571-.426-4.536-.425c-4.429-.638-4.535-.921-4.712 3.402l-.142 3.827-.213 3.791c-.531 4.216.071 3.862 4.004 4.216l4.075.355 4.11.354c2.339.39 3.366.496 3.898-.177zm-3.543-4.287c-.496.496-1.205.85-1.914.85-.46 0-.886-.319-1.24-.638-.177-.142-.177-.567-.39-.567-.212 0-.141.425-.319.567-.354.32-.814.638-1.31.638-.674 0-1.418-.354-1.914-.85-.46-.461-.85-1.205-.815-1.878 0-.496.319-.922.638-1.276.142-.177.531-.142.531-.354 0-.248-.39-.213-.531-.355-.319-.354-.638-.815-.673-1.31 0-.674.354-1.383.85-1.879s1.205-.85 1.913-.85c.461 0 .957.319 1.311.638.142.142.107.567.32.567.212 0 .212-.425.39-.567.353-.32.743-.638 1.24-.638.708 0 1.417.354 1.913.85.46.461.85 1.205.815 1.878 0 .496-.284.922-.603 1.276-.141.177-.567.142-.567.354 0 .248.426.213.567.355.32.354.603.815.638 1.31 0 .674-.354 1.383-.85 1.879zM261.283 306.142l-1.559.319c-2.126.248-3.011.425-3.33 1.204-.213.603-.107 1.524.07 3.26l.355 3.792.354 3.826c.071 4.5.78 3.72 4.394 3.048l4.004-.78 3.898-.709-1.914-3.295a2.677 2.677 0 01-.78.39c-.425.106-.885-.071-1.275-.284-.177-.106-.213-.496-.39-.425-.212.036-.106.425-.212.638-.248.39-.532.78-.957.886-.567.212-1.276.07-1.807-.284-.532-.354-1.028-.992-1.17-1.665-.106-.46.036-.957.213-1.382.071-.177.496-.248.425-.46-.07-.213-.425-.107-.602-.213-.354-.248-.709-.638-.815-1.099-.177-.673-.035-1.452.284-2.055.318-.567.85-1.134 1.417-1.275.425-.142.886.07 1.24.283.177.106.248.496.46.46l.107-.105-2.41-4.075zM99.354 234.354l1.56-.319c2.125-.248 3.011-.425 3.33-1.204.248-.603.106-1.56-.035-3.26l-.39-3.827-.354-3.791c-.036-4.5-.78-3.72-4.359-3.047l-4.039.779-3.898.709 1.95 3.295c.212-.177.495-.319.743-.39.425-.106.886.071 1.276.284.177.106.212.46.425.425.177-.036.07-.425.177-.638.248-.39.532-.78.957-.921.567-.177 1.275-.036 1.807.319.531.354 1.028.992 1.205 1.63.106.496-.036.956-.248 1.417-.071.177-.496.248-.426.46.071.213.426.107.603.213.354.248.708.638.815 1.099.177.637.035 1.452-.284 2.02-.283.602-.815 1.169-1.417 1.31-.425.107-.85-.07-1.24-.283-.177-.106-.248-.496-.46-.46-.036 0-.072.07-.107.106l2.41 4.074zM94.996 100.984c2.02 4.004 7.016 10.028 12.012 10.028 9 0 13.004-8.008 13.004-18 0-10.028-4.004-19.028-13.004-19.028-4.996 0-8.008 5.032-11.02 8.008-.992.992-1.984 0-.992-.992 3.012-3.012 8.008-10.984 8.008-18 0-8.008-4.996-18-13.004-18s-13.004 9.992-13.004 18c0 7.016 4.996 14.988 8.008 18 .992.992 0 1.984-.992.992-3.012-2.976-6.024-8.008-11.02-8.008-9 0-13.004 9-13.004 19.028 0 9.992 4.004 18 13.004 18 4.996 0 9.992-6.024 12.012-10.028.992-.992.992 0 .992 1.028-.992 7.972-.992 9.992-1.984 15.98C82.984 124.016 80.008 135 80.008 135c4.996-1.984 14.988-1.984 19.984 0 0 0-2.976-10.984-4.004-17.008-.992-5.988-.992-8.008-1.984-15.98 0-1.028 0-2.02.992-1.028zM32.492 117.992c.992 2.02 3.508 4.996 6.024 4.996 4.5 0 6.484-4.004 6.484-9s-1.984-9.496-6.484-9.496c-2.516 0-4.004 2.516-5.528 4.004-.496.496-.992 0-.496-.496 1.524-1.488 4.004-5.492 4.004-9 0-4.004-2.48-9-6.484-9s-6.52 4.996-6.52 9c0 3.508 2.516 7.512 4.004 9 .496.496 0 .992-.496.496-1.488-1.488-3.012-4.004-5.492-4.004-4.5 0-6.52 4.5-6.52 9.496s2.02 9 6.52 9c2.48 0 4.996-2.976 5.988-4.996.496-.496.496 0 .496.496-.496 4.004-.496 4.996-.992 8.008-.496 3.012-1.984 8.504-1.984 8.504 2.48-.992 7.476-.992 9.992 0 0 0-1.524-5.492-2.02-8.504-.496-3.012-.496-4.004-.992-8.008 0-.496 0-.992.496-.496zM265.004 439.016c-2.02-4.004-7.016-10.028-12.012-10.028-9 0-13.004 8.008-13.004 18 0 10.028 4.004 19.028 13.004 19.028 4.996 0 8.008-5.032 11.02-8.008.992-.992 1.984 0 .992.992-3.012 3.012-8.008 10.984-8.008 18 0 8.008 4.996 18 13.004 18s13.004-9.992 13.004-18c0-7.016-4.996-14.988-8.008-18-.992-.992 0-1.984.992-.992 3.012 2.976 6.024 8.008 11.02 8.008 9 0 13.004-9 13.004-19.028 0-9.992-4.004-18-13.004-18-4.996 0-9.992 6.024-12.012 10.028-.992.992-.992 0-.992-1.028.992-7.972.992-9.992 1.984-15.98 1.028-6.024 4.004-17.008 4.004-17.008-4.996 1.984-14.988 1.984-19.984 0 0 0 2.976 10.984 4.004 17.008.992 5.988.992 8.008 1.984 15.98 0 1.028 0 2.02-.992 1.028zM327.508 422.008c-.992-2.02-3.508-4.996-6.024-4.996-4.5 0-6.484 4.004-6.484 9s1.984 9.496 6.484 9.496c2.516 0 4.004-2.516 5.528-4.004.496-.496.992 0 .496.496-1.524 1.488-4.004 5.492-4.004 9 0 4.004 2.48 9 6.484 9s6.52-4.996 6.52-9c0-3.508-2.516-7.512-4.004-9-.496-.496 0-.992.496-.496 1.488 1.488 3.012 4.004 5.492 4.004 4.5 0 6.52-4.5 6.52-9.496s-2.02-9-6.52-9c-2.48 0-4.996 2.976-5.988 4.996-.496.496-.496 0-.496-.496.496-4.004.496-4.996.992-8.008.496-3.012 1.984-8.504 1.984-8.504-2.48.992-7.476.992-9.992 0 0 0 1.524 5.492 2.02 8.504.496 3.012.496 4.004.992 8.008 0 .496 0 .992-.496.496z" fill="#000" fill-rule="nonzero"/></g></svg>