<svg width="360" height="540" xmlns="http://www.w3.org/2000/svg"><g transform="translate(0 -.362)" fill="none" fill-rule="evenodd"><rect stroke="#000" fill="#FFF" fill-rule="nonzero" x=".5" y=".862" width="359" height="539" rx="29.944"/><path fill="#F55" fill-rule="nonzero" d="M340 510.362v-50h-5v15l-3 7-7-22h-5l9 28-9 22h5l10-24v24zM20 30.362v50h5v-15l3-7 7 22h5l-9-28 9-22h-5l-10 24v-24z"/><path fill="#FF5" fill-rule="nonzero" d="M281.379 330.737l17.671-5.332 13.407-10.359 9.445-9.14 7.77-7.77.304-12.492-48.445-.305 2.285 6.55-.457 6.247-2.437 6.55 5.332 3.048 4.418 3.656v2.894l-3.961 3.504-7.465 3.809 1.98 5.18z"/><path d="M290.367 285.644s-1.665 2.579-2.742 3.656c-1.078 1.077-3.657 2.742-3.657 2.742M300.574 285.644s-5.744 5.498-8.988 7.77c-2.477 1.733-7.922 4.417-7.922 4.417M281.683 304.839s7.267-2.722 10.664-4.57a63.552 63.552 0 009.75-6.551c2.923-2.382 8.075-7.922 8.075-7.922M319.617 285.644s-5.234 6.145-8.227 8.836c-3.21 2.885-6.705 5.472-10.36 7.77-3.826 2.404-12.034 6.245-12.034 6.245M329.215 286.862s-8.15 8.633-12.645 12.493c-3.938 3.38-8.04 6.627-12.492 9.293-4.814 2.882-15.235 7.16-15.235 7.16M280.922 324.948s9.584-2.67 14.168-4.57c4.007-1.662 7.824-3.768 11.578-5.941 3.876-2.244 7.743-4.555 11.273-7.313 4.106-3.207 11.426-10.664 11.426-10.664" stroke="#000" stroke-width="2" stroke-linecap="round" stroke-linejoin="round"/><path fill="#F55" fill-rule="nonzero" d="M298.136 326.32l-16.91 5.331-1.98 9.446 10.207-7.313zM235.828 331.042l10.512-.152 4.57-2.133 5.332-4.113 3.504 1.37 3.808-1.523 5.332 3.352 5.942 4.875 2.894 5.941.305 2.742-11.73 7.16-16.454 7.618-8.835-13.559z"/><path fill="#55A" fill-rule="nonzero" d="M223.183 295.089l1.067 3.504 5.941.305 7.16-1.98 6.703.304 7.008 1.676 4.875 4.418 1.524-2.895 3.199-.152 3.504 1.828-.153-33.516-11.882 11.578-6.856 4.114-10.512 5.789z"/><path fill="#F55" fill-rule="nonzero" d="M275.894 186.468l8.531 2.133 13.711 14.168-.609 81.808-16.605.61-4.114 4.722-5.027 5.637-8.531 5.941.304-31.84 9.293-12.187 5.332-13.254 3.657-17.062.152-17.215-3.504-15.691z"/><path fill="#55A" fill-rule="nonzero" d="M291.129 187.991l7.312-1.37 6.703-3.048 7.922 4.114 8.074 1.98 8.38 1.219v35.8zM309.939 220.162h10.957v3.652h-10.957z"/><path fill="#000" fill-rule="nonzero" d="M245.384 182.9l12.098-14.837 9.587 12.098 6.62 16.664 2.967 15.522-.228 16.206-5.022 19.631-7.99 13.924-11.412 11.185-10.957 7.99-18.261 8.445-1.826-17.804 12.782-7.305 14.381-13.011 7.076-12.783 4.11-14.152-.457-10.957-2.968-12.326-4.565-10.272zM262.695 374.084l12.52-5.782 14.683-9.128 10.069-7.745 9.929-7.729 10.908-9.42 9.196-8.283.033 12.365-16.361 13.63-12.447 9.671-10.768 7.468-10.068 5.67-12.04 7.124zM253.5 361.483l16.414-8.358 15.958-10.03 10.942-8.512 10.79-8.055 11.855-10.79 10.182-9.27-.152 11.55-17.781 16.413-13.526 11.399-11.703 8.207-10.942 6.23-16.718 8.663z"/><path d="M249.97 356.356s10.313-4.548 15.295-7.173c4.26-2.245 8.417-4.7 12.456-7.323 5.947-3.862 11.704-8.023 17.31-12.368 5.29-4.1 10.425-8.41 15.379-12.912 6.776-6.157 19.59-19.254 19.59-19.254v8.856s-13.239 12.311-20.13 18.155c-5.409 4.587-10.938 9.04-16.638 13.258-4.984 3.69-10.056 7.279-15.337 10.528-3.914 2.409-8.026 4.48-12.088 6.63-4.128 2.184-12.478 6.368-12.478 6.368l-3.36-4.765z" stroke="#000" stroke-width="2" fill="#FF5" fill-rule="nonzero" stroke-linecap="round" stroke-linejoin="round"/><path fill="#F55" fill-rule="nonzero" d="M162.886 252.524l34.064-.31.929-9.6 2.168-14.244 2.013-10.374 4.335-15.484-43.973 42.27zM134.861 155.443l6.194 15.173 6.503 15.484 3.87 10.529 2.168 6.967 45.522-42.889-6.503.62-8.361-2.168-5.42-3.407-3.716-6.193-3.251-8.206h-2.168l-.774 5.264-4.026 5.42-5.729 1.393-4.18 2.787-5.73-.774-3.56 2.012h-5.42l-4.18-2.322z"/><path fill="#FF5" fill-rule="nonzero" d="M161.338 233.944l-1.703-6.194-2.787-12.696-2.632-11.148 56.514-54.347 4.49 1.548 5.11-1.548 3.097-2.168 3.561 2.323-9.135 19.819-6.968 17.341z"/><path d="M211.992 328.453l9.912 11.026-.708-10.456s-1.111-1.968-1.923-2.727c-1.153.096-3.366-2.05-3.366-2.05s-.095 2.885-1.051 3.746c-.724.652-2.864.461-2.864.461zM255.767 393.62l-1.072-6.697s-1.502 2.162-2.674 2.359c-1.478.248-4.158-1.71-4.158-1.71s.376 3.231-.563 4.354c-.71.85-3.169 1.003-3.169 1.003l5.84 3.59" fill="#55A" fill-rule="nonzero"/><path d="M227.402 150.596s-7.487 13.33-10.61 20.296c-3.025 6.749-5.568 13.718-7.84 20.757-3.084 9.547-5.793 19.238-7.842 29.06-1.492 7.151-2.504 14.408-3.229 21.678-.9 9.039-1.29 18.132-1.384 27.215-.052 5.076-.039 10.17.462 15.221 1.275 12.88 3.699 25.64 6.457 38.285 2.274 10.422 4.86 20.809 8.303 30.905 2.58 7.567 5.611 15.008 9.225 22.14 4.303 8.491 14.76 24.447 14.76 24.447s13.07-3.887 19.373-6.458c5.858-2.389 17.067-8.302 17.067-8.302s-7.908-9.05-11.531-13.838c-3.938-5.203-7.487-10.692-11.07-16.144-2.695-4.1-5.467-8.162-7.842-12.454-2.23-4.032-5.996-12.454-5.996-12.454" stroke="#000" stroke-width="2" stroke-linecap="round" stroke-linejoin="round"/><path d="M225.982 174.683l12.782-10.957-2.054 16.664s-1.562-2.12-2.74-2.283c-1.484-.207-4.108 1.826-4.108 1.826s.285-3.241-.685-4.337c-.734-.83-3.195-.913-3.195-.913zM239.854 152.558l8.294-5.055 3.867.767-3.094 10.015s-1.228-1.955-2.256-2.18c-1.296-.286-3.76 1.298-3.76 1.298s.484-2.801-.294-3.824c-.589-.774-2.757-1.021-2.757-1.021zM215.677 197.894l11.806-12.003-.632 16.778s-1.736-1.979-2.923-2.042c-1.496-.08-3.939 2.169-3.939 2.169s.01-3.254-1.05-4.264c-.802-.764-3.262-.638-3.262-.638zM208.087 222.515l9.19-13.618 2.709 15.996s-2.094-1.54-3.27-1.372c-1.483.211-3.43 2.806-3.43 2.806s-.637-3.08-1.876-3.832c-.938-.57-3.323.02-3.323.02zM204.132 247.544l8.173-14.719 3.87 16.337s-2.201-1.443-3.362-1.187c-1.463.323-3.217 3.141-3.217 3.141s-.86-3.137-2.15-3.828c-.977-.522-3.314.256-3.314.256zM203.638 271.56l5.585-14.005 6.56 13.628s-2.413-.929-3.514-.535c-1.389.498-2.644 3.207-2.644 3.207s-1.375-2.6-2.763-3.008c-1.05-.31-3.224.712-3.224.712zM204.222 282.65l8.173 13.713 3.87-15.222s-2.201 1.345-3.362 1.107c-1.463-.301-3.217-2.927-3.217-2.927s-.86 2.923-2.15 3.566c-.977.487-3.314-.238-3.314-.238zM220.524 351.086l13.274 10.356-2.82-16.55s-1.463 2.188-2.631 2.406c-1.474.274-4.189-1.635-4.189-1.635s.434 3.224-.484 4.364c-.695.862-3.15 1.06-3.15 1.06zM232.65 373.305l11.396 9.514-2.196-14.908s-1.308 1.942-2.329 2.118c-1.287.223-3.62-1.536-3.62-1.536s.327 2.903-.49 3.911c-.62.764-2.76.9-2.76.9zM234.485 161.631a2.5 2.5 0 11-5 0 2.5 2.5 0 015 0zM243.383 160.226a2.5 2.5 0 11-5 0 2.5 2.5 0 015 0zM248.066 168.344a2.5 2.5 0 11-5 0 2.5 2.5 0 015 0zM222.464 182.55a2.5 2.5 0 11-5 0 2.5 2.5 0 015 0zM231.05 182.238a2.5 2.5 0 11-5 0 2.5 2.5 0 015 0zM235.733 190.512a2.5 2.5 0 11-5 0 2.5 2.5 0 015 0zM220.903 205.499a2.5 2.5 0 11-5 0 2.5 2.5 0 015 0zM213.721 208.465a2.5 2.5 0 11-5 0 2.5 2.5 0 015 0zM226.367 212.524a2.5 2.5 0 11-5 0 2.5 2.5 0 015 0zM215.283 229.54a2.5 2.5 0 11-5 0 2.5 2.5 0 015 0zM220.903 236.41a2.5 2.5 0 11-5 0 2.5 2.5 0 015 0zM208.414 232.35a2.5 2.5 0 11-5 0 2.5 2.5 0 015 0zM204.355 260.45a2.5 2.5 0 11-5 0 2.5 2.5 0 015 0zM212.004 254.05a2.5 2.5 0 11-5 0 2.5 2.5 0 015 0zM218.405 259.826a2.5 2.5 0 11-5 0 2.5 2.5 0 015 0zM211.692 276.53a2.5 2.5 0 11-5 0 2.5 2.5 0 015 0zM214.814 299.323a2.5 2.5 0 11-5 0 2.5 2.5 0 015 0zM220.747 291.986a2.5 2.5 0 11-5 0 2.5 2.5 0 015 0zM207.32 294.327a2.5 2.5 0 11-5 0 2.5 2.5 0 015 0zM210.287 319.93a2.5 2.5 0 11-5 0 2.5 2.5 0 015 0zM217.78 341.005a2.5 2.5 0 11-5 0 2.5 2.5 0 015 0zM226.21 342.879a2.5 2.5 0 11-5 0 2.5 2.5 0 015 0zM232.299 337.259a2.5 2.5 0 11-5 0 2.5 2.5 0 015 0zM241.353 355.524a2.5 2.5 0 11-5 0 2.5 2.5 0 015 0zM236.67 364.89a2.5 2.5 0 11-5 0 2.5 2.5 0 015 0zM227.303 362.861a2.5 2.5 0 11-5 0 2.5 2.5 0 015 0zM240.729 386.59a2.5 2.5 0 11-5 0 2.5 2.5 0 015 0zM248.379 385.185a2.5 2.5 0 11-5 0 2.5 2.5 0 015 0zM253.53 377.536a2.5 2.5 0 11-5 0 2.5 2.5 0 015 0z" fill="#55A" fill-rule="nonzero"/><path d="M153.85 203.444l56.756-53.39" stroke="#000" stroke-width="2" stroke-linecap="round" stroke-linejoin="round"/><path d="M266.5 168.439s2.42 4.98 4.38 6.824c2.894 2.724 6.6 4.613 10.372 5.765 2.658.813 5.526.868 8.297.706 2.738-.16 5.498-.667 8.067-1.647 2.692-1.026 7.491-4.353 7.491-4.353s4.647 3.617 7.25 4.957c2.622 1.35 5.449 2.321 8.308 3.043 2.396.605 7.335 1.06 7.335 1.06v-15.885l-61.5-.47z" stroke="#000" stroke-width="2" fill="#55A" fill-rule="nonzero" stroke-linecap="round" stroke-linejoin="round"/><path stroke="#000" stroke-width="2" fill="#000" fill-rule="nonzero" stroke-linecap="round" stroke-linejoin="round" d="M273.913 148.907l-12.943 13.649 5.295 6 61.735.47.176-20.237z"/><path d="M301.094 135.062l-9.65 12.741h26.124c-5.532-4.317-10.728-8.446-16.474-12.741zM280.692 134.438l10.086 13.476-29.009.17c5.78-4.565 12.919-9.103 18.923-13.646z" fill="#F55" fill-rule="nonzero"/><path d="M253.198 148.49l76.25.064" stroke="#000" stroke-width="2" stroke-linecap="round" stroke-linejoin="round"/><g stroke="#55A" stroke-linecap="round" stroke-linejoin="round" stroke-width="2"><path d="M324.18 75.927c0 4.723-3.393 8.553-7.58 8.553-4.185 0-7.579-3.83-7.579-8.553 0-4.724 3.394-8.553 7.58-8.553s7.58 3.829 7.58 8.553h0zM276.2 62.089s3.1-.152 4.172-1.113c1.147-1.029 1.865-2.783 1.669-4.311-.182-1.417-1.335-2.656-2.503-3.477-1.105-.776-2.557-1.296-3.895-1.113-2.103.29-4.085 1.69-5.423 3.338-1.211 1.492-1.947 5.424-1.947 5.424l.139 32.682s-2.807-.05-3.894.696c-1.253.858-2.342 2.375-2.365 3.894-.024 1.598 1.17 3.11 2.365 4.172 1.165 1.035 2.76 1.95 4.31 1.808 1.768-.163 3.219-1.644 4.451-2.92 1.055-1.093 1.932-2.44 2.364-3.895.41-1.378.14-4.31.14-4.31l.417-30.875z" fill="#FF5" fill-rule="nonzero"/><path d="M316.67 72.241s2.199.295 2.643 2.643c.277 1.469-.888 3.7-2.226 3.894-3.898.561-4.45-2.643-4.45-2.643" fill-opacity=".331" fill="#FF5" fill-rule="nonzero"/><path d="M241.431 66.678l26.702.14M268.273 87.54h-28.51M251.584 67.095l-.14 20.166" fill="#FF5" fill-rule="nonzero"/><path d="M257.147 72.519h6.536v9.457h-6.536zM250.471 76.97l-14.463-.14M238.51 72.102h12.657M237.955 82.533l13.072.139"/></g><path d="M262.165 374.23s11.932-6.056 17.68-9.47c5.3-3.147 10.444-6.564 15.467-10.138a270.462 270.462 0 0016.421-12.65C318.03 336.723 330 325.507 330 325.507v-8.145s-11.473 10.841-17.4 16.05c-5.589 4.91-11.187 9.83-17.116 14.321-5.076 3.847-10.299 7.528-15.77 10.789-6.822 4.066-21.188 10.898-21.188 10.898l3.64 4.81zM272.132 385.881s6.233-3.064 9.272-4.743c5.119-2.828 10.168-5.792 15.078-8.969 5.51-3.564 10.906-7.319 16.117-11.308 5.996-4.588 17.401-14.499 17.401-14.499v-8s-11.218 10.294-17.139 15.07c-5.116 4.127-10.433 8.01-15.86 11.719a281.15 281.15 0 01-16.896 10.658c-3.748 2.188-11.463 6.175-11.463 6.175l3.49 3.897z" stroke="#000" stroke-width="2" fill="#FF5" fill-rule="nonzero" stroke-linecap="round" stroke-linejoin="round"/><g stroke="#55A" stroke-linecap="round" stroke-linejoin="round"><path d="M177.275 80.843c2.228-.843 4.193-1.102 6.342-1.305a38.154 38.154 0 018.184.121c2.978.364 6.055.822 8.766 2.036 1.233.552 3.256 2.317 3.256 2.317s-5.549-2.403-8.515-3.012c-2.288-.47-4.672-.54-7.013-.463-2.675.087-5.312.659-7.96 1.049-2.194.323-3.862.304-6.566 1.07l3.506-1.813zM173.785 91.241s2.003-2.248 3.21-3.13c1.451-1.06 3.05-1.984 4.762-2.533 1.433-.46 2.97-.545 4.476-.592 1.688-.051 3.42-.045 5.052.355 2.212.543 4.247 1.624 6.203 2.722 1.691.949 3.387 1.935 4.732 3.313.73.746 1.736 2.605 1.736 2.605s-3.416-1.068-5.125-1.6c-2.792-.87-5.491-2.057-8.377-2.603-1.593-.3-3.235-.353-4.86-.355-1.55-.001-3.094.17-4.633.327-.577.06-1.154.129-1.724.233-1.835.334-5.452 1.258-5.452 1.258h0z" stroke-width="2.003"/><path d="M200.193 94.566s-5.3 1.605-7.65 2.887c-1.275.696-2.814.814-4.264.892-2.182.117-4.458.017-6.522-.65-1.24-.402-2.265-1.23-3.328-1.953-1.401-.954-4.001-3.137-4.001-3.137s3.893-.929 5.858-1.302c1.584-.3 3.166-.71 4.778-.753 2.03-.055 4.067.233 6.06.621 3.62.705 10.624 3.084 10.624 3.084l-1.555.31z" stroke-width="2.003"/><path d="M181.373 94.855c0 1.764 2.29 3.194 5.116 3.194 2.825 0 5.116-1.43 5.116-3.194 0-1.765-2.29-3.195-5.116-3.195-2.826 0-5.116 1.43-5.116 3.195z" stroke-width="2.006"/><path d="M184.315 94.115c0 .735.83 1.331 1.854 1.331s1.855-.596 1.855-1.33c0-.736-.83-1.332-1.855-1.332-1.024 0-1.854.596-1.854 1.331zM141.574 85.412s.305.114 1.285-1.614c.892-1.572 2.251-1.665 3.555-2.113 2.047-.702 4.286-1.005 6.442-.809 1.781.162 3.612.652 5.117 1.619 1.493.96 2.838 2.434 3.57 3.951-1.476-.721-2.359-1.838-3.673-2.536-1.489-.791-3.043-1.592-4.71-1.84-2.427-.362-5.016-.225-7.338.565-1.602.545-4.248 2.777-4.248 2.777z" stroke-width="2.003" fill="#55A" fill-rule="nonzero"/><path d="M163.013 88.232c-.012 1.883-.275 4.549-.583 6.804-.3 2.198-.833 4.358-1.23 6.54-.358 1.974-.688 3.951-1.037 5.926-.33 1.873-1.006 3.717-.998 5.619.003.931-.049 2.002.511 2.746 1.026 1.362 3.012 1.606 4.573 2.291.816.358 1.926.318 2.501.948" stroke-width="2.003"/><path d="M173.77 110.612c1.196-.406 2.327.702 2.944 1.583.456.652.485 1.567.264 2.316-.318 1.078-1.089 2.176-2.16 2.692-1.225.59-2.837.527-4.142.11-.982-.315-1.485-1.382-2.395-1.847-1.15-.587-2.478-.823-3.75-1.128" stroke-width="2.003"/><path d="M179.916 127.46s-2.524-.666-3.79-.987c-1.182-.3-2.328-.88-3.553-.877-1.35.004-2.587.733-3.91.987-1.093.209-2.225.66-3.316.438-.78-.159-1.223-1.096-2.013-1.205-1.138-.157-2.273.43-3.317.876-.646.277-1.777 1.096-1.777 1.096s1.765-.827 2.725-.877c1.252-.065 2.423.653 3.672.767 1.572.144 3.167.048 4.737-.11 1.04-.103 2.047-.4 3.08-.547 1.021-.145 2.05-.4 3.08-.329 1.06.073 2.025.638 3.08.767.43.053 1.302 0 1.302 0z" stroke-width="2.003" fill="#55A" fill-rule="nonzero"/><path d="M173.046 133.294s-2.145 1.021-3.316 1.206a8.683 8.683 0 01-3.198-.11c-1.185-.263-3.317-1.424-3.317-1.424M161.564 90.817s-2.914-2.165-4.545-2.932c-1.424-.67-2.92-1.324-4.501-1.425-1.445-.092-2.877.385-4.265.767-1.103.304-2.207.644-3.198 1.206-1.168.662-3.153 2.506-3.153 2.506" stroke-width="2.003"/><path d="M142.535 94.053s2.914 2.467 4.626 3.288c1.217.584 2.555.98 3.904 1.114 2.018.201 4.137.19 6.067-.478 1.16-.402 2.135-1.29 3.13-2.06.707-.547 2.009-1.811 2.009-1.811s-2.415-1.308-3.665-1.84c-1.254-.535-2.51-1.151-3.836-1.354a15.279 15.279 0 00-5.825.222c-2.261.54-6.41 2.92-6.41 2.92h0z" stroke-width="2.003"/><path d="M157.552 94.695c-.034 1.977-2.19 3.543-4.814 3.497-2.625-.045-4.724-1.685-4.69-3.663.035-1.977 2.19-3.543 4.814-3.497 2.625.046 4.724 1.685 4.69 3.663z" stroke-width="2.009"/><path d="M154.835 93.826c-.014.823-.797 1.478-1.749 1.461-.95-.016-1.71-.697-1.696-1.521.014-.824.797-1.479 1.748-1.462.952.016 1.711.698 1.697 1.522z" stroke-width="2.021" fill="#55A" fill-rule="nonzero"/><path d="M179.206 98.203l7.241 7.011M160.254 99.627l-5.793 7.12" stroke-width="2.003"/></g><path d="M111.35 30.378l30.191 39.984c10.44-3.776 20.394-2.99 30.671-3.262 10.714-.284 21.455.516 32.106 1.705 10.558 1.18 21.837 2.944 31.415 5.373 10.946-16.155 24.69-27.645 35.636-43.8H111.35z" stroke="#55A" stroke-width="2" fill="#FF5" fill-rule="nonzero"/><path d="M156.078 49.079c-.728-.379-1.07-2.133-.6-3.072.136-.272.518-.466.833-.429.888.103 1.7.9 1.945 1.707.176.576-.486 1.138-.487 1.738-.002.595.097 1.252.473 1.726.736.93 1.936 1.722 3.156 1.772 2.028.083 4.588-.818 5.496-2.506.837-1.558-.043-3.666-1.078-5.12-.7-.984-1.888-1.884-3.16-1.998-1.151-.103-2.194.718-3.188 1.266.58-1.664 1.22-3.593.493-5.197-.698-1.537-2.461-2.663-4.177-3.188-.722-.22-1.524.028-2.28.108-1.358.652-2.754 1.654-3.254 2.988-.504 1.344.045 2.894.56 4.234.394 1.027 1.182 1.89 1.88 2.77-1-.316-2.157-.337-3.078.081-1.742.791-3.624 2.372-3.684 4.162-.058 1.724 1.607 3.42 3.275 4.203 1.542.724 3.698.805 5.192-.028 1.165-.65 1.77-2.088 2.008-3.356.116-.62-.325-1.861-.325-1.861zM130.961 52.445c-.053-.682.444-.755.299-1.573-.145-.812-1.495-1.177-2.319-.993-.292.065-.568 1.073-.606 1.364l-6.308-8.375c.284-.429.76-.843 1.099-1.203.643-.314 1.25-.82 1.967-.84 1.702-.051 3.675.443 4.821 1.667 1.197 1.277 1.29 3.29 1.348 5.037.693-.829 1.33-1.918 2.386-2.185 1.167-.295 2.53.169 3.49.872 1.417 1.038 2.933 2.753 2.726 4.482-.225 1.873-2.202 3.423-4.013 4.074-1.348.485-2.926.051-4.271-.434M197.748 55.953c-2.128-.04-4.182-1.301-5.787-2.783-.855-.789-1.037-2.22-1.85-3.068-.37-.387-.908-.237-1.323-.867-.196 3.112.727 3.583 1.646 5.07 1.207 1.953 2.978 3.537 4.865 4.704 2.03 1.256 4.344 2.141 6.694 2.32 2.767.212 5.634-.426 8.265-1.497 1.786-.728 3.526-1.806 4.903-3.266.766-.812 1.508-2.074 1.749-2.929-1.262 1.233-3.255 2.59-5.128 3.232-1.708.585-3.626 1.012-5.317.476-1.642-.52-2.734-1.704-4.054-3.382-1.786.72-3.013 2.02-4.663 1.99z" fill="#000" fill-rule="nonzero"/><path d="M176.712 54.762c2.167.282 4.419-.726 6.328-1.879 1.005-.607 1.629-1.764 2.521-2.545.423-.37.536-1.117 1.335-1.009-.306 3.107-1.314 3.548-2.49 4.906-1.546 1.785-3.598 3.047-5.703 3.917-2.264.936-4.758 1.462-7.173 1.286-2.844-.208-5.652-1.27-8.15-2.726-1.696-.988-3.383-2.224-4.449-3.966-.572-.935-.79-2.359-.896-3.24 1.081 1.409 2.592 3.126 4.279 4.049 1.621.887 3.518 1.546 5.321 1.271 1.751-.267 3.053-1.272 4.665-2.732 1.697.98 2.732 2.45 4.412 2.668zM227.636 61.111c-1.945-.059-3.856-1.419-5.461-2.652-.762-.585-1.172-1.536-1.885-2.18-.41-.371-.64-.937-1.358-.954.02 2.896 1.025 2.933 1.922 4.175 1.267 1.754 2.862 3.363 4.742 4.432 1.742.99 3.778 1.486 5.772 1.674 2.646.25 5.443.166 7.936-.752 1.63-.6 2.991-1.812 4.266-2.99 1.082-1 2.648-2.615 2.812-3.408-1.504.516-2.469 1.83-5.58 3.52-1.416.77-3.477 1.015-5.12.523-1.616-.483-2.605-1.615-3.917-3.192-1.585.651-2.621 1.85-4.13 1.804zM141.688 58.291c-1.793.716-4.304.415-6.222-.503-1.147-.55-1.852-1.804-2.697-2.769-.55-.63-1.878-3.225-1.542-1.967.51 1.916 1.661 4.694 3.537 6.315 1.704 1.472 4.262 2.187 6.421 2.59 2.324.433 4.698.425 6.746-.24 2.412-.785 4.48-2.383 6.134-4.294 1.122-1.298 2.103-2.955 2.443-4.724.187-.977-.038-2.154-.268-3.022-.585 2.141-1.032 3.784-2.356 5.057-1.098 1.055-2.67 1.704-4.231 1.752-1.754.054-3.136-.595-5.08-1.665-1.127 1.29-1.495 2.915-2.885 3.47z" fill="#000" fill-rule="nonzero"/><path d="M240.013 66.796s-4.856 1.259-7.34 1.29c-2.807.035-5.76-.124-8.33-1.249-1.816-.795-3.253-2.304-4.637-3.726-.937-.963-2.442-3.213-2.442-3.213s-5.262 2.782-8.132 3.355c-2.842.566-5.818.424-8.678.014-2.75-.394-5.571-.99-7.986-2.354-1.941-1.097-4.932-4.523-4.932-4.523s-4.003 4.14-6.6 5.124c-2.526.956-5.377.672-8.06.5-2.449-.156-4.902-.6-7.222-1.389-2.31-.784-6.542-3.281-6.542-3.281s-2.536 3.34-4.218 4.53c-1.565 1.108-3.428 1.763-5.266 2.292-1.85.531-3.789 1.043-5.701.856-2.63-.257-7.463-2.675-7.463-2.675l5.674 7.017s11.164-3.025 20.084-3.177c5.782-.099 14.212-.126 21.312.097 5.328.168 10.657.461 15.964.932 4.578.407 9.496 1.105 14.226 1.791 3.866.56 7.732 1.142 11.564 1.898 3.354.662 9.992 2.308 9.992 2.308l4.733-6.417zM246.256 58.574c-.593-.48-.197-1.124 0-1.932.592-.703.978-.938 1.788-1.002.288.083.461.542.48.835l6.774-7.702c-.256-.444-.553-1.098-.868-1.477-.622-.351-1.196-.891-1.91-.955-1.696-.15-3.698.226-4.922 1.38-1.278 1.202-1.5 3.206-1.67 4.945-.64-.868-1.204-1.991-2.243-2.32-1.146-.364-2.537.018-3.54.663-1.482.952-3.107 2.574-3.011 4.31.103 1.883 1.978 3.545 3.744 4.302 1.315.563 2.918.224 4.293-.181M219.034 54c.728-.38 1.07-2.133.6-3.073-.137-.272-.518-.465-.833-.429-.889.104-1.7.9-1.945 1.707-.176.576.418 1.142.487 1.739.049.418-.055 1.261-.055 1.261-1.165.91-2.153 2.145-3.574 2.236-2.025.13-4.589-.818-5.496-2.506-.837-1.557.043-3.666 1.078-5.12.7-.984 1.888-1.883 3.16-1.997 1.151-.104 2.194.718 3.188 1.265-.58-1.663-1.22-3.592-.493-5.196.697-1.537 2.461-2.664 4.177-3.188.722-.221 1.524.027 2.28.107 1.358.652 2.754 1.655 3.254 2.988.504 1.344-.046 2.894-.56 4.235-.395 1.026-1.182 1.89-1.88 2.77.999-.316 2.157-.337 3.077.08 1.743.792 3.625 2.373 3.685 4.162.057 1.724-1.607 3.42-3.275 4.204-1.542.723-3.7.808-5.192-.029-1.253-.702-1.385-2.295-2.147-3.621l.464-1.596zM186.98 49.916c-.6-.544-.46-2.323.248-3.116.204-.23.625-.323.92-.21.83.317 1.37 1.287 1.42 2.126.032.529-.564.922-.73 1.428-.143.44-.215 1.365-.215 1.365.881 1.165 1.294 2.588 2.574 3.037 1.906.669 4.655.334 5.986-1.075 1.228-1.3.944-3.554.335-5.213-.413-1.123-1.319-2.283-2.517-2.705-1.085-.382-2.314.157-3.422.442 1.008-1.465 2.146-3.173 1.874-4.901-.261-1.657-1.663-3.178-3.18-4.105-.639-.39-1.48-.347-2.233-.455-1.488.297-3.106.925-3.948 2.09-.849 1.176-.734 2.81-.597 4.231.105 1.089.634 2.116 1.072 3.137-.88-.55-1.994-.853-2.996-.675-1.897.337-4.141 1.404-4.68 3.12-.52 1.651.634 3.699 2.035 4.864 1.296 1.078 3.359 1.688 5.026 1.245 1.4-.372 1.955-1.88 3.048-2.974l-.02-1.656z" fill="#000" fill-rule="nonzero"/><g stroke="#55A" stroke-linecap="round" stroke-linejoin="round" stroke-width="2"><path d="M208.19 69.864c6.222 16.265 12.518 33.893 18.484 49.202 3.344 8.583 2.97 21.222-3.409 28.236-2.696 2.964-8.21 4.454-11.743 2.565-3.873-2.072-6.83-8.368-4.808-12.268 1.767-3.408 7.907-4.744 11.184-2.745 2.146 1.31 2.069 5.12 1.752 7.334"/><path d="M203.3 69.551c3.777 9.872 10.02 24.569 13.76 37.274 2.676 9.084 8.01 18.44 6.174 27.73-.778 3.94-3.558 8.876-6.892 9.882-2.218.64-3.536-1.312-3.922-3.228"/><path d="M213.07 70.068c3.334 10.784 7.858 20.414 11.501 30.726 3.587 10.151 9.438 19.908 10.192 30.648.345 4.913.625 10.864-2.658 14.535-1.84 2.057-5.04 3.773-7.928 2.387"/><path d="M217.81 71.304c3.335 10.395 8.405 21.63 12.534 32.474 3.612 9.486 9.832 18.385 10.707 28.505.372 4.297.486 9.525-2.4 12.713-1.852 2.047-5.04 3.637-7.928 2.301"/><path d="M223.23 71.944c3.335 10.325 8.404 21.485 12.533 32.256 3.612 9.42 9.833 18.26 10.708 28.312.372 4.268.485 9.46-2.4 12.627-1.853 2.033-5.04 3.612-7.929 2.286"/><path d="M228.645 73.491c3.335 10.08 8.405 20.975 12.534 31.49 3.612 9.197 9.832 17.826 10.708 27.64.371 4.166.485 9.235-2.4 12.326-1.853 1.985-5.04 3.526-7.929 2.232"/><path d="M234.082 74.326c3.335 9.975 8.585 20.876 12.77 31.358 3.632 9.092 9.833 17.64 10.709 27.351.371 4.123.485 9.14-2.4 12.198-1.853 1.964-5.04 3.49-7.929 2.208"/></g><path d="M197.247 149.138c2.75-.663 3.77 3.788 2.582 5.386-1.305 1.757-5.143.72-6.488-1.007-1.81-2.324-1.454-6.835.823-8.8 1.754-1.513 5.004-.962 7.064.139 1.966 1.05 3.408 3.292 3.688 5.441.387 2.966-.475 6.757-3.003 8.488-4.965 3.4-13.16 3.531-18.272-.115-4.366-3.113-6.354-5.238-8.525-8.657-1.652-2.601-2.759-7.626-3.203-8.672l-2.488.083c-.782 5.667-1.059 6.703-3.293 8.977-1.917 1.95-4.402 2.638-7.653 2.96" stroke="#55A" stroke-width="2" stroke-linecap="round" stroke-linejoin="round"/><path d="M177.437 141.588c1.228 3.044 1.808 4.89 3.366 6.933 2.368 3.106 5.02 6.54 8.811 7.724 2.957.923 6.605.538 9.276-.984" stroke="#55A" stroke-width="2" stroke-linecap="round" stroke-linejoin="round"/><path d="M181.555 140.232c1.227 2.733 2.564 5.96 4.905 8.061 1.469 1.319 3.382 3.231 5.361 2.515M185.441 138.462c.969 2.313 1.53 3.283 2.73 4.603 1.214 1.334 2.985 2.75 4.372 3.188M189.641 136.249c1.061 2.02 1.914 3.119 3.188 4.41 1.07 1.085 3.09 2.35 3.67 2.73M193.624 133.298c2.013 3.724 4.474 7.202 7.433 9.718 1.565 1.33 4.096 2.002 5.253 2.667M197.722 130.638c1.277 2.087 2.078 3.583 3.481 5.081 1.292 1.38 4.071 3.112 4.457 3.504M201.235 126.545c.949 2.125 2.13 4.454 3.73 6.297.825.951 2.284 1.839 2.95 2.365M218.788 135.103c.137-6.655-1.086-9.904-2.772-14.542-1.19-3.27-4.345-7.876-5.088-9.116M215.119 133.19c-1.15-3.863-1.797-6.53-3.122-9.634-1.054-2.47-3.468-6.371-3.816-7.096M210.606 133.568c-.787-3.29-1.824-6.248-3.091-8.86-.702-1.445-1.894-2.846-2.446-3.66M127.301 127.133c.857 1.757 4.292.356 5.144-1.184 1.05-1.898-.346-4.916-2.131-6.147-1.274-.878-3.235-.512-4.638.138-1.495.693-2.873 2.084-3.306 3.674-.711 2.611-.536 6.32 1.619 7.957 3.097 2.354 8.678 2.312 11.643-.822 2.95-3.118 4.892-6.493 6.3-10.248.777-2.073.805-5.505 1.098-6.55" stroke="#55A" stroke-width="2" stroke-linecap="round" stroke-linejoin="round"/><path d="M141.781 100.833c-.973 6.11-1.303 11.292-3.537 16.43-1.483 3.41-4.098 8.636-6.375 9.156M123.412 130.928c.172 2.788 1.883 5.15 4.093 6.367 2.678 1.473 6.53 1.603 9.168.061 4.364-2.548 6.352-7.872 7.36-13.253" stroke="#55A" stroke-width="2" stroke-linecap="round" stroke-linejoin="round"/><path d="M124.835 135.457c.172 2.789 1.562 5.836 3.916 7.25 2.62 1.575 6.477 1.51 9.169.063 4.148-2.23 6.705-6.458 7.714-11.84" stroke="#55A" stroke-width="2" stroke-linecap="round" stroke-linejoin="round"/><path d="M128.017 142.528c1.056 3.32 2.125 4.174 4.093 5.13 2.75 1.334 6.517 1.582 9.168.061 4.365-2.502 6.529-7.695 7.538-13.077" stroke="#55A" stroke-width="2" stroke-linecap="round" stroke-linejoin="round"/><path d="M131.243 147.199c1.298 4.55 2.854 4.553 5.21 5.383 3.139 1.107 7.18.674 9.91-1.233 3.978-2.78 6.394-7.479 6.655-12.949" stroke="#55A" stroke-width="2" stroke-linecap="round" stroke-linejoin="round"/><path d="M133.98 151.673c1.776 3.242 3.338 4.829 5.954 5.536 3.164.854 6.963-.202 9.592-2.159 4.17-3.105 7.364-7.943 7.644-13.597M149.888 156.086c3.274.141 6.075-.524 8.18-2.437 3.177-2.887 5.095-5.473 4.838-11.935M141.985 99.71s-.402 2.349-.936 3.394c-.681 1.335-1.612 2.61-2.809 3.511-1.215.915-2.694 1.834-4.213 1.756-1.552-.08-3.214-.945-4.097-2.224-.827-1.199-.86-2.9-.585-4.33.255-1.321.84-2.813 1.99-3.512.9-.547 2.186-.52 3.16-.117.688.286 1.215.96 1.521 1.639.323.715.234 2.34.234 2.34s1.31-2.12 1.756-3.276c.58-1.501.878-3.1 1.17-4.682.236-1.275.247-2.584.469-3.862.211-1.222.819-3.628.819-3.628" stroke="#55A" stroke-width="2" stroke-linecap="round" stroke-linejoin="round"/><path d="M141.245 70.136c-.531 8.894-.46 17.823.05 26.712.416 7.25 1.467 14.45 2.452 21.644.546 3.989.727 8.044 1.917 11.925" stroke="#55A" stroke-width="2" stroke-linecap="round" stroke-linejoin="round"/><g fill="#FFF" fill-rule="nonzero" stroke="#55A" stroke-linecap="round" stroke-linejoin="round" stroke-width="2.01"><path d="M284.886 96.747c-1.724-.483-3.346-1.452-4.819-2.58-1.078-.826-2.282-1.686-2.866-3.01-.673-1.525-.364-3.395-.482-5.1-.184-2.65-.971-5.4-.352-7.966.213-.884 1.113-1.41 1.335-2.292.462-1.843-.577-3.889-.147-5.742.192-.83.542-1.731 1.171-2.202.458-.342 1.625-.25 1.625-.25s-.6-2.774-.016-3.888c.46-.879 1.488-1.303 2.374-1.442 1.203-.188 2.444.332 3.55.893.958.485 1.837 1.214 2.559 2.08.335.401.787 1.401.787 1.401s-1.195-2.851-.74-4.178c.295-.863 1.174-1.466 1.972-1.633.851-.177 1.693.427 2.499.783 1.147.506 2.435.897 3.29 1.906.896 1.06 1.634 4.008 1.634 4.008s-.79-2.856-.255-4.077c.35-.797 1.201-1.29 1.969-1.448 1.059-.218 2.21.195 3.147.793.699.446 1.283 1.17 1.668 1.972.309.642.45 2.137.45 2.137s.792-2.772 1.833-2.932c1.162-.179 2.187 1.35 2.712 2.545 1.079 2.455-.168 5.559.348 8.245.295 1.537 1.245 2.84 1.547 4.376.462 2.353.88 4.884.365 7.227-.39 1.772-1.374 3.388-2.51 4.678-1.336 1.519-3.13 2.434-4.837 3.344-1.745.93-3.577 1.708-5.465 2.13-2.58.577-5.242.485-7.868.516-1.216.014-2.43-.098-3.644-.154-.945-.043-1.917.117-2.834-.14h0z"/><path d="M280.99 68.17c2.025 1.647 3.7 4.223 3.598 7.192.31 2.015-.735 4.023-.322 5.928.72 1.324 1.46 2.536 1.897 3.955.398 1.288.707 2.633.631 4.036"/><path d="M289.845 66.838c1.62 3.333 3.167 8.144 3.433 11.992-.008 1.68.038 3.982-1.56 4.774-1.264.695-2.889.095-3.467-1.39-1.22-2.504-3.298-7.196-4.09-9.917"/><path d="M287.354 80.034c.044-1.656 1.317-4.47 2.984-4.675.579-.223 1.196-.23 1.799-.244M298.102 67.347c.628 4.232 1.595 9.177.938 13.47-.464 1.472-.575 4.2-2.214 4.56-1.408.31-2.61-1.418-3.115-2.816-.13-.549-.226-3.524-.253-4.09"/><path d="M293.621 78.012c.737-1.65 2.02-1.875 3.286-2.119.575-.11 1.456.28 1.693.35M277.84 77.19c1.23-.408 2.874-1.049 2.902-2.803.135-2.074-.494-4.052-1.298-5.872M299.292 77.675c-.385 2.497.932 6.279 3.246 6.009 2.637-.308 2.295-4.905 2.613-7.58.105-2.584-.366-5.168.011-7.746.05-.575.105-1.149.163-1.723M305.21 76.35c.593 2.051 1.798 3.02 3.2 2.698 1.344-.308 1.69-2.633 1.874-3.72"/><path d="M299.808 76.725c.79-1.124 1.683-1.61 2.7-1.639.801-.023 1.807.94 2.17 1.166M305.61 73.86c.695-1.178 1.548-1.17 2.456-1.33.625-.11 1.505.063 1.855.292"/></g><path d="M293.631 96.9c-2.587.077-5.174-.16-7.758-.33-1.874-.123-3.967-1.602-5.613-.497-1.311.88-2.424 3.033-2.147 4.838.376 2.447 2.775 3.877 4.656 4.798 2.79 1.364 5.99.622 8.992.66 3.414.042 6.972.74 10.236-.496 2.197-.832 4.996-1.867 5.85-4.493.644-1.987.147-5.036-1.304-6.215-1.384-1.124-3.271.684-4.918.922-2.656.384-5.32.735-7.994.814h0z" stroke="#000" stroke-width="2" fill="#FF5" fill-rule="nonzero" stroke-linecap="round" stroke-linejoin="round"/><g fill-rule="nonzero" stroke="#000" stroke-linecap="round" stroke-linejoin="round"><path d="M292.35 106.143c-3.115.084-6.229-.179-9.34-.366-2.254-.136-4.773-1.772-6.755-.549-1.578.974-2.917 3.354-2.583 5.35.452 2.707 3.339 4.29 5.603 5.307 3.358 1.51 7.209.689 10.823.73 4.11.047 8.392.82 12.32-.548 2.644-.92 6.014-2.065 7.04-4.97.777-2.197.179-5.57-1.568-6.873-1.666-1.243-3.937.756-5.92 1.02-3.196.423-6.404.812-9.62.9h0z" stroke-width="2" fill="#000"/><path d="M294.836 111.439c0 2.7-1.215 4.888-2.712 4.888-1.498 0-2.712-2.188-2.712-4.888 0-2.7 1.214-4.889 2.712-4.889 1.497 0 2.712 2.19 2.712 4.889z" stroke-width="2.004" fill="#FFF555"/><path d="M287.504 111.456c-.581 2.61-2.253 4.46-3.735 4.13-1.48-.33-2.21-2.714-1.629-5.325.582-2.61 2.254-4.459 3.735-4.129 1.481.33 2.21 2.714 1.63 5.324zM296.048 111.953c.581 2.611 2.253 4.46 3.735 4.13 1.48-.33 2.21-2.714 1.629-5.324-.582-2.61-2.254-4.46-3.735-4.13-1.481.33-2.21 2.714-1.63 5.324z" stroke-width="2.006" fill="#FFF555"/><path d="M280.72 110.622c-1.213 1.769-3.07 2.603-4.146 1.864-1.076-.738-.964-2.77.25-4.54 1.215-1.767 3.071-2.602 4.147-1.863 1.076.739.964 2.771-.25 4.54zM303.179 110.208c1.214 1.768 3.07 2.603 4.147 1.864 1.076-.739.963-2.771-.25-4.54-1.215-1.768-3.072-2.602-4.148-1.863-1.076.738-.963 2.77.25 4.54z" stroke-width="2.041" fill="#FFF555"/></g><path d="M275.643 114.659s-3.525 11.18-6.119 16.41c-3.005 6.06-10.847 17.15-10.847 17.15s1.998-.313 2.908-.727c7.156-3.258 19.343-13.502 19.343-13.502l10.153 12.934 10.291-11.822s10.915 9.897 17.662 12.378c1.399.514 4.45.417 4.45.417s-8.087-11.593-11.125-17.94c-2.355-4.92-5.424-15.438-5.424-15.438s-3.792 1.164-7.65 1.947c-4.544.924-9.246.922-13.906.418-5.263-.57-9.736-2.225-9.736-2.225h0z" stroke="#000" stroke-width="2" fill="#FFF555" fill-rule="nonzero" stroke-linecap="round" stroke-linejoin="round"/><path d="M260.345 147.897s9.262-9.875 13.073-15.437c3.342-4.877 8.484-15.576 8.484-15.576s1.517 7.921 3.198 11.543c1.49 3.207 5.98 8.761 5.98 8.761s5.119-6.121 6.676-9.735c1.39-3.223 2.225-10.291 2.225-10.291s5.157 11.276 8.762 16.271c3.953 5.478 13.907 14.742 13.907 14.742" stroke="#000" stroke-width="2" stroke-linecap="round" stroke-linejoin="round"/><path d="M287.187 117.3c.418 4.295 2.331 9.283 4.172 10.57 2.132-3.013 3.43-6.86 3.894-10.708l-8.066.139z" stroke="#000" stroke-width="2" fill="#000001" fill-rule="nonzero" stroke-linecap="round" stroke-linejoin="round"/><path d="M260.865 162.841l-3.701 4.492c6.48 6.974 11.607 14.942 14.675 23.718 4.242 12.136 6.217 25.55 4.556 38.298-1.517 11.64-5.94 23.343-12.98 32.735-7.242 9.66-18.238 16.014-28.572 22.253-3.822 2.307-9.622 3.791-12.204 5.517l.925 4.988c8.327-3.896 18.854-7.821 26.865-13.958 8.858-6.785 17.365-14.825 22.638-24.659 5.926-11.052 8.585-23.994 9.006-36.528.322-9.58-1.748-19.3-4.996-28.319-3.706-10.293-7-18.09-16.212-28.537z" stroke="#000" stroke-width="2" fill="#FF5" fill-rule="nonzero" stroke-linecap="round" stroke-linejoin="round"/><path d="M275.847 186.287c2.898 1.972 5.916 1.65 8.33 2.053L330 234.765v-6.881l-39.787-39.786c5.335-.395 10.357-1.624 14.728-4.587 5.231 3.086 9.466 4.438 14.487 5.795 3.44.929 10.572 1.569 10.572 1.569v-5.433s-11.354-1.887-16.608-4.104c-3.23-1.363-8.934-5.553-8.934-5.553s-7.634 4.272-11.83 5.311c-3.68.912-7.67 1.638-11.348.725-4.032-1.001-10.624-6.52-10.624-6.52l5.191 10.986z" stroke="#000" stroke-width="2" fill="#FF5" fill-rule="nonzero" stroke-linecap="round" stroke-linejoin="round"/><path d="M257.057 167.563s-9.508 10.882-13.442 16.914c-3.776 5.789-6.787 12.062-9.658 18.35-2.942 6.444-5.779 12.986-7.726 19.798-2.408 8.423-3.815 17.132-4.829 25.834-.736 6.322-.94 12.709-.9 19.074.025 3.9.37 7.794.698 11.681.298 3.515 1.155 10.518 1.155 10.518" stroke="#000" stroke-width="2" stroke-linecap="round" stroke-linejoin="round"/><path d="M244.91 182.862l-2.737 4.383c4.15 4.46 7.554 9.602 9.507 15.27 2.616 7.594 3.603 15.993 2.569 23.957-.924 7.109-3.605 14.19-7.68 20.087-4.254 6.155-10.774 10.446-16.779 14.908-2.785 2.07-7.272 4.296-8.865 5.457l-.156 5.032c5.159-2.655 13.155-7.105 18.73-11.992 5.377-4.713 10.557-10.04 13.834-16.396 3.651-7.08 5.648-15.188 5.944-23.149.236-6.336-1.157-12.776-3.35-18.725-2.516-6.824-5.109-12.144-11.017-18.832h0z" stroke="#000" stroke-width="2" fill="#FF5" fill-rule="nonzero" stroke-linecap="round" stroke-linejoin="round"/><path d="M232.857 205.145c2.005 2.534 3.231 5.772 3.932 8.956.845 3.838.905 7.916.23 11.787-.591 3.393-1.845 6.74-3.684 9.651-2.038 3.226-4.917 5.907-7.904 8.28-1.13.898-2.894 1.594-3.726 2.205l-.473 5.13c2.67-1.37 6.818-3.501 9.606-6.063a34.009 34.009 0 007.27-9.612c1.9-3.756 3.176-7.916 3.605-12.103.366-3.578.062-7.291-.923-10.75-1.207-4.236-3.133-7.989-5.979-11.783l-1.954 4.302z" stroke="#000" stroke-width="2" fill="#FF5" fill-rule="nonzero" stroke-linecap="round" stroke-linejoin="round"/><path d="M155.676 209.836l59.805-58.436" stroke="#000" stroke-width="2" stroke-linecap="round" stroke-linejoin="round"/><path stroke="#000" stroke-width="2" fill="#000" fill-rule="nonzero" stroke-linecap="round" stroke-linejoin="round" d="M161.611 234.488l48.849-48.392-4.566 15.979-43.383 42.913z"/><path d="M297.656 202.531l.457 82.632M304.048 209.836l.456 74.414" stroke="#000" stroke-width="2" stroke-linecap="round" stroke-linejoin="round"/><path fill="#55A" fill-rule="nonzero" d="M309.939 276.032h10.957v3.652h-10.957zM309.939 268.051h10.957v3.652h-10.957zM309.939 260.069h10.957v3.652h-10.957zM309.939 252.088h10.957v3.652h-10.957zM309.939 244.106h10.957v3.652h-10.957zM309.939 236.125h10.957v3.652h-10.957zM309.939 228.143h10.957v3.652h-10.957z"/><g stroke="#000" stroke-linecap="round" stroke-linejoin="round" stroke-width="2"><path d="M255.884 324.424c-1.58 2.476-4.321 4.232-7.076 5.25-4.078 1.508-8.666.761-13.011.913-3.574.126-7.19.52-10.729 0-1.571-.23-3.456-.232-4.565-1.37-.606-.62-.865-1.662-.685-2.51.226-1.058.974-2.467 2.055-2.511 4.94-.199 14.837.228 14.837.228s-11.59-.664-17.348-1.37c-1.838-.225-3.948.13-5.479-.912-.733-.5-1.429-1.398-1.37-2.283.066-.972 1.003-1.762 1.827-2.283 1.123-.71 2.555-1.001 3.88-.913 5.61.374 16.892.685 16.892.685s-12.694-.434-19.174-.456c-1.477-.005-3.079-.139-4.337-.913-.83-.511-1.784-1.31-1.826-2.283-.036-.822.73-1.536 1.37-2.054.954-.775 2.194-1.39 3.423-1.37 7.315.123 19.673.291 19.631.228 0 0-12.024-.211-18.033-.685-1.032-.08-1.99-.93-2.51-1.826-.347-.595-.486-1.415-.229-2.054.444-1.103 1.366-2.313 2.74-2.283 3.61.079 20.09.493 20.086.229 0 0-10.32.387-15.293-.487-.905-.159-1.854-1.204-1.761-2.118.105-1.04 1.46-1.614 2.445-1.96 1.795-.631 3.814.187 5.707 0 3.86-.383 7.538-2.094 11.413-2.283 3.055-.15 6.233-.066 9.13.913 2.202.743 4.195 2.114 5.936 3.652 1.095.968 2.19 2.07 2.739 3.424.891 2.196.57 4.709.685 7.076.091 1.9.193 3.814 0 5.707-.23 2.241-.157 4.72-1.37 6.62h0z"/><path d="M226.748 299.966s.455.709.52 1.69c.067 1.006-.39 2.015-.39 2.015M220.766 304.613s.454.92.52 2.194c.067 1.305-.39 2.615-.39 2.615M216.866 310.852s.847 1.07.97 2.55c.125 1.517-.727 3.039-.727 3.039M219.141 317.35s.903 1.008 1.033 2.402c.134 1.43-.775 2.863-.775 2.863M227.265 324.825s.566.932.648 2.223c.084 1.323-.486 2.65-.486 2.65"/></g><path d="M281.534 285.084l47.573.26M160.254 228.37l3.716-3.716-7.587-8.98 7.897-6.968 3.716 4.335-3.561 3.407 3.87 3.56 7.897-6.657-7.742-8.67 8.516-7.588 3.562 3.561-2.942 4.026 3.096 3.252 8.052-7.897-7.742-7.742 8.516-8.36 4.026 4.18-3.562 4.335 3.716 3.252 7.897-7.432-8.051-8.516 8.67-7.897 3.562 3.871-3.716 3.716 4.335 4.49 8.67-9.445-8.206-7.896 7.742-7.432 3.407 3.87-3.407 3.252 2.323 2.477" stroke="#000" stroke-width="2" stroke-linecap="round" stroke-linejoin="round"/><g stroke="#000" stroke-linecap="round" stroke-linejoin="round" stroke-width="2"><path d="M263.597 301.071s4.76-2.897 6.89-4.68c1.996-1.67 3.696-3.67 5.458-5.588 1.704-1.855 4.94-5.72 4.94-5.72s1.8 3.806 2.209 5.85c.502 2.508.784 5.165.26 7.668-.473 2.258-2.99 6.24-2.99 6.24s3.402 1.362 4.94 2.339c1.896 1.205 4.24 2.257 5.199 4.29.332.705.306 1.622 0 2.339-.565 1.325-1.999 2.085-3.12 2.99-1.505 1.215-3.108 2.326-4.809 3.249-1.075.583-3.38 1.43-3.38 1.43s1.523 4.09 1.69 6.239c.217 2.78-.325 5.59-.91 8.318-.378 1.766-1.667 5.153-1.667 5.153s-1.094-4.789-2.362-6.842c-1.368-2.217-3.44-3.944-5.459-5.59-2.115-1.723-6.889-4.419-6.889-4.419s.481-4.239.52-6.369c.053-2.905-.302-5.804-.39-8.708-.083-2.729-.13-8.189-.13-8.189h0z" fill="#FF5" fill-rule="nonzero"/><path d="M265.05 305.1s5.294.32 7.751 1.215c3.503 1.275 9.575 5.775 9.575 5.775s-4.991 5.16-8.207 6.536c-3.103 1.326-10.03 1.367-10.03 1.367"/><path d="M264.595 309.963c3.242-.254 6.332 1.013 9.726 2.583-2.989 2.533-6.586 3.09-10.334 3.344M281.16 285.494l-2.28 8.511-3.04 6.991-2.735 5.015M270.978 319.69s2.992 3.586 4.103 5.623a27.575 27.575 0 012.584 6.687c.672 2.773.912 8.51.912 8.51"/></g><path d="M256.188 302.76s.453-1.505 1.04-1.949c.814-.615 2.003-.907 2.99-.65 1.455.38 2.697 1.65 3.38 2.99 1.14 2.243.616 5.002.715 7.516a70.968 70.968 0 01-.13 8.211c-.133 1.744.253 3.743-.716 5.2-.613.921-1.76 1.552-2.86 1.689-1.523.19-4.419-1.3-4.419-1.3.947-6.88 2.187-13.65 0-21.706z" stroke="#000" stroke-width="2" fill="#FF5" fill-rule="nonzero" stroke-linecap="round" stroke-linejoin="round"/><path d="M263.971 362.631a2.5 2.5 0 11-5 0 2.5 2.5 0 015 0zM272.414 357.684a2.5 2.5 0 11-5 0 2.5 2.5 0 015 0zM280.317 353.277a2.5 2.5 0 11-5 0 2.5 2.5 0 015 0zM287.916 348.717a2.5 2.5 0 11-5 0 2.5 2.5 0 015 0zM295.363 343.398a2.5 2.5 0 11-5 0 2.5 2.5 0 015 0zM303.265 337.623a2.5 2.5 0 11-5 0 2.5 2.5 0 015 0zM310.56 331.24a2.5 2.5 0 11-5 0 2.5 2.5 0 015 0zM318.007 325.16a2.5 2.5 0 11-5 0 2.5 2.5 0 015 0zM324.998 318.018a2.5 2.5 0 11-5 0 2.5 2.5 0 015 0zM326.974 336.863a2.5 2.5 0 11-5 0 2.5 2.5 0 015 0zM319.527 343.246a2.5 2.5 0 11-5 0 2.5 2.5 0 015 0zM312.688 349.173a2.5 2.5 0 11-5 0 2.5 2.5 0 015 0zM305.241 355.1a2.5 2.5 0 11-5 0 2.5 2.5 0 015 0zM297.186 360.876a2.5 2.5 0 11-5 0 2.5 2.5 0 015 0zM289.283 365.587a2.5 2.5 0 11-5 0 2.5 2.5 0 015 0zM281.229 370.45a2.5 2.5 0 11-5 0 2.5 2.5 0 015 0zM273.022 375.77a2.5 2.5 0 11-5 0 2.5 2.5 0 015 0zM250.406 177.422s1.37 1.591 2.282 2.055c2.981 1.512 7.844-.645 9.816 2.054 3.068 4.2-3.522 10.69-1.598 15.522 1.596 4.01 8.89 4.23 9.815 8.446 1.023 4.656-5.922 8.244-5.935 13.01-.012 5.007 7.35 8.833 6.164 13.697-.99 4.052-7.854 4.08-9.816 7.76-2.764 5.186 2.35 13.026-1.37 17.577-2.453 3.002-8.337.564-11.184 3.196-3.519 3.252-1.041 10.802-5.022 13.467-3.733 2.5-9.452-2.469-13.468-.456-3.812 1.91-7.304 10.5-7.304 10.5l-.457-4.565s2.96-7.78 6.392-9.36c3.824-1.76 8.989 3.608 12.554 1.37 4.24-2.661 1.426-10.67 5.022-14.152 2.697-2.612 8.49-.41 10.728-3.424 2.904-3.91-1.807-10.185.229-14.609 1.825-3.966 8.904-4.404 9.815-8.674.96-4.496-5.792-7.958-5.707-12.555.08-4.252 6.558-7.245 5.707-11.413-.799-3.913-7.625-4.06-9.13-7.76-1.844-4.531 4.161-10.594 1.37-14.61-1.845-2.651-6.615-.809-9.36-2.51-.733-.455-1.712-1.94-1.712-1.94l2.169-2.626z" fill="#FF5" fill-rule="nonzero"/><path fill="#000" fill-rule="nonzero" d="M235.158 200.51l6.665-12.624 7.22 9.03 3.368 10.121 2.016 9.954-.155 10.394-3.412 12.589-5.853 8.223-7.33 6.749-7.445 6.254-9.157 5.416.032-15.234 7.13-3.554 6.52-6.082 5.09-7.774 2.086-9.076.396-7.026-2.016-7.905-3.102-6.588z"/><path fill="#FF5" fill-rule="nonzero" d="M240.292 203.812l1.13-6.926 6.785 3.675-.99 7.21zM244.058 220.109l4.588-5.31 3.858 6.682-4.615 5.625zM240.261 235.628l6.908-1.238-1.209 7.621-7.127 1.465zM232.458 257.116l-7.017-.08 2.616-7.259 7.276-.102z"/><path fill="#000" fill-rule="nonzero" d="M222.2 245.651l2.12-15.124 3.392-12.439 5.371-12.438 3.958 9.753.141 9.47-3.11 9.753-4.664 5.795z"/><path d="M281.683 331.194s6.02-1.95 8.989-3.046c3.848-1.421 11.425-4.57 11.425-4.57" stroke="#000" stroke-width="2" stroke-linecap="round" stroke-linejoin="round"/><g><path fill="#FF5" fill-rule="nonzero" d="M78.621 210.003l-17.671 5.332-13.407 10.359-9.445 9.14-7.77 7.77-.304 12.492 48.445.305-2.285-6.55.457-6.247 2.437-6.55-5.332-3.048-4.418-3.656v-2.894l3.961-3.504 7.465-3.809-1.98-5.18z"/><path d="M69.633 255.096s1.665-2.579 2.742-3.656c1.078-1.077 3.657-2.742 3.657-2.742M59.426 255.096s5.744-5.498 8.988-7.77c2.477-1.733 7.922-4.417 7.922-4.417M78.317 235.9s-7.267 2.723-10.664 4.571a63.552 63.552 0 00-9.75 6.551c-2.923 2.382-8.075 7.922-8.075 7.922M40.383 255.096s5.234-6.145 8.227-8.836c3.21-2.886 6.705-5.472 10.36-7.77 3.826-2.404 12.034-6.245 12.034-6.245M30.785 253.877s8.15-8.632 12.645-12.492c3.938-3.38 8.04-6.627 12.492-9.293 4.814-2.882 15.235-7.16 15.235-7.16M79.078 215.792s-9.584 2.67-14.168 4.57c-4.007 1.661-7.824 3.768-11.578 5.941-3.876 2.244-7.743 4.555-11.273 7.313-4.106 3.207-11.426 10.664-11.426 10.664" stroke="#000" stroke-width="2" stroke-linecap="round" stroke-linejoin="round"/><path fill="#F55" fill-rule="nonzero" d="M61.864 214.42l16.91-5.332 1.98-9.445-10.207 7.313zM124.172 209.698l-10.512.152-4.57 2.133-5.332 4.113-3.504-1.37-3.808 1.523-5.332-3.352-5.942-4.875-2.894-5.941-.305-2.743 11.73-7.16 16.454-7.617 8.835 13.559z"/><path fill="#55A" fill-rule="nonzero" d="M136.817 245.65l-1.067-3.503-5.941-.305-7.16 1.98-6.703-.304-7.008-1.676-4.875-4.418-1.524 2.895-3.199.152-3.504-1.828.153 33.516 11.882-11.578 6.856-4.114 10.512-5.789z"/><path fill="#F55" fill-rule="nonzero" d="M84.106 354.272l-8.531-2.133-13.711-14.168.609-81.808 16.605-.61 4.114-4.722 5.027-5.637 8.531-5.942-.304 31.84-9.293 12.188-5.332 13.254-3.657 17.062-.152 17.215 3.504 15.691z"/><path fill="#55A" fill-rule="nonzero" d="M68.871 352.748l-7.312 1.372-6.703 3.046-7.922-4.113-8.074-1.98-8.38-1.22v-35.8zM50.061 320.578H39.104v-3.652h10.957z"/><path fill="#000" fill-rule="nonzero" d="M114.616 357.84l-12.098 14.837-9.587-12.098-6.62-16.664-2.967-15.522.228-16.206 5.022-19.631 7.99-13.924 11.412-11.185 10.957-7.99 18.261-8.445 1.826 17.804-12.782 7.305-14.381 13.01-7.076 12.784-4.11 14.152.457 10.957 2.968 12.326 4.565 10.272zM97.305 166.656l-12.52 5.782-14.683 9.128-10.069 7.744-9.929 7.73-10.908 9.42L30 214.742l-.033-12.365 16.361-13.63 12.447-9.672 10.768-7.468 10.068-5.67 12.04-7.123zM106.5 179.256l-16.414 8.36-15.958 10.03-10.942 8.51-10.79 8.055-11.855 10.79-10.182 9.272.152-11.55 17.781-16.414 13.526-11.399 11.703-8.207 10.942-6.23 16.718-8.664z"/><path d="M110.03 184.384s-10.313 4.547-15.295 7.173c-4.26 2.245-8.417 4.7-12.456 7.323-5.947 3.862-11.704 8.023-17.31 12.367-5.29 4.101-10.425 8.41-15.379 12.912C42.814 230.317 30 243.414 30 243.414v-8.856s13.239-12.311 20.13-18.155c5.409-4.587 10.938-9.04 16.638-13.258 4.984-3.69 10.056-7.279 15.337-10.528 3.914-2.409 8.026-4.48 12.088-6.63 4.128-2.184 12.478-6.368 12.478-6.368l3.36 4.765z" stroke="#000" stroke-width="2" fill="#FF5" fill-rule="nonzero" stroke-linecap="round" stroke-linejoin="round"/><path fill="#F55" fill-rule="nonzero" d="M196.814 288.216l-33.764.31-.929 9.6-2.168 14.244-2.013 10.374-4.335 15.484 43.973-42.27zM225.139 385.297l-6.194-15.174-6.503-15.483-3.87-10.529-2.168-6.967-45.522 42.889 6.503-.62 8.361 2.168 5.42 3.407 3.716 6.193 3.251 8.206h2.168l.774-5.264 4.026-5.42 5.729-1.393 4.18-2.787 5.73.774 3.56-2.013h5.42l4.18 2.323z"/><path fill="#FF5" fill-rule="nonzero" d="M198.662 306.796l1.703 6.193 2.787 12.697 2.632 11.148-56.514 54.347-4.49-1.548-5.11 1.548-3.097 2.168-3.561-2.323 9.135-19.819 6.968-17.341z"/><path d="M148.008 212.287l-9.912-11.026.708 10.456s1.111 1.967 1.923 2.727c1.153-.096 3.366 2.05 3.366 2.05s.095-2.885 1.051-3.747c.724-.651 2.864-.46 2.864-.46zM104.233 147.12l1.072 6.697s1.502-2.162 2.674-2.359c1.478-.248 4.158 1.71 4.158 1.71s-.376-3.232.563-4.354c.71-.85 3.169-1.003 3.169-1.003l-5.84-3.59" fill="#55A" fill-rule="nonzero"/><path d="M132.598 390.143s7.487-13.33 10.61-20.295c3.025-6.75 5.568-13.719 7.84-20.757 3.084-9.547 5.793-19.238 7.842-29.06 1.492-7.151 2.504-14.408 3.229-21.679.9-9.038 1.29-18.131 1.384-27.214.052-5.076.039-10.17-.462-15.222-1.275-12.878-3.699-25.64-6.457-38.284-2.274-10.422-4.86-20.809-8.303-30.905-2.58-7.567-5.611-15.008-9.225-22.14-4.303-8.492-14.76-24.447-14.76-24.447s-13.07 3.887-19.373 6.458c-5.858 2.389-17.067 8.302-17.067 8.302s7.908 9.05 11.531 13.838c3.938 5.203 7.487 10.692 11.07 16.144 2.695 4.1 5.467 8.162 7.842 12.454 2.23 4.032 5.997 12.454 5.997 12.454" stroke="#000" stroke-width="2" stroke-linecap="round" stroke-linejoin="round"/><path d="M134.019 366.057l-12.783 10.957 2.054-16.664s1.562 2.12 2.74 2.283c1.484.206 4.108-1.826 4.108-1.826s-.285 3.24.685 4.337c.734.83 3.196.913 3.196.913zM120.146 388.182l-8.294 5.055-3.867-.767 3.094-10.015s1.228 1.955 2.256 2.18c1.296.286 3.76-1.299 3.76-1.299s-.484 2.802.294 3.825c.589.774 2.757 1.02 2.757 1.02zM144.323 342.846l-11.806 12.002.632-16.777s1.736 1.978 2.923 2.042c1.496.08 3.939-2.169 3.939-2.169s-.01 3.254 1.05 4.263c.802.765 3.262.639 3.262.639zM151.913 318.225l-9.19 13.618-2.709-15.996s2.094 1.54 3.27 1.372c1.483-.211 3.43-2.806 3.43-2.806s.637 3.08 1.876 3.832c.938.57 3.323-.02 3.323-.02zM155.868 293.196l-8.173 14.719-3.87-16.338s2.201 1.444 3.362 1.188c1.463-.323 3.217-3.142 3.217-3.142s.86 3.138 2.15 3.828c.977.523 3.314-.255 3.314-.255zM156.362 269.18l-5.585 14.005-6.56-13.628s2.413.929 3.514.534c1.389-.497 2.644-3.207 2.644-3.207s1.375 2.6 2.763 3.01c1.05.309 3.224-.714 3.224-.714zM155.778 258.09l-8.173-13.713-3.87 15.222s2.201-1.345 3.362-1.107c1.463.301 3.217 2.927 3.217 2.927s.86-2.923 2.15-3.566c.977-.487 3.314.238 3.314.238zM139.476 189.654l-13.274-10.356 2.82 16.55s1.463-2.188 2.631-2.406c1.474-.275 4.189 1.635 4.189 1.635s-.434-3.224.484-4.364c.695-.862 3.15-1.06 3.15-1.06zM127.35 167.435l-11.396-9.514 2.196 14.908s1.308-1.942 2.329-2.118c1.287-.223 3.62 1.536 3.62 1.536s-.327-2.903.49-3.912c.62-.763 2.76-.9 2.76-.9zM125.515 379.109a2.5 2.5 0 115 0 2.5 2.5 0 01-5 0zM116.617 380.514a2.5 2.5 0 115 0 2.5 2.5 0 01-5 0zM111.934 372.396a2.5 2.5 0 115 0 2.5 2.5 0 01-5 0zM137.536 358.19a2.5 2.5 0 115 0 2.5 2.5 0 01-5 0zM128.95 358.502a2.5 2.5 0 115 0 2.5 2.5 0 01-5 0zM124.267 350.228a2.5 2.5 0 115 0 2.5 2.5 0 01-5 0zM139.097 335.24a2.5 2.5 0 115 .001 2.5 2.5 0 01-5 0zM146.279 332.275a2.5 2.5 0 115 0 2.5 2.5 0 01-5 0zM133.633 328.216a2.5 2.5 0 115 0 2.5 2.5 0 01-5 0zM144.717 311.2a2.5 2.5 0 115 0 2.5 2.5 0 01-5 0zM139.097 304.33a2.5 2.5 0 115 0 2.5 2.5 0 01-5 0zM151.586 308.39a2.5 2.5 0 115 0 2.5 2.5 0 01-5 0zM155.645 280.289a2.5 2.5 0 115 0 2.5 2.5 0 01-5 0zM147.996 286.69a2.5 2.5 0 115 0 2.5 2.5 0 01-5 0zM141.595 280.913a2.5 2.5 0 115 0 2.5 2.5 0 01-5 0zM148.308 264.21a2.5 2.5 0 115 0 2.5 2.5 0 01-5 0zM145.186 241.417a2.5 2.5 0 115 0 2.5 2.5 0 01-5 0zM139.253 248.754a2.5 2.5 0 115 0 2.5 2.5 0 01-5 0zM152.68 246.412a2.5 2.5 0 115 0 2.5 2.5 0 01-5 0zM149.713 220.81a2.5 2.5 0 115 0 2.5 2.5 0 01-5 0zM142.22 199.735a2.5 2.5 0 115 0 2.5 2.5 0 01-5 0zM133.79 197.861a2.5 2.5 0 115 0 2.5 2.5 0 01-5 0zM127.701 203.481a2.5 2.5 0 115 0 2.5 2.5 0 01-5 0zM118.647 185.216a2.5 2.5 0 115 0 2.5 2.5 0 01-5 0zM123.33 175.85a2.5 2.5 0 115 0 2.5 2.5 0 01-5 0zM132.697 177.879a2.5 2.5 0 115 0 2.5 2.5 0 01-5 0zM119.271 154.15a2.5 2.5 0 115 0 2.5 2.5 0 01-5 0zM111.621 155.554a2.5 2.5 0 115 0 2.5 2.5 0 01-5 0zM106.47 163.204a2.5 2.5 0 115 0 2.5 2.5 0 01-5 0z" fill="#55A" fill-rule="nonzero"/><path d="M206.15 337.296l-56.756 53.39" stroke="#000" stroke-width="2" stroke-linecap="round" stroke-linejoin="round"/><path d="M93.5 372.301s-2.42-4.98-4.38-6.824c-2.894-2.724-6.6-4.613-10.372-5.765-2.658-.813-5.526-.868-8.297-.706-2.738.16-5.498.667-8.067 1.647-2.692 1.026-7.491 4.353-7.491 4.353s-4.647-3.617-7.25-4.957c-2.622-1.35-5.449-2.322-8.308-3.044-2.396-.604-7.335-1.058-7.335-1.058v15.884l61.5.47z" stroke="#000" stroke-width="2" fill="#55A" fill-rule="nonzero" stroke-linecap="round" stroke-linejoin="round"/><path stroke="#000" stroke-width="2" fill="#000" fill-rule="nonzero" stroke-linecap="round" stroke-linejoin="round" d="M86.087 391.833l12.943-13.649-5.295-6L32 371.713l-.176 20.238z"/><path d="M58.906 405.678l9.65-12.741H42.433c5.532 4.317 10.728 8.446 16.474 12.741zM79.308 406.302l-10.086-13.476 29.009-.17c-5.78 4.565-12.919 9.103-18.923 13.646z" fill="#F55" fill-rule="nonzero"/><path d="M106.802 392.25l-76.25-.064" stroke="#000" stroke-width="2" stroke-linecap="round" stroke-linejoin="round"/><g stroke="#55A" stroke-linecap="round" stroke-linejoin="round" stroke-width="2"><path d="M35.82 464.813c0-4.723 3.393-8.553 7.58-8.553 4.185 0 7.579 3.83 7.579 8.553 0 4.724-3.394 8.553-7.58 8.553s-7.58-3.829-7.58-8.553h0zM83.8 478.651s-3.1.152-4.172 1.113c-1.147 1.029-1.865 2.782-1.669 4.311.182 1.417 1.335 2.656 2.503 3.477 1.105.776 2.557 1.296 3.895 1.112 2.103-.289 4.085-1.69 5.423-3.337 1.211-1.492 1.947-5.424 1.947-5.424l-.139-32.682s2.807.05 3.894-.696c1.253-.858 2.342-2.376 2.365-3.894.024-1.598-1.17-3.11-2.365-4.172-1.165-1.035-2.76-1.951-4.31-1.808-1.768.163-3.219 1.644-4.451 2.92-1.055 1.093-1.932 2.439-2.364 3.895-.41 1.378-.14 4.31-.14 4.31l-.417 30.875z" fill="#FF5" fill-rule="nonzero"/><path d="M43.33 468.499s-2.199-.295-2.642-2.643c-.278-1.469.887-3.701 2.225-3.894 3.898-.561 4.45 2.643 4.45 2.643" fill-opacity=".331" fill="#FF5" fill-rule="nonzero"/><path d="M118.569 474.062l-26.702-.14M91.727 453.2h28.51M108.416 473.644l.14-20.165" fill="#FF5" fill-rule="nonzero"/><path d="M102.853 468.22h-6.536v-9.456h6.536zM109.529 463.77l14.463.14M121.49 468.638h-12.657M122.045 458.207l-13.072-.139"/></g><path d="M97.835 166.51s-11.932 6.055-17.68 9.47c-5.3 3.147-10.444 6.564-15.467 10.138a270.462 270.462 0 00-16.421 12.65C41.97 204.016 30 215.232 30 215.232v8.145s11.473-10.842 17.4-16.05c5.589-4.91 11.187-9.83 17.116-14.322 5.076-3.846 10.299-7.527 15.77-10.788 6.822-4.066 21.188-10.898 21.188-10.898l-3.64-4.81zM87.868 154.859s-6.233 3.064-9.272 4.743c-5.119 2.828-10.168 5.792-15.078 8.968-5.51 3.565-10.906 7.32-16.117 11.309C41.405 184.467 30 194.378 30 194.378v8s11.218-10.294 17.139-15.07c5.116-4.128 10.433-8.01 15.86-11.719a281.15 281.15 0 0116.896-10.658c3.748-2.188 11.463-6.175 11.463-6.175l-3.49-3.897z" stroke="#000" stroke-width="2" fill="#FF5" fill-rule="nonzero" stroke-linecap="round" stroke-linejoin="round"/><g stroke="#55A" stroke-linecap="round" stroke-linejoin="round"><path d="M182.725 459.897c-2.228.842-4.193 1.102-6.342 1.305-2.716.256-5.476.21-8.184-.121-2.978-.364-6.055-.822-8.766-2.036-1.233-.552-3.256-2.317-3.256-2.317s5.549 2.403 8.515 3.012c2.288.47 4.672.54 7.013.463 2.675-.087 5.312-.659 7.96-1.05 2.194-.322 3.862-.303 6.566-1.069l-3.506 1.813zM186.215 449.499s-2.003 2.248-3.21 3.13c-1.451 1.06-3.05 1.984-4.762 2.533-1.433.46-2.97.545-4.476.591-1.688.052-3.42.046-5.052-.354-2.212-.543-4.247-1.624-6.203-2.722-1.691-.949-3.387-1.935-4.732-3.313-.73-.746-1.736-2.605-1.736-2.605l5.125 1.6c2.792.869 5.491 2.057 8.377 2.603 1.593.3 3.235.352 4.86.355 1.55.001 3.094-.17 4.633-.327.577-.06 1.154-.129 1.724-.233 1.835-.335 5.452-1.258 5.452-1.258h0z" stroke-width="2.003"/><path d="M159.807 446.174s5.3-1.605 7.65-2.887c1.275-.696 2.814-.815 4.264-.892 2.182-.117 4.458-.017 6.522.65 1.24.402 2.265 1.23 3.328 1.953 1.401.954 4.001 3.137 4.001 3.137s-3.893.929-5.858 1.301c-1.584.301-3.166.71-4.778.754-2.03.055-4.067-.233-6.06-.621-3.62-.705-10.624-3.084-10.624-3.084l1.555-.311z" stroke-width="2.003"/><path d="M178.627 445.885c0-1.764-2.29-3.194-5.116-3.194-2.825 0-5.116 1.43-5.116 3.194 0 1.765 2.29 3.195 5.116 3.195 2.826 0 5.116-1.43 5.116-3.195z" stroke-width="2.006"/><path d="M175.685 446.625c0-.735-.83-1.331-1.854-1.331s-1.855.596-1.855 1.33c0 .736.83 1.332 1.855 1.332 1.024 0 1.854-.596 1.854-1.331zM218.426 455.328s-.305-.115-1.285 1.614c-.892 1.571-2.251 1.665-3.555 2.113-2.047.702-4.286 1.005-6.442.809-1.781-.162-3.612-.652-5.117-1.62-1.493-.959-2.838-2.433-3.57-3.95 1.476.721 2.359 1.838 3.673 2.536 1.489.791 3.043 1.592 4.71 1.84 2.427.361 5.016.225 7.338-.565 1.602-.545 4.248-2.777 4.248-2.777z" stroke-width="2.003" fill="#55A" fill-rule="nonzero"/><path d="M196.987 452.508c.012-1.883.275-4.549.583-6.804.3-2.198.833-4.358 1.23-6.541.358-1.973.688-3.95 1.037-5.925.33-1.873 1.006-3.717.998-5.62-.003-.93.049-2.001-.511-2.745-1.026-1.362-3.012-1.606-4.573-2.291-.816-.359-1.926-.318-2.501-.948" stroke-width="2.003"/><path d="M186.23 430.128c-1.196.406-2.327-.702-2.944-1.583-.456-.652-.485-1.567-.264-2.316.318-1.078 1.089-2.176 2.16-2.692 1.225-.59 2.837-.527 4.142-.11.982.315 1.485 1.382 2.395 1.846 1.15.588 2.478.824 3.75 1.129" stroke-width="2.003"/><path d="M180.084 413.28s2.524.666 3.79.987c1.182.3 2.328.88 3.553.877 1.35-.004 2.587-.733 3.91-.987 1.093-.209 2.225-.66 3.316-.438.78.159 1.223 1.096 2.013 1.205 1.138.157 2.273-.43 3.317-.876.646-.277 1.777-1.096 1.777-1.096s-1.765.827-2.725.877c-1.252.065-2.423-.653-3.672-.767-1.572-.144-3.167-.048-4.737.11-1.04.103-2.047.4-3.08.547-1.021.145-2.05.4-3.08.329-1.06-.073-2.025-.638-3.08-.767-.43-.053-1.302 0-1.302 0z" stroke-width="2.003" fill="#55A" fill-rule="nonzero"/><path d="M186.954 407.446s2.145-1.021 3.316-1.206a8.683 8.683 0 013.198.11c1.185.263 3.317 1.424 3.317 1.424M198.436 449.923s2.914 2.164 4.545 2.932c1.424.67 2.92 1.324 4.501 1.424 1.445.093 2.877-.384 4.265-.767 1.103-.304 2.207-.643 3.198-1.205 1.168-.662 3.153-2.506 3.153-2.506" stroke-width="2.003"/><path d="M217.465 446.687s-2.914-2.467-4.626-3.288a11.823 11.823 0 00-3.904-1.114c-2.018-.201-4.137-.19-6.067.478-1.16.402-2.135 1.29-3.13 2.06-.707.547-2.009 1.811-2.009 1.811s2.415 1.308 3.665 1.84c1.254.534 2.51 1.151 3.836 1.354 1.93.296 3.93.229 5.825-.223 2.261-.539 6.41-2.918 6.41-2.918h0z" stroke-width="2.003"/><path d="M202.448 446.045c.034-1.977 2.19-3.543 4.814-3.497 2.625.045 4.724 1.685 4.69 3.662-.035 1.978-2.19 3.544-4.814 3.498-2.625-.046-4.724-1.686-4.69-3.663z" stroke-width="2.009"/><path d="M205.165 446.914c.014-.824.797-1.478 1.749-1.461.95.016 1.71.697 1.696 1.521-.014.824-.797 1.479-1.748 1.462-.952-.017-1.711-.698-1.697-1.522z" stroke-width="2.021" fill="#55A" fill-rule="nonzero"/><path d="M180.794 442.537l-7.241-7.011M199.746 441.113l5.793-7.12" stroke-width="2.003"/></g><path d="M248.65 510.362l-30.191-39.984c-10.44 3.776-20.394 2.99-30.671 3.262-10.714.284-21.455-.516-32.106-1.706-10.558-1.179-21.837-2.943-31.415-5.372-10.946 16.155-24.69 27.645-35.636 43.8h160.02z" stroke="#55A" stroke-width="2" fill="#FF5" fill-rule="nonzero"/><path d="M203.922 491.661c.728.379 1.07 2.133.6 3.072-.136.272-.518.466-.833.429-.888-.104-1.7-.9-1.945-1.707-.176-.576.486-1.138.487-1.738.002-.595-.097-1.252-.473-1.727-.736-.929-1.936-1.72-3.156-1.77-2.028-.084-4.588.817-5.496 2.505-.837 1.558.043 3.666 1.078 5.12.7.984 1.888 1.883 3.16 1.998 1.151.103 2.194-.719 3.188-1.266-.58 1.663-1.22 3.592-.493 5.197.698 1.537 2.461 2.663 4.177 3.188.722.22 1.524-.028 2.28-.108 1.358-.652 2.754-1.654 3.254-2.988.504-1.344-.045-2.894-.56-4.234-.394-1.027-1.182-1.89-1.88-2.77 1 .316 2.157.337 3.078-.081 1.742-.791 3.624-2.372 3.684-4.162.058-1.724-1.607-3.42-3.275-4.203-1.542-.724-3.698-.805-5.192.028-1.165.65-1.77 2.088-2.008 3.356-.115.62.325 1.861.325 1.861zM229.039 488.295c.053.682-.444.755-.299 1.573.145.812 1.495 1.177 2.319.993.292-.065.568-1.073.606-1.364l6.308 8.375c-.284.429-.76.843-1.099 1.203-.643.314-1.25.82-1.967.84-1.702.051-3.675-.443-4.821-1.667-1.197-1.277-1.29-3.29-1.348-5.037-.693.829-1.33 1.917-2.386 2.185-1.167.295-2.53-.169-3.49-.872-1.417-1.038-2.933-2.753-2.726-4.482.225-1.873 2.202-3.423 4.013-4.074 1.348-.485 2.926-.052 4.271.434M162.252 484.787c2.128.04 4.182 1.301 5.787 2.783.855.789 1.037 2.22 1.85 3.068.37.387.908.237 1.323.867.196-3.112-.727-3.583-1.646-5.07-1.207-1.953-2.978-3.537-4.865-4.704-2.03-1.256-4.344-2.141-6.694-2.32-2.767-.212-5.634.426-8.265 1.497-1.786.728-3.526 1.806-4.903 3.266-.766.812-1.508 2.073-1.749 2.928 1.262-1.233 3.255-2.59 5.128-3.231 1.708-.585 3.626-1.012 5.317-.477 1.642.52 2.734 1.704 4.054 3.383 1.786-.72 3.013-2.02 4.663-1.99z" fill="#000" fill-rule="nonzero"/><path d="M183.288 485.977c-2.167-.281-4.419.727-6.328 1.88-1.005.607-1.629 1.764-2.521 2.545-.423.37-.536 1.117-1.335 1.008.306-3.106 1.314-3.547 2.49-4.905 1.546-1.785 3.598-3.048 5.703-3.918 2.264-.935 4.758-1.461 7.173-1.285 2.844.208 5.652 1.27 8.15 2.726 1.696.988 3.383 2.224 4.449 3.966.572.935.79 2.358.896 3.24-1.081-1.409-2.592-3.126-4.279-4.049-1.621-.888-3.518-1.546-5.321-1.271-1.751.266-3.053 1.272-4.665 2.732-1.697-.98-2.732-2.45-4.412-2.669zM132.364 479.629c1.945.058 3.856 1.419 5.461 2.652.762.585 1.172 1.536 1.885 2.18.41.371.64.937 1.358.954-.02-2.896-1.025-2.933-1.922-4.175-1.267-1.754-2.862-3.363-4.742-4.432-1.742-.99-3.778-1.486-5.772-1.674-2.646-.25-5.443-.166-7.936.752-1.63.6-2.991 1.812-4.266 2.99-1.082 1-2.648 2.615-2.812 3.408 1.504-.516 2.469-1.83 5.58-3.52 1.416-.77 3.477-1.015 5.12-.523 1.616.483 2.605 1.615 3.917 3.192 1.585-.652 2.621-1.85 4.13-1.804zM218.312 482.449c1.793-.717 4.304-.415 6.223.503 1.146.55 1.851 1.804 2.696 2.769.55.63 1.878 3.225 1.542 1.967-.51-1.917-1.661-4.694-3.537-6.315-1.704-1.472-4.262-2.187-6.421-2.59-2.324-.433-4.698-.425-6.746.24-2.412.785-4.48 2.383-6.134 4.294-1.122 1.298-2.103 2.955-2.443 4.724-.187.977.038 2.154.268 3.022.585-2.141 1.032-3.784 2.356-5.057 1.098-1.055 2.67-1.704 4.231-1.752 1.754-.054 3.136.594 5.08 1.665 1.127-1.29 1.495-2.915 2.885-3.47z" fill="#000" fill-rule="nonzero"/><path d="M119.987 473.944s4.856-1.259 7.34-1.29c2.807-.035 5.76.124 8.33 1.249 1.816.795 3.253 2.304 4.637 3.725.937.964 2.442 3.214 2.442 3.214s5.262-2.783 8.132-3.355c2.842-.567 5.818-.424 8.678-.014 2.75.394 5.571.99 7.986 2.354 1.941 1.097 4.932 4.523 4.932 4.523s4.003-4.14 6.6-5.124c2.526-.957 5.377-.672 8.06-.5 2.449.156 4.902.6 7.222 1.389 2.31.784 6.542 3.28 6.542 3.28s2.536-3.338 4.218-4.529c1.565-1.108 3.428-1.763 5.266-2.292 1.85-.532 3.789-1.044 5.701-.856 2.63.257 7.463 2.675 7.463 2.675l-5.674-7.017s-11.164 3.025-20.084 3.177c-5.782.098-14.212.126-21.312-.097a280.253 280.253 0 01-15.964-.932c-4.578-.407-9.496-1.106-14.226-1.791-3.866-.56-7.732-1.142-11.564-1.898-3.354-.662-9.992-2.308-9.992-2.308l-4.733 6.417zM113.744 482.166c.593.48.197 1.124 0 1.931-.592.703-.978.939-1.788 1.003-.288-.083-.461-.543-.48-.835l-6.774 7.702c.256.444.553 1.098.868 1.477.622.351 1.196.891 1.91.955 1.696.15 3.698-.226 4.922-1.38 1.278-1.203 1.5-3.206 1.67-4.945.64.868 1.204 1.991 2.243 2.32 1.146.364 2.537-.018 3.54-.663 1.482-.952 3.107-2.574 3.011-4.31-.103-1.883-1.978-3.545-3.744-4.302-1.315-.563-2.918-.224-4.293.18M140.966 486.74c-.728.38-1.07 2.133-.6 3.073.137.271.518.465.833.428.889-.103 1.7-.9 1.946-1.706.175-.576-.42-1.143-.488-1.739-.049-.418.055-1.261.055-1.261 1.165-.91 2.153-2.145 3.574-2.236 2.025-.13 4.589.818 5.496 2.505.837 1.558-.043 3.667-1.078 5.12-.7.985-1.888 1.884-3.16 1.998-1.151.104-2.194-.718-3.188-1.265.58 1.663 1.22 3.592.493 5.196-.697 1.537-2.461 2.664-4.177 3.188-.722.221-1.524-.027-2.28-.107-1.358-.652-2.754-1.655-3.254-2.988-.504-1.344.046-2.894.56-4.235.395-1.026 1.182-1.89 1.88-2.77-.999.316-2.157.337-3.077-.08-1.743-.792-3.625-2.373-3.685-4.162-.057-1.724 1.607-3.42 3.275-4.204 1.542-.724 3.7-.808 5.192.029 1.253.702 1.385 2.295 2.147 3.621l-.464 1.595zM173.02 490.824c.6.544.46 2.323-.248 3.116-.204.23-.625.323-.92.21-.83-.317-1.37-1.287-1.42-2.126-.032-.529.564-.922.73-1.428.143-.44.215-1.366.215-1.366-.881-1.164-1.294-2.587-2.574-3.036-1.906-.669-4.655-.334-5.986 1.075-1.228 1.3-.944 3.554-.335 5.212.413 1.124 1.319 2.284 2.517 2.706 1.085.382 2.314-.157 3.422-.442-1.008 1.465-2.146 3.173-1.874 4.901.261 1.657 1.663 3.178 3.18 4.105.639.39 1.48.347 2.233.455 1.488-.298 3.106-.925 3.948-2.091.849-1.175.734-2.808.597-4.23-.105-1.089-.634-2.116-1.072-3.137.88.55 1.994.853 2.996.675 1.897-.337 4.141-1.404 4.68-3.12.52-1.652-.634-3.7-2.035-4.864-1.296-1.078-3.359-1.688-5.026-1.245-1.4.372-1.955 1.88-3.048 2.974l.02 1.656z" fill="#000" fill-rule="nonzero"/><g stroke="#55A" stroke-linecap="round" stroke-linejoin="round" stroke-width="2"><path d="M151.81 470.876c-6.222-16.265-12.518-33.893-18.484-49.202-3.344-8.583-2.97-21.222 3.409-28.236 2.696-2.965 8.21-4.454 11.743-2.565 3.873 2.071 6.83 8.368 4.808 12.268-1.767 3.408-7.907 4.744-11.184 2.744-2.146-1.309-2.069-5.119-1.752-7.333"/><path d="M156.7 471.189c-3.777-9.872-10.02-24.57-13.76-37.274-2.676-9.084-8.01-18.44-6.174-27.73.778-3.94 3.558-8.876 6.892-9.882 2.218-.64 3.536 1.311 3.922 3.228"/><path d="M146.93 470.672c-3.334-10.784-7.858-20.415-11.501-30.726-3.587-10.151-9.438-19.908-10.192-30.648-.345-4.913-.625-10.864 2.658-14.535 1.84-2.058 5.04-3.773 7.928-2.387"/><path d="M142.19 469.436c-3.335-10.395-8.405-21.63-12.534-32.475-3.612-9.485-9.832-18.384-10.707-28.504-.372-4.298-.486-9.525 2.4-12.713 1.852-2.047 5.04-3.637 7.928-2.301"/><path d="M136.77 468.796c-3.335-10.326-8.404-21.485-12.533-32.256-3.612-9.421-9.833-18.26-10.708-28.312-.372-4.269-.485-9.46 2.4-12.627 1.853-2.033 5.04-3.612 7.929-2.286"/><path d="M131.355 467.248c-3.335-10.08-8.405-20.974-12.534-31.489-3.612-9.197-9.832-17.826-10.708-27.64-.371-4.166-.485-9.235 2.4-12.326 1.853-1.985 5.04-3.527 7.929-2.232"/><path d="M125.918 466.414c-3.335-9.975-8.585-20.876-12.77-31.358-3.632-9.092-9.833-17.64-10.709-27.351-.371-4.123-.485-9.14 2.4-12.199 1.853-1.963 5.04-3.489 7.929-2.208"/></g><path d="M162.753 391.602c-2.75.663-3.77-3.788-2.582-5.386 1.305-1.757 5.143-.72 6.488 1.007 1.81 2.324 1.454 6.834-.823 8.799-1.754 1.514-5.004.962-7.064-.138-1.966-1.05-3.408-3.292-3.688-5.442-.387-2.965.475-6.756 3.003-8.487 4.965-3.4 13.16-3.531 18.272.114 4.366 3.114 6.354 5.239 8.525 8.658 1.652 2.601 2.759 7.626 3.203 8.672l2.488-.084c.782-5.666 1.059-6.702 3.293-8.976 1.917-1.95 4.402-2.639 7.653-2.96" stroke="#55A" stroke-width="2" stroke-linecap="round" stroke-linejoin="round"/><path d="M182.563 399.152c-1.228-3.044-1.808-4.89-3.366-6.933-2.368-3.106-5.02-6.54-8.811-7.724-2.957-.923-6.605-.538-9.276.984" stroke="#55A" stroke-width="2" stroke-linecap="round" stroke-linejoin="round"/><path d="M178.445 400.508c-1.227-2.733-2.564-5.96-4.905-8.062-1.469-1.318-3.382-3.23-5.361-2.514M174.559 402.278c-.969-2.313-1.53-3.283-2.73-4.603-1.214-1.334-2.985-2.75-4.372-3.188M170.359 404.49c-1.061-2.018-1.914-3.118-3.188-4.409-1.07-1.085-3.09-2.35-3.67-2.73M166.376 407.441c-2.013-3.723-4.474-7.202-7.433-9.717-1.565-1.33-4.096-2.002-5.253-2.667M162.278 410.101c-1.277-2.086-2.078-3.582-3.481-5.08-1.292-1.38-4.071-3.112-4.457-3.504M158.765 414.195c-.949-2.126-2.13-4.454-3.73-6.297-.825-.952-2.284-1.839-2.95-2.365M141.212 405.637c-.137 6.655 1.086 9.904 2.772 14.542 1.19 3.27 4.345 7.876 5.088 9.116M144.881 407.55c1.15 3.863 1.797 6.53 3.122 9.634 1.054 2.47 3.468 6.371 3.816 7.095M149.394 407.171c.787 3.29 1.824 6.249 3.091 8.86.702 1.446 1.894 2.847 2.446 3.661M232.699 413.606c-.857-1.757-4.292-.355-5.144 1.185-1.05 1.898.346 4.916 2.131 6.147 1.274.878 3.235.512 4.638-.138 1.495-.693 2.873-2.084 3.306-3.674.711-2.611.536-6.32-1.619-7.957-3.097-2.354-8.678-2.313-11.643.822-2.95 3.118-4.892 6.493-6.3 10.248-.777 2.073-.805 5.504-1.098 6.55" stroke="#55A" stroke-width="2" stroke-linecap="round" stroke-linejoin="round"/><path d="M218.219 439.907c.973-6.11 1.303-11.292 3.537-16.43 1.483-3.41 4.098-8.636 6.375-9.156M236.588 409.812c-.172-2.789-1.883-5.15-4.093-6.367-2.678-1.473-6.53-1.603-9.168-.062-4.364 2.549-6.352 7.873-7.36 13.254" stroke="#55A" stroke-width="2" stroke-linecap="round" stroke-linejoin="round"/><path d="M235.165 405.282c-.172-2.788-1.562-5.835-3.916-7.25-2.62-1.574-6.477-1.509-9.169-.062-4.148 2.23-6.705 6.458-7.714 11.84" stroke="#55A" stroke-width="2" stroke-linecap="round" stroke-linejoin="round"/><path d="M231.983 398.211c-1.056-3.318-2.125-4.173-4.093-5.129-2.75-1.334-6.517-1.582-9.168-.062-4.365 2.503-6.529 7.696-7.538 13.077" stroke="#55A" stroke-width="2" stroke-linecap="round" stroke-linejoin="round"/><path d="M228.757 393.541c-1.298-4.55-2.854-4.553-5.21-5.384-3.139-1.106-7.18-.673-9.91 1.234-3.978 2.78-6.394 7.479-6.655 12.949" stroke="#55A" stroke-width="2" stroke-linecap="round" stroke-linejoin="round"/><path d="M226.02 389.066c-1.776-3.241-3.338-4.828-5.954-5.535-3.164-.854-6.963.202-9.592 2.159-4.17 3.105-7.364 7.943-7.644 13.597M210.112 384.654c-3.274-.141-6.075.524-8.18 2.437-3.177 2.887-5.095 5.473-4.838 11.935M218.015 441.03s.402-2.349.936-3.394c.681-1.335 1.612-2.61 2.809-3.511 1.215-.916 2.694-1.834 4.213-1.756 1.552.08 3.214.945 4.097 2.224.827 1.199.86 2.9.585 4.33-.255 1.321-.84 2.813-1.99 3.511-.9.548-2.186.52-3.16.118-.688-.286-1.215-.96-1.521-1.639-.323-.715-.234-2.34-.234-2.34s-1.31 2.12-1.756 3.276c-.58 1.5-.878 3.1-1.17 4.682-.236 1.275-.247 2.584-.469 3.862-.211 1.222-.819 3.628-.819 3.628" stroke="#55A" stroke-width="2" stroke-linecap="round" stroke-linejoin="round"/><path d="M218.755 470.604c.531-8.894.46-17.823-.05-26.712-.416-7.25-1.467-14.45-2.452-21.644-.546-3.989-.727-8.044-1.917-11.925" stroke="#55A" stroke-width="2" stroke-linecap="round" stroke-linejoin="round"/><g fill="#FFF" fill-rule="nonzero" stroke="#55A" stroke-linecap="round" stroke-linejoin="round" stroke-width="2.01"><path d="M75.114 443.993c1.724.483 3.346 1.451 4.819 2.58 1.078.826 2.282 1.686 2.866 3.01.673 1.525.364 3.395.482 5.1.184 2.65.971 5.4.352 7.966-.213.884-1.113 1.41-1.335 2.292-.462 1.843.577 3.889.147 5.742-.192.83-.542 1.731-1.171 2.202-.458.342-1.625.25-1.625.25s.6 2.774.016 3.888c-.46.879-1.488 1.303-2.374 1.442-1.203.188-2.444-.332-3.55-.893-.958-.485-1.837-1.214-2.559-2.08-.335-.401-.787-1.401-.787-1.401s1.195 2.851.74 4.178c-.295.863-1.174 1.466-1.972 1.633-.851.177-1.693-.427-2.499-.783-1.147-.506-2.435-.897-3.29-1.906-.896-1.06-1.634-4.008-1.634-4.008s.79 2.856.255 4.077c-.35.797-1.201 1.29-1.969 1.448-1.059.218-2.21-.195-3.147-.793-.699-.446-1.283-1.17-1.668-1.972-.309-.642-.45-2.137-.45-2.137s-.792 2.772-1.833 2.932c-1.162.179-2.187-1.35-2.712-2.545-1.079-2.455.168-5.56-.348-8.245-.295-1.537-1.245-2.84-1.547-4.376-.462-2.353-.88-4.884-.365-7.227.39-1.772 1.374-3.388 2.51-4.679 1.336-1.518 3.13-2.433 4.837-3.343 1.745-.93 3.577-1.709 5.465-2.13 2.58-.577 5.242-.486 7.868-.516 1.216-.014 2.43.098 3.644.154.945.043 1.917-.118 2.834.14h0z"/><path d="M79.01 472.569c-2.025-1.646-3.7-4.222-3.598-7.19-.31-2.016.735-4.024.322-5.93-.72-1.323-1.46-2.535-1.897-3.954-.398-1.288-.707-2.634-.631-4.036"/><path d="M70.155 473.902c-1.62-3.333-3.167-8.144-3.433-11.992.008-1.68-.038-3.982 1.56-4.774 1.264-.695 2.889-.095 3.467 1.39 1.22 2.504 3.298 7.196 4.09 9.917"/><path d="M72.646 460.706c-.044 1.656-1.317 4.47-2.984 4.675-.579.223-1.196.23-1.799.243M61.898 473.393c-.628-4.232-1.595-9.177-.938-13.47.464-1.472.575-4.2 2.214-4.56 1.408-.31 2.61 1.418 3.115 2.816.13.548.226 3.524.253 4.09"/><path d="M66.379 462.728c-.737 1.65-2.02 1.875-3.286 2.119-.575.11-1.456-.28-1.693-.35M82.16 463.55c-1.23.408-2.874 1.048-2.902 2.803-.135 2.074.494 4.052 1.298 5.872M60.708 463.065c.385-2.497-.932-6.28-3.246-6.009-2.637.308-2.295 4.905-2.613 7.58-.105 2.584.366 5.168-.011 7.746-.05.575-.105 1.149-.163 1.723M54.79 464.39c-.593-2.052-1.798-3.02-3.2-2.699-1.344.309-1.69 2.634-1.874 3.721"/><path d="M60.192 464.015c-.79 1.124-1.683 1.61-2.7 1.639-.801.023-1.807-.94-2.17-1.166M54.39 466.88c-.695 1.178-1.548 1.17-2.456 1.33-.625.11-1.505-.063-1.855-.292"/></g><path d="M66.369 443.84c2.587-.077 5.174.16 7.758.33 1.874.123 3.967 1.602 5.613.496 1.311-.88 2.424-3.032 2.147-4.837-.376-2.447-2.775-3.877-4.656-4.798-2.79-1.364-5.99-.622-8.992-.66-3.414-.042-6.972-.74-10.236.496-2.197.832-4.996 1.867-5.85 4.493-.644 1.987-.147 5.036 1.304 6.214 1.384 1.124 3.271-.683 4.918-.921 2.656-.384 5.32-.735 7.994-.814h0z" stroke="#000" stroke-width="2" fill="#FF5" fill-rule="nonzero" stroke-linecap="round" stroke-linejoin="round"/><g fill-rule="nonzero" stroke="#000" stroke-linecap="round" stroke-linejoin="round"><path d="M67.65 434.597c3.115-.084 6.229.179 9.34.366 2.254.136 4.773 1.772 6.755.549 1.578-.974 2.917-3.354 2.583-5.35-.452-2.707-3.339-4.29-5.603-5.307-3.358-1.51-7.209-.689-10.823-.73-4.11-.047-8.392-.82-12.32.548-2.644.92-6.014 2.065-7.04 4.97-.777 2.197-.179 5.57 1.568 6.873 1.666 1.243 3.937-.756 5.92-1.02 3.196-.424 6.404-.812 9.62-.9h0z" stroke-width="2" fill="#000"/><path d="M65.164 429.301c0-2.7 1.215-4.889 2.712-4.889 1.498 0 2.712 2.19 2.712 4.889 0 2.7-1.214 4.888-2.712 4.888-1.497 0-2.712-2.188-2.712-4.888z" stroke-width="2.004" fill="#FFF555"/><path d="M72.496 429.284c.581-2.611 2.253-4.46 3.735-4.13 1.48.33 2.21 2.714 1.629 5.324-.582 2.611-2.254 4.46-3.735 4.13-1.481-.33-2.21-2.714-1.63-5.324zM63.952 428.786c-.581-2.61-2.253-4.459-3.735-4.129-1.48.33-2.21 2.714-1.629 5.324.582 2.61 2.254 4.46 3.735 4.13 1.481-.33 2.21-2.714 1.63-5.325z" stroke-width="2.006" fill="#FFF555"/><path d="M79.28 430.117c1.213-1.768 3.07-2.602 4.146-1.864 1.076.74.964 2.772-.25 4.54-1.215 1.768-3.071 2.603-4.147 1.864-1.076-.739-.964-2.771.25-4.54zM56.821 430.532c-1.214-1.769-3.07-2.603-4.147-1.864-1.076.739-.963 2.771.25 4.54 1.215 1.768 3.072 2.602 4.148 1.863 1.076-.739.963-2.77-.25-4.54z" stroke-width="2.041" fill="#FFF555"/></g><path d="M84.357 426.081s3.525-11.18 6.119-16.41c3.005-6.06 10.847-17.15 10.847-17.15s-1.998.313-2.908.727c-7.156 3.258-19.343 13.502-19.343 13.502l-10.153-12.934-10.291 11.822s-10.915-9.897-17.662-12.378c-1.399-.514-4.45-.417-4.45-.417s8.087 11.593 11.125 17.94c2.355 4.92 5.424 15.437 5.424 15.437s3.792-1.163 7.65-1.947c4.544-.923 9.246-.921 13.906-.417 5.263.57 9.736 2.225 9.736 2.225h0z" stroke="#000" stroke-width="2" fill="#FFF555" fill-rule="nonzero" stroke-linecap="round" stroke-linejoin="round"/><path d="M99.655 392.843s-9.262 9.874-13.073 15.437c-3.342 4.877-8.484 15.576-8.484 15.576s-1.517-7.921-3.198-11.543c-1.49-3.207-5.98-8.762-5.98-8.762s-5.119 6.122-6.676 9.736c-1.39 3.223-2.225 10.291-2.225 10.291s-5.157-11.276-8.762-16.272c-3.953-5.478-13.907-14.741-13.907-14.741" stroke="#000" stroke-width="2" stroke-linecap="round" stroke-linejoin="round"/><path d="M72.813 423.439c-.418-4.294-2.331-9.282-4.172-10.57-2.132 3.014-3.43 6.861-3.894 10.71l8.066-.14z" stroke="#000" stroke-width="2" fill="#000001" fill-rule="nonzero" stroke-linecap="round" stroke-linejoin="round"/><path d="M99.135 377.898l3.701-4.491c-6.48-6.974-11.607-14.942-14.675-23.718-4.242-12.136-6.217-25.55-4.556-38.298 1.517-11.64 5.94-23.343 12.98-32.735 7.242-9.66 18.238-16.014 28.572-22.253 3.822-2.307 9.622-3.792 12.205-5.517l-.926-4.988c-8.327 3.896-18.854 7.821-26.865 13.958-8.858 6.785-17.365 14.825-22.638 24.659-5.926 11.052-8.585 23.994-9.006 36.528-.322 9.58 1.748 19.3 4.996 28.319 3.706 10.293 7 18.09 16.212 28.536z" stroke="#000" stroke-width="2" fill="#FF5" fill-rule="nonzero" stroke-linecap="round" stroke-linejoin="round"/><path d="M84.153 354.452c-2.898-1.971-5.916-1.65-8.33-2.052L30 305.975v6.88l39.787 39.787c-5.335.394-10.357 1.624-14.728 4.587-5.231-3.086-9.466-4.438-14.487-5.795-3.44-.93-10.572-1.569-10.572-1.569v5.432s11.354 1.888 16.608 4.105c3.23 1.363 8.934 5.553 8.934 5.553s7.634-4.272 11.83-5.312c3.68-.911 7.67-1.637 11.348-.724 4.032 1.001 10.624 6.519 10.624 6.519l-5.191-10.986z" stroke="#000" stroke-width="2" fill="#FF5" fill-rule="nonzero" stroke-linecap="round" stroke-linejoin="round"/><path d="M102.943 373.177s9.508-10.882 13.442-16.914c3.776-5.789 6.787-12.062 9.658-18.35 2.942-6.444 5.779-12.986 7.726-19.798 2.408-8.423 3.815-17.132 4.829-25.834.736-6.322.94-12.709.9-19.074-.025-3.9-.37-7.794-.698-11.681-.298-3.515-1.155-10.518-1.155-10.518" stroke="#000" stroke-width="2" stroke-linecap="round" stroke-linejoin="round"/><path d="M115.09 357.878l2.737-4.383c-4.15-4.46-7.554-9.602-9.507-15.27-2.616-7.594-3.603-15.993-2.569-23.957.924-7.109 3.605-14.19 7.68-20.088 4.254-6.154 10.774-10.445 16.779-14.907 2.785-2.07 7.272-4.296 8.865-5.458l.156-5.031c-5.159 2.655-13.155 7.105-18.73 11.991-5.377 4.714-10.557 10.041-13.834 16.397-3.651 7.08-5.648 15.187-5.944 23.149-.236 6.336 1.157 12.776 3.35 18.725 2.516 6.824 5.109 12.144 11.017 18.832h0z" stroke="#000" stroke-width="2" fill="#FF5" fill-rule="nonzero" stroke-linecap="round" stroke-linejoin="round"/><path d="M127.143 335.595c-2.005-2.534-3.231-5.772-3.932-8.956-.845-3.838-.905-7.916-.23-11.787.591-3.393 1.845-6.74 3.684-9.652 2.038-3.225 4.917-5.906 7.904-8.28 1.13-.897 2.894-1.593 3.726-2.205l.473-5.13c-2.67 1.371-6.818 3.502-9.606 6.064a34.009 34.009 0 00-7.27 9.612c-1.9 3.756-3.176 7.915-3.605 12.103-.366 3.578-.062 7.291.923 10.75 1.207 4.236 3.133 7.989 5.979 11.783l1.954-4.302z" stroke="#000" stroke-width="2" fill="#FF5" fill-rule="nonzero" stroke-linecap="round" stroke-linejoin="round"/><path d="M204.324 330.904l-59.805 58.436" stroke="#000" stroke-width="2" stroke-linecap="round" stroke-linejoin="round"/><path stroke="#000" stroke-width="2" fill="#000" fill-rule="nonzero" stroke-linecap="round" stroke-linejoin="round" d="M198.389 306.252l-48.849 48.392 4.566-15.979 43.383-42.913z"/><path d="M62.344 338.209l-.457-82.632M55.952 330.904l-.456-74.414" stroke="#000" stroke-width="2" stroke-linecap="round" stroke-linejoin="round"/><path fill="#55A" fill-rule="nonzero" d="M50.061 264.708H39.104v-3.652h10.957zM50.061 272.689H39.104v-3.652h10.957zM50.061 280.67H39.104v-3.651h10.957zM50.061 288.652H39.104V285h10.957zM50.061 296.634H39.104v-3.652h10.957zM50.061 304.615H39.104v-3.652h10.957zM50.061 312.597H39.104v-3.652h10.957z"/><g stroke="#000" stroke-linecap="round" stroke-linejoin="round" stroke-width="2"><path d="M104.116 216.316c1.58-2.476 4.321-4.232 7.076-5.25 4.078-1.508 8.666-.761 13.011-.914 3.574-.125 7.19-.519 10.729 0 1.571.231 3.456.233 4.565 1.37.606.621.865 1.662.685 2.51-.226 1.059-.974 2.468-2.055 2.512-4.94.199-14.837-.228-14.837-.228s11.59.663 17.348 1.37c1.838.224 3.948-.13 5.479.912.733.5 1.429 1.398 1.37 2.283-.066.972-1.003 1.762-1.827 2.283-1.123.71-2.555 1-3.88.913-5.61-.374-16.892-.685-16.892-.685s12.694.433 19.174.456c1.477.005 3.079.139 4.337.913.83.511 1.784 1.31 1.826 2.283.036.822-.73 1.536-1.37 2.054-.954.775-2.194 1.39-3.423 1.37-7.315-.123-19.673-.291-19.631-.228 0 0 12.024.21 18.033.684 1.032.082 1.99.932 2.51 1.827.347.595.486 1.415.229 2.054-.444 1.103-1.366 2.312-2.74 2.283-3.61-.079-20.09-.493-20.086-.229 0 0 10.32-.387 15.293.487.905.159 1.854 1.204 1.761 2.118-.105 1.04-1.46 1.614-2.445 1.96-1.795.631-3.814-.187-5.707 0-3.86.383-7.538 2.094-11.413 2.283-3.055.15-6.233.066-9.13-.913-2.202-.743-4.195-2.114-5.936-3.652-1.095-.968-2.19-2.07-2.739-3.424-.891-2.196-.57-4.71-.685-7.076-.091-1.9-.193-3.814 0-5.707.23-2.241.157-4.72 1.37-6.62h0z"/><path d="M133.252 240.774s-.455-.71-.52-1.69c-.067-1.006.39-2.015.39-2.015M139.234 236.127s-.454-.92-.52-2.194c-.067-1.305.39-2.615.39-2.615M143.134 229.888s-.847-1.07-.97-2.55c-.125-1.517.727-3.039.727-3.039M140.859 223.39s-.903-1.008-1.033-2.402c-.134-1.43.775-2.863.775-2.863M132.735 215.915s-.566-.932-.648-2.223c-.084-1.323.486-2.651.486-2.651"/></g><path d="M78.466 255.656l-47.573-.26M199.746 312.37l-3.716 3.716 7.587 8.98-7.897 6.968-3.716-4.335 3.561-3.407-3.87-3.56-7.897 6.657 7.742 8.67-8.516 7.588-3.562-3.561 2.942-4.026-3.096-3.252-8.052 7.897 7.742 7.742-8.516 8.36-4.026-4.18 3.562-4.335-3.716-3.252-7.897 7.432 8.051 8.516-8.67 7.897-3.562-3.871 3.716-3.716-4.335-4.49-8.67 9.445 8.206 7.896-7.742 7.432-3.407-3.87 3.407-3.252-2.323-2.477" stroke="#000" stroke-width="2" stroke-linecap="round" stroke-linejoin="round"/><g stroke="#000" stroke-linecap="round" stroke-linejoin="round" stroke-width="2"><path d="M96.403 239.669s-4.76 2.897-6.89 4.68c-1.996 1.67-3.696 3.67-5.458 5.588-1.704 1.855-4.94 5.72-4.94 5.72s-1.8-3.806-2.209-5.85c-.502-2.508-.784-5.165-.26-7.669.473-2.257 2.99-6.239 2.99-6.239s-3.402-1.362-4.94-2.34c-1.896-1.204-4.24-2.256-5.199-4.288-.332-.706-.306-1.623 0-2.34.565-1.325 1.999-2.085 3.12-2.99 1.505-1.215 3.108-2.326 4.809-3.25 1.075-.582 3.38-1.429 3.38-1.429s-1.523-4.09-1.69-6.239c-.217-2.78.325-5.59.91-8.318.378-1.766 1.667-5.154 1.667-5.154s1.094 4.79 2.362 6.843c1.368 2.216 3.44 3.944 5.459 5.59 2.115 1.723 6.889 4.419 6.889 4.419s-.481 4.239-.52 6.369c-.053 2.905.302 5.804.39 8.708.083 2.729.13 8.189.13 8.189h0z" fill="#FF5" fill-rule="nonzero"/><path d="M94.95 235.64s-5.294-.32-7.751-1.215c-3.503-1.276-9.575-5.776-9.575-5.776s4.991-5.16 8.207-6.535c3.103-1.326 10.03-1.367 10.03-1.367"/><path d="M95.405 230.777c-3.242.253-6.332-1.013-9.726-2.584 2.989-2.533 6.586-3.09 10.334-3.343M78.84 255.246l2.28-8.511 3.04-6.991 2.735-5.015M89.022 221.05s-2.992-3.586-4.103-5.623a27.575 27.575 0 01-2.584-6.687c-.672-2.773-.912-8.51-.912-8.51"/></g><path d="M103.812 237.98s-.453 1.505-1.04 1.949c-.814.615-2.003.907-2.99.65-1.455-.38-2.697-1.65-3.38-2.99-1.14-2.243-.616-5.002-.715-7.517a70.968 70.968 0 01.13-8.21c.133-1.745-.253-3.743.716-5.2.613-.921 1.76-1.552 2.86-1.69 1.523-.189 4.419 1.3 4.419 1.3-.947 6.881-2.187 13.652 0 21.707z" stroke="#000" stroke-width="2" fill="#FF5" fill-rule="nonzero" stroke-linecap="round" stroke-linejoin="round"/><path d="M96.029 178.109a2.5 2.5 0 115 0 2.5 2.5 0 01-5 0zM87.586 183.056a2.5 2.5 0 115 0 2.5 2.5 0 01-5 0zM79.683 187.463a2.5 2.5 0 115 0 2.5 2.5 0 01-5 0zM72.084 192.023a2.5 2.5 0 115 0 2.5 2.5 0 01-5 0zM64.637 197.342a2.5 2.5 0 115 0 2.5 2.5 0 01-5 0zM56.735 203.117a2.5 2.5 0 115 0 2.5 2.5 0 01-5 0zM49.44 209.5a2.5 2.5 0 115 0 2.5 2.5 0 01-5 0zM41.993 215.58a2.5 2.5 0 115 0 2.5 2.5 0 01-5 0zM35.002 222.722a2.5 2.5 0 115 0 2.5 2.5 0 01-5 0zM33.026 203.877a2.5 2.5 0 115 0 2.5 2.5 0 01-5 0zM40.473 197.494a2.5 2.5 0 115 0 2.5 2.5 0 01-5 0zM47.312 191.567a2.5 2.5 0 115 0 2.5 2.5 0 01-5 0zM54.759 185.64a2.5 2.5 0 115 0 2.5 2.5 0 01-5 0zM62.814 179.864a2.5 2.5 0 115 0 2.5 2.5 0 01-5 0zM70.717 175.153a2.5 2.5 0 115 0 2.5 2.5 0 01-5 0zM78.771 170.29a2.5 2.5 0 115 0 2.5 2.5 0 01-5 0zM86.978 164.97a2.5 2.5 0 115 0 2.5 2.5 0 01-5 0zM109.594 363.318s-1.37-1.591-2.282-2.055c-2.981-1.512-7.844.645-9.816-2.054-3.068-4.2 3.522-10.69 1.598-15.522-1.596-4.01-8.89-4.23-9.815-8.446-1.023-4.656 5.922-8.244 5.935-13.01.012-5.007-7.35-8.833-6.164-13.697.99-4.052 7.854-4.08 9.816-7.76 2.764-5.186-2.35-13.027 1.37-17.577 2.453-3.003 8.337-.564 11.184-3.196 3.519-3.252 1.041-10.802 5.022-13.467 3.733-2.5 9.452 2.469 13.468.456 3.812-1.91 7.304-10.5 7.304-10.5l.457 4.565s-2.96 7.78-6.392 9.36c-3.824 1.76-8.989-3.609-12.554-1.37-4.24 2.661-1.426 10.67-5.022 14.152-2.697 2.611-8.49.41-10.728 3.424-2.904 3.91 1.807 10.185-.229 14.609-1.825 3.966-8.904 4.404-9.815 8.674-.96 4.496 5.792 7.958 5.707 12.554-.08 4.253-6.558 7.246-5.707 11.414.799 3.913 7.625 4.06 9.13 7.76 1.844 4.531-4.161 10.594-1.37 14.61 1.845 2.651 6.615.809 9.36 2.51.733.455 1.712 1.94 1.712 1.94l-2.169 2.626z" fill="#FF5" fill-rule="nonzero"/><path fill="#000" fill-rule="nonzero" d="M124.842 340.23l-6.665 12.624-7.22-9.03-3.368-10.121-2.016-9.954.155-10.394 3.412-12.59 5.853-8.222 7.33-6.749 7.445-6.254 9.157-5.417-.032 15.235-7.13 3.554-6.52 6.082-5.09 7.774-2.086 9.076-.396 7.026 2.016 7.905 3.102 6.588z"/><path fill="#FF5" fill-rule="nonzero" d="M119.708 336.928l-1.13 6.926-6.785-3.675.99-7.21zM115.942 320.631l-4.588 5.31-3.858-6.682 4.615-5.625zM119.739 305.112l-6.908 1.237 1.209-7.62 7.127-1.465zM127.542 283.624l7.017.08-2.616 7.259-7.276.102z"/><path fill="#000" fill-rule="nonzero" d="M137.8 295.089l-2.12 15.124-3.392 12.438-5.371 12.44-3.958-9.754-.141-9.47 3.11-9.753 4.664-5.796z"/><path d="M78.317 209.545s-6.02 1.952-8.989 3.047c-3.848 1.421-11.425 4.57-11.425 4.57" stroke="#000" stroke-width="2" stroke-linecap="round" stroke-linejoin="round"/></g><path stroke="#55A" stroke-width="2" d="M30 150.362v360h270M60 30.362h270v360h0"/><path fill="#000" fill-rule="nonzero" d="M163.364 252.077l33.698-.39-.897 18.45 1.154 18.06-34.083.52.897-18.71z"/><path stroke="#000" stroke-width="2" fill="#FF5" fill-rule="nonzero" stroke-linecap="round" stroke-linejoin="round" d="M175 255.362h10v10h-10zM165 265.362h10v10h-10zM185 265.362h10v10h-10zM175 275.362h10v10h-10z"/><path d="M29.5 99.362c0-5.523-2.858-9-7-9-4.142 0-7.5 4.477-7.5 10 .017.478.01.946 0 1.406 0 3.65 1.338 7.189 2.5 10.5 1.195 3.406 2.917 6.39 4.531 9.438 2.5 4.72 7.969 13.656 7.969 13.656s5.468-8.936 7.969-13.656c1.614-3.047 3.336-6.032 4.531-9.438 1.162-3.311 2.5-6.85 2.5-10.5-.014-.487-.01-.957 0-1.406 0-5.523-3.358-10-7.5-10-4.142 0-7 3.477-7 9 0 1-1 1-1 0zM89 63.362c0-11.046-5.716-18-14-18-8.284 0-15 8.954-15 20 .035.956.018 1.891 0 2.813 0 7.298 2.677 14.377 5 21 2.389 6.81 5.834 12.78 9.063 18.875 5 9.44 15.937 27.312 15.937 27.312s10.936-17.873 15.938-27.312c3.228-6.095 6.673-12.064 9.062-18.875 2.323-6.623 5-13.702 5-21a56.086 56.086 0 010-2.813c0-11.046-6.716-20-15-20-8.284 0-14 6.954-14 18 0 2-2 2-2 0zM330.5 441.362c0 5.523 2.858 9 7 9 4.142 0 7.5-4.477 7.5-10a24.972 24.972 0 010-1.406c0-3.65-1.338-7.188-2.5-10.5-1.195-3.406-2.917-6.39-4.531-9.438-2.5-4.72-7.969-13.656-7.969-13.656s-5.468 8.937-7.969 13.656c-1.614 3.048-3.336 6.032-4.531 9.438-1.162 3.312-2.5 6.85-2.5 10.5.014.487.009.957 0 1.406 0 5.523 3.358 10 7.5 10 4.142 0 7-3.477 7-9 0-1 1-1 1 0zM271 477.362c0 11.046 5.716 18 14 18 8.284 0 15-8.954 15-20a49.662 49.662 0 010-2.812c0-7.299-2.677-14.377-5-21-2.389-6.811-5.834-12.781-9.063-18.875-5-9.44-15.937-27.313-15.937-27.313s-10.936 17.873-15.938 27.313c-3.228 6.094-6.673 12.064-9.062 18.875-2.323 6.623-5 13.701-5 21 .028.974.019 1.914 0 2.812 0 11.046 6.716 20 15 20 8.284 0 14-6.954 14-18 0-2 2-2 2 0z" fill="#F55" fill-rule="nonzero"/></g></svg>