<svg width="360" height="540" xmlns="http://www.w3.org/2000/svg"><g transform="translate(0 -.362)" fill="none" fill-rule="evenodd"><rect stroke="#000" fill="#FFF" fill-rule="nonzero" x=".5" y=".862" width="359" height="539" rx="29.944"/><path d="M30 30.362c-5.523 0-10 4.477-10 10v30c0 5.523 4.477 10 10 10 .434 0 .862-.04 1.281-.094A9.973 9.973 0 0040 85.362v-5c-1.64 0-3.088-.812-4-2.031 2.424-1.825 4-4.7 4-7.969v-30c0-5.523-4.477-10-10-10zm0 5a5 5 0 015 5v30c0 .716-.167 1.385-.438 2a10.031 10.031 0 00-9.562-7v-25a5 5 0 015-5zm-5 35a5 5 0 015 5 5 5 0 01-5-5zM330 510.362c5.523 0 10-4.478 10-10v-30c0-5.523-4.477-10-10-10-.434 0-.862.04-1.281.094a9.973 9.973 0 00-8.719-5.094v5c1.64 0 3.088.812 4 2.031-2.424 1.825-4 4.7-4 7.969v30c0 5.523 4.477 10 10 10zm0-5a5 5 0 01-5-5v-30c0-.716.167-1.385.438-2 1.274 4.056 5.085 7 9.562 7v25a5 5 0 01-5 5zm5-35a5 5 0 01-5-5 5 5 0 015 5z" fill="#F55" fill-rule="nonzero"/><path stroke="#55A" stroke-width="2" d="M60 30.362h270v360h0M30 150.362v360h270"/><path d="M145.061 197.987l1.95-7.604s8.623 3.267 13.063 4.484c5.25 1.44 10.627 2.377 15.988 3.315 3.169.554 6.347 1.105 9.554 1.365 6.479.525 12.998.517 19.497.39 6.575-.13 13.143-.59 19.693-1.17 3.324-.294 6.64-.691 9.943-1.17 3.786-.549 11.309-1.95 11.309-1.95l-12.868 12.479-24.177.195-12.479 31.195 19.108 1.365-3.705 21.058s-14.706-.681-22.032-1.365c-6.782-.634-13.544-1.503-20.277-2.535-4.31-.66-8.571-1.605-12.868-2.34-3.244-.554-9.75-1.56-9.75-1.56s-2.68-6.968-4.289-10.333c-2.521-5.274-8.384-15.403-8.384-15.403l17.743 4.29 9.749-29.052-16.768-5.654z" fill="#000" fill-rule="nonzero"/><path d="M121.023 177.985s8.463 5.516 12.974 7.763c4.211 2.098 13.081 5.303 13.081 5.303l-11.667 37.477s-6.506-9.228-10.253-13.435c-3.5-3.93-7.412-7.482-11.36-10.96-3.388-2.985-10.56-8.485-10.56-8.485l17.785-17.663zM123.39 244.792s4.468 13.495 5.303 20.506c.879 7.373.915 14.957-.353 22.274-1.127 6.5-3.58 12.757-6.364 18.738-2.499 5.369-5.353 10.694-9.192 15.203-3.308 3.882-7.518 6.934-11.668 9.9-5.245 3.748-16.617 9.899-16.617 9.899l-3.535-3.182s1.358-14.233 2.828-21.214c1.568-7.445 3.644-14.814 6.364-21.92 2.526-6.596 5.867-12.86 9.193-19.092 3.283-6.152 6.302-12.545 10.606-18.031 3.858-4.918 13.435-13.081 13.435-13.081z" fill="#55A" fill-rule="nonzero"/><path d="M117.026 251.51s4.25 12.793 4.596 19.445c.382 7.357-.834 14.828-2.828 21.92-1.956 6.957-4.833 13.783-8.839 19.799-3.05 4.58-7.084 8.5-11.314 12.02-4.85 4.036-15.91 10.254-15.91 10.254s1.499-14.674 2.829-21.92c1.006-5.483 2.06-10.998 3.889-16.264 2.3-6.625 5.59-12.877 8.839-19.092 2.593-4.962 5.208-9.956 8.485-14.496 3.03-4.198 10.253-11.667 10.253-11.667z" fill="#F55" fill-rule="nonzero"/><g stroke="#55A" stroke-linecap="round" stroke-linejoin="round" stroke-width="2.025"><path d="M47.765 226l-5.803 12.993s.831 4.229 2.535 4.983c1.027.455 2.322-.126 3.25-.886 1.187-.97 2.5-4.31 2.5-4.31l4.96-10.437" fill="#FF5" fill-rule="nonzero"/><path d="M42.949 238.622s2.483-1.01 3.798-1.095c1.053-.068 3.129.475 3.129.475"/></g><path d="M166.208 66.144s-13.782 14.046-19.08 22.258c-5.543 8.594-9.702 18.11-12.99 27.794-2.852 8.399-4.356 17.221-5.74 25.982-.82 5.196-1.101 10.465-1.51 15.71-.393 5.029-.907 15.105-.907 15.105l45.015-41.691s-2.716-9.173-3.324-13.897c-.604-4.696-.251-9.466-.302-14.2-.067-6.344.205-12.692 0-19.033-.194-6.018-1.162-18.028-1.162-18.028z" fill="#000" fill-rule="nonzero"/><path d="M299.778 174.73c-5.067 2.594-12.066 6.076-18.247 8.794-5.833 2.565-11.714 5.06-17.756 7.084-5.083 1.703-10.308 2.954-15.511 4.243-4.822 1.195-9.636 2.49-14.548 3.234-5.08.77-10.237.889-15.36 1.266-4.12.304-8.237.725-12.368.803-5.003.095-10.01-.118-15.006-.406-4.59-.264-9.195-.5-13.736-1.211-5.119-.802-10.147-2.121-15.157-3.437-4.317-1.134-8.584-2.453-12.827-3.837-4.652-1.518-9.352-2.948-13.84-4.897-5.264-2.287-11.74-6.175-15.276-7.942l45.292-42.05s2.742.51 4.104.807c2.589.566 2.447.947 7.73 1.859 2.495 1.037 4.165 3.57 6.645 4.644 3.023 1.308 6.377 2.038 9.67 2.03 6.29-.014 13.867-1.696 18.448-3.96 2.383-.003 4.485-.4 6.727-.617 3.11-.3 6.23-.523 9.325-.946 3.326-.455 6.69-.812 9.924-1.71 2.766-.769 5.391-1.985 8.026-3.125 2.891-1.25 8.528-4.07 8.528-4.07 3.982 6.638 9.038 15.502 17.592 23.604 4.277 4.051 9.276 9.738 13.55 12.983 4.275 3.245 11.071 5.267 14.071 6.858z" fill="#FFFF58" fill-rule="nonzero"/><path d="M167.193 104.02s-6.095 9.734-8.584 14.895c-1.787 3.706-3.387 7.529-4.532 11.48a51.85 51.85 0 00-1.817 9.555c-.258 2.745.005 8.27.005 8.27l19.033-16.918s-2.644-8.573-3.323-12.991c-.725-4.715-.782-14.291-.782-14.291z" fill="#F55" fill-rule="nonzero"/><path fill="#000" fill-rule="nonzero" d="M224 30.362l65.5 84.167 7.833-1.667L238 30.362z"/><path d="M307 30.362a149.566 149.566 0 00-2 30c.348 10.168 1.752 20.359 5 30a81.018 81.018 0 0010 20 75.943 75.943 0 00-23 2l-59-82h69" stroke="#55A" stroke-width="2" fill="#FF5" fill-rule="nonzero" stroke-linecap="round" stroke-linejoin="round"/><path d="M273.592 55.832c.396.991.852 1.982 1.518 2.81.88 1.092 1.844 2.313 3.192 2.743 1.695.54 3.992.724 5.39-.45 1.364-1.146 1.79-3.435 1.347-5.106-.512-1.93-4.227-4.184-4.227-4.184s4.728-1.58 5.556-3.612c.777-1.909-.034-4.453-1.44-5.88-1.387-1.406-3.928-2.34-5.796-1.518-2.098.923-3.3 6.023-3.3 6.023s-.838-3.753-2.05-5.13c-1.078-1.221-2.628-2.416-4.291-2.38-1.475.033-3.177.958-3.867 2.28-1.085 2.08-.611 4.967.625 6.878 1.24 1.915 5.998 3.342 5.998 3.342s-1.275-2.703.982-4.263c1.804-1.246 5.046.239 6.047 2.108.847 1.582.4 4.62-1.3 5.348-3.395 1.453-5.119-1.722-5.119-1.722s.389 1.846.735 2.713h0zM293.168 83.07c.353.897.76 1.793 1.355 2.541.784.988 1.645 2.092 2.847 2.48 1.513.49 3.562.656 4.81-.407 1.217-1.035 1.597-3.105 1.202-4.617-.457-1.745-3.772-3.783-3.772-3.783s3.707-1.827 4.29-3.6c.57-1.733.011-4.035-1.284-5.318-1.096-1.084-3.1-1.674-4.505-1.04-1.881.85-2.945 5.447-2.945 5.447s-.747-3.394-1.83-4.638c-.96-1.106-2.344-2.186-3.827-2.153-1.316.029-2.835.866-3.45 2.06-.968 1.882-.546 4.494.558 6.222 1.106 1.732 5.351 3.022 5.351 3.022s-1.137-2.445.876-3.855c1.61-1.127 4.503.215 5.395 1.906.756 1.431.358 4.178-1.16 4.837-3.029 1.314-4.567-1.558-4.567-1.558s.347 1.67.656 2.454h0z" stroke="#000100" stroke-width="2" fill="#000" fill-rule="nonzero" stroke-linecap="round" stroke-linejoin="round"/><path d="M247.333 32.029s.588 11.227 5.5 16.833c4.723 5.39 10.278 5.611 15.167 5.167 0 0-2.3 13.14 2 18.5 4.664 5.814 20 10.333 20 10.333s-3.58 10.047 1.333 17c2.72 3.85 11.834 9.5 11.834 9.5" stroke="#000" stroke-width="2" stroke-linecap="round" stroke-linejoin="round"/><path d="M252.094 31c-.69.002-1.34.541-1.469 1.219 0 0-1.823 8.333 4.063 14.218.91.91 2.217 1.694 3.812 2.563 1.595.87 3.437 1.76 5.188 2.563 3.054 1.4 5.149 2.2 5.812 2.468.003.707-.023 2.231.375 5.032.48 3.374 1.087 8.16 3.323 11.322 4.14 5.858 8.887 8.365 12.302 10.053 2.235 1.104 3.76 1.49 4.781 1.687.099.77.278 2.426.844 5.281.683 3.448 1.614 7.37 3.188 9.906 1.649 2.66 4.928 5.497 7.875 7.844a102.35 102.35 0 005.562 4.125c.654.442 1.652.249 2.094-.406.442-.654-3.085-3.152-3.74-3.594 0 0-2.356-3.363-2.875-6.802-2.852-2.272-4.934-2.322-6.552-4.396-1.584-2.03-1.956-3.947-2.615-7.27-.658-3.324-1-6.126-1-6.126-.083-.68-.69-1.26-1.375-1.312 0 0-5.7-1.434-7.843-3.292-2.471-2.142-5.685-2.96-5.042-8.416-1.73-2.45-5.512-5.903-5.958-9.042-.446-3.139-.438-5.563-.438-5.563a1.54 1.54 0 00-.937-1.437s-3.108-1.243-6.531-2.813c-1.712-.784-3.8-1.049-5-2.468-1.468-1.736-1.552-6.124-1.959-6.532-4.655-4.655-4.416-6.968-4.416-6.968.207-.88-.565-1.85-1.47-1.844z" fill="#000" fill-rule="nonzero"/><path stroke="#55A" stroke-width="2" fill="#F55" fill-rule="nonzero" d="M211 30.362h13.333L330 169.03v32.333z"/><path d="M186.993 30.362s1.77 11.296 14.652 22.174c12.881 10.879 34.358 15.23 34.358 15.23" stroke="#55A" stroke-width="2" stroke-linecap="round" stroke-linejoin="round"/><path d="M192.16 30.362s5.213 11.83 12.429 17.843 27.532 13.114 27.532 13.114" stroke="#55A" stroke-width="2" stroke-linecap="round" stroke-linejoin="round"/><path d="M198.267 30.362s4.41 10.059 9.792 14.64c5.382 4.581 19.925 10.533 19.925 10.533" stroke="#55A" stroke-width="2" stroke-linecap="round" stroke-linejoin="round"/><path d="M203.288 30.362s2.732 6.832 7.03 10.382 12.89 7.391 12.89 7.391M188.939 37.9s-.84 4.086-6.144 12.957c-5.304 8.872-15.747 12.633-15.747 12.633M185.051 30.362s-.173 7.049-4.997 14.561c-4.824 7.513-12.941 11.314-12.941 11.314M179.68 30.362s-1.933 7.458-4.509 12.04c-2.575 4.58-7.86 7.897-7.86 7.897M173.554 30.362s.18 4.4-1.943 7.951c-2.123 3.55-3.59 3.984-3.59 3.984M186.405 83.832s.59 2.58.53 3.887c-.162 3.576-1.195 7.098-2.408 10.466-.795 2.208-3 3.951-3.158 6.293-.132 1.947.616 4.064 1.896 5.537.901 1.038 2.64.966 3.676 1.868.839.73 1.906 2.74 1.906 2.74" stroke="#55A" stroke-width="2" stroke-linecap="round" stroke-linejoin="round"/><path d="M198.748 103.143s3.324 3.56 2.859 5.604c-.304 1.335-1.914 2.282-3.268 2.49-1.78.275-3.4-1.188-5.082-1.827-1.594-.606-3.127-2.43-4.747-1.902-.652.213-1.417 1.142-1.09 1.744.536.984 2.243-.014 3.362.053 3.394.204 7.438 3.119 10.144 1.061.871-.662.78-2.169.545-3.238-.346-1.571-2.723-3.985-2.723-3.985h0zM232.2 80.134s-9.207-6.281-14.497-7.65c-4.162-1.075-8.739-1.367-12.893-.265-1.672.444-4.451 2.665-4.451 2.665s4.075-1.311 6.188-1.54c4.27-.459 8.714-.675 12.878.376 4.62 1.166 12.776 6.414 12.776 6.414h0zM168.27 74.613s5.568-2.98 8.54-2.654c3.705.407 9.588 5.526 9.588 5.526s-6.24-4.258-9.86-4.37c-3.038-.093-8.505 3.152-8.505 3.152l.238-1.654zM203.94 123.333s-4.704-1.876-7.154-2.045c-1.84-.126-3.647.697-5.488.786-2.101.101-4.257-.854-6.305-.292-1.12.307-3.03 1.937-3.03 1.937s2.086-.46 3.137-.398c2.136.129 4.137 1.566 6.276 1.569 2.36.004 4.55-1.457 6.93-1.713 1.87-.2 5.634.156 5.634.156h0z" stroke="#55A" stroke-width="2" fill="#55A" fill-rule="nonzero" stroke-linecap="round" stroke-linejoin="round"/><path d="M197.578 128.195s-3.943 1.372-5.99 1.416c-1.754.037-5.174-.991-5.174-.991M185.626 83.262s-5.032-4.106-9.65-4.205c-4.941-.107-7.894 2.523-7.894 2.523M228.614 85.408s-9.864-7.326-15.527-7.162c-7.42.213-12.961 5.559-12.961 5.559" stroke="#55A" stroke-width="2" stroke-linecap="round" stroke-linejoin="round"/><path d="M229.705 86.983c-5.852-.757-10.154-3.299-15.541-3.759-4.62-.394-13.943 1.036-13.943 1.036M167.453 87.056c5.387-2.542 4.233-3.35 9.62-3.81 4.62-.395 9.446 2.225 9.446 2.225M226.469 87.442c-5.267 1.2-10.77 5.082-16.728 5.379-4.415.22-9.15-2.814-9.54-6.898" stroke="#55A" stroke-width="2" stroke-linecap="round" stroke-linejoin="round"/><path d="M215.381 84.758c.937 5.064-4.018 6.559-7.578 6.121-2.415-.296-4.654-3.26-3.492-6.153" stroke="#55A" stroke-width="2" stroke-linecap="round" stroke-linejoin="round"/><path d="M207.132 87.605c-.098-.917.746-2.18 1.706-2.23.84-.044 1.724.977 1.706 1.784-.02.841-.984 1.762-1.86 1.784-.696.018-1.48-.675-1.552-1.338h0zM178.558 87.91c.026-.717-.847-1.645-1.742-1.625-.784.016-1.533.862-1.46 1.486.078.651 1.04 1.307 1.855 1.27.648-.028 1.327-.612 1.347-1.13h0z" stroke="#55A" stroke-width="2" fill="#55A" fill-rule="nonzero" stroke-linecap="round" stroke-linejoin="round"/><path d="M184.968 91.775c-2.093 2.46-2.244 4.643-6.58 6.729M199.941 84.295c1.605 7.122 3.45 11.366 8.597 13.522M167.55 89.776c2.856 1.804 6.512 2.87 11.176 2.748 3.455-.09 6.968-2.538 7.03-5.497" stroke="#55A" stroke-width="2" stroke-linecap="round" stroke-linejoin="round"/><path d="M172.826 84.465c-1.112 4.9 1.095 7.536 5.143 7.453 1.78-.036 5.422-4.039 2.747-7.844" stroke="#55A" stroke-width="2" stroke-linecap="round" stroke-linejoin="round"/><path d="M169 30.362s-2.295 21.97-2.5 33c-.161 8.672.745 17.33 1 26 .24 8.165-.41 16.383.5 24.5.645 5.75.935 11.815 3.5 17 2.252 4.553 5.707 8.784 10 11.5 3.657 2.313 8.179 3.274 12.5 3.5 4.39.23 8.832-.813 13-2.209 5.696-1.908 10.985-4.984 16-8.29 5.042-3.325 9.857-7.107 14-11.5 3.11-3.3 8-11 8-11M166.353 136.804c4.67 2.407 8.817 2.832 11.95 3.191M211.062 142.377c7.264-1.353 16.236-2.198 24.14-4.272 6.644-1.744 12.96-4.558 19.44-6.836M242.893 117.17l5.981 15.808M239.475 121.442l4.913 13.031M235.63 126.142l3.204 9.4M231.784 129.56l2.99 7.477M227.725 132.978l2.777 6.195M223.88 135.755l1.709 3.632M244.815 80.426c-.997 1.851-2.225 3.596-2.99 5.554-1.044 2.67-1.425 5.554-2.137 8.331M248.874 86.407c-1.282 2.564-2.91 4.982-3.845 7.69-1.163 3.367-1.424 6.98-2.136 10.469M252.506 91.748c-1.14 2.706-2.59 5.3-3.418 8.118-1.284 4.37-1.567 8.972-2.35 13.458M256.565 96.875c-1.353 3.49-3.28 6.807-4.06 10.468-1.201 5.648-.569 11.535-.854 17.303M260.837 102.43c-1.21 2.563-2.972 4.933-3.632 7.69-1.756 7.344-.427 15.096-.64 22.644M265.11 107.984c-1.282 3.204-3.34 7.222-3.846 11.108-.985 7.577 1.14 15.239 1.71 22.858M268.955 114.82c-1.068 3.418-2.237 8.905-2.35 13.458-.187 7.532 1.567 13.886 2.777 22.43M273.655 121.442c-.712 4.771-.911 8.975-.641 13.458.512 8.507 2.136 17.02 4.272 25.208M279.209 129.56c-.142 4.486-.633 9.584 0 14.313 1.078 8.047 4.13 15.38 6.409 23.499M286.045 139.387c-.285 3.275-.283 7.895.427 11.749 1.322 7.175 3.347 13.53 7.05 20.722M292.24 148.359c.499 3.703.386 7.54 1.495 11.108 1.684 5.413 5.484 10.468 7.691 15.168" stroke="#55A" stroke-width="2" stroke-linecap="round" stroke-linejoin="round"/><g stroke="#55A" stroke-linecap="round" stroke-linejoin="round" stroke-width="2"><path d="M89.797 208.324s-4.405-5.209-6.869-7.601c-2.594-2.519-5.292-4.98-8.3-7.077-2.317-1.616-4.681-3.49-7.44-4.194-1.629-.415-3.485-.563-5.04.07-1.144.466-2.42 1.346-2.688 2.551-.508 2.291 1.102 4.727 2.576 6.553 1.495 1.851 3.768 2.992 5.946 3.951 1.314.579 2.915.903 4.182 1.037.829 2.601-1.655 2.008-1.127 7.139.154 1.504.362 3.568.362 3.568"/><path d="M63.467 194.048s.488 1.665 1.145 2.219c.6.505 1.483.778 2.29.786.79.008 2.26-.725 2.26-.725M58.888 191.287s-3.967-1.815-5.724-1.049c-1.849.807-2.854 3.104-2.862 4.98-.011 2.853 2.778 5.118 4.293 7.602.922 1.51 1.534 3.33 2.915 4.435 1.353 1.083 3.172 2.203 4.865 1.835 1.323-.288 2.387-1.616 2.862-2.884.424-1.131.583-2.725-.232-3.617-1.095-1.198-3.223-1.09-4.808-.747-.847.184-1.634.748-2.174 1.426-.554.697-.926 2.506-.926 2.506"/><path d="M49.444 196.529s-2.803.856-3.72 1.835c-.925.985-1.49 2.372-1.432 3.67.097 2.109 1.55 4.03 2.862 5.766 1.537 2.031 3.545 3.848 5.724 5.242 1.616 1.035 3.417 1.906 5.31 2.228 1.413.24 3.31.782 4.292-.263.838-.89.606-2.607 0-3.67-.457-.801-1.498-1.146-2.383-1.41-1.2-.358-2.707-.857-3.756-.172-.94.615-1.209 3.146-1.209 3.146"/><path d="M44.865 206.49s-3.484 2.21-3.72 3.931c-.16 1.163.905 2.239 1.717 3.146 2.068 2.31 4.948 3.938 7.727 5.504 1.708.963 3.432 2.337 5.437 2.359.94.01 2.108-.302 2.576-1.048.43-.687.088-1.646-.286-2.36-.702-1.336-1.816-3.194-3.435-3.145-1.013.031-1.604 1.243-2.003 2.097-.415.887-.286 2.883-.286 2.883"/><path d="M43.148 215.663s-1.257 2.045-1.145 3.146c.182 1.791 1.484 3.435 2.862 4.718 1.786 1.663 4.173 2.84 6.617 3.497 1.272.342 2.96.958 3.972.173 1.245-.968 1.326-3.13.572-4.456-.65-1.145-2.328-2.032-3.72-1.835-1.05.149-1.724 1.236-2.22 2.097-.5.867-.642 2.883-.642 2.883M54.737 228.634s.874 1.364 1.478 1.886c.568.492 1.27.815 1.957 1.12 1.364.604 4.257 1.382 4.257 1.382"/></g><g stroke="#55A" stroke-linecap="round" stroke-linejoin="round" stroke-width="2"><path d="M63.669 191.078s-5.518 1.206-8.31 1.1c-2.127-.08-4.32-.413-6.25-1.314-2.091-.977-3.981-2.496-5.442-4.284-1.636-2-3.49-6.925-3.49-6.925s4.355.928 6.568 1.087c2.387.17 4.797-.398 7.176-.151 1.775.184 3.532.615 5.214 1.21 1.347.478 2.711 1.019 3.855 1.876 1.118.837 2.045 1.938 2.817 3.102.645.972 1.474 3.174 1.474 3.174l-3.612 1.125z" fill="#FF5" fill-rule="nonzero"/><path d="M48.623 185.383s2.933 1.523 4.512 1.973c2.386.68 4.921.646 7.368 1.058 1.824.307 5.45 1.053 5.45 1.053"/></g><path stroke="#55A" stroke-width="2" fill="#FF5" fill-rule="nonzero" stroke-linecap="round" stroke-linejoin="round" d="M66.526 188.508l.888-10.32 3.068-2.706 2.653 2.68-.592 13.76z"/><g stroke="#55A" stroke-linecap="round" stroke-linejoin="round" stroke-width="2.004"><path d="M74.456 192.26s1.78-4.028 3.313-5.617c1.778-1.842 4.135-3.185 6.518-4.22 2.226-.967 4.792-.913 7.063-1.772 2.123-.803 6.038-3.125 6.038-3.125s-.422 4.776-1.473 6.88c-1.118 2.24-2.87 4.254-4.91 5.652-2.755 1.888-6.124 2.615-9.33 3.306-1.435.31-2.951.637-4.366.363-1.07-.207-2.853-1.466-2.853-1.466h0z" fill="#FF5" fill-rule="nonzero"/><path d="M75.507 192.129s3.197-2.681 5.067-3.46c2.187-.913 4.747-.347 6.916-1.307 1.59-.704 4.217-3.154 4.217-3.154"/></g><path stroke="#55A" stroke-width="2" fill="#55A" fill-rule="nonzero" stroke-linecap="round" stroke-linejoin="round" d="M80.4 160.051l5.842-4.137 5.616 3.127-5.644 4.66zM66.641 151.87l-4.28-5.75 3.977-5.738 4.306 5.659zM50.828 160.73l-5.474 4.475 6.675 3.082 4.062-4.416z"/><path d="M53.687 166.084c-1.125 2.215-2.668 4.574-2.462 7.035.156 1.856 1.295 3.67 2.718 4.953 1.855 1.671 4.486 2.584 6.984 3.03 1.215.216 2.561.275 3.696-.21 2.253-.961 5.374-5.011 5.374-5.011s2.912 2.577 4.725 3.059c2.808.745 6.146.897 8.701-.484 1.788-.966 3.038-2.958 3.619-4.906.63-2.113.292-4.501-.368-6.606-.41-1.304-1.193-2.517-2.154-3.49-1.42-1.44-5.12-3.252-5.12-3.252s4.175-2.928 5.416-5.065c.846-1.458 1.338-3.243 1.168-4.92-.168-1.658-.971-3.282-2.109-4.534-1.312-1.445-3.103-2.809-5.1-3.06-2.49-.312-5.14.696-7.202 2.115-1.098.756-1.71 2.054-2.422 3.182-.935 1.483-2.405 4.68-2.405 4.68s-2.745-3.521-4.619-4.641c-2.374-1.42-5.197-2.728-7.953-2.371-1.734.225-3.445 1.279-4.404 2.712-1.174 1.754-1.236 4.151-1.012 6.25.211 1.986.946 4.013 2.183 5.581 1.208 1.532 4.803 3.343 4.803 3.343-.41 1.383-1.326 1.438-2.057 2.61z" stroke="#55A" stroke-width="2" fill="#FF5" fill-rule="nonzero" stroke-linecap="round" stroke-linejoin="round"/><path d="M66.487 156.56c-3.015.397-6.114 4.018-5.8 7.043.32 3.078 4.179 6.183 7.25 5.8 3.179-.397 6.282-4.497 5.8-7.664-.449-2.936-4.306-5.566-7.25-5.178h0z" stroke="#55A" stroke-width="2" fill="#F55" fill-rule="nonzero" stroke-linecap="round" stroke-linejoin="round"/><path d="M57.58 154.904l4.143 3.52M75.808 153.04l-4.143 5.178M72.908 166.088l4.97 3.729M64.209 168.367l-4.35 5.592" stroke="#55A" stroke-width="2" fill="#000" fill-rule="nonzero" stroke-linecap="round" stroke-linejoin="round"/><path d="M182.718 167.128l-2.476 13.175 13.06 1.215 1.167-12.923-11.751-1.467zm5.376 4.116l3.187 3.18-3.531 2.844-3.094-3.187 3.438-2.837z" fill="#000" fill-rule="nonzero"/><path d="M173.5 153.468l-3.811 12.147 12.957 2.655 2.503-12.822-11.649-1.98zm4.35 3.295l3.187 3.18-3.532 2.844-3.093-3.188 3.437-2.836z" fill="#000" fill-rule="nonzero"/><path d="M158.883 161.175l-5.142 11.948 13.073 4.406 3.733-12.732-11.664-3.622zm4.705 5.112l2.303 3.87-4.125 1.882-2.21-3.853 4.032-1.9z" fill="#000" fill-rule="nonzero"/><path d="M142.287 167.944l-4.706 10.753 11.892 5.535 5.102-11.339-12.288-4.95zm5.734 4.861l1.933 4.067-4.281 1.491-1.843-4.042 4.191-1.516zM155.594 146.624l-5.127 4.224-3.073 5.868 11.787 4.727 4.526-10.41-8.113-4.409zm1.52 4.066l1.786 4.134-4.332 1.336-1.696-4.105 4.243-1.365zM166.709 176.887l-3.46 11.331 14.344 3.12 2.777-11.64-13.661-2.81zm5.533 4.306l3.072 3.292-3.63 2.716-2.978-3.296 3.536-2.712zM195.885 156.449l-1.705 12.723 13.19.14.699-12.744-12.184-.12zm5.897 3.454l3.273 3.093-3.453 2.939-3.179-3.103 3.359-2.929zM192.967 180.843l-1.566 11.938 14.334.724.556-12.244-13.324-.418zm6.483 3.765l3.328 3.032-3.398 3.001-3.236-3.043 3.306-2.99z" fill="#000" fill-rule="nonzero"/><path d="M206.834 168.996l-.959 12.707 13.628-.39-.879-12.255-11.79-.062zm5.878 3.184l3.419 2.93-3.306 3.103-3.326-2.944 3.213-3.089zM217.977 156.562l.714 12.787 12.563-2.244-1.534-11.489-11.743.946zm5.995 3.25l3.68 2.596-3 3.4-3.588-2.618 2.908-3.378z" fill="#000" fill-rule="nonzero"/><path d="M219.3 180.875l.735 11.25 13.57-2.218-1.345-11.347-12.96 2.315zm6.339 2.008l3.973 1.788-2.553 3.163-3.886-1.817 2.466-3.134zM246.39 175.51l2.688 12.174 14.084-4.272-4.633-11.964-12.138 4.062zm7.162 1.289l3.973 1.788-2.553 3.163-3.886-1.817 2.466-3.134zM270.946 167.755l3.493 10.793 12.226-4.536-5.395-10.237-10.324 3.98zm6.6.812l4.234 1.03-1.93 3.577-4.153-1.074 1.85-3.533z" fill="#000" fill-rule="nonzero"/><path d="M254.91 160.588l3.423 11.09 12.726-3.957-4.605-11.969-11.544 4.836zm5.781.792l4.237 1.016-1.92 3.583-4.156-1.06 1.84-3.54zM240.048 152.651l2.776 11.688 12.288-3.99-4.192-11.665-10.872 3.967zm6.495 1.425l4.119 1.421-2.257 3.381-4.034-1.457 2.172-3.345z" fill="#000" fill-rule="nonzero"/><path d="M230.98 166.88l1.456 11.764 14.186-2.732-3.4-11.963-12.241 2.932zm6.34 2.522l3.974 1.788-2.554 3.163-3.886-1.817 2.466-3.134zM142.592 168.163l5.034-11.712-1.849-.719-10.581 9.144zM260.837 144.74l5.445 10.992 4.52-1.849-8.013-10.17z" fill="#000" fill-rule="nonzero"/><path d="M156.27 146.504c10.668 6.439 22.886 8.506 34.885 10.138 8.61 1.171 17.421.579 26.062-.324a141.054 141.054 0 0025.354-5.026c6.56-1.943 12.863-4.702 19.059-7.617M289.914 171.606c-5.068 2.593-9.984 5.505-15.203 7.778-3.794 1.653-7.735 2.954-11.667 4.243-4.784 1.568-9.607 3.04-14.496 4.242-4.668 1.148-9.384 2.142-14.142 2.829-4.684.676-9.736 1.362-14.45 1.78-4.596.407-8.871.493-13.48.695-4.593.2-9.199.229-13.79 0a144.148 144.148 0 01-14.142-1.414c-4.754-.712-9.486-1.632-14.142-2.829-4.548-1.17-9.009-2.672-13.435-4.243-4.537-1.61-9.038-3.34-13.435-5.303-3.61-1.61-7.07-3.535-10.606-5.303" stroke="#55A" stroke-width="2" stroke-linecap="round" stroke-linejoin="round"/><path d="M257.631 135.892s-12.747 5.86-19.444 7.876c-6.88 2.072-13.99 3.437-21.125 4.282-6.976.825-14.055 1.251-21.062.75-7.317-.524-14.576-1.99-21.656-3.907-4.218-1.142-12.313-4.5-12.313-4.5l-2.26 2.404s9.073 3.702 13.791 4.971c7.27 1.956 14.679 3.489 22.22 4.032 7.24.52 14.483.073 21.655-.782 7.305-.87 14.582-2.282 21.625-4.406 6.965-2.1 20.229-8.19 20.229-8.19l-1.66-2.53z" fill="#000" fill-rule="nonzero"/><path d="M238.714 70.44s-.905 14.712.286 21.922c1.142 6.916 3.788 13.536 6.5 20a162.138 162.138 0 0012.5 24c3.246 5.125 7.012 9.928 11 14.5 5.422 6.217 10.707 12.819 17.5 17.5 4.361 3.006 9.582 4.533 14.5 6.5 4.709 1.884 14.345 5.068 14.345 5.068" stroke="#55A" stroke-width="2" stroke-linecap="round" stroke-linejoin="round"/><path d="M103.406 195.956S117.258 206.07 123 212.362c5.329 5.84 13.5 19.5 13.5 19.5s-14.793 12.24-21 19.5c-7.179 8.398-13.32 17.742-18.5 27.5-4.382 8.256-8.005 16.993-10.5 26-1.712 6.18-2.17 12.642-3 19-.63 4.818-1.5 14.5-1.5 14.5l-52-50v-25.5" stroke="#000" stroke-width="2" fill="#FFFF58" fill-rule="nonzero" stroke-linecap="round" stroke-linejoin="round"/><path d="M37 266.362l68-62.5s8.806 7.602 12.58 12c3.572 4.165 9.42 13.5 9.42 13.5s-11.816 11.578-17 18c-6.475 8.022-12.448 16.514-17.5 25.5-3.583 6.373-6.58 13.101-9 20-1.993 5.684-3.552 11.552-4.5 17.5-.815 5.113-1 15.5-1 15.5l-40.5-40.5-.5-19z" stroke="#000" stroke-width="2" fill="#000" fill-rule="nonzero" stroke-linecap="round" stroke-linejoin="round"/><path d="M91.297 222.342c-.06-1.628 1.15-4.748 1.15-4.748s2.866 1.492 4.078 2.54c1.26 1.088 3.228 3.813 3.228 3.813s1.294-2.915 2.24-4.183c1.065-1.428 3.796-3.759 3.796-3.759s1.452 3.168 1.627 4.87c.206 2.005-.71 6.004-.71 6.004s3.393-1.645 5.225-1.98c1.736-.318 5.295.002 5.295.002s-1.762 3.63-3.034 5.172c-1.297 1.573-4.59 4.04-4.59 4.04s2.356.828 3.283 1.622c1.072.917 2.435 3.461 2.435 3.461s-2.593 1.548-4.042 1.874c-1.268.285-3.9.033-3.9.033s.837 2.795.85 4.235c.013 1.579-.85 4.66-.85 4.66s-2.46-1.17-3.443-2.08c-1.092-1.013-2.593-3.639-2.593-3.639s-1.138 3.962-2.22 5.684c-1.242 1.974-4.77 5.118-4.77 5.118s-.707-4.838-.69-7.272c.014-2.012.654-5.999.654-5.999s-3.08 1.637-4.746 2.102c-1.742.485-5.383.685-5.383.685s.941-3.861 1.99-5.508c1.183-1.856 4.681-4.658 4.681-4.658s-2.949-.72-4.306-1.374c-1.658-.8-4.59-3.073-4.59-3.073s3.269-2.536 5.225-2.952c1.897-.403 5.791.553 5.791.553-1.404-1.18-1.615-3.409-1.681-5.243z" fill="#FFFF58" fill-rule="nonzero"/><path d="M99.031 227.08c-1.567.127-3.07 1.15-4.094 2.345-1.023 1.194-1.744 2.834-1.687 4.406.066 1.816 1.034 3.646 2.313 4.937 1.268 1.282 3.071 2.353 4.874 2.344 1.72-.009 3.445-1.032 4.626-2.281 1.189-1.259 2.12-3.052 2.03-4.781-.097-1.89-1.317-3.731-2.75-4.97-1.43-1.236-3.426-2.15-5.312-2zm.156 2c1.385-.112 2.826.622 3.876 1.532 1.032.896 1.964 2.197 2.03 3.563.059 1.197-.644 2.41-1.468 3.28-.83.877-2.012 1.657-3.219 1.657-1.276 0-2.513-.838-3.406-1.75-.932-.952-1.7-2.262-1.75-3.594-.04-1.098.506-2.226 1.219-3.062.684-.804 1.666-1.54 2.719-1.625z" fill="#000" fill-rule="nonzero"/><path d="M57.183 268.74v-8.577s6.303-.7 8.26-2.859c1.83-2.017 1.906-7.942 1.906-7.942h12.072l-22.238 19.379zM71.904 262.629c-1.274 1.29-.72 4.196.635 5.4 1.346 1.197 4.128 1.274 5.401 0 1.123-1.123 1.063-3.584 0-4.765-1.354-1.503-4.614-2.074-6.036-.635zM90.858 260.163l-16.837 20.968 9.213-1.906s-.242-5.351 1.27-7.307c1.566-2.025 6.99-3.177 6.99-3.177l-.636-8.578zM41.617 286.214c3.376.698 6.877.77 9.53 5.083.39-7.235 4.254-10.996 7.943-14.932 2.067 5.19 3.168 10.378 0 15.567 5.736-5.014 10.539-2.565 15.566-1.906-2.356 4.606-5.393 8.759-11.119 11.119 3.926 3.226 5.42 7.668 6.354 12.39-1.906-.445-3.812-.696-5.718-2.224l-20.015-20.014c-1.12-1.695-1.774-3.389-2.541-5.083z" fill="#FFFF58" fill-rule="nonzero"/><path d="M55.438 292.862c-1.332-.398-2.86.145-4.094.781-1.205.622-2.333 1.62-2.938 2.813l1.6 1.087c.346-.681 1.355-1.642 2.275-2.118.86-.446 1.919-.88 2.844-.594 1.535.473 2.743 1.98 3.344 3.469.577 1.43.164 3.092 0 4.625-.11 1.028-.657 3.03-.657 3.03l1.912 1.413s.606-2.738.714-4.13c.144-1.87.652-3.905-.094-5.626-.906-2.088-2.725-4.098-4.907-4.75z" fill="#000" fill-rule="nonzero"/><path d="M137.24 232.842s7.784 15.014 9.848 23.139c1.6 6.297 2.03 12.91 1.854 19.405-.24 8.799-1.342 17.7-3.936 26.112-2.61 8.464-6.599 16.58-11.525 23.941-4.867 7.273-17.526 19.546-17.526 19.546" stroke="#000" stroke-width="2" stroke-linecap="round" stroke-linejoin="round"/><path d="M133.746 235.702s6.076 12.395 7.624 19.06c1.898 8.173 2.341 16.72 1.906 25.098a86.985 86.985 0 01-3.927 21.638 87.834 87.834 0 01-9.265 20.032c-4.126 6.59-9.139 12.689-14.764 18.055-2.958 2.821-9.848 7.307-9.848 7.307" stroke="#000" stroke-width="2" stroke-linecap="round" stroke-linejoin="round"/><path d="M129.933 239.196s4.708 11.456 6.036 17.473c1.47 6.655 2.335 13.53 2.083 20.34-.289 7.808-1.792 15.614-4.103 23.077-2.178 7.031-5.057 13.968-9.099 20.12-4.321 6.579-10 12.244-15.884 17.473-4.766 4.236-15.566 11.119-15.566 11.119" stroke="#000" stroke-width="2" stroke-linecap="round" stroke-linejoin="round"/><path d="M126.174 241.588s3.607 9.073 4.712 13.81c1.288 5.518 2.073 11.19 2.198 16.855.148 6.736-.163 13.585-1.73 20.138a75.812 75.812 0 01-8.41 20.826c-3.752 6.35-8.562 12.147-13.978 17.155-6.146 5.684-20.65 14.296-20.65 14.296" stroke="#000" stroke-width="2" stroke-linecap="round" stroke-linejoin="round"/><path stroke="#55A" stroke-width="2" fill="#000" fill-rule="nonzero" stroke-linecap="round" stroke-linejoin="round" d="M171.288 131.463l-15.49 14.261-29.902 27.617-35.046 33.14-29.902 28.76L30 263.622"/><path fill="#F55" fill-rule="nonzero" d="M142.128 206.608l17.325 4.596-7.025 21.382-17.294-4.242z"/><path d="M180.773 200.213l-6.64 2.03 3.873 3.504-5.349 2.398 3.505 3.874-6.456 2.582 3.32 4.243-6.456 2.029 4.058 4.427-5.903 2.03 2.583 4.61c-1.476 1.107-3.147 2.214-4.622 3.321 7.132 1.168 14.46 2.337 21.592 3.505l-2.582-4.796 4.242-2.214-2.398-5.534 6.272-2.398-2.767-5.903 5.903-1.106-3.874-4.98c1.968-.493 3.935-.985 5.903-1.476l-3.136-4.243 5.903-2.398c-1.637-.79-3.245-1.68-4.9-2.408l-12.07-1.097z" fill="#FF5" fill-rule="nonzero"/><path d="M182.423 200.4c-2.37 5.563-5.334 11.431-7.697 17.276-2.557 6.327-4.865 13.41-7.005 19.238M191.616 201.478c-2.798 6.058-5.394 12.145-7.704 18.371-2.154 5.809-4.05 11.721-5.729 17.68" stroke="#000" stroke-width="2" stroke-linecap="round" stroke-linejoin="round"/><path d="M186.075 201.228c-.754.104-1.54 1.103-1.35 1.839.189.734 1.356 1.226 2.064.954.566-.218.865-1.087.714-1.674-.15-.586-.829-1.201-1.428-1.119zM183.418 207.61c-.756.105-1.551 1.1-1.364 1.839.189.745 1.374 1.252 2.09.974.573-.222.867-1.107.71-1.7-.154-.586-.836-1.195-1.436-1.113zM180.467 214.16c-.768.123-1.561 1.175-1.331 1.918.229.74 1.468 1.153 2.17.828.537-.248.762-1.105.591-1.67-.172-.571-.841-1.171-1.43-1.076zM178.18 220.667c-.758.097-1.555 1.093-1.374 1.836.18.744 1.35 1.265 2.069 1 .576-.213.888-1.091.74-1.688-.146-.595-.827-1.225-1.435-1.148zM175.869 227.103c-.786.139-1.62 1.224-1.352 1.976.27.757 1.614 1.074 2.313.678.497-.281.627-1.122.432-1.66-.195-.536-.832-1.094-1.393-.994zM173.483 233.55c-.769.121-1.57 1.166-1.343 1.91.227.743 1.472 1.158 2.177.831.535-.249.754-1.106.583-1.671-.172-.567-.832-1.161-1.417-1.07z" fill="#000" fill-rule="nonzero"/><path fill="#F55" fill-rule="nonzero" d="M205.408 216.778l19.858.307-9.754 24.112-19.048-1.513z"/><g><path d="M214.939 342.738l-1.95 7.604s-8.623-3.268-13.063-4.485c-5.25-1.439-10.627-2.377-15.988-3.314-3.169-.555-6.347-1.105-9.554-1.365-6.479-.526-12.998-.518-19.497-.39-6.575.13-13.143.59-19.693 1.17-3.324.294-6.64.69-9.943 1.17-3.786.548-11.309 1.95-11.309 1.95l12.868-12.48 24.177-.194 12.479-31.196-19.108-1.365 3.705-21.057s14.706.68 22.032 1.365c6.782.633 13.544 1.502 20.277 2.534 4.31.661 8.571 1.606 12.868 2.34 3.244.554 9.75 1.56 9.75 1.56s2.68 6.969 4.289 10.334c2.521 5.273 8.384 15.403 8.384 15.403l-17.743-4.29-9.749 29.051 16.768 5.655z" fill="#000" fill-rule="nonzero"/><path d="M238.977 362.74s-8.463-5.517-12.974-7.764c-4.211-2.098-13.081-5.303-13.081-5.303l11.667-37.477s6.506 9.228 10.253 13.435c3.5 3.93 7.412 7.482 11.36 10.96 3.388 2.985 10.56 8.486 10.56 8.486l-17.785 17.662zM236.61 295.933s-4.468-13.496-5.303-20.506c-.88-7.374-.915-14.958.353-22.274 1.127-6.5 3.58-12.758 6.364-18.738 2.499-5.37 5.353-10.695 9.192-15.203 3.308-3.883 7.518-6.934 11.668-9.9 5.245-3.748 16.617-9.9 16.617-9.9l3.535 3.183s-1.358 14.232-2.828 21.213c-1.568 7.445-3.644 14.815-6.364 21.92-2.526 6.597-5.867 12.86-9.193 19.092-3.283 6.152-6.302 12.545-10.606 18.031-3.858 4.918-13.435 13.082-13.435 13.082z" fill="#55A" fill-rule="nonzero"/><path d="M242.974 289.215s-4.25-12.794-4.596-19.445c-.382-7.358.834-14.828 2.828-21.92 1.956-6.958 4.833-13.784 8.839-19.8 3.05-4.58 7.084-8.5 11.314-12.02 4.85-4.036 15.91-10.253 15.91-10.253s-1.499 14.674-2.829 21.92c-1.006 5.482-2.06 10.998-3.889 16.264-2.3 6.625-5.59 12.876-8.839 19.091-2.593 4.962-5.208 9.957-8.485 14.496-3.03 4.198-10.253 11.667-10.253 11.667z" fill="#F55" fill-rule="nonzero"/><g stroke="#55A" stroke-linecap="round" stroke-linejoin="round" stroke-width="2.025"><path d="M312.235 314.725l5.803-12.993s-.831-4.23-2.535-4.984c-1.027-.455-2.322.127-3.25.886-1.187.97-2.5 4.31-2.5 4.31l-4.96 10.437" fill="#FF5" fill-rule="nonzero"/><path d="M317.051 302.103s-2.483 1.009-3.798 1.094c-1.053.069-3.129-.474-3.129-.474"/></g><path d="M193.792 474.58s13.782-14.046 19.08-22.257c5.543-8.594 9.702-18.111 12.99-27.795 2.852-8.398 4.356-17.22 5.74-25.981.82-5.197 1.101-10.466 1.51-15.71.393-5.03.907-15.106.907-15.106l-45.015 41.692s2.716 9.173 3.324 13.897c.604 4.695.251 9.465.302 14.199.067 6.344-.205 12.692 0 19.033.194 6.019 1.162 18.028 1.162 18.028z" fill="#000" fill-rule="nonzero"/><path d="M60.222 365.994c5.067-2.593 12.066-6.075 18.247-8.793 5.833-2.566 11.714-5.06 17.756-7.085 5.083-1.703 10.308-2.953 15.511-4.242 4.822-1.195 9.636-2.49 14.548-3.235 5.08-.77 10.237-.888 15.36-1.266 4.12-.303 8.237-.725 12.368-.803 5.003-.094 10.01.119 15.006.406 4.59.264 9.195.5 13.736 1.211 5.119.803 10.147 2.122 15.157 3.438 4.317 1.133 8.584 2.452 12.827 3.837 4.652 1.517 9.352 2.947 13.84 4.897 5.264 2.286 11.74 6.174 15.276 7.942l-45.292 42.05s-2.742-.51-4.104-.808c-2.589-.565-2.447-.946-7.73-1.858-2.495-1.037-4.165-3.571-6.645-4.644-3.023-1.309-6.377-2.039-9.67-2.031-6.29.014-13.867 1.697-18.448 3.961-2.383.002-4.485.4-6.727.617-3.11.3-6.23.522-9.325.945-3.326.455-6.69.812-9.924 1.71-2.766.77-5.391 1.985-8.026 3.125-2.891 1.251-8.528 4.07-8.528 4.07-3.982-6.638-9.038-15.502-17.592-23.604-4.277-4.05-9.276-9.738-13.55-12.983-4.275-3.245-11.071-5.266-14.071-6.857z" fill="#FFFF58" fill-rule="nonzero"/><path d="M192.807 436.705s6.095-9.734 8.584-14.896c1.787-3.705 3.387-7.528 4.532-11.48a51.85 51.85 0 001.817-9.554c.258-2.745-.005-8.27-.005-8.27l-19.033 16.918s2.644 8.573 3.323 12.99c.725 4.716.782 14.292.782 14.292z" fill="#F55" fill-rule="nonzero"/><path fill="#000" fill-rule="nonzero" d="M136 510.362l-65.5-84.166-7.833 1.666 59.333 82.5z"/><path d="M53 510.362a149.566 149.566 0 002-30c-.348-10.168-1.752-20.358-5-30a81.018 81.018 0 00-10-20 75.943 75.943 0 0023-2l59 82H53" stroke="#55A" stroke-width="2" fill="#FF5" fill-rule="nonzero" stroke-linecap="round" stroke-linejoin="round"/><path d="M86.408 484.892c-.396-.99-.852-1.982-1.518-2.81-.88-1.091-1.844-2.312-3.192-2.742-1.695-.54-3.992-.725-5.39.45-1.364 1.145-1.79 3.434-1.347 5.106.512 1.929 4.227 4.183 4.227 4.183s-4.728 1.58-5.556 3.613c-.777 1.908.034 4.453 1.44 5.879 1.387 1.406 3.928 2.34 5.796 1.518 2.098-.923 3.3-6.023 3.3-6.023s.838 3.753 2.05 5.13c1.078 1.222 2.628 2.416 4.291 2.38 1.475-.032 3.177-.957 3.867-2.28 1.085-2.08.611-4.967-.625-6.878-1.24-1.915-5.998-3.342-5.998-3.342s1.275 2.704-.982 4.263c-1.804 1.247-5.046-.238-6.047-2.107-.847-1.583-.4-4.62 1.3-5.348 3.395-1.453 5.119 1.721 5.119 1.721s-.389-1.845-.735-2.713h0zM66.832 457.654c-.353-.896-.76-1.793-1.355-2.541-.784-.987-1.645-2.092-2.847-2.48-1.513-.489-3.562-.656-4.81.407-1.217 1.036-1.597 3.106-1.202 4.617.457 1.745 3.772 3.784 3.772 3.784s-3.707 1.827-4.29 3.6c-.57 1.732-.011 4.034 1.284 5.317 1.096 1.084 3.1 1.675 4.505 1.04 1.881-.85 2.945-5.447 2.945-5.447s.747 3.394 1.83 4.639c.96 1.105 2.343 2.185 3.827 2.153 1.316-.03 2.835-.866 3.45-2.062.968-1.88.545-4.492-.558-6.22-1.106-1.732-5.351-3.023-5.351-3.023s1.137 2.445-.876 3.855c-1.61 1.128-4.503-.215-5.395-1.906-.756-1.43-.358-4.178 1.16-4.836 3.029-1.314 4.567 1.557 4.567 1.557s-.347-1.67-.656-2.454h0z" stroke="#000100" stroke-width="2" fill="#000" fill-rule="nonzero" stroke-linecap="round" stroke-linejoin="round"/><path d="M112.667 508.696s-.588-11.228-5.5-16.834c-4.723-5.389-10.278-5.61-15.167-5.166 0 0 2.3-13.14-2-18.5-4.664-5.815-20-10.334-20-10.334s3.58-10.047-1.333-17c-2.72-3.85-11.834-9.5-11.834-9.5" stroke="#000" stroke-width="2" stroke-linecap="round" stroke-linejoin="round"/><path d="M107.906 509.724c.69-.002 1.34-.541 1.469-1.218 0 0 1.823-8.334-4.063-14.22-.91-.91-2.217-1.692-3.812-2.562-1.595-.869-3.437-1.76-5.188-2.562-3.054-1.4-5.149-2.2-5.812-2.469-.003-.707.023-2.23-.375-5.031-.48-3.375-1.087-8.16-3.323-11.323-4.14-5.858-8.887-8.364-12.302-10.052-2.235-1.105-3.76-1.49-4.781-1.688-.099-.769-.278-2.425-.844-5.28-.683-3.449-1.614-7.37-3.188-9.907-1.649-2.66-4.928-5.496-7.875-7.844-2.946-2.347-5.562-4.125-5.562-4.125-.654-.442-1.652-.248-2.094.406-.442.655 3.085 3.152 3.74 3.594 0 0 2.356 3.363 2.875 6.802 2.852 2.272 4.934 2.322 6.552 4.396 1.584 2.03 1.956 3.948 2.614 7.27.659 3.324 1 6.126 1 6.126.084.681.691 1.26 1.375 1.312 0 0 5.702 1.435 7.844 3.292 2.471 2.142 5.685 2.96 5.042 8.417 1.73 2.448 5.512 5.903 5.958 9.041.446 3.14.438 5.563.438 5.563a1.54 1.54 0 00.937 1.437s3.108 1.243 6.531 2.813c1.712.785 3.8 1.05 5 2.469 1.468 1.735 1.552 6.124 1.959 6.53 4.655 4.656 4.416 6.97 4.416 6.97-.207.88.565 1.849 1.47 1.843z" fill="#000" fill-rule="nonzero"/><path stroke="#55A" stroke-width="2" fill="#F55" fill-rule="nonzero" d="M149 510.362h-13.333L30 371.696v-32.334z"/><path d="M173.007 510.362s-1.77-11.296-14.652-22.174c-12.881-10.878-34.358-15.229-34.358-15.229" stroke="#55A" stroke-width="2" stroke-linecap="round" stroke-linejoin="round"/><path d="M167.84 510.362s-5.213-11.83-12.429-17.843c-7.216-6.012-27.532-13.114-27.532-13.114" stroke="#55A" stroke-width="2" stroke-linecap="round" stroke-linejoin="round"/><path d="M161.733 510.362s-4.41-10.059-9.792-14.64c-5.382-4.58-19.925-10.533-19.925-10.533" stroke="#55A" stroke-width="2" stroke-linecap="round" stroke-linejoin="round"/><path d="M156.712 510.362s-2.732-6.832-7.03-10.382-12.89-7.39-12.89-7.39M171.061 502.824s.84-4.085 6.144-12.957c5.304-8.871 15.747-12.632 15.747-12.632M174.949 510.362s.173-7.048 4.997-14.56c4.824-7.513 12.941-11.315 12.941-11.315M180.32 510.362s1.933-7.458 4.509-12.039c2.575-4.58 7.86-7.898 7.86-7.898M186.446 510.362s-.18-4.4 1.943-7.95c2.123-3.551 3.59-3.985 3.59-3.985M173.595 457.07s-.596-2.7-.53-4.065c.172-3.575 1.195-7.097 2.408-10.465.795-2.208 3-3.952 3.158-6.294.132-1.946-.616-4.064-1.896-5.537-.901-1.037-2.64-.965-3.676-1.868-.839-.73-1.906-2.74-1.906-2.74" stroke="#55A" stroke-width="2" stroke-linecap="round" stroke-linejoin="round"/><path d="M161.252 437.581s-3.324-3.559-2.859-5.604c.304-1.335 1.914-2.282 3.268-2.49 1.78-.275 3.4 1.188 5.082 1.828 1.593.605 3.127 2.43 4.747 1.901.652-.213 1.417-1.142 1.09-1.743-.536-.985-2.243.013-3.362-.054-3.394-.204-7.438-3.118-10.144-1.06-.871.662-.78 2.168-.545 3.237.346 1.572 2.723 3.985 2.723 3.985h0zM127.8 460.59s9.207 6.282 14.497 7.65c4.162 1.076 8.738 1.368 12.893.265 1.672-.443 4.451-2.664 4.451-2.664s-4.075 1.31-6.188 1.538c-4.27.46-8.714.676-12.878-.375-4.62-1.166-12.776-6.414-12.776-6.414h0zM191.73 466.112s-5.568 2.98-8.54 2.653c-3.705-.406-9.588-5.526-9.588-5.526s6.24 4.259 9.86 4.37c3.038.093 8.505-3.152 8.505-3.152l-.238 1.655zM156.06 417.392s4.704 1.875 7.154 2.044c1.84.127 3.647-.697 5.488-.786 2.101-.1 4.257.854 6.305.292 1.12-.307 3.03-1.936 3.03-1.936s-2.086.46-3.137.397c-2.136-.128-4.137-1.565-6.276-1.568-2.36-.004-4.55 1.457-6.93 1.712-1.87.201-5.634-.155-5.634-.155h0z" stroke="#55A" stroke-width="2" fill="#55A" fill-rule="nonzero" stroke-linecap="round" stroke-linejoin="round"/><path d="M162.422 412.529s3.943-1.371 5.99-1.415c1.754-.038 5.174.99 5.174.99M174.374 457.462s5.032 4.106 9.65 4.206c4.941.106 7.894-2.524 7.894-2.524M131.386 455.316s9.864 7.326 15.527 7.163c7.42-.214 12.961-5.56 12.961-5.56" stroke="#55A" stroke-width="2" stroke-linecap="round" stroke-linejoin="round"/><path d="M130.295 453.74c5.852.758 10.154 3.3 15.541 3.76 4.62.395 13.943-1.036 13.943-1.036M192.547 453.669c-5.387 2.541-4.233 3.35-9.62 3.81-4.62.395-9.446-2.226-9.446-2.226M133.531 453.282c5.267-1.2 10.77-5.081 16.728-5.378 4.415-.22 9.15 2.814 9.54 6.897" stroke="#55A" stroke-width="2" stroke-linecap="round" stroke-linejoin="round"/><path d="M144.619 455.967c-.937-5.064 4.018-6.56 7.578-6.122 2.415.297 4.654 3.26 3.492 6.154" stroke="#55A" stroke-width="2" stroke-linecap="round" stroke-linejoin="round"/><path d="M152.868 453.12c.098.916-.746 2.18-1.706 2.23-.84.044-1.724-.978-1.706-1.785.02-.84.984-1.762 1.86-1.784.696-.017 1.48.675 1.552 1.338h0zM181.442 452.814c-.026.717.847 1.645 1.742 1.626.784-.017 1.533-.863 1.46-1.487-.078-.65-1.04-1.306-1.855-1.27-.648.028-1.327.613-1.347 1.131h0z" stroke="#55A" stroke-width="2" fill="#55A" fill-rule="nonzero" stroke-linecap="round" stroke-linejoin="round"/><path d="M175.032 448.95c2.093-2.46 2.244-4.644 6.58-6.73M160.485 456.004c-1.605-7.122-3.875-10.941-9.023-13.096M192.45 450.948c-2.856-1.804-6.513-2.87-11.176-2.747-3.455.09-6.968 2.538-7.03 5.496" stroke="#55A" stroke-width="2" stroke-linecap="round" stroke-linejoin="round"/><path d="M187.174 456.259c1.112-4.899-1.095-7.536-5.143-7.453-1.78.037-5.422 4.04-2.747 7.845" stroke="#55A" stroke-width="2" stroke-linecap="round" stroke-linejoin="round"/><path d="M191 510.362s2.295-21.97 2.5-33c.161-8.671-.745-17.33-1-26-.24-8.165.41-16.382-.5-24.5-.645-5.75-.935-11.814-3.5-17-2.252-4.553-5.707-8.784-10-11.5-3.657-2.313-8.179-3.273-12.5-3.5-4.39-.23-8.832.813-13 2.21-5.696 1.907-10.985 4.984-16 8.29-5.042 3.324-9.857 7.106-14 11.5-3.11 3.3-8 11-8 11M193.647 403.92c-4.67-2.406-8.817-2.832-11.95-3.191M148.938 398.347c-7.264 1.353-16.236 2.198-24.14 4.273-6.644 1.743-12.96 4.557-19.44 6.836M117.107 423.555l-5.981-15.808M120.525 419.282l-4.913-13.03M124.37 414.583l-3.204-9.4M128.216 411.165l-2.99-7.477M132.275 407.747l-2.777-6.196M136.12 404.97l-1.709-3.632M115.185 460.299c.997-1.852 2.225-3.596 2.99-5.555 1.044-2.67 1.425-5.554 2.137-8.331M111.126 454.317c1.282-2.563 2.91-4.981 3.845-7.69 1.163-3.367 1.424-6.979 2.136-10.468M107.494 448.976c1.14-2.706 2.59-5.3 3.418-8.117 1.284-4.37 1.567-8.973 2.35-13.459M103.435 443.85c1.353-3.49 3.28-6.808 4.06-10.468 1.201-5.649.569-11.536.854-17.304M99.163 438.295c1.21-2.563 2.972-4.933 3.632-7.69 1.756-7.344.427-15.097.64-22.645M94.89 432.74c1.282-3.204 3.34-7.222 3.846-11.108.985-7.576-1.14-15.238-1.71-22.858M91.045 425.905c1.068-3.418 2.237-8.906 2.35-13.459.187-7.531-1.567-13.885-2.777-22.43M86.345 419.282c.712-4.77.911-8.975.641-13.458-.512-8.507-2.136-17.019-4.272-25.208M80.791 411.165c.142-4.486.633-9.585 0-14.313-1.078-8.047-4.13-15.381-6.409-23.5M73.955 401.338c.285-3.276.283-7.895-.427-11.75-1.322-7.175-3.347-13.53-7.05-20.721M67.76 392.366c-.499-3.703-.386-7.541-1.495-11.109-1.684-5.413-5.484-10.468-7.691-15.167" stroke="#55A" stroke-width="2" stroke-linecap="round" stroke-linejoin="round"/><g stroke="#55A" stroke-linecap="round" stroke-linejoin="round" stroke-width="2"><path d="M270.203 332.4s4.405 5.21 6.869 7.602c2.594 2.518 5.292 4.98 8.3 7.077 2.317 1.615 4.681 3.49 7.44 4.194 1.629.415 3.485.563 5.04-.071 1.144-.466 2.42-1.345 2.688-2.55.508-2.292-1.102-4.728-2.576-6.554-1.495-1.85-3.768-2.992-5.946-3.95-1.314-.58-2.915-.904-4.182-1.038-.829-2.6 1.655-2.008 1.127-7.138-.154-1.505-.362-3.569-.362-3.569"/><path d="M296.533 346.676s-.488-1.664-1.145-2.218c-.6-.506-1.483-.779-2.29-.787-.79-.008-2.26.725-2.26.725M301.112 349.438s3.967 1.814 5.724 1.048c1.849-.806 2.854-3.104 2.862-4.98.011-2.853-2.778-5.117-4.293-7.601-.922-1.51-1.534-3.33-2.915-4.435-1.353-1.084-3.172-2.204-4.865-1.835-1.323.288-2.387 1.615-2.862 2.883-.424 1.131-.583 2.726.232 3.618 1.095 1.197 3.223 1.09 4.808.746.847-.183 1.634-.748 2.174-1.426.554-.697.926-2.506.926-2.506"/><path d="M310.556 344.195s2.803-.856 3.72-1.834c.925-.985 1.49-2.372 1.432-3.67-.097-2.11-1.55-4.031-2.862-5.767-1.537-2.03-3.545-3.847-5.724-5.242-1.616-1.034-3.417-1.906-5.31-2.227-1.413-.24-3.31-.782-4.292.262-.838.89-.606 2.607 0 3.67.457.801 1.498 1.146 2.383 1.41 1.2.358 2.707.858 3.756.172.94-.615 1.209-3.145 1.209-3.145"/><path d="M315.135 334.235s3.484-2.211 3.72-3.932c.16-1.163-.905-2.239-1.717-3.145-2.068-2.311-4.948-3.938-7.727-5.505-1.708-.962-3.432-2.336-5.437-2.359-.94-.01-2.108.302-2.576 1.049-.43.686-.088 1.646.286 2.359.702 1.336 1.816 3.195 3.435 3.145 1.013-.03 1.604-1.243 2.003-2.097.415-.887.286-2.883.286-2.883"/><path d="M316.852 325.06s1.257-2.044 1.145-3.144c-.182-1.792-1.484-3.436-2.862-4.719-1.786-1.662-4.173-2.84-6.617-3.497-1.272-.342-2.96-.957-3.972-.172-1.245.967-1.326 3.13-.572 4.456.65 1.144 2.328 2.032 3.72 1.835 1.05-.15 1.724-1.236 2.22-2.097.5-.868.642-2.884.642-2.884M305.263 312.09s-.874-1.363-1.478-1.886c-.568-.491-1.27-.815-1.957-1.119-1.364-.604-4.257-1.383-4.257-1.383"/></g><g stroke="#55A" stroke-linecap="round" stroke-linejoin="round" stroke-width="2"><path d="M296.331 349.646s5.518-1.206 8.31-1.1c2.127.08 4.32.413 6.25 1.315 2.091.977 3.981 2.496 5.442 4.283 1.636 2.001 3.49 6.925 3.49 6.925s-4.355-.928-6.568-1.086c-2.387-.171-4.797.398-7.176.15-1.775-.184-3.532-.614-5.214-1.21-1.347-.477-2.711-1.018-3.855-1.875-1.118-.838-2.045-1.938-2.817-3.102-.645-.972-1.474-3.175-1.474-3.175l3.612-1.125z" fill="#FF5" fill-rule="nonzero"/><path d="M311.377 355.342s-2.933-1.524-4.512-1.973c-2.386-.68-4.921-.646-7.368-1.058-1.824-.307-5.45-1.054-5.45-1.054"/></g><path stroke="#55A" stroke-width="2" fill="#FF5" fill-rule="nonzero" stroke-linecap="round" stroke-linejoin="round" d="M293.474 352.216l-.888 10.32-3.068 2.706-2.653-2.68.592-13.76z"/><g stroke="#55A" stroke-linecap="round" stroke-linejoin="round" stroke-width="2.004"><path d="M285.544 348.464s-1.78 4.029-3.313 5.617c-1.778 1.842-4.135 3.185-6.518 4.22-2.226.968-4.792.913-7.063 1.772-2.123.803-6.038 3.125-6.038 3.125s.422-4.775 1.473-6.88c1.118-2.24 2.87-4.253 4.91-5.652 2.755-1.887 6.124-2.614 9.33-3.306 1.435-.31 2.951-.636 4.366-.362 1.07.207 2.853 1.466 2.853 1.466h0z" fill="#FF5" fill-rule="nonzero"/><path d="M284.493 348.596s-3.197 2.68-5.067 3.46c-2.187.912-4.747.346-6.916 1.307-1.59.703-4.217 3.153-4.217 3.153"/></g><path stroke="#55A" stroke-width="2" fill="#55A" fill-rule="nonzero" stroke-linecap="round" stroke-linejoin="round" d="M279.6 380.673l-5.842 4.137-5.616-3.127 5.644-4.66zM293.359 388.854l4.28 5.751-3.977 5.737-4.306-5.658zM309.172 379.995l5.474-4.476-6.675-3.082-4.062 4.416z"/><path d="M306.313 374.64c1.125-2.215 2.668-4.573 2.462-7.034-.156-1.856-1.295-3.671-2.718-4.954-1.855-1.671-4.486-2.584-6.984-3.029-1.215-.216-2.561-.275-3.696.21-2.253.96-5.374 5.01-5.374 5.01s-2.912-2.577-4.725-3.058c-2.808-.746-6.146-.898-8.701.483-1.788.966-3.038 2.959-3.619 4.906-.63 2.113-.292 4.502.368 6.606.41 1.304 1.193 2.518 2.154 3.49 1.42 1.44 5.12 3.252 5.12 3.252s-4.175 2.928-5.416 5.066c-.846 1.457-1.338 3.242-1.168 4.919.168 1.658.971 3.283 2.109 4.535 1.312 1.444 3.103 2.808 5.1 3.059 2.49.312 5.14-.696 7.202-2.114 1.098-.756 1.71-2.055 2.422-3.183.935-1.483 2.405-4.679 2.405-4.679s2.745 3.52 4.619 4.64c2.374 1.42 5.197 2.729 7.953 2.372 1.734-.225 3.445-1.28 4.404-2.712 1.174-1.754 1.236-4.152 1.012-6.25-.211-1.987-.946-4.013-2.183-5.582-1.208-1.531-4.803-3.342-4.803-3.342.41-1.384 1.326-1.439 2.057-2.61z" stroke="#55A" stroke-width="2" fill="#FF5" fill-rule="nonzero" stroke-linecap="round" stroke-linejoin="round"/><path d="M293.513 384.164c3.015-.397 6.114-4.018 5.8-7.043-.32-3.078-4.179-6.182-7.25-5.799-3.179.397-6.282 4.497-5.8 7.664.449 2.935 4.306 5.565 7.25 5.178h0z" stroke="#55A" stroke-width="2" fill="#F55" fill-rule="nonzero" stroke-linecap="round" stroke-linejoin="round"/><path d="M302.42 385.82l-4.143-3.52M284.192 387.685l4.143-5.178M287.092 374.636l-4.97-3.728M295.791 372.358l4.35-5.593" stroke="#55A" stroke-width="2" fill="#000" fill-rule="nonzero" stroke-linecap="round" stroke-linejoin="round"/><path d="M177.282 373.596l2.476-13.174-13.06-1.216-1.167 12.924 11.751 1.466zm-5.376-4.116l-3.187-3.18 3.531-2.844 3.094 3.187-3.438 2.837z" fill="#000" fill-rule="nonzero"/><path d="M186.5 387.256l3.811-12.147-12.957-2.654-2.503 12.821 11.649 1.98zm-4.35-3.294l-3.187-3.18 3.532-2.844 3.093 3.187-3.437 2.837z" fill="#000" fill-rule="nonzero"/><path d="M201.117 379.55l5.142-11.949-13.073-4.406-3.733 12.732 11.664 3.623zm-4.705-5.112l-2.303-3.87 4.125-1.882 2.21 3.853-4.032 1.899z" fill="#000" fill-rule="nonzero"/><path d="M217.713 372.78l4.706-10.753-11.892-5.535-5.102 11.34 12.288 4.949zm-5.734-4.861l-1.933-4.067 4.281-1.491 1.843 4.042-4.191 1.516zM204.406 394.1l5.127-4.224 3.073-5.868-11.787-4.727-4.526 10.41 8.113 4.41zm-1.52-4.066L201.1 385.9l4.332-1.336 1.696 4.106-4.243 1.364zM193.291 363.837l3.46-11.33-14.344-3.121-2.777 11.64 13.661 2.811zm-5.533-4.306l-3.072-3.292 3.63-2.715 2.978 3.296-3.536 2.711zM164.115 384.276l1.705-12.724-13.19-.14-.699 12.745 12.184.119zm-5.897-3.455l-3.273-3.092 3.453-2.94 3.179 3.103-3.359 2.93zM167.033 359.881l1.566-11.937-14.334-.724-.556 12.244 13.324.417zm-6.483-3.764l-3.328-3.033 3.398-3.001 3.236 3.044-3.306 2.99z" fill="#000" fill-rule="nonzero"/><path d="M153.166 371.728l.959-12.707-13.628.391.879 12.255 11.79.061zm-5.878-3.184l-3.419-2.93 3.306-3.103 3.326 2.945-3.213 3.088zM142.023 384.162l-.714-12.787-12.563 2.244 1.534 11.49 11.743-.947zm-5.995-3.25l-3.68-2.595 3-3.4 3.588 2.618-2.908 3.377z" fill="#000" fill-rule="nonzero"/><path d="M140.7 359.85l-.735-11.25-13.57 2.218 1.345 11.347 12.96-2.316zm-6.339-2.008l-3.973-1.789 2.553-3.162 3.886 1.817-2.466 3.134zM113.61 365.214l-2.688-12.174-14.084 4.273 4.633 11.963 12.138-4.062zm-7.162-1.288l-3.973-1.789 2.553-3.162 3.886 1.817-2.466 3.134zM89.054 372.969l-3.493-10.792-12.226 4.536 5.395 10.237 10.324-3.981zm-6.6-.812l-4.234-1.03 1.93-3.577 4.153 1.074-1.85 3.533z" fill="#000" fill-rule="nonzero"/><path d="M105.09 380.136l-3.423-11.09-12.726 3.957 4.605 11.97 11.544-4.837zm-5.781-.791l-4.237-1.017 1.92-3.583 4.156 1.061-1.84 3.539zM119.952 388.073l-2.776-11.688-12.288 3.99 4.192 11.665 10.872-3.967zm-6.495-1.425l-4.119-1.42 2.257-3.382 4.034 1.458-2.172 3.344z" fill="#000" fill-rule="nonzero"/><path d="M129.02 373.844l-1.456-11.763-14.186 2.731 3.4 11.964 12.241-2.932zm-6.34-2.522l-3.974-1.788 2.554-3.162 3.886 1.816-2.466 3.134zM217.408 372.561l-5.034 11.712 1.849.719 10.581-9.143zM99.163 395.984l-5.445-10.992-4.52 1.85 8.013 10.17z" fill="#000" fill-rule="nonzero"/><path d="M203.73 394.22c-10.668-6.438-22.887-8.506-34.885-10.138-8.61-1.17-17.421-.578-26.062.324a141.054 141.054 0 00-25.354 5.026c-6.56 1.943-12.863 4.702-19.059 7.617M70.086 369.118c5.068-2.592 9.984-5.504 15.203-7.778 3.794-1.652 7.735-2.953 11.667-4.242 4.784-1.569 9.607-3.041 14.496-4.243 4.668-1.148 9.384-2.142 14.142-2.828 4.684-.677 9.736-1.363 14.45-1.78 4.596-.407 8.871-.494 13.48-.695 4.593-.201 9.199-.23 13.79 0 4.731.236 9.456.713 14.142 1.414 4.754.711 9.486 1.631 14.142 2.828 4.548 1.17 9.009 2.673 13.435 4.243 4.537 1.61 9.038 3.34 13.435 5.303 3.61 1.611 7.07 3.536 10.606 5.304" stroke="#55A" stroke-width="2" stroke-linecap="round" stroke-linejoin="round"/><path d="M102.369 404.833s12.747-5.861 19.443-7.877c6.88-2.071 13.99-3.437 21.125-4.281 6.977-.826 14.056-1.252 21.063-.75 7.317.523 14.576 1.989 21.656 3.906 4.218 1.142 12.313 4.5 12.313 4.5l2.26-2.403s-9.073-3.703-13.792-4.972c-7.268-1.955-14.678-3.489-22.218-4.031-7.24-.521-14.484-.073-21.657.781-7.304.87-14.581 2.282-21.625 4.406-6.964 2.1-20.228 8.19-20.228 8.19l1.66 2.53z" fill="#000" fill-rule="nonzero"/><path d="M121.286 470.285s.905-14.712-.286-21.923c-1.142-6.916-3.788-13.536-6.5-20a162.138 162.138 0 00-12.5-24c-3.246-5.125-7.012-9.928-11-14.5-5.422-6.217-10.707-12.819-17.5-17.5-4.361-3.005-9.582-4.533-14.5-6.5-4.709-1.883-14.345-5.068-14.345-5.068" stroke="#55A" stroke-width="2" stroke-linecap="round" stroke-linejoin="round"/><path d="M256.594 344.768S242.742 334.655 237 328.362c-5.329-5.84-13.5-19.5-13.5-19.5s14.793-12.239 21-19.5c7.179-8.397 13.32-17.742 18.5-27.5 4.382-8.255 8.005-16.992 10.5-26 1.712-6.179 2.17-12.642 3-19 .63-4.818 1.5-14.5 1.5-14.5l52 50v25.5" stroke="#000" stroke-width="2" fill="#FFFF58" fill-rule="nonzero" stroke-linecap="round" stroke-linejoin="round"/><path d="M323 274.362l-68 62.5s-8.806-7.602-12.58-12c-3.572-4.164-9.42-13.5-9.42-13.5s11.816-11.578 17-18c6.475-8.021 12.448-16.513 17.5-25.5 3.583-6.372 6.58-13.101 9-20 1.993-5.684 3.552-11.552 4.5-17.5.815-5.113 1-15.5 1-15.5l40.5 40.5.5 19z" stroke="#000" stroke-width="2" fill="#000" fill-rule="nonzero" stroke-linecap="round" stroke-linejoin="round"/><path d="M268.703 318.383c.06 1.627-1.15 4.748-1.15 4.748s-2.866-1.493-4.078-2.54c-1.26-1.089-3.228-3.814-3.228-3.814s-1.294 2.916-2.24 4.184c-1.065 1.427-3.796 3.758-3.796 3.758s-1.452-3.168-1.627-4.87c-.206-2.005.71-6.004.71-6.004s-3.393 1.646-5.225 1.98c-1.736.318-5.295-.001-5.295-.001s1.762-3.631 3.034-5.173c1.297-1.572 4.59-4.04 4.59-4.04s-2.356-.827-3.283-1.621c-1.072-.918-2.435-3.462-2.435-3.462s2.593-1.548 4.042-1.873c1.268-.286 3.9-.033 3.9-.033s-.837-2.796-.85-4.235c-.013-1.58.85-4.66.85-4.66s2.46 1.169 3.443 2.08c1.092 1.013 2.593 3.638 2.593 3.638s1.138-3.962 2.22-5.684c1.242-1.974 4.77-5.117 4.77-5.117s.707 4.837.69 7.272c-.014 2.011-.654 5.998-.654 5.998s3.08-1.637 4.746-2.101c1.742-.486 5.383-.686 5.383-.686s-.941 3.862-1.99 5.508c-1.183 1.856-4.681 4.658-4.681 4.658s2.949.72 4.306 1.375c1.658.8 4.59 3.073 4.59 3.073s-3.269 2.535-5.225 2.951c-1.897.403-5.791-.553-5.791-.553 1.404 1.18 1.615 3.41 1.681 5.244z" fill="#FFFF58" fill-rule="nonzero"/><path d="M260.969 313.643c1.567-.125 3.07-1.15 4.094-2.343 1.023-1.195 1.744-2.835 1.687-4.407-.066-1.816-1.034-3.645-2.312-4.937-1.269-1.281-3.072-2.353-4.875-2.344-1.72.01-3.445 1.032-4.625 2.281-1.19 1.259-2.122 3.052-2.032 4.782.098 1.89 1.318 3.73 2.75 4.968s3.427 2.152 5.313 2zm-.156-2c-1.385.113-2.826-.62-3.875-1.53-1.033-.896-1.965-2.198-2.032-3.563-.058-1.197.645-2.411 1.469-3.282.83-.876 2.012-1.655 3.219-1.656 1.276 0 2.513.838 3.406 1.75.932.952 1.7 2.262 1.75 3.594.04 1.098-.506 2.226-1.219 3.062-.684.804-1.666 1.54-2.719 1.625z" fill="#000" fill-rule="nonzero"/><path d="M302.817 271.983v8.578s-6.303.7-8.26 2.86c-1.83 2.016-1.906 7.941-1.906 7.941h-12.072l22.238-19.379zM288.096 278.095c1.274-1.29.72-4.196-.635-5.4-1.346-1.196-4.128-1.273-5.401 0-1.123 1.123-1.063 3.585 0 4.765 1.354 1.504 4.614 2.075 6.036.635zM269.142 280.561l16.837-20.967-9.213 1.906s.242 5.35-1.27 7.307c-1.566 2.024-6.99 3.176-6.99 3.176l.636 8.578zM318.383 254.51c-3.376-.698-6.877-.77-9.53-5.082-.39 7.234-4.254 10.995-7.943 14.931-2.067-5.189-3.168-10.378 0-15.567-5.736 5.014-10.539 2.565-15.566 1.907 2.356-4.607 5.393-8.76 11.119-11.12-3.926-3.225-5.42-7.667-6.354-12.39 1.906.446 3.812.696 5.718 2.225l20.015 20.014c1.12 1.694 1.774 3.388 2.541 5.083z" fill="#FFFF58" fill-rule="nonzero"/><path d="M304.563 247.862c1.33.398 2.859-.144 4.093-.781 1.205-.621 2.333-1.62 2.938-2.813l-1.6-1.087c-.346.682-1.355 1.642-2.275 2.119-.86.445-1.919.879-2.844.593-1.535-.473-2.743-1.979-3.344-3.468-.577-1.43-.164-3.092 0-4.625.11-1.028.656-3.032.656-3.032l-1.911-1.411s-.606 2.737-.714 4.13c-.144 1.87-.652 3.905.094 5.625.906 2.089 2.725 4.099 4.906 4.75z" fill="#000" fill-rule="nonzero"/><path d="M222.76 307.882s-7.784-15.014-9.848-23.138c-1.6-6.298-2.03-12.91-1.854-19.405.24-8.8 1.342-17.701 3.936-26.113 2.61-8.463 6.599-16.58 11.525-23.94 4.867-7.273 17.526-19.547 17.526-19.547" stroke="#000" stroke-width="2" stroke-linecap="round" stroke-linejoin="round"/><path d="M226.254 305.023s-6.076-12.396-7.624-19.061c-1.898-8.173-2.341-16.719-1.906-25.098a86.985 86.985 0 013.927-21.638 87.834 87.834 0 019.265-20.031c4.126-6.59 9.139-12.69 14.764-18.055 2.958-2.822 9.848-7.307 9.848-7.307" stroke="#000" stroke-width="2" stroke-linecap="round" stroke-linejoin="round"/><path d="M230.067 301.528s-4.708-11.455-6.036-17.472c-1.47-6.656-2.335-13.53-2.083-20.341.289-7.808 1.792-15.614 4.103-23.077 2.178-7.03 5.057-13.968 9.099-20.12 4.321-6.578 10-12.243 15.884-17.472 4.766-4.237 15.566-11.12 15.566-11.12" stroke="#000" stroke-width="2" stroke-linecap="round" stroke-linejoin="round"/><path d="M233.826 299.137s-3.607-9.074-4.712-13.81c-1.288-5.518-2.073-11.191-2.198-16.856-.148-6.735.163-13.585 1.73-20.137a75.812 75.812 0 018.41-20.827c3.752-6.35 8.562-12.147 13.978-17.155 6.146-5.683 20.65-14.295 20.65-14.295" stroke="#000" stroke-width="2" stroke-linecap="round" stroke-linejoin="round"/><path stroke="#55A" stroke-width="2" fill="#000" fill-rule="nonzero" stroke-linecap="round" stroke-linejoin="round" d="M188.712 409.261L204.202 395l29.902-27.617 35.046-33.14 29.902-28.76L330 277.103"/><path fill="#F55" fill-rule="nonzero" d="M217.872 334.117l-17.325-4.597 7.025-21.382 17.294 4.243z"/><path d="M179.227 340.511l6.64-2.029-3.873-3.505 5.349-2.398-3.505-3.873 6.456-2.583-3.32-4.242 6.456-2.03-4.058-4.427 5.903-2.029-2.583-4.611c1.476-1.107 3.147-2.214 4.622-3.32-7.132-1.169-14.46-2.337-21.592-3.505l2.582 4.796-4.242 2.213 2.398 5.534-6.272 2.398 2.767 5.903-5.903 1.107 3.874 4.98-5.903 1.476 3.136 4.243-5.903 2.398c1.637.79 3.245 1.679 4.9 2.407l12.07 1.097z" fill="#FF5" fill-rule="nonzero"/><path d="M177.577 340.325c2.37-5.564 5.334-11.432 7.697-17.277 2.557-6.327 4.865-13.41 7.005-19.237M168.384 339.247c2.798-6.058 5.394-12.146 7.704-18.372 2.154-5.808 4.05-11.72 5.729-17.68" stroke="#000" stroke-width="2" stroke-linecap="round" stroke-linejoin="round"/><path d="M173.925 339.496c.754-.103 1.54-1.102 1.35-1.839-.189-.734-1.356-1.225-2.064-.953-.566.218-.865 1.086-.714 1.674.15.585.829 1.2 1.428 1.118zM176.582 333.114c.756-.104 1.551-1.099 1.364-1.838-.189-.746-1.374-1.253-2.09-.975-.573.222-.867 1.107-.71 1.701.154.586.836 1.195 1.436 1.112zM179.533 326.565c.768-.124 1.561-1.175 1.331-1.919-.229-.74-1.468-1.153-2.17-.828-.537.248-.762 1.105-.591 1.67.172.572.841 1.171 1.43 1.077zM181.82 320.057c.758-.096 1.555-1.092 1.374-1.835-.18-.745-1.35-1.266-2.069-1-.576.212-.888 1.09-.74 1.688.146.594.827 1.225 1.435 1.147zM184.131 313.622c.786-.14 1.62-1.225 1.352-1.977-.27-.756-1.614-1.074-2.313-.678-.498.282-.627 1.123-.432 1.66.195.537.832 1.094 1.393.995zM186.517 307.174c.769-.12 1.57-1.166 1.343-1.91-.227-.743-1.472-1.158-2.177-.83-.535.248-.754 1.106-.583 1.67.172.567.832 1.162 1.417 1.07z" fill="#000" fill-rule="nonzero"/><path d="M154.592 323.946l-18.797-.263c4.506-7.243 8.155-14.993 10.665-23.763l17.076 1.12-8.944 22.906z" fill="#F55" fill-rule="nonzero"/></g><path d="M147.574 254.062s1.787 9.174 2.141 13.823c.277 3.64-.018 10.95-.018 10.95s10.79.652 16.174 1.127a398.405 398.405 0 0115.77 1.686c4.76.612 9.501 1.372 14.24 2.141 5.555.901 16.632 2.897 16.632 2.897s-1.766-8.082-2.15-12.191c-.402-4.315-.15-13.001-.15-13.001s-10.745-.3-16.102-.708c-4.91-.374-9.805-.944-14.687-1.593-5.583-.741-11.13-1.73-16.69-2.627-5.056-.816-15.16-2.504-15.16-2.504z" fill="#F55" fill-rule="nonzero"/><path fill="#000" fill-rule="nonzero" d="M265.626 191.036l14.873-6.226L330 234.362v17z"/><path fill="#55A" fill-rule="nonzero" d="M280.498 184.81l19.023-9.338 14.873 4.15L330 201.412v33.203z"/><path fill="#000" fill-rule="nonzero" d="M94.374 349.643L79.5 355.87 30 306.317v-17z"/><path fill="#55A" fill-rule="nonzero" d="M79.501 355.869l-19.022 9.338-14.873-4.15L30 339.267v-33.203z"/><path d="M90 45.362s6 15 13 25 17 20 17 20-10 10-17 20-13 25-13 25-6-15-13-25-17-20-17-20 10-10 17-20 13-25 13-25M30 90.362s3 7.5 6.5 12.5 8.5 10 8.5 10-5 5-8.5 10-6.5 12.5-6.5 12.5-3-7.5-6.5-12.5-8.5-10-8.5-10 5-5 8.5-10 6.5-12.5 6.5-12.5M270 495.362s-6-15-13-25-17-20-17-20 10-10 17-20 13-25 13-25 6 15 13 25 17 20 17 20-10 10-17 20-13 25-13 25M330 450.362s-3-7.5-6.5-12.5-8.5-10-8.5-10 5-5 8.5-10 6.5-12.5 6.5-12.5 3 7.5 6.5 12.5 8.5 10 8.5 10-5 5-8.5 10-6.5 12.5-6.5 12.5" fill="#F55" fill-rule="nonzero"/></g></svg>