<svg width="360" height="540" xmlns="http://www.w3.org/2000/svg"><g transform="translate(0 -.362)" fill="none" fill-rule="evenodd"><rect stroke="#000" fill="#FFF" fill-rule="nonzero" x=".5" y=".862" width="359" height="539" rx="29.944"/><path d="M30 30.362c-5.523 0-10 4.477-10 10v30c0 5.523 4.477 10 10 10 .434 0 .862-.04 1.281-.094A9.973 9.973 0 0040 85.362v-5c-1.64 0-3.088-.812-4-2.031 2.424-1.825 4-4.7 4-7.969v-30c0-5.523-4.477-10-10-10zm0 5a5 5 0 015 5v30c0 .716-.167 1.385-.438 2a10.031 10.031 0 00-9.562-7v-25a5 5 0 015-5zm-5 35a5 5 0 015 5 5 5 0 01-5-5zM330 510.362c5.523 0 10-4.478 10-10v-30c0-5.523-4.477-10-10-10-.434 0-.862.04-1.281.094a9.973 9.973 0 00-8.719-5.094v5c1.64 0 3.088.812 4 2.031-2.424 1.825-4 4.7-4 7.969v30c0 5.523 4.477 10 10 10zm0-5a5 5 0 01-5-5v-30c0-.716.167-1.385.438-2 1.274 4.056 5.085 7 9.562 7v25a5 5 0 01-5 5zm5-35a5 5 0 01-5-5 5 5 0 015 5z" fill="#F55" fill-rule="nonzero"/><path fill="#FF5" fill-rule="nonzero" d="M144.719 249.018l-.5 3.282-.125.812-1.125-1.094-.281.532-3.157-1.407.844 3.72.344 2.905.375 1.22 3.875 2 1.094-2.5 5.593 5.155 2.25 2.094 1-2.906.563-1.625 6.406 6.156 2 1.969 1.188-2.563.687-1.437 5.906 7.219 2.124 2.436 1.532-1.937 1.25-1.563 5.094 6.001 2.188 2.531 1.187-3.125.281-.718 6.344 6.843 2.656 2.875.782-3.843.125-.594.906 1.125.25-.531 6.25 5.468 2.563 2.22.718-3.313.219-.97 1.094 1.063.062-.218 4.281 3.187 2.657 1.969.5-3.281.125-.813 1.125 1.094.281-.531 3.188 1.406-.625-2.75 1.03.312-1.345-3.209-2.654-2.197-1.875-2-1.094 2.5-5.594-5.156-2.25-2.094-1 2.906-.562 1.625-6.406-6.156-2-1.969-1.188 2.563-.688 1.437-5.906-7.218-1.77-2.349-1.532 1.938-1.25 1.562-5.448-6.089-2.187-2.531-1.188 3.125-.281.719-6.344-6.844-2.656-2.875-.781 3.844-.125.593-.906-1.125-.25.532-6.25-5.47-2.563-2.218-.719 3.313-.219.968-1.093-1.062-.063.219-4.281-3.188z"/><path fill="#55A" fill-rule="nonzero" d="M213.503 193.044l-8.546 73.21 10.071 1.872 20.989-78.16zM123.744 224.639c-2.593 3.536-5.552 6.83-7.778 10.607-1.714 2.907-3.014 6.049-4.243 9.192-1.533 3.922-3.178 7.87-3.89 12.02-.755 4.416.054 8.974-.353 13.436-.552 6.059-2.02 12.001-2.828 18.031a274.955 274.955 0 00-1.414 12.728c-.327 3.764-.472 7.542-.708 11.314 3.182-1.532 6.395-3.002 9.546-4.597 3.81-1.928 7.836-3.532 11.314-6.01 3.803-2.71 7.456-5.807 10.253-9.546 2.368-3.165 4.057-6.855 5.303-10.606 1.253-3.77 1.86-7.764 2.11-11.728.28-4.455-.14-8.945-.695-13.375-.449-3.577-.89-7.217-2.122-10.606-1.512-4.164-3.884-7.997-6.364-11.668-1.452-2.15-3.205-4.088-4.95-6.01-1.008-1.11-2.12-2.121-3.181-3.182z"/><path d="M89.26 158.585s10.406 8.096 15.745 11.96c5.218 3.776 10.342 7.726 15.91 10.96 4.225 2.454 8.71 4.444 13.203 6.364a145.54 145.54 0 0012.253 4.597c3.372 1.095 10.253 2.828 10.253 2.828l-1.06-8.132s-11.668-3.189-17.325-5.303a112.597 112.597 0 01-12.728-5.657c-4.03-2.106-7.88-4.553-11.667-7.07-4.004-2.664-7.81-5.615-11.667-8.486-2.496-1.858-7.425-5.657-7.425-5.657l-5.492 3.596z" fill="#F55" fill-rule="nonzero"/><path d="M30 206.362s14.344-12.522 21.75-18.5c6.615-5.339 13.506-10.325 20.25-15.5 4.337-3.328 13-10 13-10s9.615 7.732 14.5 11.5c3.96 3.054 7.834 6.236 12 9 3.859 2.56 12 7 12 7s-8.387 4.103-12 7c-4.784 3.837-8.614 8.756-12.5 13.5-4.69 5.726-9.605 11.424-13 18-4.038 7.821-6.744 16.375-8.5 25-.9 4.422-.758 8.994-1 13.5-.268 4.996-.14 10.01-.5 15-.326 4.516-.906 9.012-1.5 13.5-.576 4.347-2 13-2 13s-3.886-7.008-7.25-8.75c-2.895-1.499-6.502-1.024-9.75-.75-4.109.347-8.23 1.332-12 3-2.198.973-3.894 2.841-6 4-1.438.792-3.062 1.209-4.5 2-1.053.58-3 2-3 2v-103.5z" fill="#000" fill-rule="nonzero"/><path d="M159.051 61.505s-10.506 9.831-15.117 15.33c-5.2 6.202-10.206 12.68-14.053 19.802-3.514 6.505-6.113 13.529-8.09 20.653-2.042 7.353-3.833 22.57-3.833 22.57l21.292-10.22s2.14-10.262 4.045-15.118c2.053-5.231 4.75-10.236 7.878-14.904 2.778-4.144 9.582-11.498 9.582-11.498l-1.704-26.615z" fill="#000004" fill-rule="nonzero"/><path fill="#FF5455" fill-rule="nonzero" d="M217.369 30.362l51.392 88.797 8.322-3.636-49.981-85.16z"/><path d="M292.217 30.362a137.995 137.995 0 00-2.913 25.826c-.202 11.303.99 22.625 3.479 33.652a145.177 145.177 0 007.26 23.044 45.084 45.084 0 00-12.13-.609c-3.7.316-7.36 1.092-10.87 2.305L226.87 30.362h65.347" stroke="#55A" stroke-width="2" fill="#FF5" fill-rule="nonzero" stroke-linecap="round" stroke-linejoin="round"/><path d="M276.492 171.413c-17.232 8.904-25.108 12.996-38.67 16.556-15.813 4.151-32.424 6.081-48.756 5.332-14.711-.675-29.53-3.57-43.294-8.805-18.461-7.021-35.06-16.47-51.237-29.763 5.995-4.27 16.424-10.897 25.222-15.282 10.26-5.114 15.872-8.977 31.94-12.758 4.345 2.49 8.497 5.487 13.177 7.311 6.323 2.465 13.043 4.068 19.793 4.773 6.826.713 13.757.149 20.58-.587 6.903-.744 13.852-1.754 20.468-3.857 6.437-2.046 12.103-4.54 18.425-8.434-1.29 17.275-.392 22.175 9.34 31.303 2.17 1.8 13.746 8.993 19.393 7.905 4.923 3.58 1.122 5.1 3.62 6.306z" fill="#FFFF58" fill-rule="nonzero"/><path d="M256.097 53.89c-2.529-1.882-6.232-2.152-8.054-.18-2.105 2.28-1.091 6.92.946 9.263 2.392 2.75 7.654 4.726 10.62 2.607 1.36-.972 1.27-3.541.444-4.994-.415-.73-1.357-1.093-2.27-1.093" stroke="#000" stroke-width="2.5" stroke-linecap="round" stroke-linejoin="round"/><path d="M263.26 71.362c2.031-1.78 1.058-3.637 0-4.87-.868-1.012-2.823-1.313-3.956-.608-2.98 1.854-4.462 6.78-3.167 10.043 1.303 3.285 5.823 6.022 9.254 5.174 2.35-.58 4.668-2.808 3.957-6.087M262.348 63.45c-.828-1.293-.64-3.674.609-4.566 1.262-.902 3.735-.398 4.565.913.894 1.414.24 4.047-1.218 4.87-1.201.678-3.212-.056-3.956-1.218h0zM250.478 44.58c.353 2.95-1.558 7.433-4.565 7.913-3.15.502-5.888-3.45-7.124-6.392-1.259-2.995-1.97-7.546.428-9.739 1.65-1.507 5.153-1.31 6.696.305.841.88 1.093 2.903 0 3.652" stroke="#000" stroke-width="2.5" stroke-linecap="round" stroke-linejoin="round"/><path d="M230.696 30.362c.913 5.884 4.284 6.336 7.304 5.696 2.106-.447 3.747-3.596 3.043-5.696M242.087 30.362c-1.016 1.694.584 3.17 1.826 3.261 1.37.101 3.011-1.934 2.519-3.26" stroke="#000" stroke-width="2.5" stroke-linejoin="round"/><path d="M274.217 84.145a6.447 6.447 0 00-1.586-1.216c-1.83-1.015-4.22-1.335-5.842-.346-2.798 1.704-2.467 6.335-1.053 9.006 1.491 2.819 5.392 5.217 8.481 4.425 1.772-.454 3.513-2.797 3.044-4.565-.35-1.315-1.81-3.248-3.652-1.826M279.391 92.97c-.51-1.317.208-3.435 1.522-3.956 1.302-.515 3.393.482 3.784 1.826.4 1.375-.884 3.262-2.262 3.653-1.091.309-2.634-.465-3.044-1.522zM279.696 100.58c1.562.454 1.068-3.326 0-4.261-1.155-1.012-3.505-.502-4.566.608-1.999 2.095-2.017 6.052-.748 8.654 1.353 2.777 4.814 5.973 7.765 5.058 2.522-.782 3.528-3.214 3.027-7.32" stroke="#000" stroke-width="2.5" stroke-linecap="round" stroke-linejoin="round"/><path d="M158.69 30.362s.797 19.915 1.25 29.87c.289 6.352.438 12.715.937 19.055.607 7.726.827 15.548 2.499 23.116 1.328 6.013 2.875 12.15 5.935 17.493 2.531 4.42 5.763 8.725 9.996 11.558 2.463 1.648 5.48 2.58 8.434 2.812 3.79.297 7.68-.561 11.246-1.875 4.558-1.678 8.548-4.666 12.496-7.497 3.662-2.625 6.962-5.728 10.308-8.746 2.57-2.319 7.497-7.185 7.497-7.185" stroke="#55A" stroke-width="2.5" stroke-linejoin="round"/><path d="M170.56 30.555s-3.23 4.665-5.31 6.56c-1.665 1.518-5.623 3.749-5.623 3.749M177.12 30.555s-4.32 6.863-7.184 9.684c-2.924 2.88-9.996 7.185-9.996 7.185M183.993 30.555s-7.246 10.413-11.87 14.682c-3.523 3.252-11.871 8.122-11.871 8.122M188.679 30.555s6.702 13.33 12.183 18.118c5.506 4.81 19.68 9.684 19.68 9.684" stroke="#55A" stroke-width="2.5" stroke-linecap="round" stroke-linejoin="round"/><path d="M194.302 30.555s5.276 9.822 9.371 13.432c3.529 3.111 12.495 6.56 12.495 6.56M199.924 30.555s3.195 6.71 5.936 9.06c1.91 1.637 6.872 3.123 6.872 3.123" stroke="#55A" stroke-width="2.5" stroke-linecap="round" stroke-linejoin="round"/><path d="M180.473 67.908s.548 4.052.34 6.066c-.394 3.802-2.014 7.375-2.972 11.075-.627 2.42-1.914 4.779-1.819 7.278.075 1.963.592 4.093 1.86 5.593.85 1.004 2.51.965 3.485 1.848.817.74 1.831 2.755 1.831 2.755" stroke="#55A" stroke-width="2" stroke-linecap="round" stroke-linejoin="round"/><path d="M193.63 92.238s3.198 3.597 2.767 5.649c-.272 1.298-1.732 2.341-3.039 2.57-1.684.293-3.216-1.163-4.806-1.79-1.51-.594-3.04-2.59-4.492-1.868-.682.339-1.084 1.644-.575 2.21.618.685 1.815-.392 2.737-.416 3.2-.083 7.04 2.922 9.558.945.871-.684.707-2.21.467-3.292-.346-1.557-2.617-4.008-2.617-4.008h0zM220.52 66.972s-8.749-6.254-13.744-7.574c-3.93-1.038-8.24-1.275-12.133-.103-1.566.472-4.15 2.761-4.15 2.761s3.816-1.383 5.8-1.641c4.01-.522 8.189-.798 12.12.214 4.363 1.124 12.108 6.343 12.108 6.343h0zM160.943 60.918s6.116-2.84 9.274-2.377c3.502.514 9.096 5.483 9.096 5.483s-5.916-4.084-9.336-4.306c-3.218-.209-9.235 2.882-9.235 2.882l.2-1.682zM197.092 109.998s-3.93-1.536-6.041-1.668c-1.915-.119-3.77.712-5.678.819-2.177.122-4.454-.745-6.542-.203-.948.246-2.408 1.488-2.408 1.488s1.7-.104 2.542-.016c2.23.231 4.314 1.447 6.531 1.424 2.448-.025 4.71-1.4 7.16-1.723 1.462-.193 4.436-.12 4.436-.12z" stroke="#55A" stroke-width="2" fill="#55A" fill-rule="nonzero" stroke-linecap="round" stroke-linejoin="round"/><path d="M192.453 115.116s-3.679 1.442-5.616 1.513c-1.656.06-4.881-.939-4.881-.939M178.667 69.895s-4.791-4.1-9.136-4.142c-4.65-.044-7.392 2.662-7.392 2.662M219.136 71.517s-9.376-7.14-14.706-7.066c-7.19.1-12.54 4.317-12.54 4.317" stroke="#55A" stroke-width="2" stroke-linecap="round" stroke-linejoin="round"/><path d="M218.056 73.74c-5.516-.693-7.47-3.855-12.544-4.252-4.35-.34-13.101 1.232-13.101 1.232M161.624 71.978c5.033-2.648 4.77-3.255 9.85-2.925 6.551.425 8.415 1.212 8.064 1.072M215.443 74.674c-4.937 1.285-7.291 2.526-12.893 2.904-4.15.28-9.712-1.033-10.134-5.171" stroke="#55A" stroke-width="2" stroke-linecap="round" stroke-linejoin="round"/><path d="M205.44 70.664c.953 5.126-2.45 7.07-5.805 6.673-2.276-.27-4.423-3.248-3.37-6.198" stroke="#55A" stroke-width="2" stroke-linecap="round" stroke-linejoin="round"/><path d="M199.177 73.514c-.019-.744.612-1.743 1.356-1.775.805-.035 1.68.983 1.629 1.788-.048.754-.973 1.531-1.726 1.47-.646-.052-1.242-.835-1.259-1.483h0zM172.082 72.702c.015-.728-.819-1.658-1.661-1.627-.737.027-1.43.895-1.352 1.527.082.66.995 1.313 1.763 1.265.608-.037 1.24-.639 1.25-1.165z" stroke="#55A" stroke-width="2" fill="#55A" fill-rule="nonzero" stroke-linecap="round" stroke-linejoin="round"/><path d="M178.166 78.54c-1.934 2.523-2.046 4.74-6.095 6.912M192.36 71.61c1.61 7.204 7.236 9.358 11.683 12.543M161.54 74.608c2.712 1.794 6.167 2.827 10.552 2.643 3.25-.136 6.52-2.665 6.536-5.667" stroke="#55A" stroke-width="2" stroke-linecap="round" stroke-linejoin="round"/><path d="M166.642 69.281c-.977 4.985 1.136 7.632 4.942 7.495 1.674-.06 5.045-4.168 2.476-7.994M192.014 122.006s-3.755-1.23-5.693-1.19c-1.656.033-4.82 1.214-4.82 1.214" stroke="#55A" stroke-width="2" stroke-linecap="round" stroke-linejoin="round"/><path d="M224.418 70.235c-1.846 5.394-5.166 10.816-5.11 16.607.054 5.678 2.292 11.38 5.323 16.182 2.357 3.736 5.617 7.207 9.581 9.156 3.801 1.87 8.375 1.277 12.562 1.916" stroke="#55A" stroke-width="2.5" stroke-linecap="round" stroke-linejoin="round"/><path d="M227.612 75.77c-.852 3.123-2.307 7.175-2.13 10.86.203 4.216 1.51 8.48 3.62 12.136 1.756 3.044 4.156 5.979 7.24 7.665 2.344 1.283 5.251.994 7.877 1.49" stroke="#55A" stroke-width="2.5" stroke-linecap="round" stroke-linejoin="round"/><path d="M231.231 82.158c-.284 2.271-1.178 4.548-.851 6.814.43 2.988 1.527 6.127 3.62 8.304 1.693 1.762 4.4 2.129 6.6 3.193M251.459 123.039c-.852 3.052-2.353 5.993-2.555 9.155-.252 3.937.258 8.04 1.703 11.711 1.644 4.177 4.396 7.996 7.665 11.072 1.994 1.877 4.45 3.33 7.026 4.258 1.823.657 3.833.568 5.75.852" stroke="#55A" stroke-width="2.5" stroke-linecap="round" stroke-linejoin="round"/><path d="M255.078 130.065c-.426 2.271-1.41 4.507-1.277 6.814.179 3.115 1.182 6.255 2.768 8.942 1.3 2.205 3.217 4.08 5.323 5.536 1.333.922 2.98 1.278 4.471 1.916M161.393 97.063c-3.193 4.329-7.085 8.222-9.581 12.988-2.75 5.249-3.833 11.214-5.749 16.82M162.458 103.663c-2.058 3.194-4.57 6.138-6.175 9.582-1.726 3.703-2.413 7.807-3.62 11.71M163.948 111.115c-1.064 1.775-2.356 3.43-3.193 5.323-.698 1.577-.994 2.753-1.49 4.953M149.676 125.985c6.61 3.734 14.673 7.614 22.576 9.83 6.553 1.836 13.426 2.554 20.228 2.767 7.753.243 15.557-.424 23.208-1.703 5.213-.872 10.417-2.098 15.33-4.046 4.429-1.756 8.375-4.542 12.563-6.813" stroke="#55A" stroke-width="2.5" stroke-linecap="round" stroke-linejoin="round"/><path d="M139.037 130.917c5.82 3.336 11.31 7.327 17.46 10.007 6.132 2.673 12.627 4.532 19.162 5.962 6.153 1.346 12.44 2.327 18.737 2.432 6.987.116 13.976-.842 20.866-2.006 5.618-.95 11.175-2.328 16.608-4.046 3.707-1.172 7.24-2.839 10.859-4.258" stroke="#000" stroke-width="2.5" stroke-linecap="round" stroke-linejoin="round"/><path d="M133.5 134.11c5.04 2.982 9.865 6.358 15.118 8.943 5.144 2.532 10.484 4.72 15.97 6.388 6.525 1.984 13.242 3.445 20.014 4.258 7.19.864 14.493 1.152 21.718.64 5.819-.414 11.582-1.584 17.246-2.982 7.17-1.769 14.053-4.542 21.08-6.813" stroke="#000" stroke-width="2.5" stroke-linecap="round" stroke-linejoin="round"/><path d="M126.262 137.092c5.677 3.335 11.084 7.182 17.033 10.007 6.634 3.15 13.597 5.634 20.653 7.665 7.037 2.025 14.237 3.587 21.505 4.471 5.711.695 11.502.945 17.247.639 6.445-.343 12.875-1.31 19.163-2.768 4.504-1.044 8.854-2.682 13.2-4.258 3.742-1.357 7.382-2.981 11.073-4.472" stroke="#000" stroke-width="2.5" stroke-linecap="round" stroke-linejoin="round"/><path d="M99.647 151.783c6.742 4.755 13.168 9.995 20.227 14.266 7.849 4.749 15.918 9.285 24.486 12.562 7.676 2.935 15.77 4.736 23.847 6.254 7.653 1.44 15.43 2.306 23.208 2.689 8.295.407 16.678.659 24.912-.426 8.123-1.07 16.028-3.513 23.847-5.962 7.46-2.336 14.85-4.991 21.93-8.304 4.06-1.899 7.808-4.4 11.711-6.6" stroke="#000" stroke-width="2.5" stroke-linecap="round" stroke-linejoin="round"/><path fill="#000" fill-rule="nonzero" d="M125.18 136.525l-12.68 6.587 7.25 5.25 7.18-10.087zM136.419 144.02l-6.669 11.842 13.25 6.25 5.75-11.25zM161 154.612l-3.919 12.093 13.5 4.25L174 158.019zM186.25 160.362l-1 12.593 14.424.506-.674-13.599zM211.75 160.112l1.163 12.843 14.087-2.75-2.907-13.18zM236.413 152.932l5.293 13.398 12.03-4.57-2.986-7.398-4.5-6.25zM111.5 159.112l8-10.5 10.25 7-6.419 12.093z"/><path fill="#000" fill-rule="nonzero" d="M136.744 175.292l5.762-13.523 14.342 4.593-4.348 14zM167.669 184.722l2.831-13.61 14.843 1.919-1.169 13.674zM199.5 187.112l-.25-14.5h14l1.5 13.5-15.5 2zM230 182.862l-3.174-12.924 14.767-4.337 4.337 12.848-15.68 5.413zM258.75 173.112l-5.25-11.75 3-1 15.75 7z"/><path stroke="#000" stroke-width="2.5" stroke-linecap="round" stroke-linejoin="round" d="M107.413 148.042l.337 4.57 5.581-.989-1.081-5.01zM125.5 144.362l4.75-1.25.587 4.843-4.837 1.75zM129.5 163.612l5.25-2.5 1.25 4.75-4 2.25zM149.5 156.862l5-1.75 1.424 4.843-4.674 2.157zM158.5 174.362l2.75 4.75 4-3.25-3-4.5zM175.564 165.077l3.989-3.25 2.976 3.035-4 4zM188.25 179.536l3.75-3.674 3 4.75-3.75 2.25zM202.215 166.94l3.174-3.75 3.332 3.408-3 3zM217.663 177.868l3.587-4.006 3.75 3-2.565 4.669zM228.75 162.862l2.5-4.5 4.25 1.75-2 4.75zM246.25 170.862l2.25-4.75 4.75 2.5-2 4.25z"/><path d="M95 155.362c7.667 5.667 14.265 11.268 22 16 5.5 3.365 11.337 6.18 17.25 8.75 6.673 2.901 13.498 5.523 20.5 7.5 6.873 1.941 13.934 3.209 21 4.25 7.15 1.054 14.36 1.942 21.588 2.015 9.03.091 18.136-.34 27.018-1.971 9.203-1.691 18.132-4.76 26.894-8.044 8.722-3.268 17.275-7.392 25.442-11.558M148.25 130.362a1 1 0 11-2 0 1 1 0 012 0zM155 134.112a1 1 0 11-2 0 1 1 0 012 0zM161.5 137.112a1 1 0 11-2 0 1 1 0 012 0zM168 138.862a1 1 0 11-2 0 1 1 0 012 0zM175.5 141.112a1 1 0 11-2 0 1 1 0 012 0zM182.25 142.862a1 1 0 11-2 0 1 1 0 012 0zM189.5 143.362a1 1 0 11-2 0 1 1 0 012 0zM196.8 144.05a1 1 0 11-2-.001 1 1 0 012 0zM203.687 143.686a1 1 0 11-2 0 1 1 0 012 0zM211 142.362a1 1 0 11-2 0 1 1 0 012 0zM218.5 141.362a1 1 0 11-2 0 1 1 0 012 0zM225.475 139.524a1 1 0 11-2 0 1 1 0 012 0zM231.75 137.862a1 1 0 11-2 0 1 1 0 012 0zM237 135.362a1 1 0 11-2 0 1 1 0 012 0zM242.5 133.612a1 1 0 11-2 0 1 1 0 012 0z" stroke="#000" stroke-width="2.5" stroke-linecap="round" stroke-linejoin="round"/><g stroke="#55A" stroke-linecap="round" stroke-linejoin="round" stroke-width="2"><path d="M312.57 205.38s-1.37.53-2.056.392c-.626-.126-1.224-.548-1.606-1.056-.374-.498-.554-1.8-.554-1.8M314.985 203.66s3.378-.848 4.59.083c1.277.98 1.635 3.06 1.302 4.622-.506 2.377-3.06 3.796-4.673 5.61-.981 1.104-1.78 2.516-3.043 3.206-1.236.676-2.836 1.305-4.072.715-.965-.46-1.543-1.742-1.68-2.877-.122-1.012.044-2.366.832-2.972 1.058-.814 2.675-.37 3.832.18.618.295 1.121.896 1.414 1.55.3.673.26 2.24.26 2.24"/><path d="M321.533 207.96s2.128.93 2.77 1.826c.647.902.981 2.12.833 3.216-.241 1.782-1.53 3.306-2.695 4.682a18.238 18.238 0 01-4.897 4.03c-1.348.76-2.827 1.369-4.335 1.504-1.126.1-2.655.422-3.342-.534-.587-.817-.27-2.255.288-3.112.421-.647 1.264-.864 1.978-1.023.969-.217 2.188-.531 2.956.126.688.59.7 2.756.7 2.756"/><path d="M323.788 217.052s2.58 2.098 2.648 3.574c.046.997-.864 1.843-1.562 2.56-1.781 1.832-4.151 3.03-6.438 4.184-1.406.709-2.852 1.766-4.427 1.657-.737-.05-1.632-.39-1.948-1.053-.29-.61.044-1.403.386-1.984.642-1.09 1.644-2.597 2.91-2.453.792.09 1.172 1.157 1.427 1.907.265.78.027 2.466.027 2.466M326.034 223.897s.995 1.737.91 2.675c-.136 1.526-1.156 2.93-2.235 4.027-1.4 1.421-3.275 2.432-5.195 2.999-1 .295-2.327.824-3.125.159-.983-.82-1.054-2.661-.465-3.794.508-.976 1.825-1.737 2.921-1.574.827.124 1.36 1.048 1.754 1.78.396.737.514 2.453.514 2.453"/><path d="M318.146 234.154s-.688 1.162-1.163 1.606c-.447.419-.999.695-1.54.954-1.073.514-2.202.887-3.35 1.177-3.546.897-7.18 1.775-10.838 1.72-2.63-.04-5.607.05-7.756-1.47-1.866-1.32-3.05-3.678-3.447-5.929-.686-3.887.796-7.926 2.087-11.656 1.09-3.15 2.749-6.124 4.699-8.828 1.685-2.336 3.727-4.44 5.96-6.261 1.69-1.38 3.524-2.662 5.551-3.471 1.158-.462 2.472-1.114 3.663-.748.966.298 2.054 1.164 2.114 2.172.128 2.141-2.44 3.548-3.909 5.11-.845.899-1.823 1.666-2.796 2.424-1.055.822-2.293 2.181-3.29 2.296-.652 2.215.796 1.691.887 6.079.085 4.108-1.547 6.802-3.38 8.992"/></g><path d="M248.478 117.29c-1.562 4.116-4.185 7.975-4.685 12.35-.658 5.763.187 11.86 2.343 17.246 1.53 3.822 4.319 7.105 7.239 10.007 2.598 2.583 5.62 4.844 8.943 6.388 3.387 1.574 7.239 1.845 10.858 2.768" stroke="#55A" stroke-width="2.5" stroke-linecap="round" stroke-linejoin="round"/><path d="M168.207 119.42c-29.428 8.652-51.29 20.05-74.051 35.63-3.96 2.712-7.915 5.439-11.73 8.35C64.484 177.099 47.2 190.602 30 206.263" stroke="#55A" stroke-width="2" stroke-linecap="round" stroke-linejoin="round"/><path fill="#000" fill-rule="nonzero" d="M206.484 30.362l70.599 141.39 18.118-8.435-76.534-132.955z"/><path d="M60.458 344.847l3.889-4.95 5.657 2.829-4.243 5.303 5.657 3.89 9.192-13.082-10.96-6.718 5.657-10.96 5.657 1.768-2.475 5.303 6.364 2.475 4.596-15.203-12.374-3.535 3.535-16.264h6.364l-1.768 9.9 6.01 1.06 2.122-17.677h-10.96v-16.264h6.01l-.353 8.486 6.717-.708 1.061-15.556-11.314-1.768 1.06-16.263 7.072 1.06-.707 7.779 6.364 1.06 3.889-15.202-12.374-5.304 8.131-15.203 5.657 2.829-3.182 7.071 6.01 1.768 6.718-10.253-9.192-8.84 10.96-12.374 5.657 4.597-5.657 4.596 4.596 5.657 11.314-10.253-8.132-11.668 5.023-2.37m7.487 4.13l-2.201.88 3.523 5.285 6.165-3.376" stroke="#5456AA" stroke-width="2" stroke-linecap="round" stroke-linejoin="round"/><path d="M148.846 201.658c-6.953 4.596-14.468 8.439-20.86 13.789-5.241 4.387-10.273 9.214-14.142 14.849-2.805 4.085-4.685 8.773-6.364 13.435-2.43 6.75-4.25 13.763-5.303 20.86-.761 5.134-.25 10.385-.707 15.556-.556 6.276-1.662 12.49-2.475 18.738-.598 4.595-.882 9.24-1.768 13.789-.885 4.545-2.036 9.054-3.535 13.435-1.95 5.695-4.28 11.283-7.071 16.617-1.744 3.331-3.615 6.648-6.01 9.546-1.542 1.863-3.536 3.3-5.304 4.95" stroke="#5456AA" stroke-width="2" stroke-linecap="round" stroke-linejoin="round"/><g fill-rule="nonzero"><path fill="#FFFF57" d="M63.64 200.597l-.354-6.364 6.364.354 3.536-6.01 4.596 6.364h6.364l-.707 6.363 5.303 3.182-6.01 4.597.353 5.657-4.95-.708-4.242 6.364-4.95-7.424-4.596 1.768v-6.01l-6.718-3.89z"/><path stroke="#000" stroke-width="2" fill="#F55" stroke-linecap="round" stroke-linejoin="round" d="M68.09 204.156l5.406-5.076 5.12 5.52-5.18 4.897z"/></g><path fill="#55A" fill-rule="nonzero" d="M154.624 187.43l16.85 3.786 10.045 62.604-10.546-6.054z"/><path d="M159.642 203.633s-8.084 1.71-11.857 3.328c-4.662 2-8.93 4.861-13.081 7.779-2.123 1.492-4.152 3.137-6.01 4.95-1.675 1.632-4.597 5.303-4.597 5.303s2.873 3.145 4.246 4.773c1.702 2.018 3.475 3.994 4.947 6.187 1.109 1.652 2.903 5.216 2.903 5.216s6.611-1.672 9.971-1.534c3.34.136 6.545 1.388 9.753 2.328 5.15 1.51 15.203 5.303 15.203 5.303l-11.478-43.633zM108.891 255.02s3.43 4.142 4.213 6.645c.701 2.242.896 4.77.294 7.04-.503 1.895-1.841 3.499-3.123 4.98-1.103 1.277-3.855 3.28-3.855 3.28s.795-6.88 1.189-10.423c.427-3.84.045-7.682 1.282-11.523z" fill="#F55" fill-rule="nonzero"/><path d="M113.49 245.145s1.198-4.043 2.476-5.657c1.097-1.386 2.492-2.93 4.242-3.182.997-.143 2.255.233 2.829 1.06.47.679.227 1.683 0 2.476-.307 1.069-1.016 2.01-1.768 2.828-.797.868-1.857 1.455-2.829 2.122-.917.628-2.828 1.767-2.828 1.767l-2.121-1.414z" fill="#FFF" fill-rule="nonzero"/><path d="M109.217 255.329l1.799-6.648s2.553 3.419 3.535 5.303c1.346 2.581 2.678 5.265 3.182 8.132.517 2.936.458 6.038-.221 8.94-.477 2.035-1.507 3.93-2.643 5.683-1.128 1.74-2.441 3.425-4.079 4.697-1.525 1.185-5.18 2.6-5.18 2.6l1.163-7.071s3.767-3.194 4.95-5.303c1.076-1.92 1.687-4.164 1.768-6.364.066-1.802-.359-3.643-1.061-5.304-.736-1.739-3.213-4.665-3.213-4.665z" fill="#FF5" fill-rule="nonzero"/><path d="M138.131 245.347s6.707-.687 10.008-.202c3.798.558 7.327 2.296 10.96 3.536 2.964 1.01 5.981 1.9 8.839 3.182 4.283 1.92 8.355 4.293 12.374 6.717 2.911 1.756 5.607 3.849 8.486 5.657 2.55 1.602 5.107 3.205 7.778 4.596 2.526 1.316 5.028 2.795 7.778 3.536 2.287.616 4.705.589 7.07.707 2.12.105 6.365 0 6.365 0l.177 9.9-4.066-4.95-1.06 3.889-7.779-6.364-1.414 3.535-8.132-8.131-2.121 3.889-7.778-9.9-2.988 3.615-6.912-7.858-2.121 3.182-8.132-8.485-1.414 3.182-9.9-7.07-.707 3.181-9.192-5.303.353 2.828-5.115-1.493-1.357-5.376z" stroke="#000" fill="#000" fill-rule="nonzero" stroke-linecap="round" stroke-linejoin="round"/><path fill="#F55" fill-rule="nonzero" d="M234.556 195.434l5.094.352-.002-5.844-4.023 1.202z"/><path d="M239.476 237.198c.118-16.617-.006-31.297.112-47.914 6.01-1.886 10.942-3.71 16.281-5.907 5.276-2.17 10.338-4.83 15.539-7.175 2.934-1.323 5.892-2.593 8.839-3.889.681 2.841.636 3.625 1.439 6.345-2.357 2.71-4.852 5.307-7.071 8.132-2.142 2.725-4.229 5.512-6.01 8.485-2.575 4.294-4.762 8.826-6.718 13.435a75.475 75.475 0 00-3.14 8.9c-1.037 3.662-2.062 8.096-2.415 11.16-3.064 1.532-4.314 1.763-6.408 2.78-3.56 1.731-6.44 3.644-10.448 5.648z" fill="#000" fill-rule="nonzero"/><path d="M239.597 201.304l-.01 37.83-7.07 5.304-7.425 8.485-3.536 8.132-1.414 7.071h-6.01l18.757-66.822c2.362.234 4.347.114 6.708 0z" fill="#F55" fill-rule="nonzero"/><path d="M91.57 189.99c-.133-2.317-3.92-4.314-2.828-6.363 1.434-2.691 7.285-4.093 9.01-1.579.81 1.181-2.084 2.256-2.214 3.682-.115 1.26 1.336 3.554 1.336 3.554h12.02l-1.06 3.889H96.52s-1.449 1.375-1.5 2.285c-.073 1.296 2.662 2.545 1.757 3.475-1.791 1.843-5.941-.932-6.974-3.285-.795-1.81 1.881-3.685 1.767-5.657h0zM39.244 205.9s5.501.227 7.071 2.122c1.437 1.733.708 6.718.708 6.718s2.706-2.496 4.242-2.122c1.558.38 2.865 2.287 2.829 3.89-.035 1.508-1.444 2.934-2.829 3.535-1.41.612-4.596-.354-4.596-.354s2.099 5.812 4.636 6.976c2.363 1.084 5.383.133 7.738-.965 2.041-.952 2.757-4.087 4.95-4.597 1.199-.278 3.034-.062 3.536 1.061.902 2.022-2.587 3.81-2.829 6.01-.234 2.135-.127 4.79 1.414 6.284.949.919 2.579.901 3.89.747.853-.1 2.35-1.06 2.35-1.06s-1.67-3.873-.583-5.263c1.1-1.405 3.791-1.652 5.304-.707 1.58.987 2.196 3.49 1.767 5.303-.3 1.272-2.773 2.774-2.773 2.774l1.36 7.479s-3.284-2.738-5.25-3.467c-1.957-.726-4.245-.096-6.214-.79-1.902-.67-3.887-1.6-5.154-3.168-1.335-1.652-2.121-6.01-2.121-6.01s-4.644 2.524-7.071 2.121c-3-.498-5.514-2.937-7.425-5.303-1.313-1.625-2.19-3.684-2.49-5.752-.3-2.083.647-4.167.763-6.269.064-1.177.265-2.397-.04-3.535-.56-2.09-3.183-5.657-3.183-5.657h0zM36.062 279.793s3.957-.461 5.304.707c1.715 1.488 1.843 6.557 1.843 6.557s1.347-3.536 2.914-3.742c1.405-.184 3.312 1.154 3.388 2.57.096 1.796-3.93 3.7-3.93 3.7s2.306 3.41 5.581-.881c.912-1.195 1.407-2.69 1.763-4.149.378-1.545.368-4.757.368-4.757l4.605.085s-1.115 3.688-.976 5.567c.11 1.487.346 3.203 1.414 4.243.933.907 3.737 1.132 3.737 1.132s-.47-1.51-.201-2.193c.521-1.32 1.763-2.802 3.182-2.828 1.264-.024 2.614 1.187 2.927 2.412.257 1.006-.47 2.114-1.16 2.891-.27.304-1.07.586-1.07.586s2.65 1.7 3.545 2.95c.963 1.342 1.782 4.623 1.782 4.623s-4.245-3.052-6.731-3.563c-1.415-.29-2.912.679-4.319.354a8.163 8.163 0 01-4.167-2.475c-.77-.868-1.414-3.182-1.414-3.182s-2.487 3.197-4.247 4.05c-1.5.727-3.32 1.048-4.95.703-1.628-.345-3.144-1.388-4.233-2.645-.757-.874-1.022-2.08-1.401-3.173-.318-.919-.544-1.87-.725-2.824-.178-.934-.032-1.935-.354-2.829-.52-1.445-2.475-3.889-2.475-3.889h0z" stroke="#FF5" stroke-width="2" fill="#000" fill-rule="nonzero" stroke-linecap="round" stroke-linejoin="round"/><path d="M85.206 163.12c5.068 4.125 9.876 8.591 15.203 12.375 6.864 4.876 14.145 9.16 21.506 13.246a186.36 186.36 0 0014.592 7.253c3.979 1.773 8.02 3.428 12.15 4.81 3.54 1.185 7.197 1.984 10.796 2.975M171.491 192.776l14.478 8.882M172 199.362l13 8M172.75 208.112l12.25 6.25M174.5 215.612l11.75 6.5M176 222.362l10.25 6.5M177.5 230.362l9.5 6M178.75 237.862l7.75 4M179.75 245.362l7.25 4.5M212.38 197.694l-12.728 8.132M211.62 204.53l-11 7M210.62 213.03l-10 5.5M211.12 220.28l-11.25 6M210.62 227.03l-10.75 5.75M210.12 234.03l-11.5 6.5M208.87 240.78l-9.75 5.25M207.87 248.28l-9.25 5.75M187.5 256.862l-6.799-4.866M206.25 257.112l-6.75 3.25M199.293 262.89l6.237 2.5" stroke="#5456AA" stroke-width="2" stroke-linecap="round" stroke-linejoin="round"/><g stroke="#5456AA" stroke-linecap="round" stroke-linejoin="round" stroke-width="2"><path d="M302.5 134.362c-.833-2.166-3.279-4.313-2.5-6.5.902-2.531 4.319-4.183 7-4 2.727.187 5.408 2.494 6.5 5 1.07 2.456.13 4.632-.75 8 3.01-1.846 4.26-2.295 6.25-1.5 3.133 1.253 5.716 5.132 5.5 8.5-.181 2.833-2.738 5.848-5.5 6.5-2.47.583-4.667-2-7-3 .5 3 2.631 6.177 1.5 9-.93 2.32-3.5 4.515-6 4.5-2.733-.017-5.499-2.456-6.5-5-1.114-2.83 1-6 1.5-9-1.833 1.334-3.243 4.214-5.5 4-3.639-.344-7.257-4.353-7.5-8-.19-2.86 2.583-5.457 5-7 2.287-1.46 5.333-1 8-1.5z" fill="#FF5" fill-rule="nonzero"/><path fill="#55A" fill-rule="nonzero" d="M296.5 135.362l-3.5-8.5 6 1.5 3 5.5zM312 134.362l2.5-5.5 6.5-1-2.5 6.5zM313.5 149.362l.5 6 5 .5-1-5.5zM297.5 149.362l-2 7 4.5-1.5 2.5-8.5z"/><path fill="#FF5" fill-rule="nonzero" d="M305 160.862l1.5 40.5 3.5-2-1.5-38.25zM311.5 191.862c.333-5.514 1.018-11.197 3.25-16.25 2.215-5.016 6.25-9.416 9.75-13.25.167 5.5.253 11.583-.75 17.25-.625 3.53-1.388 7.187-3.25 10.25-2.081 3.424-5.667 5.667-8.5 8.5-.167-2.166-.631-4.33-.5-6.5z"/><path d="M320.5 171.862c-.833 3.834-1.324 7.758-2.5 11.5-1.299 4.134-5 12-5 12h0"/><path d="M287.5 172.862c4.833 3.834 11.176 6.303 14.5 11.5 3.05 4.768 2.667 11 4 16.5-3.833-3.833-8.007-7.354-11.5-11.5-2.234-2.652-4.747-5.266-6-8.5-.97-2.506-.667-5.333-1-8z" fill="#FF5" fill-rule="nonzero"/><path d="M292.5 181.862c2.5 2.334 5.378 4.319 7.5 7 2.502 3.161 4 7 6 10.5"/><path fill="#F55" fill-rule="nonzero" d="M297 141.862l11-10.5 9.25 10.75-9.75 10z"/><path fill="#FF5" fill-rule="nonzero" d="M303 141.862l4.5-4.5 4.5 4.5-4 4.75z"/></g><g fill-rule="nonzero"><path fill="#FFFF57" d="M41.454 253.973l-.353-6.364 6.363.354 3.536-6.01 4.596 6.363h6.364l-.707 6.364 5.303 3.182-6.01 4.596.353 5.657-4.95-.707-4.242 6.364-4.95-7.425-4.596 1.768v-6.01l-6.717-3.89z"/><path stroke="#000" stroke-width="2" fill="#F55" stroke-linecap="round" stroke-linejoin="round" d="M45.905 257.532l5.406-5.077 5.119 5.521-5.18 4.897z"/></g><path d="M117.097 250.053s2.24-3.573 3.904-4.784c1.43-1.04 3.189-2.153 4.942-1.925.998.13 2.109.83 2.44 1.782.27.78-.234 1.681-.666 2.384-.582.947-1.518 1.663-2.463 2.25-1.001.621-2.179.902-3.294 1.282-1.052.36-3.2.943-3.2.943l-1.663-1.932zM119.937 255.146s3.145-2.81 5.08-3.51c1.662-.602 3.662-1.182 5.282-.476.923.403 1.795 1.384 1.848 2.39.043.824-.69 1.55-1.301 2.105-.823.748-1.92 1.175-2.991 1.476-1.135.32-2.344.262-3.522.317-1.11.053-3.335.017-3.335.017l-1.06-2.319zM122.592 260.94s3.938-1.51 5.996-1.476c1.768.028 3.843.196 5.106 1.433.72.704 1.186 1.931.878 2.89-.252.785-1.197 1.203-1.965 1.505-1.034.407-2.212.416-3.32.317-1.174-.105-2.284-.59-3.404-.956-1.057-.345-3.123-1.17-3.123-1.17l-.168-2.544zM122.541 266.748s4.187-.506 6.175.026c1.707.457 3.68 1.124 4.605 2.631.526.858.68 2.162.149 3.017-.436.7-1.454.876-2.272.982-1.102.143-2.247-.134-3.298-.5-1.113-.386-2.072-1.126-3.07-1.753-.94-.592-2.745-1.895-2.745-1.895l.456-2.508zM106.4 286.48s-.614 4.171-.134 6.172c.413 1.72 1.03 3.708 2.511 4.671.845.55 2.144.737 3.013.228.711-.418.913-1.43 1.04-2.246.172-1.098-.076-2.25-.414-3.31-.358-1.122-1.072-2.1-1.674-3.113-.567-.956-1.823-2.794-1.823-2.794l-2.519.391zM111.362 283.696s.53 4.184 1.53 5.982c.86 1.545 1.987 3.295 3.674 3.825.96.302 2.263.134 2.962-.59.574-.594.496-1.624.4-2.443-.13-1.104-.679-2.147-1.289-3.077-.647-.985-1.597-1.735-2.45-2.55-.803-.768-2.505-2.2-2.505-2.2l-2.322 1.053zM115.808 280.117s1.67 3.871 3.132 5.32c1.255 1.246 2.825 2.613 4.592 2.654 1.007.023 2.211-.5 2.682-1.391.385-.73.025-1.697-.296-2.457-.432-1.025-1.248-1.874-2.092-2.597-.895-.767-2.017-1.223-3.062-1.769-.985-.515-3.019-1.418-3.019-1.418l-1.937 1.658zM120.167 275.492s2.938 3.025 4.82 3.86c1.615.718 3.568 1.438 5.235.848.949-.337 1.888-1.254 2.012-2.253.1-.82-.58-1.595-1.15-2.192-.768-.804-1.833-1.308-2.879-1.684-1.11-.398-2.32-.426-3.49-.565-1.104-.13-3.326-.252-3.326-.252l-1.222 2.238z" fill="#FFF" fill-rule="nonzero"/><g fill-rule="nonzero"><path stroke="#000" stroke-width="2" fill="#FF5" stroke-linecap="round" stroke-linejoin="round" d="M186.323 194.94l2.121 62.58 10.253 5.303.707-67.175z"/><path d="M191.272 200.244h2.829l.353 3.182-2.975.146-.207-3.328zM191.659 207.198h2.828l.354 3.182-2.975.146-.207-3.328zM191.409 214.198h2.828l.354 3.182-2.975.146-.207-3.328zM191.159 220.448h2.828l.354 3.182-2.975.146-.207-3.328zM191.159 227.698h2.828l.354 3.182-2.975.146-.207-3.328zM190.909 233.698h2.828l.354 3.182-2.975.146-.207-3.328zM191.659 240.198h2.828l.354 3.182-2.975.146-.207-3.328zM191.659 246.198h2.828l.354 3.182-2.975.146-.207-3.328zM191.659 252.698h2.828l.354 3.182-2.975.146-.207-3.328z" fill="#000"/></g><path d="M209.125 194.487l-9.25 5.75" stroke="#5456AA" stroke-width="2" stroke-linecap="round" stroke-linejoin="round"/><g><path d="M119.185 303.815c-.118 16.617.295 30.759.177 47.376-6.01 1.885-10.942 3.71-16.281 5.907-5.276 2.17-10.338 4.83-15.539 7.174-2.934 1.323-5.892 2.593-8.839 3.89l-1.802-6.83c2.357-2.71 5.711-5.904 8.282-9.1 2.172-2.7 4.228-5.512 6.01-8.485 2.574-4.295 4.761-8.826 6.717-13.435 1.23-2.896 2.339-5.858 3.14-8.9.878-3.337 1.457-7.128 1.81-10.192 3.064-1.532 5.252-2.169 7.84-3.34 2.858-1.292 4.478-2.062 8.485-4.065z" fill="#000" fill-rule="nonzero"/><path fill="#55A" fill-rule="nonzero" d="M204.326 353.044l-16.85-3.785-10.046-62.604 10.723 6.937z"/><path d="M149.825 345.987l9.25-5.75" stroke="#5456AA" stroke-width="2" stroke-linecap="round" stroke-linejoin="round"/><path d="M119.715 339.17l-.53-35.477s6.139-3.435 8.662-5.833c3.06-2.909 5.479-6.483 7.602-10.132 1.486-2.555 2.651-5.311 3.535-8.132.72-2.293 1.414-7.07 1.414-7.07l4.42-.178-18.031 66.822c-2.362-.234-4.71-.113-7.072 0z" fill="#F55" fill-rule="nonzero"/><path fill="#55A" fill-rule="nonzero" d="M145.446 347.43l8.546-73.21-10.07-1.872-20.989 78.16zM235.206 315.835c2.593-3.535 5.552-6.83 7.778-10.606 1.714-2.908 3.014-6.05 4.243-9.193 1.533-3.922 2.92-7.922 3.889-12.02 1.042-4.409 1.516-8.937 2.048-13.435.66-5.579 1.054-11.187 1.418-16.792.294-4.537.277-9.091.617-13.625.292-3.896.985-7.885 1.22-11.656-3.182 1.532-6.395 3.001-9.546 4.596-3.81 1.928-7.835 3.532-11.313 6.01-3.804 2.71-7.456 5.807-10.253 9.546-2.369 3.165-4.057 6.856-5.304 10.607-1.252 3.769-1.859 7.763-2.109 11.727-.28 4.455.14 8.945.695 13.375.448 3.578.89 7.218 2.121 10.607 1.513 4.164 3.885 7.996 6.364 11.667 1.453 2.15 3.206 4.089 4.95 6.01 1.008 1.111 2.121 2.122 3.182 3.182z"/><path d="M269.69 381.89s-10.406-8.097-15.746-11.96c-5.217-3.776-10.34-7.727-15.91-10.961-4.224-2.454-8.71-4.444-13.202-6.364a145.54 145.54 0 00-12.253-4.596c-3.372-1.095-10.253-2.829-10.253-2.829l1.06 8.132s11.667 3.19 17.324 5.303a112.597 112.597 0 0112.728 5.657c4.03 2.106 7.88 4.553 11.668 7.071 4.004 2.663 7.81 5.614 11.667 8.486 2.496 1.857 7.424 5.656 7.424 5.656l5.493-3.596z" fill="#F55" fill-rule="nonzero"/><path d="M328.95 334.112s-14.344 12.522-21.75 18.5c-6.615 5.339-13.506 10.325-20.25 15.5-4.338 3.328-13 10-13 10s-9.616-7.732-14.5-11.5c-3.96-3.054-7.834-6.236-12-9-3.859-2.56-12-7-12-7s8.387-4.103 12-7c4.784-3.837 8.614-8.755 12.5-13.5 4.69-5.726 9.604-11.423 13-18 4.038-7.82 6.744-16.375 8.5-25 .9-4.421.758-8.994 1-13.5.268-4.995.14-10.01.5-15 .325-4.516.905-9.011 1.5-13.5.575-4.346 2-13 2-13s3.763 6.77 7 8.5c2.954 1.58 6.655 1.192 10 1a37.88 37.88 0 0011.5-2.5c2.158-.84 4.007-2.32 6-3.5 1.673-.99 3.357-1.96 5-3 1.015-.642 3-2 3-2v103.5z" fill="#000" fill-rule="nonzero"/><path d="M199.899 478.97s10.506-9.832 15.117-15.33c5.2-6.203 10.206-12.681 14.053-19.802 3.514-6.506 6.113-13.53 8.09-20.654 2.042-7.352 3.833-22.57 3.833-22.57L219.7 410.836s-2.14 10.261-4.045 15.117c-2.053 5.232-4.75 10.237-7.878 14.905-2.778 4.144-9.582 11.497-9.582 11.497l1.704 26.615z" fill="#000004" fill-rule="nonzero"/><path fill="#FF5455" fill-rule="nonzero" d="M141.581 510.112l-51.392-88.796-8.322 3.636 49.981 85.16z"/><path d="M66.732 510.112a137.995 137.995 0 002.913-25.826c.203-11.302-.99-22.625-3.478-33.652a145.177 145.177 0 00-7.26-23.044c3.99.75 8.084.955 12.13.61 3.7-.317 7.36-1.093 10.87-2.305l50.173 84.217H66.732" stroke="#55A" stroke-width="2" fill="#FF5" fill-rule="nonzero" stroke-linecap="round" stroke-linejoin="round"/><path d="M82.458 369.061c17.231-8.904 25.108-12.995 38.67-16.556 15.813-4.15 32.424-6.081 48.756-5.332 14.711.675 29.53 3.57 43.294 8.805 18.461 7.022 35.06 16.471 51.236 29.764-5.994 4.27-16.423 10.896-25.22 15.281-10.262 5.115-15.874 8.977-31.942 12.759-4.344-2.491-8.496-5.488-13.176-7.312-6.323-2.464-13.043-4.068-19.793-4.773-6.826-.713-13.757-.149-20.58.587-6.903.744-13.852 1.754-20.468 3.858-6.437 2.046-12.103 4.54-18.425 8.433 1.29-17.275.392-22.174-9.34-31.303-2.17-1.8-13.746-8.992-19.393-7.905-4.923-3.58-1.122-5.1-3.62-6.306z" fill="#FFFF58" fill-rule="nonzero"/><path d="M102.853 486.584c2.528 1.882 6.231 2.153 8.053.18 2.106-2.28 1.092-6.92-.945-9.262-2.392-2.75-7.655-4.727-10.62-2.607-1.36.972-1.27 3.54-.444 4.993.415.73 1.357 1.094 2.27 1.094" stroke="#000" stroke-width="2.5" stroke-linecap="round" stroke-linejoin="round"/><path d="M95.689 469.112c-2.03 1.78-1.057 3.638 0 4.87.869 1.013 2.823 1.313 3.956.608 2.981-1.853 4.463-6.78 3.168-10.043-1.304-3.285-5.824-6.022-9.255-5.174-2.349.58-4.668 2.809-3.956 6.087M96.602 477.025c.828 1.293.64 3.673-.609 4.565-1.262.903-3.735.399-4.565-.913-.895-1.413-.24-4.047 1.217-4.87 1.202-.677 3.212.056 3.957 1.218h0zM108.472 495.895c-.353-2.95 1.558-7.434 4.565-7.913 3.15-.503 5.888 3.45 7.124 6.391 1.259 2.996 1.97 7.546-.429 9.74-1.648 1.507-5.152 1.31-6.695-.305-.841-.88-1.094-2.903 0-3.652" stroke="#000" stroke-width="2.5" stroke-linecap="round" stroke-linejoin="round"/><path d="M128.254 510.112c-.913-5.884-4.284-6.336-7.304-5.695-2.106.446-3.747 3.595-3.044 5.695M116.863 510.112c1.016-1.694-.584-3.169-1.826-3.26-1.37-.102-3.012 1.933-2.519 3.26" stroke="#000" stroke-width="2.5" stroke-linejoin="round"/><path d="M84.732 456.33c.436.466.98.88 1.587 1.216 1.83 1.014 4.219 1.334 5.842.346 2.798-1.705 2.467-6.335 1.053-9.007-1.492-2.818-5.393-5.217-8.482-4.425-1.771.454-3.512 2.798-3.043 4.565.35 1.316 1.81 3.248 3.652 1.826M79.558 447.504c.511 1.317-.207 3.436-1.521 3.956-1.302.516-3.393-.481-3.785-1.826-.4-1.375.885-3.262 2.263-3.652 1.091-.31 2.633.464 3.043 1.522zM79.254 439.895c-1.562-.454-1.068 3.325 0 4.26 1.155 1.012 3.505.502 4.565-.608 2-2.094 2.018-6.051.75-8.654-1.354-2.776-4.815-5.973-7.766-5.058-2.522.782-3.528 3.215-3.027 7.32" stroke="#000" stroke-width="2.5" stroke-linecap="round" stroke-linejoin="round"/><path d="M200.26 510.112s-.797-19.914-1.25-29.869c-.289-6.353-.439-12.715-.937-19.055-.607-7.727-.827-15.549-2.499-23.116-1.328-6.013-2.875-12.15-5.935-17.494-2.531-4.42-5.763-8.725-9.996-11.558-2.463-1.648-5.48-2.58-8.435-2.811-3.788-.298-7.68.56-11.245 1.874-4.559 1.678-8.548 4.667-12.496 7.497-3.662 2.626-6.962 5.729-10.308 8.747-2.57 2.318-7.497 7.185-7.497 7.185" stroke="#55A" stroke-width="2.5" stroke-linejoin="round"/><path d="M188.39 509.92s3.23-4.665 5.31-6.56c1.665-1.518 5.623-3.75 5.623-3.75M181.83 509.92s4.32-6.864 7.184-9.684c2.924-2.88 9.996-7.185 9.996-7.185M174.957 509.92s7.246-10.414 11.87-14.683c3.523-3.252 11.87-8.121 11.87-8.121M170.271 509.92s-6.702-13.33-12.183-18.119c-5.506-4.81-19.68-9.684-19.68-9.684" stroke="#55A" stroke-width="2.5" stroke-linecap="round" stroke-linejoin="round"/><path d="M164.648 509.92s-5.276-9.823-9.371-13.433c-3.529-3.11-12.495-6.56-12.495-6.56M159.025 509.92s-3.194-6.71-5.935-9.06c-1.91-1.637-6.872-3.124-6.872-3.124" stroke="#55A" stroke-width="2.5" stroke-linecap="round" stroke-linejoin="round"/><path d="M178.477 472.566s-.548-4.051-.34-6.066c.393-3.802 2.013-7.375 2.972-11.075.627-2.42 1.914-4.779 1.819-7.277-.075-1.964-.592-4.093-1.861-5.594-.849-1.003-2.51-.965-3.484-1.847-.818-.74-1.831-2.755-1.831-2.755" stroke="#55A" stroke-width="2" stroke-linecap="round" stroke-linejoin="round"/><path d="M165.32 448.236s-3.198-3.596-2.768-5.649c.273-1.298 1.733-2.34 3.04-2.569 1.684-.294 3.216 1.163 4.806 1.79 1.509.593 3.04 2.589 4.492 1.867.682-.338 1.084-1.644.575-2.209-.618-.685-1.815.391-2.737.415-3.2.083-7.04-2.922-9.558-.945-.872.685-.708 2.21-.467 3.292.346 1.558 2.617 4.008 2.617 4.008h0zM138.43 473.502s8.748 6.254 13.744 7.574c3.93 1.038 8.24 1.275 12.132.103 1.567-.472 4.15-2.76 4.15-2.76s-3.815 1.382-5.8 1.64c-4.01.522-8.188.798-12.12-.214-4.362-1.123-12.107-6.343-12.107-6.343h0zM198.007 479.556s-6.117 2.84-9.274 2.377c-3.503-.514-9.096-5.482-9.096-5.482s5.916 4.083 9.336 4.305c3.218.21 9.235-2.881 9.235-2.881l-.2 1.681zM161.858 430.476s3.93 1.537 6.041 1.668c1.914.12 3.77-.711 5.678-.818 2.177-.123 4.454.744 6.542.202.947-.246 2.408-1.488 2.408-1.488s-1.701.104-2.542.017c-2.23-.232-4.314-1.448-6.532-1.424-2.448.025-4.709 1.4-7.159 1.722-1.462.193-4.436.121-4.436.121z" stroke="#55A" stroke-width="2" fill="#55A" fill-rule="nonzero" stroke-linecap="round" stroke-linejoin="round"/><path d="M166.497 425.359s3.679-1.442 5.616-1.513c1.656-.06 4.881.938 4.881.938M180.283 470.58s4.791 4.1 9.136 4.141c4.65.045 7.391-2.661 7.391-2.661M139.814 468.957s9.376 7.14 14.706 7.066c7.19-.1 12.54-4.316 12.54-4.316" stroke="#55A" stroke-width="2" stroke-linecap="round" stroke-linejoin="round"/><path d="M140.894 466.734c5.516.693 7.47 3.855 12.543 4.252 4.351.341 13.102-1.231 13.102-1.231M197.326 468.496c-5.033 2.648-4.77 3.255-9.85 2.925-6.551-.425-8.415-1.212-8.064-1.071M143.507 465.8c4.937-1.284 7.291-2.526 12.893-2.904 4.15-.28 9.712 1.034 10.134 5.172" stroke="#55A" stroke-width="2" stroke-linecap="round" stroke-linejoin="round"/><path d="M153.873 469.592c-.952-5.126 2.087-6.852 5.442-6.454 2.276.27 4.423 3.247 3.37 6.198" stroke="#55A" stroke-width="2" stroke-linecap="round" stroke-linejoin="round"/><path d="M159.99 466.45c.194.905-.67 2.222-1.573 2.286-.79.055-1.69-.985-1.63-1.789.057-.738.988-1.348 1.726-1.397.576-.038 1.358.337 1.478.9h0zM186.867 467.772c-.015.728.82 1.658 1.662 1.627.737-.027 1.43-.895 1.352-1.527-.082-.66-.996-1.312-1.763-1.265-.608.037-1.24.639-1.25 1.165z" stroke="#55A" stroke-width="2" fill="#55A" fill-rule="nonzero" stroke-linecap="round" stroke-linejoin="round"/><path d="M180.783 461.934c1.935-2.523 2.046-4.74 6.096-6.911M166.59 468.865c-1.61-7.205-7.236-9.359-11.683-12.543M197.409 465.866c-2.711-1.793-6.166-2.827-10.551-2.643-3.25.136-6.52 2.665-6.536 5.667" stroke="#55A" stroke-width="2" stroke-linecap="round" stroke-linejoin="round"/><path d="M192.308 471.193c.977-4.984-1.136-7.631-4.943-7.495-1.674.06-5.044 4.168-2.475 7.995M166.936 418.469s3.755 1.23 5.693 1.19c1.656-.034 4.82-1.215 4.82-1.215" stroke="#55A" stroke-width="2" stroke-linecap="round" stroke-linejoin="round"/><path d="M134.532 470.24c1.845-5.394 5.166-10.816 5.11-16.608-.055-5.678-2.292-11.38-5.323-16.182-2.357-3.736-5.617-7.206-9.581-9.156-3.801-1.869-8.375-1.277-12.563-1.916" stroke="#55A" stroke-width="2.5" stroke-linecap="round" stroke-linejoin="round"/><path d="M131.338 464.704c.852-3.123 2.307-7.175 2.13-10.86-.204-4.216-1.51-8.479-3.62-12.136-1.757-3.044-4.156-5.978-7.24-7.665-2.344-1.282-5.252-.993-7.878-1.49" stroke="#55A" stroke-width="2.5" stroke-linecap="round" stroke-linejoin="round"/><path d="M127.719 458.316c.283-2.27 1.178-4.548.851-6.813-.431-2.989-1.527-6.127-3.62-8.304-1.693-1.762-4.4-2.13-6.6-3.194M107.491 417.436c.852-3.052 2.353-5.994 2.555-9.156.252-3.937-.258-8.04-1.703-11.71-1.644-4.177-4.396-7.996-7.665-11.072-1.995-1.877-4.45-3.33-7.027-4.259-1.822-.657-3.832-.568-5.748-.852" stroke="#55A" stroke-width="2.5" stroke-linecap="round" stroke-linejoin="round"/><path d="M103.872 410.41c.425-2.272 1.41-4.507 1.277-6.814-.179-3.116-1.182-6.255-2.768-8.943-1.3-2.205-3.217-4.08-5.323-5.536-1.334-.922-2.98-1.277-4.471-1.916M197.556 443.412c3.194-4.33 7.086-8.222 9.582-12.988 2.749-5.25 3.832-11.214 5.749-16.821M196.492 436.811c2.058-3.194 4.57-6.137 6.174-9.581 1.726-3.703 2.414-7.807 3.62-11.71M195.001 429.36c1.065-1.775 2.357-3.432 3.194-5.324.697-1.577.994-2.753 1.49-4.953M209.274 414.49c-6.61-3.735-14.673-7.614-22.577-9.83-6.552-1.837-13.425-2.554-20.227-2.768-7.753-.243-15.557.425-23.208 1.704-5.213.871-10.418 2.097-15.33 4.045-4.429 1.756-8.375 4.543-12.563 6.814" stroke="#55A" stroke-width="2.5" stroke-linecap="round" stroke-linejoin="round"/><path d="M219.913 409.558c-5.82-3.336-11.31-7.327-17.46-10.008-6.132-2.673-12.627-4.532-19.162-5.962-6.153-1.345-12.44-2.327-18.737-2.432-6.987-.116-13.977.842-20.866 2.007-5.619.949-11.176 2.327-16.608 4.045-3.707 1.173-7.24 2.84-10.86 4.259" stroke="#000" stroke-width="2.5" stroke-linecap="round" stroke-linejoin="round"/><path d="M225.449 406.364c-5.04-2.981-9.864-6.358-15.117-8.943-5.144-2.531-10.484-4.72-15.97-6.388-6.525-1.983-13.242-3.445-20.014-4.258-7.19-.864-14.494-1.152-21.718-.639-5.82.413-11.582 1.584-17.246 2.981-7.17 1.769-14.053 4.542-21.08 6.814" stroke="#000" stroke-width="2.5" stroke-linecap="round" stroke-linejoin="round"/><path d="M232.688 403.383c-5.678-3.336-11.085-7.183-17.033-10.007-6.634-3.15-13.597-5.635-20.654-7.666-7.036-2.024-14.237-3.587-21.505-4.47-5.71-.695-11.501-.946-17.246-.64-6.445.344-12.876 1.311-19.163 2.768-4.504 1.044-8.854 2.682-13.2 4.259-3.743 1.357-7.382 2.98-11.073 4.471" stroke="#000" stroke-width="2.5" stroke-linecap="round" stroke-linejoin="round"/><path d="M259.303 388.691c-6.742-4.755-13.168-9.994-20.227-14.265-7.849-4.75-15.918-9.286-24.486-12.563-7.676-2.935-15.77-4.735-23.847-6.254-7.654-1.44-15.43-2.306-23.208-2.688-8.295-.408-16.678-.66-24.912.426-8.123 1.07-16.028 3.513-23.847 5.961-7.46 2.336-14.85 4.992-21.93 8.304-4.06 1.9-7.808 4.4-11.711 6.6" stroke="#000" stroke-width="2.5" stroke-linecap="round" stroke-linejoin="round"/><path fill="#000" fill-rule="nonzero" d="M233.77 403.95l12.68-6.588-7.25-5.25-7.18 10.087zM222.531 396.455l6.669-11.843-13.25-6.25-5.75 11.25zM197.95 385.862l3.918-12.093-13.5-4.25-3.418 12.936zM172.7 380.112l1-12.593-14.424-.505.674 13.598zM147.2 380.362l-1.163-12.843-14.087 2.75 2.907 13.18zM122.537 387.542l-5.293-13.397-12.03 4.57 2.986 7.397 4.5 6.25zM247.45 381.362l-8 10.5-10.25-7 6.418-12.093z"/><path fill="#000" fill-rule="nonzero" d="M222.205 365.182l-5.76 13.523-14.344-4.593 4.349-14zM191.281 355.753l-2.831 13.61-14.843-1.92 1.169-13.674zM159.45 353.362l.25 14.5h-14l-1.5-13.5 15.5-2zM128.95 357.612l3.174 12.924-14.767 4.337-4.337-12.848 15.68-5.413zM100.2 367.362l5.25 11.75-3 1-15.75-7z"/><path stroke="#000" stroke-width="2.5" stroke-linecap="round" stroke-linejoin="round" d="M251.537 392.432l-.337-4.57-5.582.989 1.082 5.011zM233.45 396.112l-4.75 1.25-.587-4.843 4.837-1.75zM229.45 376.862l-5.25 2.5-1.25-4.75 4-2.25zM209.45 383.612l-5 1.75-1.424-4.843 4.674-2.157zM200.45 366.112l-2.75-4.75-4 3.25 3 4.5zM183.386 375.397l-3.989 3.25-2.976-3.035 4-4zM170.7 360.938l-3.75 3.674-3-4.75 3.75-2.25zM156.735 373.534l-3.175 3.75-3.331-3.407 3-3zM141.287 362.607l-3.587 4.005-3.75-3 2.564-4.668zM130.2 377.612l-2.5 4.5-4.25-1.75 2-4.75zM112.7 369.612l-2.25 4.75-4.75-2.5 2-4.25z"/><path d="M263.95 385.112c-7.667-5.666-14.266-11.267-22-16-5.5-3.365-11.337-6.18-17.25-8.75-6.673-2.9-13.498-5.522-20.5-7.5-6.873-1.94-13.935-3.208-21-4.25-7.15-1.054-14.361-1.941-21.588-2.014-9.03-.092-18.137.339-27.018 1.97-9.203 1.691-18.132 4.76-26.894 8.044-8.723 3.269-17.275 7.392-25.442 11.559M210.7 410.112a1 1 0 112 0 1 1 0 01-2 0zM203.95 406.362a1 1 0 112 0 1 1 0 01-2 0zM197.45 403.362a1 1 0 112 0 1 1 0 01-2 0zM190.95 401.612a1 1 0 112 0 1 1 0 01-2 0zM183.45 399.362a1 1 0 112 0 1 1 0 01-2 0zM176.7 397.612a1 1 0 112 0 1 1 0 01-2 0zM169.45 397.112a1 1 0 112 0 1 1 0 01-2 0zM162.15 396.425a1 1 0 112 0 1 1 0 01-2 0zM155.263 396.788a1 1 0 112 0 1 1 0 01-2 0zM147.95 398.112a1 1 0 112 0 1 1 0 01-2 0zM140.45 399.112a1 1 0 112 0 1 1 0 01-2 0zM133.475 400.95a1 1 0 112 0 1 1 0 01-2 0zM127.2 402.612a1 1 0 112 0 1 1 0 01-2 0zM121.95 405.112a1 1 0 112 0 1 1 0 01-2 0zM116.45 406.862a1 1 0 112 0 1 1 0 01-2 0z" stroke="#000" stroke-width="2.5" stroke-linecap="round" stroke-linejoin="round"/><g stroke="#55A" stroke-linecap="round" stroke-linejoin="round" stroke-width="2"><path d="M46.38 335.095s1.37-.53 2.056-.392c.626.125 1.224.548 1.606 1.055.374.498.554 1.8.554 1.8M43.965 336.814s-3.379.848-4.591-.083c-1.276-.98-1.635-3.06-1.301-4.622.506-2.376 3.06-3.796 4.673-5.61.981-1.104 1.78-2.516 3.042-3.206 1.236-.675 2.837-1.304 4.073-.715.965.46 1.543 1.743 1.68 2.877.122 1.013-.044 2.366-.832 2.972-1.058.814-2.675.37-3.832-.18-.618-.294-1.121-.896-1.414-1.55-.3-.672-.26-2.24-.26-2.24"/><path d="M37.417 332.515s-2.128-.93-2.77-1.827c-.647-.902-.982-2.12-.833-3.215.241-1.782 1.53-3.306 2.695-4.683a18.238 18.238 0 014.897-4.03c1.347-.76 2.827-1.368 4.334-1.503 1.127-.1 2.656-.423 3.343.534.587.816.27 2.255-.288 3.112-.421.647-1.264.863-1.978 1.023-.97.217-2.188.53-2.956-.127-.688-.59-.7-2.755-.7-2.755"/><path d="M35.162 323.422s-2.581-2.097-2.649-3.573c-.045-.998.864-1.843 1.563-2.561 1.781-1.831 4.151-3.03 6.438-4.183 1.406-.71 2.852-1.766 4.427-1.658.737.05 1.632.39 1.948 1.053.29.61-.044 1.403-.387 1.985-.641 1.09-1.643 2.597-2.909 2.452-.793-.09-1.173-1.157-1.427-1.907-.265-.78-.027-2.466-.027-2.466M32.916 316.578s-.995-1.738-.91-2.675c.136-1.527 1.156-2.931 2.235-4.027 1.4-1.422 3.275-2.433 5.195-3 1-.294 2.327-.824 3.125-.158.983.82 1.054 2.66.465 3.793-.508.977-1.825 1.738-2.921 1.574-.827-.123-1.36-1.047-1.754-1.779-.396-.737-.515-2.454-.515-2.454"/><path d="M40.804 306.32s.687-1.161 1.163-1.606c.447-.419.999-.694 1.54-.953 1.073-.515 2.202-.888 3.35-1.178 3.546-.897 7.18-1.774 10.837-1.72 2.632.04 5.608-.05 7.756 1.47 1.867 1.32 3.05 3.678 3.448 5.93.686 3.886-.797 7.925-2.087 11.656-1.09 3.15-2.749 6.124-4.699 8.827-1.686 2.337-3.727 4.44-5.96 6.262-1.69 1.38-3.525 2.661-5.552 3.47-1.157.463-2.472 1.115-3.663.748-.965-.297-2.054-1.164-2.114-2.172-.127-2.141 2.44-3.548 3.91-5.11.845-.899 1.822-1.666 2.795-2.424 1.056-.822 2.294-2.18 3.29-2.295.653-2.215-.795-1.692-.886-6.08-.085-4.108 1.546-6.802 3.38-8.991"/></g><path d="M110.472 423.184c1.561-4.116 4.184-7.975 4.684-12.349.659-5.764-.187-11.86-2.342-17.246-1.53-3.823-4.32-7.105-7.24-10.008-2.597-2.582-5.62-4.844-8.942-6.387-3.387-1.574-7.239-1.846-10.859-2.768" stroke="#55A" stroke-width="2.5" stroke-linecap="round" stroke-linejoin="round"/><path d="M190.743 421.055c29.428-8.653 51.29-20.05 74.05-35.631 3.961-2.711 7.916-5.438 11.73-8.35 17.943-13.697 35.226-27.201 52.427-42.862" stroke="#55A" stroke-width="2" stroke-linecap="round" stroke-linejoin="round"/><path fill="#000" fill-rule="nonzero" d="M152.465 510.112l-70.598-141.39-18.118 8.435 76.534 132.955z"/><path d="M298.492 195.627l-3.889 4.95-5.657-2.828 4.243-5.304-5.657-3.889-9.192 13.082 10.96 6.717-5.657 10.96-5.657-1.767 2.475-5.304-6.364-2.475-4.596 15.203 12.374 3.536-3.535 16.263h-6.364l1.767-9.9-6.01-1.06-2.121 17.678h10.96v16.263h-6.01l.353-8.485-6.718.707-1.06 15.556 11.314 1.768-1.061 16.264-7.071-1.061.707-7.778-6.364-1.061-3.89 15.203 12.375 5.303-8.131 15.203-5.657-2.829 3.182-7.07-6.01-1.768-6.718 10.253 9.192 8.839-10.96 12.374-5.657-4.596 5.657-4.596-4.596-5.657-11.314 10.253 8.132 11.667-5.024 2.371m-7.487-4.13l2.202-.881-3.523-5.285-6.165 3.376" stroke="#5456AA" stroke-width="2" stroke-linecap="round" stroke-linejoin="round"/><path d="M210.104 338.816c6.953-4.596 14.468-8.438 20.86-13.788 5.24-4.388 10.273-9.215 14.142-14.85 2.805-4.085 4.685-8.772 6.364-13.434 2.43-6.75 4.25-13.763 5.303-20.86.761-5.135.249-10.386.707-15.556.556-6.276 1.662-12.491 2.475-18.739.598-4.595.881-9.24 1.768-13.788.885-4.546 2.035-9.054 3.535-13.435 1.95-5.696 4.28-11.284 7.071-16.617 1.744-3.332 3.615-6.648 6.01-9.546 1.542-1.864 3.536-3.3 5.304-4.95" stroke="#5456AA" stroke-width="2" stroke-linecap="round" stroke-linejoin="round"/><g fill-rule="nonzero"><path fill="#FFFF57" d="M295.31 339.877l.354 6.364-6.364-.354-3.536 6.01-4.596-6.363h-6.364l.707-6.364-5.303-3.182 6.01-4.596-.353-5.657 4.95.707 4.242-6.364 4.95 7.425 4.596-1.768v6.01l6.718 3.89z"/><path stroke="#000" stroke-width="2" fill="#F55" stroke-linecap="round" stroke-linejoin="round" d="M290.86 336.318l-5.406 5.077-5.12-5.52 5.18-4.897z"/></g><path d="M199.308 336.841s8.084-1.71 11.856-3.328c4.663-2 8.932-4.86 13.082-7.778 2.123-1.493 4.152-3.138 6.01-4.95 1.675-1.633 4.597-5.303 4.597-5.303s-2.873-3.146-4.246-4.773c-1.703-2.019-3.475-3.995-4.947-6.187-1.109-1.653-2.903-5.217-2.903-5.217s-6.611 1.672-9.971 1.535c-3.34-.137-6.546-1.389-9.753-2.329-5.15-1.509-15.203-5.303-15.203-5.303l11.478 43.633zM250.059 285.455s-3.43-4.142-4.213-6.645c-.702-2.242-.896-4.77-.294-7.042.502-1.893 1.84-3.497 3.122-4.98 1.104-1.275 3.856-3.278 3.856-3.278s-.795 6.88-1.189 10.422c-.427 3.841-.046 7.682-1.282 11.523z" fill="#F55" fill-rule="nonzero"/><path d="M245.46 295.33s-1.198 4.043-2.476 5.656c-1.097 1.386-2.492 2.931-4.242 3.182-.997.143-2.255-.233-2.829-1.06-.47-.679-.227-1.682 0-2.475.307-1.07 1.016-2.01 1.768-2.829.797-.868 1.856-1.455 2.828-2.121.917-.629 2.829-1.768 2.829-1.768l2.121 1.414z" fill="#FFF" fill-rule="nonzero"/><path d="M249.733 285.145l-1.799 6.649s-2.553-3.42-3.535-5.304c-1.346-2.58-2.678-5.265-3.182-8.131-.517-2.936-.459-6.038.221-8.941.476-2.034 1.506-3.93 2.643-5.683 1.128-1.74 2.441-3.424 4.078-4.696 1.526-1.185 5.18-2.6 5.18-2.6l-1.162 7.07s-3.768 3.195-4.95 5.304c-1.077 1.92-1.687 4.164-1.768 6.364-.066 1.801.358 3.643 1.06 5.303.737 1.739 3.214 4.665 3.214 4.665z" fill="#FF5" fill-rule="nonzero"/><path d="M220.819 295.127s-6.707.687-10.008.202c-3.798-.558-7.327-2.296-10.96-3.535-2.964-1.011-5.982-1.901-8.84-3.182-4.282-1.92-8.354-4.294-12.373-6.718-2.911-1.755-5.607-3.848-8.486-5.657-2.55-1.601-5.107-3.205-7.778-4.596-2.526-1.315-5.028-2.794-7.778-3.535-2.287-.616-4.705-.59-7.071-.707-2.167-.108-6.508 0-6.508 0l-.265-9.37 4.298 4.42 1.06-3.89 7.779 6.365 1.414-3.536 8.132 8.132 2.121-3.89 7.778 9.9 2.987-3.615 6.913 7.858 2.121-3.182 8.132 8.485 1.414-3.182 9.9 7.071.707-3.182 9.192 5.304-.354-2.829 5.116 1.494 1.357 5.375z" stroke="#000" fill="#000" fill-rule="nonzero" stroke-linecap="round" stroke-linejoin="round"/><path fill="#F55" fill-rule="nonzero" d="M124.312 345.534l-5.17-.66.28 6.506 4.536-2.134z"/><path d="M267.38 350.484c.133 2.317 3.92 4.315 2.828 6.364-1.434 2.69-7.285 4.092-9.01 1.578-.81-1.18 2.084-2.256 2.214-3.682.115-1.26-1.336-3.553-1.336-3.553h-12.02l1.06-3.89h11.314s1.448-1.375 1.5-2.285c.073-1.296-2.663-2.544-1.758-3.475 1.792-1.842 5.942.933 6.975 3.286.795 1.809-1.881 3.684-1.768 5.657h0zM319.705 334.574s-5.5-.227-7.07-2.122c-1.438-1.733-.708-6.717-.708-6.717s-2.706 2.496-4.242 2.121c-1.558-.38-2.866-2.286-2.829-3.889.035-1.509 1.444-2.934 2.829-3.535 1.409-.612 4.596.353 4.596.353s-2.099-5.812-4.637-6.976c-2.362-1.084-5.382-.133-7.738.966-2.04.951-2.756 4.086-4.95 4.596-1.198.279-3.033.063-3.535-1.06-.902-2.023 2.587-3.81 2.829-6.011.234-2.134.127-4.79-1.415-6.284-.948-.918-2.578-.901-3.889-.747-.854.1-2.351 1.06-2.351 1.06s1.671 3.874.583 5.264c-1.098 1.404-3.79 1.652-5.303.707-1.58-.987-2.196-3.49-1.768-5.303.3-1.273 2.774-2.774 2.774-2.774l-1.36-7.48s3.283 2.738 5.25 3.467c1.957.726 4.244.096 6.214.79 1.902.67 3.886 1.6 5.154 3.168 1.335 1.653 2.12 6.01 2.12 6.01s4.644-2.524 7.072-2.12c3 .497 5.513 2.937 7.425 5.302 1.312 1.626 2.19 3.685 2.489 5.752.302 2.084-.647 4.167-.762 6.27-.064 1.176-.265 2.396.04 3.535.56 2.09 3.182 5.657 3.182 5.657h0zM322.887 260.681s-3.956.462-5.303-.707c-1.715-1.488-1.844-6.557-1.844-6.557s-1.346 3.537-2.913 3.742c-1.405.184-3.313-1.154-3.388-2.569-.096-1.797 3.93-3.7 3.93-3.7s-2.306-3.411-5.581.88c-.912 1.195-1.407 2.69-1.764 4.15-.377 1.544-.367 4.757-.367 4.757l-4.605-.085s1.115-3.689.976-5.568c-.11-1.486-.346-3.203-1.415-4.242-.933-.908-3.737-1.133-3.737-1.133s.472 1.51.202 2.193c-.521 1.32-1.763 2.802-3.182 2.829-1.264.023-2.614-1.188-2.927-2.413-.257-1.006.47-2.114 1.16-2.89.269-.305 1.069-.587 1.069-.587s-2.649-1.7-3.545-2.95c-.962-1.341-1.781-4.622-1.781-4.622s4.244 3.051 6.731 3.562c1.415.29 2.911-.679 4.319-.353a8.163 8.163 0 014.166 2.474c.771.868 1.415 3.182 1.415 3.182s2.486-3.196 4.247-4.05c1.5-.726 3.32-1.047 4.95-.702 1.627.345 3.143 1.387 4.233 2.645.757.873 1.022 2.08 1.4 3.173.319.918.544 1.869.726 2.824.177.933.032 1.934.353 2.828.52 1.446 2.475 3.89 2.475 3.89h0z" stroke="#FF5" stroke-width="2" fill="#000" fill-rule="nonzero" stroke-linecap="round" stroke-linejoin="round"/><path d="M273.743 377.354c-5.067-4.125-9.875-8.59-15.202-12.375-6.864-4.875-14.145-9.16-21.506-13.245a186.36 186.36 0 00-14.592-7.253c-3.979-1.773-8.02-3.429-12.15-4.811-3.54-1.185-7.197-1.983-10.796-2.975M187.459 347.698l-14.478-8.882M186.95 341.112l-13-8M186.2 332.362l-12.25-6.25M184.45 324.862l-11.75-6.5M182.95 318.112l-10.25-6.5M181.45 310.112l-9.5-6M180.2 302.612l-7.75-4M179.2 295.112l-7.25-4.5M146.57 342.78l12.728-8.132M147.33 335.944l11-7M148.33 327.444l10-5.5M147.83 320.194l11.25-6M148.33 313.444l10.75-5.75M148.83 306.444l11.5-6.5M150.08 299.694l9.75-5.25M151.08 292.194l9.25-5.75M171.45 283.612l6.799 4.866M152.7 283.362l6.75-3.25M158.95 277.32l-5.53-2.147" stroke="#5456AA" stroke-width="2" stroke-linecap="round" stroke-linejoin="round"/><g stroke="#5456AA" stroke-linecap="round" stroke-linejoin="round" stroke-width="2"><path d="M56.45 406.112c.833 2.167 3.279 4.313 2.5 6.5-.902 2.532-4.319 4.184-7 4-2.727-.186-5.409-2.494-6.5-5-1.07-2.455-.131-4.631.75-8-3.01 1.847-4.26 2.296-6.25 1.5-3.134-1.253-5.716-5.132-5.5-8.5.181-2.832 2.737-5.848 5.5-6.5 2.47-.583 4.666 2 7 3-.5-3-2.631-6.177-1.5-9 .93-2.32 3.5-4.515 6-4.5 2.733.017 5.499 2.457 6.5 5 1.114 2.83-1 6-1.5 9 1.833-1.333 3.243-4.214 5.5-4 3.639.345 7.257 4.353 7.5 8 .19 2.861-2.583 5.458-5 7-2.287 1.46-5.334 1-8 1.5z" fill="#FF5" fill-rule="nonzero"/><path fill="#55A" fill-rule="nonzero" d="M62.45 405.112l3.5 8.5-6-1.5-3-5.5zM46.95 406.112l-2.5 5.5-6.5 1 2.5-6.5zM45.45 391.112l-.5-6-5-.5 1 5.5zM61.45 391.112l2-7-4.5 1.5-2.5 8.5z"/><path fill="#FF5" fill-rule="nonzero" d="M53.95 379.612l-1.5-40.5-3.5 2 1.5 38.25zM47.45 348.612c-.333 5.514-1.019 11.197-3.25 16.25-2.216 5.016-6.25 9.417-9.75 13.25-.167-5.5-.254-11.583.75-17.25.625-3.53 1.388-7.187 3.25-10.25 2.081-3.424 5.666-5.666 8.5-8.5.166 2.167.63 4.331.5 6.5z"/><path d="M38.45 368.612c.833-3.833 1.324-7.757 2.5-11.5 1.299-4.134 5-12 5-12h0"/><path d="M71.45 367.612c-4.834-3.833-11.176-6.303-14.5-11.5-3.05-4.767-2.667-11-4-16.5 3.833 3.834 8.007 7.354 11.5 11.5 2.234 2.653 4.747 5.266 6 8.5.97 2.506.666 5.334 1 8z" fill="#FF5" fill-rule="nonzero"/><path d="M66.45 358.612c-2.5-2.333-5.378-4.318-7.5-7-2.502-3.16-4-7-6-10.5"/><path fill="#F55" fill-rule="nonzero" d="M61.95 398.612l-11 10.5-9.25-10.75 9.75-10z"/><path fill="#FF5" fill-rule="nonzero" d="M55.95 398.612l-4.5 4.5-4.5-4.5 4-4.75z"/></g><g fill-rule="nonzero"><path fill="#FFFF57" d="M317.496 286.501l.353 6.364-6.364-.353-3.535 6.01-4.596-6.364h-6.364l.707-6.364-5.304-3.182 6.01-4.596-.353-5.657 4.95.707 4.243-6.364 4.95 7.425 4.596-1.768v6.01l6.717 3.89z"/><path stroke="#000" stroke-width="2" fill="#F55" stroke-linecap="round" stroke-linejoin="round" d="M313.045 282.942l-5.406 5.077-5.12-5.52 5.18-4.897z"/></g><path d="M241.853 290.421s-2.24 3.573-3.904 4.784c-1.43 1.04-3.189 2.154-4.942 1.925-.998-.13-2.11-.83-2.44-1.782-.27-.78.234-1.68.666-2.384.582-.947 1.518-1.662 2.463-2.249 1-.622 2.179-.902 3.294-1.283 1.052-.36 3.2-.943 3.2-.943l1.663 1.932zM239.012 285.328s-3.144 2.81-5.08 3.51c-1.661.602-3.66 1.183-5.281.476-.923-.403-1.796-1.384-1.848-2.39-.043-.823.69-1.55 1.301-2.105.823-.747 1.92-1.175 2.991-1.476 1.135-.319 2.344-.261 3.521-.317 1.11-.053 3.336-.016 3.336-.016l1.06 2.318zM236.357 279.535s-3.937 1.509-5.995 1.476c-1.768-.029-3.843-.197-5.106-1.433-.72-.705-1.187-1.932-.878-2.89.252-.786 1.196-1.204 1.964-1.506 1.035-.406 2.213-.415 3.32-.316 1.174.105 2.285.589 3.405.955 1.056.346 3.123 1.17 3.123 1.17l.167 2.544zM236.408 273.726s-4.186.507-6.174-.026c-1.708-.457-3.68-1.124-4.605-2.63-.527-.859-.68-2.163-.149-3.018.436-.7 1.453-.876 2.272-.982 1.102-.143 2.247.134 3.297.5 1.113.387 2.073 1.126 3.07 1.754.941.592 2.745 1.894 2.745 1.894l-.456 2.508zM252.55 253.995s.614-4.172.133-6.173c-.412-1.719-1.028-3.708-2.51-4.671-.845-.549-2.144-.737-3.013-.227-.711.417-.913 1.43-1.04 2.245-.172 1.099.076 2.25.414 3.31.358 1.122 1.072 2.1 1.674 3.114.567.956 1.822 2.793 1.822 2.793l2.52-.39zM247.588 256.778s-.53-4.184-1.53-5.982c-.86-1.545-1.988-3.295-3.674-3.825-.96-.301-2.263-.133-2.963.591-.573.593-.495 1.623-.399 2.443.13 1.104.678 2.147 1.289 3.076.646.985 1.597 1.735 2.449 2.55.803.768 2.506 2.2 2.506 2.2l2.322-1.053zM243.142 260.358s-1.67-3.872-3.132-5.321c-1.255-1.245-2.825-2.613-4.592-2.653-1.007-.023-2.211.5-2.682 1.39-.385.73-.025 1.697.295 2.458.432 1.024 1.249 1.874 2.093 2.597.895.766 2.017 1.223 3.062 1.768.985.515 3.019 1.418 3.019 1.418l1.937-1.657zM238.783 264.982s-2.939-3.025-4.82-3.86c-1.615-.717-3.569-1.438-5.235-.847-.949.336-1.888 1.253-2.012 2.253-.101.819.58 1.595 1.15 2.192.767.804 1.832 1.307 2.879 1.683 1.109.399 2.32.426 3.49.565 1.104.131 3.326.252 3.326.252l1.222-2.238z" fill="#FFF" fill-rule="nonzero"/><g fill-rule="nonzero"><path stroke="#000" stroke-width="2" fill="#FF5" stroke-linecap="round" stroke-linejoin="round" d="M172.627 345.534l-2.121-62.58-10.253-5.302-.707 67.175z"/><path d="M167.677 340.23h-2.828l-.354-3.181 2.975-.147.207 3.329zM167.29 333.276h-2.828l-.353-3.182 2.975-.146.207 3.328zM167.54 326.276h-2.828l-.353-3.182 2.975-.146.207 3.328zM167.79 320.026h-2.828l-.353-3.182 2.975-.146.207 3.328zM167.79 312.776h-2.828l-.353-3.182 2.975-.146.207 3.328zM168.04 306.776h-2.828l-.353-3.182 2.975-.146.207 3.328zM167.29 300.276h-2.828l-.353-3.182 2.975-.146.207 3.328zM167.29 294.276h-2.828l-.353-3.182 2.975-.146.207 3.328zM167.29 287.776h-2.828l-.353-3.182 2.975-.146.207 3.328z" fill="#000"/></g></g><path stroke="#55A" stroke-width="2" d="M30 150.362v360h270M60 30.362h270v360h0"/><path d="M29.5 99.362c0-5.523-2.858-9-7-9-4.142 0-7.5 4.477-7.5 10 .017.478.01.946 0 1.406 0 3.65 1.338 7.189 2.5 10.5 1.195 3.406 2.917 6.39 4.531 9.438 2.5 4.72 7.969 13.656 7.969 13.656s5.468-8.936 7.969-13.656c1.614-3.047 3.336-6.032 4.531-9.438 1.162-3.311 2.5-6.85 2.5-10.5-.014-.487-.01-.957 0-1.406 0-5.523-3.358-10-7.5-10-4.142 0-7 3.477-7 9 0 1-1 1-1 0zM89 63.362c0-11.046-5.716-18-14-18-8.284 0-15 8.954-15 20 .035.956.018 1.891 0 2.813 0 7.298 2.677 14.377 5 21 2.389 6.81 5.834 12.78 9.063 18.875 5 9.44 15.937 27.312 15.937 27.312s10.936-17.873 15.938-27.312c3.228-6.095 6.673-12.064 9.062-18.875 2.323-6.623 5-13.702 5-21a56.086 56.086 0 010-2.813c0-11.046-6.716-20-15-20-8.284 0-14 6.954-14 18 0 2-2 2-2 0zM330.5 441.362c0 5.523 2.858 9 7 9 4.142 0 7.5-4.477 7.5-10a24.972 24.972 0 010-1.406c0-3.65-1.338-7.188-2.5-10.5-1.195-3.406-2.917-6.39-4.531-9.438-2.5-4.72-7.969-13.656-7.969-13.656s-5.468 8.937-7.969 13.656c-1.614 3.048-3.336 6.032-4.531 9.438-1.162 3.312-2.5 6.85-2.5 10.5.014.487.009.957 0 1.406 0 5.523 3.358 10 7.5 10 4.142 0 7-3.477 7-9 0-1 1-1 1 0zM271 477.362c0 11.046 5.716 18 14 18 8.284 0 15-8.954 15-20a49.662 49.662 0 010-2.812c0-7.299-2.677-14.377-5-21-2.389-6.811-5.834-12.781-9.063-18.875-5-9.44-15.937-27.313-15.937-27.313s-10.936 17.873-15.938 27.313c-3.228 6.094-6.673 12.064-9.062 18.875-2.323 6.623-5 13.701-5 21 .028.974.019 1.914 0 2.812 0 11.046 6.716 20 15 20 8.284 0 14-6.954 14-18 0-2 2-2 2 0z" fill="#F55" fill-rule="nonzero"/></g></svg>